<?xml version="1.0" encoding="UTF-8"?>
<svg version="1.1" viewBox="0 0 1613.6 336.53" xmlns="http://www.w3.org/2000/svg" xmlns:xlink="http://www.w3.org/1999/xlink">
 <defs>
  <style>.cls-1{fill:#ffe04f;}.cls-2{opacity:0.62;}.cls-3{fill:#a40000;}.cls-4{fill:url(#linear-gradient);}.cls-5{fill:#872604;}.cls-6{fill:#ffe14f;}.cls-7{fill:#e26e42;}.cls-8{fill:url(#linear-gradient-2);}.cls-9{fill:url(#linear-gradient-3);}.cls-10{fill:url(#linear-gradient-4);}.cls-11{fill:#f2d54b;}</style>
  <linearGradient id="linear-gradient" x1="-4.86" x2="158.67" y1="254.79" y2="418.32" gradientUnits="userSpaceOnUse">
   <stop stop-color="#ca4600" offset="0"/>
   <stop stop-color="#c74401" offset=".21"/>
   <stop stop-color="#bc3d03" offset=".39"/>
   <stop stop-color="#ab3107" offset=".56"/>
   <stop stop-color="#93200d" offset=".72"/>
   <stop stop-color="#891a0f" offset=".77"/>
  </linearGradient>
  <linearGradient id="linear-gradient-2" x1="113.7" x2="287.08" y1="250.8" y2="424.18" xlink:href="#linear-gradient"/>
  <linearGradient id="linear-gradient-3" x1="423.37" x2="586.91" y1="255.13" y2="418.66" xlink:href="#linear-gradient"/>
  <linearGradient id="linear-gradient-4" x1="275.94" x2="449.31" y1="251.15" y2="424.52" xlink:href="#linear-gradient"/>
  <linearGradient id="linearGradient11309" x1="-4.86" x2="158.67" y1="254.79" y2="418.32" gradientUnits="userSpaceOnUse" xlink:href="#linear-gradient"/>
 </defs>
 <title>logo</title>
 <g transform="translate(-14.303 -171.76)" data-name="Layer 1">
  <g id="logo">
   <g id="macau">
    <path class="cls-1" d="m728.46 483.52-4.07 17.65 7.13-17.43-0.67-3.23zm10.41-12-2.38 3 0.4 1.93 2.39-3zm33.57-18.72 7.14-17.43-0.68-3.23-2.38 3zm18.2-54.8q5.88-13.67 9.66-22.38t6-14c1.49-3.51 2.66-6.17 3.51-8s1.51-3.26 2-4.41a36.44 36.44 0 0 0 1.22-3.45q0.5-1.71 1.55-4.95 2-6 4.16-15.7t3.73-20.34q1.53-10.61 2.16-20.77a66.09 66.09 0 0 0-0.85-17q-1.11-5.37-3.55-7.74l-0.13-0.65c-0.33-1.57-1.56-2.83-3.69-3.76s-5.49-1.4-10.09-1.4c-1.58 0-3.39 0.07-5.44 0.21s-4.27 0.36-6.65 0.65q-1.89 0.21-7.75 3.12t-14.42 7.75q-8.58 4.83-19.18 11.29t-21.78 13.81q-11.19 7.32-22.25 15.18t-20.76 15.6q-9.69 7.74-17.15 14.84a76.6 76.6 0 0 0-11.37 13.1c-0.29 0-0.66 0.29-1.11 0.86s-0.83 0.86-1.11 0.86a0.24 0.24 0 0 1-0.26-0.21l1.69-4.31c-0.46-2.86-0.94-5.55-1.47-8.07s-1-4.84-1.45-7c-0.75-3.58-1.51-6.89-2.28-9.9s-1.57-6-2.42-9-1.82-6.16-2.94-9.46-2.32-7-3.62-11.19q-1.71-5.18-3.8-10.55a94.59 94.59 0 0 0-4.89-10.54 71.85 71.85 0 0 0-6.19-9.58 37.72 37.72 0 0 0-7.47-7.42 55.38 55.38 0 0 0-12.25-6.67q-6.19-2.37-9-2.37-4.53 0-5.85 6-1.53 4.08-3.58 10.75t-4.09 13.45q-2 6.78-3.47 12.27c-1 3.66-1.63 6-2 7q-6.46 21.74-10.74 35.29t-7.15 22.06q-2.85 8.5-4.53 13.88a97 97 0 0 0-2.76 11.08q-1.07 5.7-2.09 13.24t-2.63 20.44q-1 8.61 0 13.56c0.66 3.15 1.67 5.27 3 6.34a7 7 0 0 0 4.43 1.62 3.21 3.21 0 0 0 1.46-0.22 11.93 11.93 0 0 0-1.53 8.18 10.37 10.37 0 0 0 4 6.67 12.34 12.34 0 0 0 7.34 2.15 10.12 10.12 0 0 0 2.52-0.32 4.89 4.89 0 0 0 2.12-1.18q-1.18 2.58-2 4.41c-0.54 1.21-0.5 3.26 0.09 6.13a2.08 2.08 0 0 0 2.13 1.94q2.14 0 4-2.91a40.34 40.34 0 0 0 3.56-7.21q1.69-4.29 3.27-9.14a63.15 63.15 0 0 1 3.39-8.5q3.67-10.33 8.13-23 3.78-10.76 8.75-25.17t10.59-31.26q1.2 4.74 2.3 10t2.35 11.3c0.18 0.86 0.34 1.83 0.49 2.9s0.35 2.19 0.59 3.34a37.17 37.17 0 0 0 1.92 6.13 38.93 38.93 0 0 0 4.39 7.64 72.28 72.28 0 0 0 8.32 9.47 152.85 152.85 0 0 0 13.72 11.62q5.07 3.66 9.75 7.53t8.77 3.87a4.53 4.53 0 0 0 3-1.07 182.53 182.53 0 0 0 18.71-15.07q10.25-9.24 21.11-20.65t22-24.21q11.12-12.81 21.56-25.72-3.45 9.25-7.29 19.8l-7.68 21.12q-3.82 10.55-7.09 20.76t-5.68 18.74a148.22 148.22 0 0 0-3.56 15q-1.14 6.45-0.51 9.47a10.29 10.29 0 0 1-1.4 7.75l-0.77 0.43-2.39 3 1.71-1.08 3-4.09a14.18 14.18 0 0 1-1.45 4.42 6.37 6.37 0 0 0-1 2.47c0.09 0.43 0.2 0.65 0.35 0.65 0.43 0 1-0.54 1.81-1.62s1.68-2.3 2.69-3.66a31.78 31.78 0 0 1 3.11-3.65 4.68 4.68 0 0 1 3.32-1.62 183.29 183.29 0 0 0-8.47 17.75c-1.43 3.8-2 6.21-1.83 7.21a1 1 0 0 0 1 0.86 9.92 9.92 0 0 0-1.52 4.09 36 36 0 0 1-1 4.52l-0.63 1.08h0.43l2.38-3a25.72 25.72 0 0 0 0.77-3.55 14.32 14.32 0 0 1 1-3.55 32.44 32.44 0 0 0 3.2-2.69 32.84 32.84 0 0 0 3.08-3.33 14.29 14.29 0 0 0 0 1.61 13.07 13.07 0 0 0 0.27 1.83 18.82 18.82 0 0 0 1 3.12c0.44 1.08 0.8 1.62 1.09 1.62s1.11-1.08 2-3.23 1.92-4.56 3-7.21 2.18-5.06 3.24-7.21 1.95-3.23 2.67-3.23a0.74 0.74 0 0 1 0.47 0.22 5.14 5.14 0 0 1 0 1 16.45 16.45 0 0 1-0.27 1.82l-2.38 3-1.57 3.87-1.15 1.72 3.33-3.66 1.69-4.3q-0.54 2.58-1.28 6.78c-0.49 2.8-1 5.59-1.59 8.39s-1 5.41-1.38 7.86a47.85 47.85 0 0 0-0.56 5.59l-2 3a4.91 4.91 0 0 0-0.58 3.45l2.39-3a5.69 5.69 0 0 1 0.06-2.79c0.12 0.57 0.25 0.86 0.4 0.86q0.86 0 2.62-3.45t3.93-8.5q2.17-5.06 4.5-11t4.28-11q2-5 4.45-11.72l-22.16 66.27 0.26 0.22q0.65 0 3-4.95t5.35-12.29q3-7.31 6.24-16t6.25-16q3-7.32 5-12.26t2.42-5l0.08 0.43q0.27 1.29-0.94 5.27c-0.82 2.66-1.92 5.77-3.33 9.36s-2.88 7.39-4.41 11.4-3 7.82-4.41 11.41-2.51 6.7-3.32 9.36-1.13 4.41-1 5.27v0.22a4.9 4.9 0 0 1 1.84-1.51 1.35 1.35 0 0 0 0.72-1.72 61.33 61.33 0 0 1 2.57-6.78 37.75 37.75 0 0 0 2.36-6.78q11.15-27.1 19.37-46.59t14.2-33.13zm-56.13 39c-0.28 1.44-0.6 2.8-1 4.09a21.3 21.3 0 0 0-0.76 4.09v-9.47c0-0.71 0.28-1.07 0.86-1.07a4.09 4.09 0 0 1 1.12 0.21 4.26 4.26 0 0 0 1.33 0.22zm2-1.93v-0.22l0.47-0.86c0.56-0.72 1-1.08 1.28-1.08zm4.92-9.47a6.89 6.89 0 0 0-1.79 1.72l-2.22 2.8c0.2-0.43 0.52-1.15 1-2.16s0.94-2 1.51-3.12 1-2 1.44-2.9a3.65 3.65 0 0 1 1-1.51zm7.36 21.41a57.74 57.74 0 0 0-0.29 6.35l-2.52 2.36a55.25 55.25 0 0 1 0.36-6 33.17 33.17 0 0 0 0.1-6.24l2.39-3a34.94 34.94 0 0 1-0.08 6.57zm6.81-12.8c-0.37 1.29-0.75 2.44-1.11 3.44s-0.72 1.36-1.07 1.07a10.08 10.08 0 0 1 0.71-3.33c0.42-1.08 0.87-2.19 1.35-3.34l1.43-3.44c-0.53 2.48-0.97 4.39-1.35 5.64zm40.11 43.25q3.57-4.51 5.6-7.21t3.77-5.17a13.23 13.23 0 0 0 1.7-2.69c-0.43 0-1.3 0.65-2.61 1.94s-2.69 2.76-4.14 4.41-2.77 3.23-4 4.74a15.36 15.36 0 0 0-1.91 2.69l-4.94 7.31 5.38-5.16h1.19c0.07 0 0.08-0.15 0-0.43zm-9.9-15.5c-0.29 0-0.8 0.47-1.54 1.4l-2.56 3.23q-1.44 1.83-2.77 3.77c-0.87 1.29-1.58 2.36-2.12 3.22s-1.15 1.9-1.83 3.12-1.26 2.37-1.76 3.45-1.09 2.33-1.8 3.76a8.07 8.07 0 0 0 5.08-3 52.17 52.17 0 0 0 3.94-5.38q1.67-2.37 4-6a9.58 9.58 0 0 0 1.6-7.32 0.24 0.24 0 0 0-0.28-0.21zm418.5 0c-0.28 0-0.79 0.47-1.53 1.4l-2.56 3.23q-1.46 1.83-2.77 3.77c-0.88 1.29-1.59 2.36-2.13 3.22s-1.14 1.9-1.82 3.12-1.27 2.37-1.76 3.45-1.1 2.33-1.8 3.76a8.07 8.07 0 0 0 5.08-3 53.59 53.59 0 0 0 3.93-5.38q1.66-2.37 4-6a9.57 9.57 0 0 0 1.59-7.32 0.24 0.24 0 0 0-0.27-0.21zm9.9 15.5q3.58-4.51 5.61-7.21c1.35-1.8 2.6-3.52 3.77-5.17a13.23 13.23 0 0 0 1.7-2.69c-0.43 0-1.3 0.65-2.61 1.94s-2.69 2.76-4.15 4.41-2.77 3.23-4 4.74a15.72 15.72 0 0 0-1.92 2.69l-4.93 7.31 5.38-5.16h1.18c0.08 0 0.08-0.15 0-0.43zm403.62-180.46a283.79 283.79 0 0 0-2.16-29.49q-1.65-12-2.9-18.07-0.27-1.29-0.6-2.37c-0.22-0.71-0.37-1.29-0.46-1.72l-0.32-1.51a4.39 4.39 0 0 1-0.76-1.61c-0.11-0.5-0.2-1-0.29-1.4a7.37 7.37 0 0 1-0.13-2.69c0.12-0.78 0.28-1.75 0.47-2.9l0.73-0.65 1.56-3.87-1.37 1.72-1.93 5.16a9.93 9.93 0 0 1 0-5.05 6.68 6.68 0 0 0 0.47-2.91c-0.09-0.43-0.28-0.64-0.56-0.64h-0.22c-0.4 0.14-0.82 0.89-1.25 2.26s-1 2.87-1.64 4.51-1.38 3.23-2.14 4.74a4.66 4.66 0 0 1-2.78 2.69q2.82-13.33 3.48-20t0.25-8.61c-0.2-1-0.67-1.51-1.39-1.51a20.5 20.5 0 0 0 0.18-4.84c-0.13-1.65-0.21-3.26-0.25-4.84l0.5-1.72-1.95 4.09c0 1.29 0 2.62 0.08 4s0.1 2.76 0.12 4.19c-0.8 1-1.61 2.12-2.43 3.34s-1.61 2.47-2.34 3.76l-0.18-0.86a12.34 12.34 0 0 0-2.1-3.87c-1.21-1.72-2-2.58-2.26-2.58s-0.54 1.5-0.87 4.09-0.66 5.45-1 8.6-0.79 6.07-1.31 8.72-1.13 4-1.82 4.2c-0.43 0-0.65 0-0.67-0.11s-0.07-0.32-0.16-0.76l-0.2-1a4.58 4.58 0 0 1 0.1-1.62l1.56-3.87 0.4-4.3 0.84-2.16-2.5 4.52-0.61 5.38c-0.3-2.15-0.6-4.95-0.88-8.39s-0.57-6.89-0.86-10.33-0.54-6.56-0.76-9.36-0.34-4.55-0.35-5.27l1.4-2.58a12.46 12.46 0 0 0 0-2.16 6.61 6.61 0 0 0-0.58-1.72l-1.56 3.88a1.79 1.79 0 0 0 0.24 0.64 1.85 1.85 0 0 1 0.24 0.65 11.91 11.91 0 0 1 0 2.15l-0.22-1.08q-0.42 2.16-1 7.1c-0.39 3.31-0.85 7-1.38 11s-1.06 8.18-1.6 12.48-1 8.25-1.52 11.83-0.9 6.53-1.28 8.83-0.65 3.44-0.79 3.44l-0.09-0.43 2.89-47.13a8.46 8.46 0 0 0-0.57-1.72l-0.79-1.72c-0.8 0.29-1.48 2.05-2 5.27s-1 6.78-1.45 10.65-0.8 7.4-1.14 10.55-0.72 4.81-1.12 4.95q-0.1 3.66-0.43 6.24c-0.1 1.58-0.2 3-0.29 4.3a6.79 6.79 0 0 1-0.18 1.72 1.24 1.24 0 0 0-0.19-0.43 1 1 0 0 1-0.2-0.43c-0.42-2-0.44-5.38-0.06-10.11s0.83-9.79 1.36-15.17 1-10.44 1.37-15.17 0.36-8.11-0.06-10.12l-0.27-1.29a4.41 4.41 0 0 1-1.19 2 1.84 1.84 0 0 0-0.59 1.83 1.08 1.08 0 0 0 0.35 0.64q-0.49 2.81-0.86 7.75t-0.65 7.75l-7.75 92.1a260 260 0 0 1-7.73 45.08 189.28 189.28 0 0 1-13.59 36.58q-8 15.6-17.72 24.53t-20.1 8.93q-10.55 0-15.95-5.27t-7.29-14.31a57.7 57.7 0 0 1-1-14.63 148.39 148.39 0 0 1 1.8-16.68 176.38 176.38 0 0 1 3.78-17.54q2.35-8.82 5.13-17.21 6.32-19.37 15.19-39.81a14.89 14.89 0 0 0 1.22-2.91c0.39-1.22 0.75-2.44 1.07-3.66s0.59-2.33 0.81-3.33a7.66 7.66 0 0 0 0.29-1.72 17.26 17.26 0 0 0 0.83-9.47 16.86 16.86 0 0 0-3-6.67 24.18 24.18 0 0 0-5-5.06 26.52 26.52 0 0 0-5.73-3.23 14.57 14.57 0 0 0-5.3-1.18q-3.45 0-4.29 2.15-4-10.11-8.35-10.11a4.13 4.13 0 0 0-3.41 2.26 20.64 20.64 0 0 0-2.42 5.91c-0.57-2-1.35-3-2.35-3s-1.74 0.65-2.61 1.94a37.61 37.61 0 0 0-2.62 4.52q-1.29 2.58-2.43 5.38t-1.86 4.52a346.3 346.3 0 0 0-16.94 40.67 299.57 299.57 0 0 0-10.32 37.87h-18.82l17.61-5.38-18.65-0.65q-1.71-9.24-3.91-20.33t-5.11-25.07c-0.26-1.29-0.87-3.51-1.81-6.67s-2.23-6.89-3.84-11.19-3.64-9-6.08-14.2a163.62 163.62 0 0 0-8.39-15.5 125.38 125.38 0 0 0-10.75-14.95 81.74 81.74 0 0 0-13.43-12.81c-3.38-2.43-6.63-5-9.75-7.53s-6-3.87-8.77-3.87a4.54 4.54 0 0 0-3 1.08q-1.65 2.37-5.44 8.5t-8.8 14.63q-5 8.5-10.81 18.4t-11.49 19.79q-5.68 9.9-11 18.94t-9.37 15.68q-1.15 0.64-4 5.06t-6.5 10.65q-3.66 6.24-7.58 13.23t-7.3 13q-3.39 6-7.75 14-0.85 1.08-4.15 6.45t-7.22 11.84q-3.93 6.45-7.42 11.94l-0.08 0.12c-0.55 0-1.09 0-1.59 0.1s-1.29 0.18-2 0.32l-42.31 12.91-48.69 11.19-2.24 0.65-9.12 0.64a81.26 81.26 0 0 1-13.72 1.29 44.9 44.9 0 0 1-15.35-2.36 32.63 32.63 0 0 1-11.19-6.68 35 35 0 0 1-7.59-10.11 50.61 50.61 0 0 1-4.36-12.7 104.29 104.29 0 0 1-0.72-41.2 90.47 90.47 0 0 1 14-34.65 76.44 76.44 0 0 1 25.94-23.78 70.84 70.84 0 0 1 35.3-8.82q10.13 0 15 0.32a69.28 69.28 0 0 1 7.26 0.76c1.57 0.29 2.73 0.53 3.5 0.75a15.43 15.43 0 0 0 3.72 0.32c1.29 0 2.61 0 4-0.11a17.12 17.12 0 0 0 4.73-1.07 40.69 40.69 0 0 0 6.26-3 102.23 102.23 0 0 0 8.61-5.71h6.85c1.15 0 1.6-0.57 1.37-1.72a5.84 5.84 0 0 0-3.39-3.87c1.8-0.29 2.94-0.68 3.41-1.18a2 2 0 0 0 0.48-1.83c-0.18-0.86-0.91-1.3-2.21-1.3a18.94 18.94 0 0 0-5.69 1.08 18.61 18.61 0 0 1-5.48 1.08q-1.08 0-1.35-1.29a1.46 1.46 0 0 1 0.53-1.62 12.18 12.18 0 0 1 1.62-1c0.59-0.28 1.14-0.57 1.66-0.86a1.09 1.09 0 0 0 0.59-1.29q-0.4-1.94-5-3.87a64.19 64.19 0 0 0-12.34-3.44q-7.74-1.52-18.38-2.48t-23.13-1a124.13 124.13 0 0 0-33.44 4.84 144.66 144.66 0 0 0-33.34 14.1 147.21 147.21 0 0 0-29.64 22.59 122.74 122.74 0 0 0-22.62 30.45 113.54 113.54 0 0 0-9 22.82l-15.73-0.55q-1.73-9.24-3.91-20.33t-5.11-25.07q-0.4-1.94-1.82-6.67c-1-3.15-2.22-6.89-3.84-11.19s-3.64-9-6.07-14.2a165.92 165.92 0 0 0-8.39-15.5 125.48 125.48 0 0 0-10.78-14.87 81.34 81.34 0 0 0-13.43-12.81c-3.38-2.43-6.62-5-9.74-7.53s-6-3.87-8.78-3.87a4.5 4.5 0 0 0-3 1.08q-1.67 2.37-5.45 8.5t-8.79 14.63q-5 8.5-10.81 18.4t-11.49 19.79q-5.68 9.9-11 18.94t-9.31 15.69c-0.77 0.43-2.11 2.12-4 5.06s-4.07 6.49-6.51 10.65-5 8.57-7.58 13.23-5.05 9-7.3 13-4.83 8.68-7.75 14q-0.85 1.08-4.14 6.45t-7.23 11.84q-3.93 6.45-7.41 11.94a54.31 54.31 0 0 1-4.56 6.56q-4.94 6.25-9.22 12.05t-7.67 10.76c-2.25 3.31-4.12 6.24-5.59 8.83a50.72 50.72 0 0 0-3 6 8.27 8.27 0 0 0 2.95-2.36c1.17-1.3 2.52-2.91 4.05-4.85s3.14-4 4.82-6.34 3.42-4.59 5.24-6.89c0.14 0 0.24 0.14 0.3 0.43 0.12 0.57-0.31 1.76-1.3 3.55s-2.24 3.91-3.74 6.35-3.2 5-5.09 7.64-3.58 5.2-5.08 7.64-2.74 4.59-3.72 6.45-1.39 3.16-1.24 3.88c0.06 0.28 0.17 0.43 0.31 0.43a18.91 18.91 0 0 0 3.76-3.66q2.59-3 6.08-7t7.14-8.6c2.45-3.09 4.73-5.88 6.87-8.4s3.88-4.62 5.24-6.34a15.29 15.29 0 0 1 2.26-2.59 20.37 20.37 0 0 1-4.25 7q-3.36 4-5.92 7.21a3.71 3.71 0 0 0-0.53 1.61c-0.12 0.79-0.27 1.61-0.45 2.48a10.26 10.26 0 0 1-0.72 2.25 1.4 1.4 0 0 1-1.3 1 58.66 58.66 0 0 0-3.87 6.24c-1.25 2.3-1.7 4.23-1.38 5.81a3.15 3.15 0 0 0 0.77 1.62 2.65 2.65 0 0 1 0.72 1.4 6.33 6.33 0 0 1-0.15 2.9c-0.27 1.08-0.59 2.15-0.94 3.23s-0.66 2.15-0.94 3.23a6.33 6.33 0 0 0-0.15 2.9 3.53 3.53 0 0 0 1.78 2.37q0.87 0 3.69-2.48t5.83-5.59q3-3.12 5.83-5.6t3.9-2.47a0.48 0.48 0 0 1 0.52 0.43 28.24 28.24 0 0 1-2.08 4q-2.11 3.76-4.73 8.29t-4.72 8.39a29 29 0 0 0-2.1 4.07c0.57 0 1.79-1.08 3.63-3.23s3.91-4.52 6.17-7.1 4.38-5 6.36-7.21 3.31-3.41 4-3.55a0.24 0.24 0 0 1 0.26 0.21 8.17 8.17 0 0 1-0.94 3.23q-1.08 2.58-2.94 6c-1.25 2.29-2.53 4.73-3.86 7.31s-2.63 5-3.89 7.21-2.25 4.16-3 5.81a8.84 8.84 0 0 0-1 2.91q1-0.22 3.61-2.8c1.73-1.72 3.52-3.63 5.38-5.7s3.55-4 5.06-5.71 2.37-2.72 2.6-3q5.6-6.24 10.94-12.59t9.92-12.37q4.56-6 8.13-11.08t6-8.72c0.32-0.57 1.44-2.07 3.37-4.52s4-5.05 6.33-7.85 4.48-5.38 6.57-7.75a24.1 24.1 0 0 1 4.29-4.19c-0.51 0.29-1.4 0.86-2.65 1.72s-2.62 1.76-4.07 2.69-2.89 1.79-4.31 2.58a7.64 7.64 0 0 1-3 1.18 0.48 0.48 0 0 1-0.52-0.43q1.41-1.5 3.48-3.44t4.18-3.51c1.35-1.08 2.56-2 3.61-2.8a12.49 12.49 0 0 0 1.93-1.61 18.19 18.19 0 0 0 3.75-4.2q2.43-3.33 5.47-7.85t6.3-9.58 6.19-9.57q3.48 0.21 7 0.21h32.4q11.19 0 20.84-0.21l7 33.57a104.35 104.35 0 0 0 3.3 11.19q2.49 7.31 5.65 14.74a135.83 135.83 0 0 0 6.24 12.91c2 3.66 3.79 5.48 5.23 5.48a13.14 13.14 0 0 0 3.76-0.53 7.14 7.14 0 0 0 3.24-2.05q8.43 5.38 12.53 5.38 4.72 0 5.93-6.13t-1-19.05q-1.41-7.74-2.44-14.31t-2-13q-0.91-6.46-2-13.45t-2.5-15.6q4.05-0.18 7.15-0.36a130 130 0 0 0 2.73 35.43q6.4 30.78 30.65 47.45t67.04 16.67a177.74 177.74 0 0 0 27.3-2.26q11.85-2.06 20.61-4.41a132.88 132.88 0 0 0 14.13-4.52 75.43 75.43 0 0 1 7.81-2.8c3.15-0.72 5.33-1.83 6.52-3.34s1.76-2.4 1.7-2.69q4.64-1.5 10.65-3.65c2.78-1 5.48-1.9 8.15-2.75q-1.07 1.62-2 3.18c-1.5 2.44-2.73 4.59-3.71 6.45s-1.39 3.16-1.24 3.88c0.06 0.28 0.16 0.43 0.3 0.43a18.38 18.38 0 0 0 3.76-3.66l6.08-7c1.63-1.85 3.28-3.82 5-5.89l5.39-1.74a10.84 10.84 0 0 1-0.71 2.25 1.41 1.41 0 0 1-1.31 1 62.1 62.1 0 0 0-3.87 6.24c-1.24 2.3-1.7 4.23-1.37 5.81a3.15 3.15 0 0 0 0.77 1.62 2.65 2.65 0 0 1 0.72 1.4 6.33 6.33 0 0 1-0.15 2.9c-0.28 1.08-0.59 2.15-0.94 3.23s-0.67 2.15-1 3.23a6.47 6.47 0 0 0-0.15 2.9 3.55 3.55 0 0 0 1.79 2.37q0.85 0 3.68-2.48c1.88-1.65 3.83-3.51 5.83-5.59s4-4 5.84-5.6 3.18-2.47 3.89-2.47a0.48 0.48 0 0 1 0.52 0.43 28.71 28.71 0 0 1-2.07 4q-2.13 3.76-4.74 8.29t-4.71 8.39a30 30 0 0 0-2.06 4.09q0.87 0 3.64-3.23t6.16-7.1c2.26-2.58 4.39-5 6.36-7.21s3.31-3.41 4-3.55a0.24 0.24 0 0 1 0.26 0.21 8.36 8.36 0 0 1-0.94 3.23q-1.08 2.58-3 6t-3.86 7.31c-1.32 2.59-2.62 5-3.88 7.21s-2.26 4.16-3 5.81a9.12 9.12 0 0 0-1 2.91q1-0.22 3.62-2.8c1.72-1.72 3.51-3.63 5.38-5.7s3.55-4 5-5.71 2.38-2.72 2.61-3q5.58-6.24 10.94-12.59t9.91-12.37q4.56-6 8.14-11.08t6-8.72a51.62 51.62 0 0 1 3.37-4.52q2.89-3.64 6.33-7.85t6.57-7.75a24.1 24.1 0 0 1 4.29-4.19c-0.52 0.29-1.4 0.86-2.66 1.72s-2.61 1.76-4.07 2.69-2.89 1.79-4.3 2.58a7.69 7.69 0 0 1-3 1.18 0.48 0.48 0 0 1-0.52-0.43q1.39-1.5 3.48-3.44c1.38-1.29 2.74-2.47 4.1-3.55s2.56-2 3.62-2.8a12.75 12.75 0 0 0 1.92-1.61 17.93 17.93 0 0 0 3.76-4.2q2.42-3.33 5.47-7.85t6.29-9.58q3.26-5.06 6.19-9.57 3.49 0.21 7 0.21h32.4q11.21 0 20.84-0.21l7 33.57a101.5 101.5 0 0 0 3.29 11.19q2.51 7.31 5.66 14.74a133.56 133.56 0 0 0 6.23 12.91c2.06 3.66 3.8 5.48 5.24 5.48a13.19 13.19 0 0 0 3.76-0.53 7.11 7.11 0 0 0 3.23-2.05q8.44 5.38 12.53 5.38 4.74 0 5.94-6.13t-0.88-19.08q-1.39-7.74-2.44-14.31c-0.69-4.37-1.35-8.71-2-13s-1.29-8.79-2-13.45-1.58-9.86-2.49-15.6c5.5-0.23 9.66-0.49 12.55-0.77q-1.14 9.47-1.35 18.41a137.15 137.15 0 0 0 2.57 31 89.21 89.21 0 0 0 8 23 62.48 62.48 0 0 0 13.47 17.65 57.55 57.55 0 0 0 18.93 11.3 70.48 70.48 0 0 0 24.4 4 118.91 118.91 0 0 0 42.16-7.43 121.84 121.84 0 0 0 35-20 117.77 117.77 0 0 0 25.37-28.86 96.26 96.26 0 0 0 13.25-34.11 442.5 442.5 0 0 0 5.83-49.06q1.25-22.38 0.75-39.77zm-812.16 123 8.72-19.15a57.3 57.3 0 0 1 5.13-4.3c1.74-1.29 3-1.94 3.9-1.94h0.43a6 6 0 0 0-0.8 1.29c-0.2 0.43-0.52 1-0.94 1.72s-1.05 1.69-1.87 2.91-1.89 2.83-3.19 4.84q-2.76 4.3-5.47 7.85a67.34 67.34 0 0 1-5.91 6.78zm-7.67 24.25c1-1.5 2-3.12 3.19-4.84s2.22-3.26 3.23-4.63 1.63-2.18 1.86-2.47a6.65 6.65 0 0 1-0.89 2.47c-0.65 1.37-1.43 2.8-2.33 4.31s-1.7 2.87-2.38 4.09a8.63 8.63 0 0 0-1 2c0.09 0.43-0.21 0.86-0.91 1.29a4.39 4.39 0 0 1-2.34 0.65 10.49 10.49 0 0 1 1.57-2.87zm12.32 4.41c-1.24 1.58-2.13 2.66-2.66 3.23s-0.86 0.86-1 0.86 0-0.32 0.34-1l1.19-2a14.33 14.33 0 0 1 1.79-2.8 4.41 4.41 0 0 1 1 0.65 0.78 0.78 0 0 1 0.31 0.43zm11.21 8.83a5.23 5.23 0 0 1-2 2.15 5.42 5.42 0 0 1 0.79-2.91 7.94 7.94 0 0 1 1.53-2.47 1.92 1.92 0 0 1 0.69 0.21 3.06 3.06 0 0 0 0.5 0.33 1.46 1.46 0 0 1 0.54 0.53 5.19 5.19 0 0 0-2.04 2.16zm-1.36-31.85h1.72a0.47 0.47 0 0 1 0.52 0.43l0.05 0.21c0 0.15-0.07 0.36-0.3 0.65a2.24 2.24 0 0 1-0.88-0.11 5.53 5.53 0 0 1-1.1-1.18zm4.84-8.83-0.68 0.87a12.38 12.38 0 0 0-2.05 2.58q-1.83 2.58-4.7 6.35t-6.16 8.17q-3.28 4.43-6.16 8.18t-4.7 6.35c-1.22 1.72-1.85 2.51-1.88 2.37-0.09-0.44 0.45-1.62 1.63-3.56s2.7-4.26 4.57-7 3.89-5.63 6.05-8.71 4.18-5.92 6.09-8.5 3.46-4.74 4.68-6.46a12.38 12.38 0 0 1 2-2.58c1 0 1.6 0.14 1.81 0.43a0.86 0.86 0 0 0 0.73 0.43 4.33 4.33 0 0 0-1.24 1.08zm4.56 26a3.24 3.24 0 0 1-1.73-0.54 1.93 1.93 0 0 1-1-1.18l-0.18-0.86c0-0.14 0.14-0.36 0.51-0.65a0.75 0.75 0 0 1 0.6-0.21c1.39 1.15 2.21 1.8 2.45 1.94a0.92 0.92 0 0 1 0.46 0.64c0.13 0.62-0.24 0.9-1.1 0.9zm0.65-12.37c-0.56-0.65-1-1-1.28-1l0.35-0.43a1.42 1.42 0 0 1 1.2-0.43 1.08 1.08 0 0 0 0.35 0.65 0.94 0.94 0 0 0 0.22 0.53 1.16 1.16 0 0 1 0.22 0.54l0.22 1.08c-0.28 0.07-0.7-0.26-1.27-0.9zm9.11-16.25c0-0.14 0-0.21 0.17-0.21 2 0 3.24 1.07 3.68 3.23a0.51 0.51 0 0 0-0.12 0.43c-0.23 0.28-0.42 0.43-0.56 0.43-0.43 0-1-0.4-1.86-1.19a4.75 4.75 0 0 1-1.3-1.61c-0.11-0.53-0.12-0.89 0-1.04zm2.42 12.7a10.68 10.68 0 0 0-1.7 0.11c-0.41 0.07-0.45 0.89-0.13 2.47h-0.86a2.16 2.16 0 0 1-1.9-0.86 9.26 9.26 0 0 1 0.54-5.16q1-2.81 3.19-2.8c0.86 0 1.3 0.21 1.31 0.64s0.39 0.65 1.11 0.65a12.55 12.55 0 0 0 0.09 3.55c0.21 0.97-0.34 1.44-1.64 1.44zm11.43-16.46a3.48 3.48 0 0 1-1.26 1.18 6.39 6.39 0 0 1-1.71 1.08q-0.87 0-2.91-3.66a1.63 1.63 0 0 0 1.54-0.86 3.15 3.15 0 0 1 1.24-1.29 2.92 2.92 0 0 1 1.57 0.32c0.33 0.21 0.93 0.68 1.8 1.4a2.34 2.34 0 0 1-0.26 1.87zm72.63-65.85q-6.74 0.75-14 1.83 7.05-12.69 14.16-25.07a180.29 180.29 0 0 1 14.78-22.06c0.14 0 0.48-0.28 1-0.86s0.93-0.86 1.22-0.86a0.25 0.25 0 0 1 0.26 0.22l-1.69 4.3c0.36 1.72 0.78 3.95 1.28 6.67s1 5.38 1.44 8 0.9 4.84 1.31 6.78l0.69 3.34 3.94 18.93-2.63-0.21q-2.09-1.72-10-1.72a107.46 107.46 0 0 0-11.75 0.75zm20.19 11.55-7.09-0.43h13.35l0.09 0.43a44.81 44.81 0 0 1-6.35 0zm60.52 6.35c-0.24 1.52-0.43 3-0.6 4.59q-3.82-0.45-8.41-0.82c-0.18-0.86-0.32-1.69-0.41-2.48s-0.22-1.61-0.4-2.47l4.67-0.33c1.13-0.07 1.68-0.17 1.65-0.32s-2.24-0.43-6.55-0.43v-0.21h10.51c-0.2 0.83-0.36 1.64-0.48 2.47zm0.79-4.58-5.86-0.15c-2.53-0.07-4.37-0.11-5.52-0.11l-0.58-2.8c0.86 0 1.27-0.14 1.2-0.43v-0.21c4.51 0 8.34 0.06 11.53 0.18-0.31 1.17-0.57 2.33-0.79 3.52zm1-4.78h-13.31l14.42-4.4c-0.42 1.45-0.79 2.92-1.13 4.4zm224.6 47.77a56 56 0 0 1 5.14-4.3c1.73-1.29 3-1.94 3.9-1.94h0.43a6.54 6.54 0 0 0-0.81 1.29c-0.2 0.43-0.51 1-0.93 1.72s-1 1.69-1.87 2.91-1.89 2.83-3.19 4.84q-2.77 4.3-5.47 7.85-1.58 2.06-3.31 4c-0.47 0-0.93 0-1.37 0.08l1.19-2.62c0.2-0.11 0.3-0.21 0.29-0.27a0.18 0.18 0 0 0-0.11-0.12zm-87.74 22.17q4.68-1.31 12.35-3.23l14.94-3.77q7.26-1.83 12.54-3.33c3.52-1 5.27-1.58 5.24-1.73v-0.21q4.93-1.08 12-3t13.51-3.88l11.15-3.33 0.57-0.18c-0.52 0.79-1 1.48-1.38 2.06q-10.38 2.44-18.49 4.68-8.55 2.37-17.18 4.84t-19 5.17q-10.32 2.69-24.71 5.92zm79.08-18.3c-1 1.32-2 2.61-3 3.89h-0.25a33.65 33.65 0 0 0-3.6 0.32c-1.67 0.22-4.09 0.68-7.24 1.4 0.8-0.29 1.9-0.72 3.28-1.29s2.84-1.19 4.36-1.83 2.83-1.22 4-1.72a11.52 11.52 0 0 1 1.88-0.76l0.8-0.16zm0.1 15.12-0.15 0.16 0.06-0.13zm-4-10.1c-1.56 2-3.08 4-4.53 6l-4.8 0.83-9.36 1.61c-2.9 0.51-4.92 0.83-6 1a0.51 0.51 0 0 0 0.39-0.21c0-0.14 1.29-0.68 4-1.62l8.93-3.12c3.28-1.14 6.24-2.26 8.89-3.33 0.97-0.48 1.81-0.85 2.44-1.16zm-72.62 23.39h-0.22c0-0.14 1.36-0.72 4.16-1.72s6.16-2.12 10.07-3.34 8-2.44 12.16-3.66 7.65-2.18 10.37-2.9l-6.72 4.95q-15 3.66-21.74 5.16a62.29 62.29 0 0 1-8.12 1.51zm30.75 12.26c-0.2-0.28-0.4-0.53-0.59-0.75a1.56 1.56 0 0 1-0.37-0.75l4.47-1.29q0.32 1.73-3.55 2.79zm-4-12.8a34.84 34.84 0 0 1-7.08 1.18 2 2 0 0 1-1.12-0.21 32.06 32.06 0 0 0 5.07-1.51q4.42-1.5 10-3.33t10.54-3.66l6.81-2.47h-0.22a0.87 0.87 0 0 0 0.41-0.11 1.34 1.34 0 0 1 0.62-0.11h0.22q8.29-2.13 13.87-3.63c-0.7 1-1.39 1.9-2 2.83l-1.45 0.48q-5.53 1.83-12 3.87t-12.56 3.77q-6.18 1.73-11.1 2.9zm26.73 2.26-0.26-0.21a0.24 0.24 0 0 1 0.27 0.21zm4.71 5.06c-0.41 0.57-0.8 1.14-1.19 1.7l-1 0.23q-4.92 1.19-9.45 2.16a36.15 36.15 0 0 1-6.48 1c-0.72 0-1.13-0.28-1.25-0.86-0.09-0.43 0.14-0.71 0.68-0.86a12 12 0 0 0 1.8-0.64h0.22a10.61 10.61 0 0 0 2.08-0.33l2.88-0.64c1-0.22 1.82-0.43 2.56-0.65s1.1-0.39 1.07-0.53a3.37 3.37 0 0 1-0.66-0.11 5 5 0 0 0-1.1-0.11 34.57 34.57 0 0 0-3.62 0.22c-1.41 0.14-2.6 0.28-3.57 0.43a4 4 0 0 0 2.46-2.16c0.44-1 0.86-1.57 1.26-1.72a28.65 28.65 0 0 1 5-0.54c2.14-0.07 3.45-0.67 3.93-1.82l-0.17 0.21v-0.21c-0.05-0.26 0.73-0.79 2.35-1.6-0.72 1.16-1.4 2.27-2 3.32s-1.13 2-1.58 2.91l-0.26 0.1c-0.73 0.29-1.08 0.5-1.05 0.65s0.26 0.21 0.69 0.21h0.13c-0.4 0.81-0.74 1.55-1 2.15a8.32 8.32 0 0 0 2.9-2.31l1-0.16c1.17-0.22 2.27-0.47 3.28-0.76l0.72-0.2zm4.57-6.82c-0.94 0.37-1.91 0.74-3 1.12 0.87-0.19 1.71-0.33 2.56-0.48-0.73 1.14-1.5 2.31-2.31 3.49a13.49 13.49 0 0 0-2.24 0.32 23.52 23.52 0 0 0-2.29 0.62c0.75-0.9 1.56-1.88 2.44-3l0.38-0.48c0.46-0.14 1-0.3 1.46-0.48-0.43 0.07-0.83 0.12-1.21 0.16q1.5-1.92 3.09-4.07l2-0.94c0.67-0.31 1.31-0.63 1.94-0.94-0.69 1.19-1.45 2.46-2.31 3.85-0.15 0.28-0.33 0.55-0.5 0.83zm2.49 6.6-0.4 0.09 0.59-0.73c2.44-3.09 4.73-5.88 6.86-8.4s3.88-4.62 5.25-6.34a14.77 14.77 0 0 1 2.26-2.59 20.53 20.53 0 0 1-4.25 7q-3.37 4-5.93 7.21a3.74 3.74 0 0 0-0.52 1.61c-0.07 0.46-0.18 1-0.27 1.44-0.98 0.16-2.17 0.4-3.57 0.71zm3.52 4.52c1-1.5 2-3.12 3.19-4.84s2.23-3.26 3.24-4.63 1.63-2.18 1.85-2.47a6.53 6.53 0 0 1-0.88 2.47c-0.65 1.37-1.43 2.8-2.34 4.31s-1.69 2.87-2.38 4.09a8.33 8.33 0 0 0-1 2c0.09 0.43-0.21 0.86-0.92 1.29a4.36 4.36 0 0 1-2.34 0.65 10.8 10.8 0 0 1 1.59-2.87zm12.33 4.41c-1.25 1.58-2.14 2.66-2.67 3.23s-0.86 0.86-1 0.86 0-0.32 0.34-1 0.76-1.32 1.19-2a14.24 14.24 0 0 1 1.78-2.8 4.69 4.69 0 0 1 1 0.65 0.81 0.81 0 0 1 0.3 0.43zm11.2 8.83a5.16 5.16 0 0 1-2 2.15 5.46 5.46 0 0 1 0.8-2.91 7.94 7.94 0 0 1 1.53-2.47 2 2 0 0 1 0.69 0.21 2.69 2.69 0 0 0 0.5 0.33 1.46 1.46 0 0 1 0.54 0.53 5.2 5.2 0 0 0-2.09 2.16zm-1.35-31.85h1.72a0.48 0.48 0 0 1 0.52 0.43v0.21c0 0.15-0.07 0.36-0.3 0.65a2.2 2.2 0 0 1-0.88-0.11 5.53 5.53 0 0 1-1.05-1.18zm4.84-8.83-0.69 0.87a13 13 0 0 0-2 2.58q-1.83 2.58-4.71 6.35t-6.16 8.17q-3.27 4.43-6.15 8.18t-4.71 6.35c-1.22 1.72-1.85 2.51-1.87 2.37-0.09-0.44 0.45-1.62 1.62-3.56s2.71-4.26 4.58-7 3.89-5.63 6-8.71 4.19-5.92 6.09-8.5 3.46-4.74 4.69-6.46a13 13 0 0 1 2-2.58c1 0 1.61 0.14 1.81 0.43a0.89 0.89 0 0 0 0.74 0.43 4.2 4.2 0 0 0-1.23 1.08zm4.55 26a3.21 3.21 0 0 1-1.72-0.54 1.93 1.93 0 0 1-1-1.18l-0.18-0.86c0-0.14 0.14-0.36 0.51-0.65a0.73 0.73 0 0 1 0.6-0.21c1.39 1.15 2.2 1.8 2.45 1.94a1 1 0 0 1 0.46 0.64c0.13 0.62-0.25 0.9-1.11 0.9zm0.66-12.37c-0.57-0.65-1-1-1.28-1l0.34-0.43a1.45 1.45 0 0 1 1.2-0.43 1.14 1.14 0 0 0 0.35 0.65 0.94 0.94 0 0 0 0.22 0.53 1.06 1.06 0 0 1 0.22 0.54l0.23 1.08c-0.28 0.07-0.71-0.26-1.27-0.9zm9.1-16.25c0-0.14 0-0.21 0.17-0.21 2 0 3.24 1.07 3.69 3.23a0.49 0.49 0 0 0-0.13 0.43c-0.23 0.28-0.41 0.43-0.55 0.43-0.43 0-1-0.4-1.86-1.19a4.83 4.83 0 0 1-1.31-1.61c-0.11-0.53-0.11-0.89 0-1.04zm2.43 12.7a10.68 10.68 0 0 0-1.7 0.11c-0.42 0.07-0.46 0.89-0.13 2.47h-0.86a2.15 2.15 0 0 1-1.9-0.86 9.26 9.26 0 0 1 0.54-5.16c0.69-1.87 1.75-2.8 3.18-2.8 0.86 0 1.3 0.21 1.32 0.64s0.38 0.65 1.1 0.65a12.14 12.14 0 0 0 0.1 3.55c0.2 0.97-0.35 1.44-1.64 1.44zm11.43-16.46a3.65 3.65 0 0 1-1.26 1.18 6.61 6.61 0 0 1-1.72 1.08q-0.85 0-2.91-3.66a1.62 1.62 0 0 0 1.54-0.86 3.28 3.28 0 0 1 1.24-1.29 3 3 0 0 1 1.58 0.32 21.57 21.57 0 0 1 1.79 1.4 2.34 2.34 0 0 1-0.25 1.87zm72.63-65.85q-6.74 0.75-14 1.83 7-12.69 14.16-25.07a179.17 179.17 0 0 1 14.79-22.06c0.14 0 0.48-0.28 1-0.86s0.93-0.86 1.22-0.86a0.25 0.25 0 0 1 0.26 0.22l-1.68 4.3c0.35 1.72 0.78 3.95 1.28 6.67s1 5.38 1.44 8 0.9 4.84 1.3 6.78l0.69 3.34 3.94 18.93-2.62-0.21q-2.08-1.72-10-1.72a107.29 107.29 0 0 0-11.77 0.75zm20.15 11.51-7.08-0.43h13.34l0.09 0.43a44.81 44.81 0 0 1-6.34 0.04zm65.35 11.67-0.28-0.05q-5.67-0.86-13.55-1.5c-0.18-0.86-0.32-1.69-0.41-2.48s-0.23-1.61-0.41-2.47l4.67-0.33c1.13-0.07 1.69-0.17 1.66-0.32s-2.25-0.43-6.55-0.43v-0.21h8.83c2.44 0 4.86 0 7.28 0.07-0.48 2.64-0.89 5.21-1.23 7.76zm1.54-9.77-2.89-0.07-8.55-0.21c-2.53-0.07-4.36-0.11-5.51-0.11l-0.58-2.8c0.86 0 1.26-0.14 1.2-0.43v-0.21q7.3 0 12.31 0.21l4.7 0.19c-0.25 1.18-0.47 2.33-0.67 3.44zm152.82-97a36 36 0 0 0-0.27 3.87l-0.66 4.09c-0.22-2.44-0.33-4.37-0.34-5.81a38.47 38.47 0 0 1 0.14-4c0.1-1.22 0.37-1.83 0.8-1.83h0.22a11.41 11.41 0 0 1 0.12 3.69zm4.17-6.89a9.37 9.37 0 0 1-1-2.58l-0.54-2.58-1.79-8.61 1.7-3.23 1.34 6.46 0.69 3.33a31.63 31.63 0 0 0 0.91 3.34zm12.26 15.5c-0.21 2.44-0.43 3.8-0.66 4.09l-0.34-5.81a17.58 17.58 0 0 0 1.23-2.37l0.89-1.94a25.89 25.89 0 0 0-1.11 6.06zm0.62-11a1.5 1.5 0 0 1-0.62 0.65l1.19-2.58-0.13 0.43a0.52 0.52 0 0 0-0.12 0.43l0.26 0.21a6.84 6.84 0 0 0-0.57 0.91zm0.84-5.81a1.5 1.5 0 0 1 0.08-0.64zm1.84 3.66a2.37 2.37 0 0 1-0.78-0.11 2.66 2.66 0 0 0-0.77-0.1l0.8-2.37c-0.05-1.58-0.07-3.09-0.08-4.52a42.83 42.83 0 0 0-0.3-4.52l2.54 10.11 0.09 0.43c0.16 0.77-0.35 1.13-1.49 1.13zm-12.65-42.18-1-1.72-1.39 3.66 0.88 2.15zm5.71-11.83-0.72-20-2.37 20.65 1.32 3.23zm-23.4-8 1.57-3.88-3.08-7.53 0.24 8.39z"/>
   </g>
   <g class="cls-2" data-name="macau copy 2">
    <path class="cls-3" d="m748.85 460.67-2.39 3 0.4 1.94 2.39-3zm51.77-73.49q5.86-13.67 9.66-22.38t6-14q2.24-5.26 3.51-8t2-4.41a33.68 33.68 0 0 0 1.21-3.39q0.5-1.72 1.55-4.95 2-6 4.16-15.71t3.76-20.34q1.54-10.67 2.13-20.77a66.57 66.57 0 0 0-0.84-17c-0.75-3.58-1.93-6.17-3.55-7.75l-0.14-0.64c-0.32-1.58-1.55-2.83-3.69-3.77s-5.49-1.4-10.08-1.4c-1.58 0-3.4 0.08-5.45 0.22s-4.27 0.36-6.64 0.64q-1.9 0.22-7.75 3.12t-14.46 7.76q-8.56 4.84-19.18 11.3t-21.78 13.77q-11.19 7.32-22.25 15.17t-20.76 15.6q-9.69 7.75-17.14 14.85a75.86 75.86 0 0 0-11.37 13.13c-0.29 0-0.66 0.29-1.11 0.86s-0.83 0.86-1.12 0.86a0.24 0.24 0 0 1-0.26-0.22l1.69-4.3c-0.46-2.87-0.94-5.56-1.46-8.07s-1-4.84-1.46-7c-0.74-3.59-1.51-6.89-2.27-9.9s-1.58-6-2.42-9-1.82-6.17-2.94-9.47-2.33-7-3.62-11.19q-1.73-5.16-3.81-10.54a91.26 91.26 0 0 0-4.89-10.55 71.39 71.39 0 0 0-6.19-9.57 38 38 0 0 0-7.46-7.43 55.38 55.38 0 0 0-12.2-6.71q-6.19-2.35-9-2.36-4.51 0-5.85 6-1.51 4.1-3.57 10.76t-4.09 13.45q-2 6.78-3.48 12.26c-1 3.66-1.62 6-2 7q-6.45 21.74-10.74 35.29t-7.14 22.06q-2.86 8.49-4.54 13.88a96.42 96.42 0 0 0-2.75 11.08q-1.08 5.7-2.09 13.23t-2.64 20.44q-1 8.61 0 13.56c0.66 3.16 1.68 5.27 3 6.35a7 7 0 0 0 4.42 1.61 3.39 3.39 0 0 0 1.46-0.21 11.84 11.84 0 0 0-1.52 8.17 10.35 10.35 0 0 0 4 6.68 12.36 12.36 0 0 0 7.34 2.15 9.55 9.55 0 0 0 2.51-0.33 4.64 4.64 0 0 0 2.12-1.18c-0.79 1.72-1.45 3.2-2 4.41s-0.5 3.26 0.1 6.14a2.06 2.06 0 0 0 2.12 1.93q2.16 0 4-2.9a42.1 42.1 0 0 0 3.56-7.21q1.68-4.31 3.26-9.15a62.33 62.33 0 0 1 3.4-8.5q3.66-10.32 8.12-23 3.8-10.75 8.76-25.18t10.51-31.2q1.2 4.74 2.3 10t2.43 11.31c0.18 0.86 0.34 1.83 0.5 2.91s0.35 2.19 0.58 3.33a36.42 36.42 0 0 0 1.93 6.14 38.28 38.28 0 0 0 4.38 7.63 71.16 71.16 0 0 0 8.31 9.45 146.94 146.94 0 0 0 13.72 11.62q5.05 3.66 9.74 7.53t8.78 3.88a4.51 4.51 0 0 0 3-1.08 182 182 0 0 0 18.72-15.06q10.23-9.26 21.1-20.66t22-24.21q11.12-12.8 21.56-25.71-3.45 9.26-7.29 19.79t-7.66 21.09q-3.84 10.55-7.09 20.77t-5.69 18.72a147.58 147.58 0 0 0-3.56 15c-0.76 4.3-0.92 7.46-0.51 9.46a10.29 10.29 0 0 1-1.4 7.75l-0.77 0.43-2.39 3 1.72-1.07 3-4.09a14 14 0 0 1-1.45 4.41 6.39 6.39 0 0 0-1 2.48c0.09 0.43 0.2 0.64 0.35 0.64 0.43 0 1-0.54 1.82-1.61s1.67-2.3 2.68-3.66a34.05 34.05 0 0 1 3.11-3.66 4.69 4.69 0 0 1 3.33-1.61 178.53 178.53 0 0 0-8.47 17.75q-2.16 5.7-1.84 7.21a1 1 0 0 0 1 0.86 10.06 10.06 0 0 0-1.52 4.09 36.84 36.84 0 0 1-1 4.52l-0.64 1.07h0.43l2.39-3a27.28 27.28 0 0 0 0.77-3.55 14.3 14.3 0 0 1 1-3.55 33.92 33.92 0 0 0 3.21-2.69 31.69 31.69 0 0 0 3.15-3.36 14.49 14.49 0 0 0 0 1.62 13.28 13.28 0 0 0 0.28 1.83 17.34 17.34 0 0 0 1 3.12c0.44 1.07 0.8 1.61 1.09 1.61s1.1-1.08 2-3.23 1.92-4.55 3-7.21 2.18-5.05 3.23-7.2 1.95-3.23 2.67-3.23a0.77 0.77 0 0 1 0.47 0.21 4.38 4.38 0 0 1 0 1c0 0.5-0.13 1.11-0.26 1.83l-2.39 3-1.56 3.88-1.15 1.72 3.33-3.66 1.68-4.3c-0.36 1.72-0.78 4-1.28 6.77s-1 5.6-1.59 8.4-1 5.41-1.38 7.85a45.42 45.42 0 0 0-0.55 5.6l-2 3a4.93 4.93 0 0 0-0.58 3.44l2.39-3a5.6 5.6 0 0 1 0.07-2.8c0.11 0.57 0.24 0.86 0.39 0.86 0.57 0 1.45-1.15 2.62-3.44s2.48-5.13 3.94-8.5 3-7 4.49-11 3-7.6 4.29-11 2.79-7.28 4.45-11.73l-22.17 66.28 0.26 0.21q0.64 0 3-4.94c1.53-3.31 3.3-7.39 5.3-12.27s4.08-10.22 6.25-16 4.24-11.16 6.24-16 3.66-9 5-12.27 2.13-4.95 2.42-4.95l0.09 0.43q0.27 1.29-1 5.27t-3.33 9.3q-2.1 5.37-4.4 11.4c-1.54 4-3 7.82-4.41 11.4s-2.52 6.71-3.33 9.37-1.13 4.41-1 5.27v0.21a4.71 4.71 0 0 1 1.84-1.5 1.35 1.35 0 0 0 0.71-1.72 60.25 60.25 0 0 1 2.58-6.78 37.57 37.57 0 0 0 2.35-6.78q11.16-27.12 19.37-46.59t14.2-33.1zm-56.14 39.06c-0.27 1.43-0.6 2.8-1 4.09a22 22 0 0 0-0.76 4.08v-9.46c0-0.72 0.27-1.08 0.85-1.08a3.81 3.81 0 0 1 1.12 0.22 4.61 4.61 0 0 0 1.34 0.21zm2-1.94-0.05-0.21 0.47-0.86c0.57-0.72 1-1.08 1.28-1.08zm4.92-9.47a6.75 6.75 0 0 0-1.8 1.72l-2.22 2.8c0.2-0.43 0.52-1.14 1-2.15s0.93-2 1.5-3.12 1-2 1.44-2.91a3.52 3.52 0 0 1 1-1.5zm7.36 21.41a58 58 0 0 0-0.3 6.35l-2.55 2.41a58.06 58.06 0 0 1 0.36-6 33.14 33.14 0 0 0 0.1-6.24l2.39-3a35.82 35.82 0 0 1-0.03 6.48zm6.81-12.8c-0.38 1.29-0.75 2.44-1.12 3.44s-0.72 1.37-1.07 1.08a10.39 10.39 0 0 1 0.71-3.34q0.63-1.61 1.35-3.33l1.44-3.44q-0.78 3.66-1.34 5.59zm16.84 18.56 7.14-17.43-0.67-3.23-2.39 3zm-44 30.77-4.08 17.64 7.14-17.43-0.67-3.22zm67.2-6q3.58-4.51 5.61-7.21c1.34-1.79 2.6-3.51 3.76-5.16a14 14 0 0 0 1.71-2.69c-0.44 0-1.3 0.65-2.62 1.94s-2.68 2.76-4.14 4.41-2.77 3.23-4 4.73a15.5 15.5 0 0 0-1.92 2.69l-4.94 7.32 5.39-5.17h1.18c0.08 0 0.08-0.14 0-0.43zm-9.9-15.49c-0.28 0-0.8 0.46-1.54 1.4l-2.55 3.23c-1 1.21-1.89 2.47-2.77 3.76s-1.59 2.37-2.13 3.23-1.14 1.9-1.83 3.12-1.26 2.37-1.76 3.44-1.09 2.33-1.79 3.77a8 8 0 0 0 5.07-3 53.27 53.27 0 0 0 3.94-5.38q1.67-2.37 4-6a9.53 9.53 0 0 0 1.6-7.32 0.24 0.24 0 0 0-0.21-0.33zm428.41 15.49q3.57-4.51 5.6-7.21t3.77-5.16a13.55 13.55 0 0 0 1.7-2.69c-0.43 0-1.3 0.65-2.61 1.94s-2.69 2.76-4.14 4.41-2.77 3.23-4 4.73a15.77 15.77 0 0 0-1.91 2.69l-4.94 7.32 5.38-5.17h1.19c0.07 0 0.08-0.14 0-0.43zm-9.9-15.49c-0.29 0-0.8 0.46-1.54 1.4l-2.56 3.23c-1 1.21-1.88 2.47-2.77 3.76s-1.58 2.37-2.12 3.23-1.15 1.9-1.83 3.12-1.26 2.37-1.76 3.44-1.09 2.33-1.8 3.77a8.07 8.07 0 0 0 5.08-3 53.27 53.27 0 0 0 3.94-5.38q1.66-2.37 4-6a9.57 9.57 0 0 0 1.6-7.32 0.24 0.24 0 0 0-0.21-0.33zm387-247.68-1-1.72-1.4 3.66 0.88 2.15zm5.72-11.84-0.72-20-2.38 20.66 1.32 3.23zm-23.4-8 1.56-3.87-3.07-7.53 0.23 8.39zm44.24 102.43a286.69 286.69 0 0 0-2.15-29.48q-1.65-12-2.9-18.08c-0.18-0.86-0.38-1.64-0.6-2.36a17.77 17.77 0 0 1-0.47-1.72l-0.31-1.51a4.43 4.43 0 0 1-0.77-1.61c-0.1-0.51-0.2-1-0.29-1.4a7.6 7.6 0 0 1-0.13-2.69c0.12-0.79 0.28-1.76 0.47-2.91l0.73-0.64 1.56-3.88-1.36 1.72-1.94 5.17a10.08 10.08 0 0 1 0-5.06 6.5 6.5 0 0 0 0.47-2.9c-0.08-0.43-0.27-0.65-0.56-0.65h-0.22c-0.4 0.15-0.81 0.9-1.25 2.26s-1 2.87-1.64 4.52-1.37 3.23-2.14 4.73a4.64 4.64 0 0 1-2.77 2.69 202.31 202.31 0 0 0 3.47-20q0.66-6.66 0.26-8.61c-0.21-1-0.68-1.5-1.39-1.5a21.07 21.07 0 0 0 0.17-4.84c-0.12-1.65-0.21-3.27-0.25-4.85l0.5-1.72-1.94 4.09c0 1.29 0 2.62 0.07 4s0.11 2.77 0.12 4.2c-0.8 1-1.6 2.12-2.43 3.33s-1.6 2.48-2.34 3.77l-0.17-0.86a12.34 12.34 0 0 0-2.1-3.87c-1.22-1.73-2-2.59-2.26-2.59-0.26 0.15-0.55 1.51-0.87 4.09s-0.66 5.46-1 8.61-0.78 6.06-1.31 8.71-1.13 4.06-1.82 4.2c-0.43 0-0.65 0-0.67-0.11s-0.06-0.32-0.15-0.75-0.13-0.61-0.2-1a4.26 4.26 0 0 1 0.09-1.61l1.56-3.88 0.4-4.3 0.84-2.15-2.5 4.52-0.6 5.38c-0.31-2.15-0.6-5-0.89-8.39s-0.57-6.89-0.86-10.33-0.54-6.57-0.76-9.36-0.34-4.56-0.34-5.28l1.4-2.58a13 13 0 0 0 0-2.15 6.51 6.51 0 0 0-0.57-1.72l-1.57 3.87a1.6 1.6 0 0 0 0.25 0.65 1.79 1.79 0 0 1 0.24 0.64 13.05 13.05 0 0 1 0 2.15l-0.23-1.07q-0.42 2.15-1 7.1t-1.37 11q-0.79 6-1.6 12.48t-1.52 11.84q-0.72 5.38-1.29 8.82c-0.38 2.3-0.65 3.45-0.79 3.45l-0.09-0.43 2.9-47.13a8.3 8.3 0 0 0-0.58-1.72l-0.79-1.72c-0.8 0.29-1.48 2-2 5.27s-1 6.78-1.44 10.65-0.8 7.39-1.15 10.54-0.72 4.81-1.12 5q-0.11 3.66-0.42 6.24c-0.11 1.58-0.2 3-0.29 4.31a6.93 6.93 0 0 1-0.18 1.72 1.19 1.19 0 0 0-0.2-0.43 1.19 1.19 0 0 1-0.2-0.43c-0.41-2-0.44-5.38-0.06-10.12s0.84-9.79 1.37-15.17 1-10.43 1.36-15.17 0.36-8.1-0.06-10.11l-0.27-1.29a4.29 4.29 0 0 1-1.19 2 1.85 1.85 0 0 0-0.58 1.83 1.06 1.06 0 0 0 0.35 0.65c-0.34 1.86-0.62 4.45-0.87 7.74s-0.46 5.89-0.65 7.75l-7.74 92.1a258.66 258.66 0 0 1-7.74 45.08 188.13 188.13 0 0 1-13.59 36.58q-7.94 15.49-17.71 24.49t-20.1 8.93q-10.54 0-16-5.28t-7.28-14.31a57.64 57.64 0 0 1-1-14.63 151 151 0 0 1 1.8-16.68q1.43-8.72 3.78-17.53t5.14-17.22q6.3-19.37 15.18-39.81a15.06 15.06 0 0 0 1.23-2.9c0.39-1.22 0.74-2.44 1.06-3.66s0.6-2.33 0.82-3.34a7.9 7.9 0 0 0 0.28-1.72 17.25 17.25 0 0 0 0.83-9.47 16.65 16.65 0 0 0-3-6.67 23.85 23.85 0 0 0-5-5.05 26.4 26.4 0 0 0-5.74-3.23 14.35 14.35 0 0 0-5.3-1.19q-3.45 0-4.29 2.16-4-10.11-8.35-10.12c-1.29 0-2.42 0.76-3.4 2.26a20.42 20.42 0 0 0-2.43 5.92c-0.56-2-1.35-3-2.35-3s-1.73 0.64-2.61 1.93a39 39 0 0 0-2.61 4.52c-0.87 1.72-1.68 3.52-2.44 5.38s-1.38 3.37-1.85 4.52a343.62 343.62 0 0 0-16.94 40.67 300.12 300.12 0 0 0-10.33 37.87h-18.82l17.61-5.37-18.65-0.65q-1.71-9.26-3.9-20.34t-5.11-25.07q-0.4-1.94-1.82-6.67c-0.95-3.15-2.22-6.88-3.84-11.19s-3.64-9-6.07-14.2a165.78 165.78 0 0 0-8.39-15.49 124.77 124.77 0 0 0-10.76-15 81.28 81.28 0 0 0-13.43-12.8q-5.07-3.66-9.75-7.53t-8.77-3.88a4.5 4.5 0 0 0-3 1.08q-1.66 2.37-5.45 8.5t-8.79 14.63-10.81 18.4-11.5 19.8q-5.7 9.9-11 18.94t-9.33 15.7q-1.15 0.65-4 5.06t-6.5 10.65q-3.66 6.25-7.58 13.24t-7.3 13q-3.37 6-7.75 14-0.86 1.08-4.14 6.46t-7.23 11.83q-3.93 6.46-7.42 11.95a1.27 1.27 0 0 0-0.07 0.12c-0.56 0-1.1 0-1.6 0.09s-1.29 0.18-2 0.32l-42.31 12.92-48.67 11.15-2.23 0.64-9.13 0.65a81.16 81.16 0 0 1-13.72 1.29 44.93 44.93 0 0 1-15.35-2.37 32.62 32.62 0 0 1-11.18-6.67 35.36 35.36 0 0 1-7.6-10.11 51.7 51.7 0 0 1-4.36-12.7 104.34 104.34 0 0 1-0.72-41.21 90.64 90.64 0 0 1 14-34.64 76.34 76.34 0 0 1 25.94-23.78 70.88 70.88 0 0 1 35.31-8.82q10.11 0 15 0.32a70.5 70.5 0 0 1 7.27 0.75c1.56 0.29 2.73 0.54 3.49 0.75a14.85 14.85 0 0 0 3.73 0.33c1.29 0 2.61 0 4-0.11a16.84 16.84 0 0 0 4.72-1.08 39 39 0 0 0 6.27-3 100.94 100.94 0 0 0 8.61-5.7h6.85c1.14 0 1.6-0.57 1.36-1.72a5.86 5.86 0 0 0-3.36-3.82c1.8-0.28 2.94-0.68 3.41-1.18a1.94 1.94 0 0 0 0.48-1.83c-0.18-0.86-0.91-1.29-2.2-1.29a19 19 0 0 0-5.7 1.08 18.54 18.54 0 0 1-5.48 1.07q-1.08 0-1.35-1.29a1.46 1.46 0 0 1 0.53-1.61 11.31 11.31 0 0 1 1.63-1c0.58-0.29 1.13-0.57 1.65-0.86a1.1 1.1 0 0 0 0.59-1.29c-0.27-1.29-1.93-2.59-5-3.88a65.14 65.14 0 0 0-12.34-3.44q-7.74-1.5-18.39-2.47t-23.13-1a123.79 123.79 0 0 0-33.44 4.84 145.25 145.25 0 0 0-33.35 14.15 146.92 146.92 0 0 0-29.63 22.6 122.56 122.56 0 0 0-22.62 30.4 113.48 113.48 0 0 0-9 22.81l-15.73-0.54q-1.73-9.27-3.93-20.27t-5.11-25.07c-0.27-1.29-0.87-3.51-1.82-6.67s-2.22-6.88-3.83-11.19-3.64-9-6.08-14.2a165.78 165.78 0 0 0-8.39-15.49 125.8 125.8 0 0 0-10.75-15 82.08 82.08 0 0 0-13.43-12.8q-5.07-3.66-9.75-7.53t-8.77-3.88a4.54 4.54 0 0 0-3 1.08q-1.66 2.37-5.44 8.5t-8.8 14.63q-5 8.5-10.81 18.4t-11.49 19.8-11 18.94-9.32 15.7c-0.78 0.43-2.11 2.12-4 5.06s-4.07 6.49-6.5 10.65-5 8.58-7.58 13.24-5.06 9-7.31 13-4.83 8.68-7.74 14q-0.85 1.08-4.15 6.46l-7.22 11.83c-2.63 4.31-5.09 8.29-7.42 11.95a53.65 53.65 0 0 1-4.56 6.56q-4.94 6.24-9.22 12.05t-7.67 10.76q-3.37 5-5.59 8.82a50.69 50.69 0 0 0-3.05 6 8.45 8.45 0 0 0 3-2.37q1.75-1.94 4-4.84c1.54-1.94 3.14-4.05 4.82-6.35s3.42-4.59 5.24-6.89c0.15 0 0.25 0.15 0.31 0.44 0.12 0.57-0.32 1.75-1.31 3.55s-2.23 3.91-3.74 6.34-3.19 5-5.08 7.64-3.58 5.2-5.09 7.64-2.74 4.59-3.71 6.46-1.39 3.15-1.24 3.87c0.06 0.29 0.16 0.43 0.3 0.43a18.64 18.64 0 0 0 3.76-3.66l6.08-7q3.48-4 7.14-8.61t6.87-8.39c2.14-2.51 3.88-4.63 5.25-6.35a14.42 14.42 0 0 1 2.2-2.51 20.57 20.57 0 0 1-4.25 7q-3.37 4-5.93 7.21a3.77 3.77 0 0 0-0.53 1.62c-0.12 0.79-0.27 1.61-0.45 2.47a11.14 11.14 0 0 1-0.71 2.26 1.41 1.41 0 0 1-1.31 1 61 61 0 0 0-3.87 6.24q-1.86 3.43-1.37 5.81a3.15 3.15 0 0 0 0.76 1.61 2.66 2.66 0 0 1 0.73 1.4 6.38 6.38 0 0 1-0.15 2.91c-0.28 1.07-0.59 2.15-1 3.22s-0.66 2.16-0.94 3.23a6.38 6.38 0 0 0-0.15 2.91 3.51 3.51 0 0 0 1.79 2.36q0.85 0 3.68-2.47c1.88-1.65 3.83-3.52 5.83-5.6s3.95-3.94 5.83-5.59 3.19-2.47 3.9-2.47a0.48 0.48 0 0 1 0.52 0.43 29.4 29.4 0 0 1-2.07 4c-1.42 2.5-3 5.27-4.74 8.28s-3.31 5.81-4.71 8.39a31.4 31.4 0 0 0-2.06 4.09c0.58 0 1.79-1.07 3.64-3.23s3.9-4.51 6.16-7.1 4.38-5 6.36-7.21 3.31-3.41 4-3.55a0.24 0.24 0 0 1 0.26 0.22 8.27 8.27 0 0 1-0.95 3.23 65.75 65.75 0 0 1-2.94 6c-1.25 2.29-2.53 4.74-3.86 7.32s-2.62 5-3.88 7.21-2.26 4.16-3 5.81a9 9 0 0 0-1 2.9q1-0.21 3.61-2.8t5.38-5.7q2.8-3.12 5.06-5.7c1.51-1.72 2.38-2.73 2.6-3q5.6-6.25 11-12.59t9.91-12.37q4.56-6 8.13-11.09t6.05-8.71a51.16 51.16 0 0 1 3.36-4.52c1.94-2.44 4-5.06 6.34-7.86s4.47-5.37 6.56-7.74a23.84 23.84 0 0 1 4.3-4.2c-0.52 0.29-1.4 0.86-2.66 1.72s-2.61 1.76-4.07 2.69-2.89 1.8-4.3 2.59a7.66 7.66 0 0 1-3 1.18 0.48 0.48 0 0 1-0.52-0.43q1.41-1.5 3.48-3.44t4.18-3.64q2-1.62 3.62-2.8a13.22 13.22 0 0 0 1.92-1.62 18.27 18.27 0 0 0 3.76-4.19q2.41-3.33 5.47-7.86t6.29-9.57q3.26-5.06 6.19-9.58 3.48 0.22 7 0.22h32.4q11.19 0 20.84-0.22l7 33.57a100.87 100.87 0 0 0 3.29 11.19q2.49 7.32 5.65 14.74a134.66 134.66 0 0 0 6.24 12.91q3.09 5.49 5.23 5.49a13.22 13.22 0 0 0 3.77-0.54 7.09 7.09 0 0 0 3.23-2q8.45 5.37 12.53 5.38 4.74 0 5.94-6.14t-1.06-19q-1.39-7.74-2.44-14.31c-0.69-4.37-1.35-8.72-2-13s-1.29-8.78-2-13.45-1.59-9.86-2.49-15.6c2.7-0.11 5.07-0.23 7.14-0.36a130.41 130.41 0 0 0 2.73 35.44q6.4 30.77 30.65 47.45t67.1 16.55a176.49 176.49 0 0 0 27.3-2.26q11.85-2 20.61-4.41a132.13 132.13 0 0 0 14.13-4.52 76.28 76.28 0 0 1 7.82-2.79q4.73-1.08 6.51-3.34c1.2-1.51 1.76-2.4 1.71-2.69q4.64-1.5 10.64-3.66c2.78-1 5.48-1.89 8.15-2.75-0.71 1.08-1.39 2.14-2 3.18q-2.25 3.66-3.72 6.46c-1 1.86-1.39 3.15-1.24 3.87 0.06 0.29 0.17 0.43 0.31 0.43a18.91 18.91 0 0 0 3.76-3.66c1.73-2 3.76-4.33 6.08-7 1.62-1.86 3.28-3.83 5-5.89l5.4-1.75a10.54 10.54 0 0 1-0.72 2.26 1.4 1.4 0 0 1-1.3 1 57.67 57.67 0 0 0-3.87 6.24q-1.87 3.43-1.38 5.81a3.16 3.16 0 0 0 0.77 1.61 2.72 2.72 0 0 1 0.72 1.4 6.38 6.38 0 0 1-0.15 2.91c-0.27 1.07-0.59 2.15-0.94 3.22s-0.66 2.16-0.94 3.23a6.38 6.38 0 0 0-0.15 2.91 3.49 3.49 0 0 0 1.78 2.36c0.58 0 1.8-0.82 3.68-2.47s3.83-3.52 5.84-5.6 4-3.94 5.83-5.59 3.18-2.47 3.9-2.47a0.48 0.48 0 0 1 0.52 0.43 28.91 28.91 0 0 1-2.08 4c-1.42 2.5-3 5.27-4.73 8.28s-3.32 5.81-4.72 8.39a30.36 30.36 0 0 0-2 4.09c0.57 0 1.79-1.07 3.63-3.23s3.91-4.51 6.17-7.1 4.38-5 6.36-7.21 3.31-3.41 4-3.55a0.24 0.24 0 0 1 0.26 0.22 8.17 8.17 0 0 1-0.94 3.23q-1.08 2.58-2.94 6c-1.25 2.29-2.53 4.74-3.86 7.32s-2.63 5-3.89 7.21-2.25 4.16-3 5.81a9 9 0 0 0-1 2.9q1-0.21 3.62-2.8c1.72-1.72 3.52-3.62 5.38-5.7s3.55-4 5.06-5.7 2.37-2.73 2.6-3q5.6-6.25 10.94-12.59t9.91-12.37q4.56-6 8.14-11.09t6-8.71a54.72 54.72 0 0 1 3.37-4.52q2.9-3.66 6.33-7.86t6.57-7.74a23.92 23.92 0 0 1 4.29-4.2c-0.51 0.29-1.4 0.86-2.65 1.72s-2.62 1.76-4.07 2.69-2.89 1.8-4.31 2.59a7.64 7.64 0 0 1-3 1.18 0.48 0.48 0 0 1-0.52-0.43q1.41-1.5 3.48-3.44t4.11-3.55q2-1.62 3.61-2.8a12.94 12.94 0 0 0 1.93-1.62 18.3 18.3 0 0 0 3.75-4.19q2.43-3.33 5.47-7.86t6.3-9.57q3.26-5.06 6.19-9.58 3.48 0.22 7 0.22h32.4q11.19 0 20.84-0.22l7 33.57a103.68 103.68 0 0 0 3.3 11.19q2.49 7.32 5.65 14.74a132.32 132.32 0 0 0 6.24 12.91q3.07 5.49 5.23 5.49a13.15 13.15 0 0 0 3.76-0.54 7.12 7.12 0 0 0 3.24-2q8.43 5.37 12.53 5.38 4.72 0 5.93-6.14t-1-19q-1.41-7.74-2.44-14.31c-0.7-4.37-1.35-8.72-2-13s-1.29-8.78-2-13.45-1.59-9.86-2.5-15.6c5.5-0.23 9.67-0.48 12.55-0.76q-1.12 9.46-1.35 18.41a137 137 0 0 0 2.58 31 88.55 88.55 0 0 0 8 23 62.36 62.36 0 0 0 13.46 17.64 57.59 57.59 0 0 0 18.93 11.3 70.52 70.52 0 0 0 24.4 4 118.9 118.9 0 0 0 42.16-7.42 121.84 121.84 0 0 0 35-20 117.58 117.58 0 0 0 25.28-28.97 96.26 96.26 0 0 0 13.21-34.13 437.5 437.5 0 0 0 5.79-49q1.3-22.42 0.8-39.85zm-812.14 123.05 8.72-19.15a57.45 57.45 0 0 1 5.13-4.31c1.74-1.29 3-1.93 3.91-1.93h0.43a6.54 6.54 0 0 0-0.81 1.29c-0.2 0.43-0.51 1-0.93 1.72s-1.05 1.69-1.88 2.9-1.88 2.84-3.19 4.85q-2.76 4.31-5.47 7.85a67.34 67.34 0 0 1-5.91 6.78zm-7.64 24.21c1-1.51 2-3.12 3.19-4.85s2.23-3.26 3.24-4.62 1.62-2.19 1.85-2.48a6.47 6.47 0 0 1-0.89 2.48 46.67 46.67 0 0 1-2.33 4.3c-0.9 1.51-1.7 2.87-2.38 4.09a7.9 7.9 0 0 0-1 2c0.09 0.44-0.22 0.87-0.92 1.3a4.35 4.35 0 0 1-2.34 0.64 10.65 10.65 0 0 1 1.58-2.86zm12.33 4.41c-1.25 1.58-2.14 2.65-2.67 3.23s-0.86 0.86-1 0.86 0-0.33 0.33-1 0.77-1.33 1.19-2.05a14.47 14.47 0 0 1 1.79-2.79 4.62 4.62 0 0 1 1 0.64 0.85 0.85 0 0 1 0.3 0.43zm11.2 8.82a5.1 5.1 0 0 1-2 2.15 5.45 5.45 0 0 1 0.8-2.9 7.84 7.84 0 0 1 1.53-2.48 1.9 1.9 0 0 1 0.69 0.22 2.39 2.39 0 0 0 0.49 0.32 1.51 1.51 0 0 1 0.55 0.54 5 5 0 0 0-2.08 2.15zm-1.35-31.85h1.72a0.49 0.49 0 0 1 0.52 0.43v0.22c0 0.14-0.07 0.36-0.29 0.64a2.57 2.57 0 0 1-0.89-0.1 5.8 5.8 0 0 1-1.08-1.19zm4.82-8.83-0.68 0.86a13 13 0 0 0-2 2.58c-1.23 1.72-2.79 3.84-4.71 6.35s-4 5.24-6.16 8.18-4.23 5.67-6.15 8.18-3.49 4.62-4.71 6.34-1.85 2.51-1.88 2.37c-0.09-0.43 0.46-1.61 1.63-3.55s2.7-4.27 4.58-7 3.88-5.63 6-8.72 4.19-5.92 6.09-8.5 3.46-4.73 4.68-6.45a12.7 12.7 0 0 1 2.05-2.59c1 0 1.61 0.15 1.81 0.43a0.88 0.88 0 0 0 0.74 0.43 4.4 4.4 0 0 0-1.29 1.09zm4.56 26a3.27 3.27 0 0 1-1.73-0.54 2 2 0 0 1-1-1.18l-0.17-0.86c0-0.15 0.14-0.36 0.51-0.65a0.73 0.73 0 0 1 0.6-0.22c1.38 1.15 2.2 1.8 2.45 1.94a1 1 0 0 1 0.45 0.65c0.11 0.62-0.26 0.91-1.12 0.91zm0.66-12.38c-0.57-0.64-1-1-1.28-1l0.34-0.43a1.45 1.45 0 0 1 1.2-0.43 1.11 1.11 0 0 0 0.35 0.64 1 1 0 0 0 0.22 0.54 1 1 0 0 1 0.22 0.54l0.22 1.07c-0.3 0.09-0.72-0.23-1.28-0.88zm9.1-16.24c0-0.14 0-0.22 0.17-0.22q3 0 3.69 3.23a0.5 0.5 0 0 0-0.13 0.43c-0.23 0.29-0.41 0.43-0.55 0.43-0.43 0-1.06-0.39-1.87-1.18a5 5 0 0 1-1.3-1.62c-0.13-0.52-0.13-0.88-0.02-1.02zm2.43 12.69a10.59 10.59 0 0 0-1.7 0.11c-0.42 0.08-0.46 0.9-0.13 2.48h-0.86a2.19 2.19 0 0 1-1.91-0.86 9.49 9.49 0 0 1 0.54-5.17c0.69-1.86 1.75-2.8 3.19-2.8 0.86 0 1.3 0.22 1.32 0.65s0.38 0.64 1.1 0.64a12.64 12.64 0 0 0 0.09 3.56c0.19 0.98-0.39 1.44-1.65 1.44zm11.43-16.46a3.58 3.58 0 0 1-1.26 1.19 6.34 6.34 0 0 1-1.72 1.07q-0.86 0-2.91-3.66a1.6 1.6 0 0 0 1.54-0.86 3.22 3.22 0 0 1 1.24-1.29 3 3 0 0 1 1.57 0.32c0.34 0.22 0.93 0.69 1.8 1.4a2.38 2.38 0 0 1-0.27 1.88zm72.62-65.85q-6.74 0.76-14 1.83 7.05-12.69 14.16-25.07a179 179 0 0 1 14.79-22.05c0.14 0 0.48-0.29 1-0.86s0.93-0.86 1.22-0.86a0.24 0.24 0 0 1 0.26 0.21l-1.69 4.31q0.54 2.58 1.28 6.67c0.5 2.72 1 5.38 1.45 8s0.9 4.84 1.3 6.78l0.69 3.33 3.89 18.95-2.63-0.22c-1.38-1.14-4.73-1.72-10-1.72a107.61 107.61 0 0 0-11.73 0.75zm20.2 11.57-7.08-0.43h13.34l0.09 0.43a48 48 0 0 1-6.35 0zm60.52 6.35c-0.23 1.51-0.43 3-0.59 4.59-2.56-0.3-5.36-0.58-8.42-0.83-0.17-0.86-0.31-1.68-0.4-2.47s-0.23-1.62-0.41-2.48l4.67-0.32c1.13-0.07 1.68-0.18 1.65-0.32q-0.09-0.44-6.54-0.43v-0.22h10.52c-0.25 0.8-0.4 1.65-0.53 2.48zm0.79-4.59-5.86-0.15c-2.53-0.07-4.36-0.11-5.51-0.11l-0.58-2.79c0.86 0 1.26-0.14 1.2-0.43v-0.22q6.76 0 11.53 0.19c-0.35 1.16-0.6 2.33-0.83 3.51zm1-4.78h-13.31l14.41-4.4c-0.41 1.46-0.81 2.92-1.15 4.4zm224.61 47.78a57.45 57.45 0 0 1 5.13-4.31c1.74-1.29 3-1.93 3.9-1.93h0.43a6.54 6.54 0 0 0-0.81 1.29c-0.2 0.43-0.51 1-0.93 1.72s-1 1.69-1.87 2.9-1.89 2.84-3.19 4.85q-2.76 4.31-5.47 7.85c-1 1.37-2.15 2.7-3.3 4a12.2 12.2 0 0 0-1.38 0.08l1.19-2.62c0.2-0.12 0.31-0.21 0.29-0.28s0-0.08-0.11-0.12zm-87.75 22.16c3.13-0.86 7.24-1.94 12.36-3.23l14.93-3.76q7.26-1.83 12.55-3.34c3.52-1 5.27-1.58 5.24-1.72v-0.22q4.95-1.07 12-3t13.51-3.87l11.15-3.34 0.56-0.17c-0.51 0.78-1 1.47-1.38 2.06q-10.38 2.43-18.49 4.68-8.55 2.37-17.18 4.84t-19 5.16q-10.3 2.7-24.71 5.92zm79.03-18.25q-1.56 2-3 3.88h-0.24a31.49 31.49 0 0 0-3.59 0.33c-1.68 0.21-4.1 0.68-7.25 1.39 0.8-0.28 1.9-0.71 3.29-1.29s2.83-1.18 4.35-1.83 2.83-1.21 4-1.72a10.52 10.52 0 0 1 1.89-0.75l0.79-0.17zm0.1 15.12-0.15 0.16 0.06-0.14zm-4-10.11c-1.57 2-3.08 4-4.54 6l-4.8 0.84-9.35 1.61c-2.91 0.5-4.93 0.83-6 1a0.47 0.47 0 0 0 0.38-0.22c0-0.14 1.29-0.68 4-1.61l8.93-3.12q4.92-1.73 8.89-3.34c1-0.52 1.85-0.89 2.48-1.17zm-72.63 23.39h-0.22c0-0.14 1.36-0.71 4.17-1.72s6.16-2.11 10.07-3.33 8-2.44 12.15-3.66 7.66-2.19 10.38-2.91l-6.72 4.95q-15 3.66-21.75 5.17a63 63 0 0 1-8.09 1.46zm30.75 12.27a9 9 0 0 0-0.58-0.75 1.64 1.64 0 0 1-0.37-0.76l4.46-1.29q0.35 1.69-3.52 2.76zm-4-12.8a34.67 34.67 0 0 1-7.07 1.18 1.91 1.91 0 0 1-1.13-0.22 32.65 32.65 0 0 0 5.07-1.5q4.43-1.5 10-3.34t10.54-3.66l6.8-2.47h-0.21a0.73 0.73 0 0 0 0.4-0.11 1.42 1.42 0 0 1 0.63-0.1h0.21q8.3-2.13 13.87-3.64l-2 2.83-1.44 0.48q-5.55 1.83-12 3.88t-12.56 3.76q-6.15 1.69-11.07 2.87zm26.73 2.26-0.26-0.22a0.24 0.24 0 0 1 0.3 0.18zm4.71 5.05-1.19 1.7-1 0.24c-3.28 0.79-6.44 1.51-9.46 2.15a35.43 35.43 0 0 1-6.47 1c-0.72 0-1.14-0.29-1.26-0.86s0.14-0.72 0.68-0.86a11.83 11.83 0 0 0 1.81-0.65h0.21a10.46 10.46 0 0 0 2.09-0.32l2.88-0.65c1-0.21 1.81-0.43 2.55-0.64s1.11-0.39 1.08-0.54a2.73 2.73 0 0 1-0.67-0.11 5 5 0 0 0-1.1-0.1c-1 0-2.21 0.07-3.62 0.21s-2.59 0.29-3.57 0.43a3.94 3.94 0 0 0 2.46-2.15c0.44-1 0.86-1.58 1.26-1.72a27 27 0 0 1 5.05-0.54q3.21-0.1 3.93-1.83l-0.17 0.22-0.05-0.22c0-0.25 0.73-0.78 2.35-1.59-0.72 1.15-1.4 2.27-2 3.31s-1.13 2-1.59 2.92l-0.26 0.09c-0.73 0.29-1.08 0.51-1 0.65s0.26 0.22 0.69 0.22h0.14c-0.41 0.82-0.74 1.55-1 2.16a8.25 8.25 0 0 0 2.9-2.32c0.32 0 0.65-0.09 1-0.16 1.17-0.21 2.27-0.46 3.29-0.75l0.71-0.2zm4.57-6.82c-0.93 0.37-1.91 0.75-3 1.12 0.86-0.18 1.7-0.32 2.55-0.47-0.73 1.14-1.5 2.3-2.3 3.49a13.45 13.45 0 0 0-2.25 0.32 23.45 23.45 0 0 0-2.29 0.61c0.76-0.89 1.57-1.88 2.44-3l0.38-0.49q0.69-0.19 1.47-0.48a11.71 11.71 0 0 1-1.22 0.16c1-1.28 2-2.63 3.1-4.06l1.95-0.94 2-0.94c-0.69 1.18-1.46 2.45-2.31 3.84zm2.5 6.61-0.41 0.09 0.59-0.74c2.45-3.08 4.73-5.88 6.87-8.39s3.88-4.63 5.24-6.35a14.42 14.42 0 0 1 2.26-2.58 20.25 20.25 0 0 1-4.25 7q-3.36 4-5.93 7.21a3.79 3.79 0 0 0-0.52 1.62c-0.07 0.46-0.17 1-0.26 1.44-0.96 0.11-2.15 0.34-3.52 0.66zm3.52 4.52c1-1.51 2-3.12 3.19-4.85s2.22-3.26 3.23-4.62l1.85-2.48a6.56 6.56 0 0 1-0.88 2.48c-0.65 1.36-1.43 2.8-2.33 4.3s-1.7 2.87-2.38 4.09a8.17 8.17 0 0 0-1 2c0.09 0.44-0.21 0.87-0.91 1.3a4.38 4.38 0 0 1-2.34 0.64 10.35 10.35 0 0 1 1.61-2.9zm12.32 4.41c-1.25 1.58-2.14 2.65-2.66 3.23s-0.86 0.86-1 0.86 0-0.33 0.34-1 0.77-1.33 1.19-2.05a14 14 0 0 1 1.79-2.79 4.57 4.57 0 0 1 1 0.64 0.82 0.82 0 0 1 0.31 0.43zm11.2 8.82a5.09 5.09 0 0 1-2 2.15 5.41 5.41 0 0 1 0.79-2.9 8 8 0 0 1 1.53-2.48 1.8 1.8 0 0 1 0.69 0.22 2.44 2.44 0 0 0 0.5 0.32 1.5 1.5 0 0 1 0.54 0.54 5.16 5.16 0 0 0-2.02 2.11zm-1.35-31.85h1.72a0.49 0.49 0 0 1 0.52 0.43v0.22c0 0.14-0.07 0.36-0.3 0.64a2.51 2.51 0 0 1-0.88-0.1 5.71 5.71 0 0 1-1.02-1.23zm4.84-8.82-0.68 0.86a12.38 12.38 0 0 0-2 2.58q-1.83 2.58-4.71 6.35t-6.15 8.18q-3.29 4.41-6.16 8.18t-4.76 6.3c-1.21 1.73-1.84 2.51-1.87 2.37-0.09-0.43 0.45-1.61 1.63-3.55s2.7-4.27 4.57-7 3.89-5.63 6.05-8.72 4.18-5.92 6.08-8.5 3.47-4.73 4.69-6.45a12.3 12.3 0 0 1 2-2.59c1 0 1.6 0.15 1.81 0.43a0.86 0.86 0 0 0 0.73 0.43 4.36 4.36 0 0 0-1.19 1.08zm4.56 26a3.24 3.24 0 0 1-1.73-0.54 2 2 0 0 1-1-1.18l-0.18-0.86c0-0.15 0.14-0.36 0.51-0.65a0.73 0.73 0 0 1 0.6-0.22c1.39 1.15 2.21 1.8 2.45 1.94a0.94 0.94 0 0 1 0.46 0.65c0.16 0.57-0.21 0.86-1.07 0.86zm0.65-12.38c-0.56-0.64-1-1-1.28-1l0.34-0.43a1.46 1.46 0 0 1 1.21-0.43 1.06 1.06 0 0 0 0.35 0.64 1 1 0 0 0 0.22 0.54 1.07 1.07 0 0 1 0.22 0.54l0.22 1.07c-0.25 0.04-0.67-0.28-1.24-0.93zm9.11-16.24c0-0.14 0-0.22 0.17-0.22q3 0 3.68 3.23a0.52 0.52 0 0 0-0.12 0.43c-0.23 0.29-0.42 0.43-0.56 0.43-0.43 0-1-0.39-1.86-1.18a4.84 4.84 0 0 1-1.3-1.62c-0.08-0.57-0.09-0.93 0.03-1.07zm2.42 12.69a10.68 10.68 0 0 0-1.7 0.11c-0.41 0.08-0.46 0.9-0.13 2.48h-0.86a2.18 2.18 0 0 1-1.9-0.86 9.31 9.31 0 0 1 0.54-5.17c0.69-1.86 1.75-2.8 3.19-2.8 0.86 0 1.3 0.22 1.31 0.65s0.39 0.64 1.11 0.64a12.64 12.64 0 0 0 0.09 3.56c0.23 0.93-0.31 1.39-1.61 1.39zm11.43-16.46a3.5 3.5 0 0 1-1.26 1.19 6.13 6.13 0 0 1-1.71 1.07q-0.87 0-2.92-3.66a1.61 1.61 0 0 0 1.55-0.86 3.15 3.15 0 0 1 1.24-1.29 3 3 0 0 1 1.57 0.32c0.33 0.22 0.93 0.69 1.8 1.4a2.34 2.34 0 0 1-0.23 1.83zm72.63-65.85q-6.73 0.76-14 1.83 7-12.69 14.16-25.07a180.14 180.14 0 0 1 14.78-22.05c0.14 0 0.48-0.29 1-0.86s0.93-0.86 1.22-0.86a0.24 0.24 0 0 1 0.26 0.21l-1.69 4.31c0.36 1.72 0.78 3.94 1.28 6.67s1 5.38 1.44 8 0.9 4.84 1.3 6.78 0.64 3 0.7 3.33l3.94 18.94-2.63-0.22c-1.39-1.14-4.74-1.72-10-1.72a107.44 107.44 0 0 0-11.72 0.71zm20.16 11.52-7.09-0.43h13.35l0.09 0.43a48 48 0 0 1-6.31 0zm65.38 11.67h-0.28q-5.67-0.85-13.55-1.51c-0.18-0.86-0.32-1.68-0.41-2.47s-0.23-1.62-0.4-2.48l4.66-0.32c1.14-0.07 1.69-0.18 1.66-0.32q-0.09-0.44-6.55-0.43v-0.22h8.82c2.45 0 4.86 0 7.28 0.07-0.48 2.55-0.88 5.13-1.23 7.68zm1.54-9.77-2.89-0.06q-4.76-0.11-8.54-0.22c-2.53-0.07-4.37-0.11-5.52-0.11l-0.58-2.79c0.86 0 1.26-0.14 1.2-0.43v-0.22q7.32 0 12.32 0.22l4.69 0.18c-0.26 1.14-0.47 2.28-0.68 3.42zm152.82-97a36.31 36.31 0 0 0-0.27 3.88l-0.65 4.09q-0.33-3.66-0.35-5.81c0-1.44 0-2.76 0.14-4s0.37-1.83 0.8-1.83h0.22a10.81 10.81 0 0 1 0.11 3.65zm4.17-6.88a9.37 9.37 0 0 1-1-2.58l-0.54-2.59-1.79-8.6 1.7-3.23 1.34 6.45c0.24 1.15 0.47 2.26 0.7 3.34a27.44 27.44 0 0 0 0.91 3.34zm12.26 15.49c-0.21 2.44-0.42 3.8-0.65 4.09l-0.35-5.81a15.4 15.4 0 0 0 1.23-2.37l0.89-1.93a26.33 26.33 0 0 0-1.12 6zm0.63-11a1.6 1.6 0 0 1-0.62 0.64l1.18-2.58-0.12 0.43a0.5 0.5 0 0 0-0.13 0.43l0.26 0.22a5.33 5.33 0 0 0-0.57 0.87zm0.83-5.81a1.54 1.54 0 0 1 0.08-0.65zm1.84 3.66a2.6 2.6 0 0 1-0.77-0.11 2.67 2.67 0 0 0-0.78-0.11l0.8-2.37c0-1.57-0.07-3.08-0.08-4.52a42.54 42.54 0 0 0-0.29-4.51l2.53 10.11 0.09 0.43q0.22 1.09-1.5 1.09z"/>
   </g>
   <path class="cls-4" d="m100.7 459.77q0 16.51-3 19.53-3 2.82-19.93 2.83a116 116 0 0 1-14.7-0.81q-6.63-0.81-7.24-7.45-0.6-7-0.61-16.1v-162.47q0-14.9-1.81-20.93-2.41-9.08-11.29-9.67c-1.21 0-3.89-0.07-8.06-0.2-3.36-0.13-6.1-0.33-8.25-0.61q-8.46-0.79-9.06-9.25a165.08 165.08 0 0 1 0.2-17.92q0.4-6.84 7.65-9.47c0.67-0.26 1.68-0.6 3-1s2.48-0.87 3-1q21.54-7.44 30.8-22.54 6.24-10.27 18.93-9.66h1.67q12.48-0.21 15.7 2.81 3 3.22 3 15.7z" fill="url(#linearGradient11309)"/>
   <path class="cls-5" d="m28.41 249.42c0.87-9.84 8.92-10.73 16.76-13.76 8.19-3.17 16-7.65 22.1-14.06 5.54-5.85 8.31-13.59 16.62-16.15a41.57 41.57 0 0 1 16.47-1.14c-0.44-4.2-1.34-7-2.68-8.46q-3.23-3-15.7-2.81h-1.61q-12.69-0.61-18.93 9.66-9.25 15.09-30.8 22.54c-0.54 0.14-1.55 0.48-3 1s-2.35 0.74-3 1q-7.25 2.63-7.65 9.47a164.91 164.91 0 0 0-0.2 17.91q0.6 8.46 9.06 9.26c0.64 0.09 1.35 0.16 2.11 0.23-0.57-4.99 0.09-10.54 0.45-14.69z"/>
   <path class="cls-5" d="m67 479.82c-0.85-17.37-0.24-34.9-0.24-52.28v-113c0-7.18 0.19-14.4-0.57-21.54-0.51-4.88 0-5.18-4.76-5.3-2.07-0.05-4.2 0-6.34-0.12q0.15 3.52 0.15 7.75v162.44q0 9.06 0.61 16.1 0.6 6.64 7.24 7.45c1.27 0.16 2.62 0.3 4 0.41-0.09-0.62-0.09-1.25-0.09-1.91z"/>
   <path class="cls-6" d="m77.75 483.85a119.45 119.45 0 0 1-14.92-0.85c-5.24-0.63-8.27-3.74-8.75-9-0.4-4.73-0.6-10.19-0.6-16.25v-162.45c0-9.72-0.59-16.59-1.75-20.44-1.42-5.33-4.58-8.07-9.68-8.43-1.28 0-4-0.07-8-0.2-3.4-0.14-6.23-0.34-8.42-0.62-6.43-0.61-10.1-4.36-10.56-10.85a164 164 0 0 1 0.2-18.14c0.3-5.22 3.34-9 8.79-11 0.67-0.27 1.7-0.61 3.1-1s2.42-0.85 3-1c13.84-4.84 23.84-12.17 29.84-21.83 4.49-7.39 11.37-10.91 20.48-10.48h1.52c9-0.14 14.34 0.9 16.88 3.29 2.46 2.62 3.57 8 3.57 17v248.17c0 15.44-2 19.24-3.53 20.76-1.7 1.56-5.57 3.32-21.17 3.32zm1.25-289.12c-7.23 0-12.48 2.91-16.1 8.86-6.37 10.38-17 18.21-31.71 23.28h-0.15c-0.46 0.12-1.42 0.44-2.85 1s-2.34 0.73-3 1c-4.22 1.52-6.35 4.12-6.58 8a166.51 166.51 0 0 0-0.2 17.71c0.34 4.76 2.72 7.19 7.5 7.65 2.14 0.27 4.87 0.46 8.16 0.59 4 0.13 6.79 0.2 8 0.2h0.12c6.59 0.45 11 4.23 12.82 10.94 1.26 4.18 1.87 11.19 1.87 21.38v162.43c0 6 0.2 11.32 0.6 16 0.33 3.63 2.1 5.44 5.73 5.88a114.58 114.58 0 0 0 14.49 0.79c14.65 0 18-1.64 18.75-2.35s2.55-4.09 2.55-18.32v-248.22c0-10.26-1.6-13.5-2.55-14.51s-4.17-2.45-14.41-2.28h-1.67z"/>
   <path class="cls-7" d="m77.75 484.43a120.42 120.42 0 0 1-15-0.82c-5.54-0.68-8.74-4-9.25-9.53-0.41-4.76-0.61-10.25-0.61-16.31v-162.47c0-9.66-0.58-16.48-1.72-20.27-1.36-5.13-4.28-7.67-9.17-8-1.26 0-4-0.06-8-0.19-3.42-0.14-6.27-0.35-8.47-0.63-6.75-0.64-10.58-4.57-11.07-11.38a167.79 167.79 0 0 1 0.2-18.21c0.32-5.47 3.49-9.45 9.17-11.5 0.67-0.27 1.74-0.62 3.14-1.05s2.42-0.84 3-1c13.69-4.75 23.63-12 29.48-21.54 4.6-7.58 11.65-11.2 21-10.76h1.55c9.14-0.15 14.61 1 17.28 3.44 2.6 2.77 3.74 8.12 3.74 17.38v248.18c0 15.48-2 19.44-3.69 21.16s-5.87 3.5-21.58 3.5zm1.25-292.59c-8.19 0-14.42 3.45-18.55 10.25-6 9.78-16.14 17.19-30.14 22-0.63 0.17-1.6 0.49-3 1s-2.43 0.77-3.09 1c-5.23 1.88-8.13 5.51-8.43 10.48a167.84 167.84 0 0 0-0.2 18.07c0.44 6.17 3.91 9.74 10 10.32 2.18 0.27 5 0.48 8.38 0.61 4 0.13 6.73 0.2 8 0.2 5.42 0.39 8.75 3.29 10.24 8.86 1.17 3.89 1.76 10.82 1.76 20.59v162.55c0 6 0.2 11.49 0.61 16.21 0.45 4.95 3.3 7.88 8.24 8.48a118.14 118.14 0 0 0 14.85 0.82c15.39 0 19.18-1.7 20.76-3.18 0.81-0.81 3.34-3.33 3.34-20.33v-248.22c0-8.82-1.08-14.09-3.41-16.56-2.4-2.26-7.64-3.24-16.45-3.11h-1.46c-0.45-0.02-0.96-0.04-1.45-0.04zm-1.25 289.16a117.69 117.69 0 0 1-14.56-0.79c-3.9-0.48-5.88-2.51-6.23-6.41-0.4-4.65-0.61-10-0.61-16v-162.5c0-10.14-0.6-17.07-1.84-21.22-1.73-6.46-6-10.1-12.31-10.53h-0.11c-1.19 0-4-0.07-8-0.2-3.31-0.13-6.07-0.33-8.21-0.6-5-0.48-7.64-3.15-8-8.17a165.29 165.29 0 0 1 0.2-17.79c0.24-4.1 2.51-6.87 7-8.47 0.62-0.25 1.6-0.58 3-1s2.4-0.85 2.88-1h0.13c14.52-5 25.09-12.77 31.38-23 4-6.52 9.82-9.49 18-9.1h1.53c10.41-0.2 13.75 1.44 14.8 2.42 1.26 1.35 2.74 5 2.74 14.94v248.19c0 14-1.65 17.69-2.64 18.68s-4.83 2.55-19.15 2.55zm1.25-285.69c-7 0-12.09 2.8-15.61 8.58-6.43 10.5-17.21 18.41-32 23.53l-0.16 0.05c-0.34 0.08-1.07 0.31-2.82 0.95-1.39 0.42-2.35 0.73-2.95 1-4 1.46-6 3.83-6.21 7.47a165.18 165.18 0 0 0-0.2 17.64c0.32 4.48 2.47 6.68 7 7.1 2.12 0.27 4.85 0.47 8.12 0.6 4 0.13 6.77 0.19 8 0.19h0.14c6.88 0.47 11.5 4.4 13.36 11.37 1.27 4.23 1.89 11.28 1.89 21.53v162.45c0 5.94 0.2 11.29 0.59 15.9 0.3 3.35 1.87 4.95 5.23 5.36a115.4 115.4 0 0 0 14.42 0.79c14.85 0 17.8-1.69 18.36-2.2 0.37-0.37 2.28-3 2.28-17.85v-248.22c0-10.44-1.67-13.36-2.39-14.12-0.56-0.52-3.29-2.27-14-2.09h-1.68c-0.48-0.03-0.92-0.03-1.37-0.03z"/>
   <path class="cls-8" d="m268.8 414.26q0.6 38.24-34.27 58.44-35.65 20.61-70.72-1.58-32.3-20.4-31.69-56.46 0.38-28.34 0.19-155.11 0-20 5.74-29.12 24.38-38.24 58-37.44 16.44 0.39 14.26 0.2 20.8 1.38 33.88 15.05 13.66 14.07 17 20.6 7.53 14.67 7.53 28.73v156.69zm-47.74-134.91c0-6.73-0.14-12-0.39-15.84a25.15 25.15 0 0 0-9.12-17.83 18.34 18.34 0 0 0-13.67-5 19.64 19.64 0 0 0-13.27 6.54 23.84 23.84 0 0 0-6.14 12.67 110.91 110.91 0 0 0-1.59 17.24q-0.19 54.07 0 117.27a76.74 76.74 0 0 0 1.39 15.65 33.1 33.1 0 0 0 4.56 11.69q6.53 10.5 20.4 8.92 11.69-1.38 15.65-13.87 2.18-6.93 2.18-18.82z" fill="url(#linear-gradient-2)"/>
   <path class="cls-5" d="m232.39 291.8c0-4.31 0-8.61-0.18-12.92-0.16-3.83 0.09-9.77-2.45-12.9-1.88-2.31-5.83-2.79-9.11-2.57v0.1c0.25 3.83 0.39 9.11 0.39 15.84v118.65q0 11.88-2.18 18.82-4 12.48-15.65 13.87c-0.9 0.1-1.77 0.15-2.62 0.18 0.11 0.63 0.2 1.26 0.34 1.89 0.05 0.31 0.09 0.5 0.11 0.6 0.39 2.2 1.14 6.37 2.56 7.65s5.28 1.17 7 1.22a20.77 20.77 0 0 0 12-3c7.22-4.8 8.95-14.14 9.57-22.17 0.49-6.2 0.27-12.5 0.27-18.7q-0.05-53.28-0.05-106.56z"/>
   <path class="cls-5" d="m143.59 432.12c-0.48-7.4 0-14.95 0-22.36 0.13-23.89 0.13-47.78 0.13-71.67q0-27.39-0.06-54.78c0-16.3-0.92-32.17 8.74-46.06 8.43-12.11 19.26-23.22 33.12-28.92a54.87 54.87 0 0 1 20.28-4c5.19-0.06 11 1.07 16.13 0.26h-0.21a0.41 0.41 0 0 1 0.18 0 53.31 53.31 0 0 1 30.35 12.33q-3.42-3.87-8-8.58-13.08-13.68-33.88-15.05 2.19 0.19-14.26-0.2-33.69-0.8-58 37.44-5.75 9.12-5.74 29.12 0.19 126.78-0.19 155.11-0.52 31.65 24.3 51.24a61 61 0 0 1-12.89-33.88z"/>
   <path class="cls-6" d="m200.34 484.29q-18.85 0-37.44-11.73c-22-13.88-32.89-33.37-32.48-57.93 0.25-18.73 0.32-70.92 0.19-155.08 0-13.8 2-23.62 6-30 16.51-25.91 36.58-38.76 59.52-38.23 11.58 0.27 13.91 0.27 14.27 0.25v0.51-0.56c14.24 0.95 26 6.19 35 15.58 9.3 9.57 15 16.44 17.32 21 5.12 10 7.71 19.9 7.71 29.51v156.64c0.4 26-11.42 46.19-35.12 59.92-11.6 6.75-23.31 10.12-34.97 10.12zm-5.57-289.62c-21.18 0-39.76 12.33-55.28 36.67-3.63 5.76-5.48 15.25-5.48 28.21 0.13 84.18 0.06 136.38-0.19 155.13-0.39 23.3 10 41.8 30.9 55 22.69 14.35 45.89 14.88 69 1.55 22.56-13.07 33.8-32.24 33.42-56.94v-156.72c0-9.06-2.47-18.46-7.34-27.95-2.16-4.19-7.79-11-16.75-20.2-8.28-8.67-19.17-13.55-32.35-14.51h-1-2.75q-3.63-0.06-10.89-0.23c-0.43-0.01-0.87-0.01-1.29-0.01zm4.95 237.94c-8.08 0-14.23-3.33-18.33-9.92a34.74 34.74 0 0 1-4.79-12.27 78.18 78.18 0 0 1-1.42-16c-0.13-41.93-0.13-81.39 0-117.28a112.56 112.56 0 0 1 1.61-17.5 25.68 25.68 0 0 1 6.57-13.56 21.47 21.47 0 0 1 14.39-7.08 20.15 20.15 0 0 1 14.94 5.38 26.86 26.86 0 0 1 9.67 19c0.26 3.88 0.4 9.25 0.4 16v118.62c0 8.06-0.76 14.56-2.25 19.33-2.86 9-8.6 14-17.08 15a31.9 31.9 0 0 1-3.71 0.28zm-0.72-190.21h-1a17.88 17.88 0 0 0-12.11 6 22.15 22.15 0 0 0-5.71 11.78 109.52 109.52 0 0 0-1.57 17c-0.12 35.88-0.12 75.34 0 117.27a75.42 75.42 0 0 0 1.35 15.3 31.88 31.88 0 0 0 4.33 11.13c4 6.46 10.17 9.12 18.78 8.13 7.12-0.84 11.77-5 14.22-12.69 1.39-4.43 2.1-10.59 2.1-18.3v-118.67c0-6.64-0.13-11.94-0.39-15.72a23.31 23.31 0 0 0-8.55-16.63 16.58 16.58 0 0 0-11.45-4.6z"/>
   <path class="cls-7" d="m200.34 484.86c-12.64 0-25.34-4-37.74-11.83-22.14-14-33.16-33.64-32.75-58.41 0.26-18.78 0.32-71 0.19-155.07 0-13.91 2-23.83 6.1-30.34 16.62-26.07 36.84-39 60-38.49 9.59 0.23 12.78 0.28 13.78 0.26v-0.1h1c14.2 1 25.95 6.33 34.93 15.72 9.35 9.62 15 16.53 17.42 21.13 5.17 10.06 7.78 20.07 7.78 29.77v156.75c0.4 26.24-11.51 46.57-35.4 60.41-11.65 6.77-23.58 10.2-35.31 10.2zm-5.56-293c-22.21 0-41.61 12.78-57.69 38-4 6.31-5.91 16-5.91 29.72 0.12 84.11 0.06 136.29-0.2 155.09-0.4 24.35 10.44 43.67 32.22 57.43 12.22 7.73 24.72 11.65 37.14 11.65 11.54 0 23.22-3.38 34.76-10 23.51-13.62 35.23-33.62 34.84-59.42v-156.76c0-9.52-2.58-19.35-7.66-29.25-2.32-4.5-8-11.32-17.22-20.86-8.78-9.19-20.27-14.36-34.16-15.38h-0.45c-0.65 0.05-5.74 0-14.32-0.25zm5.57 289.6c-12.06 0-24.07-3.76-35.94-11.27-21.06-13.31-31.55-32-31.16-55.48 0.26-18.82 0.33-71 0.19-155.13 0-13.06 1.88-22.66 5.57-28.51 15.94-25 35.12-37.44 57.06-36.92 4.84 0.12 8.48 0.19 10.9 0.23h2.91a6 6 0 0 0 0.71 0c13.44 1 24.45 5.91 32.84 14.68 9 9.25 14.65 16.09 16.83 20.33 4.92 9.57 7.41 19.06 7.41 28.21v156.69c0.39 24.92-11 44.25-33.7 57.43-11.2 6.47-22.44 9.71-33.62 9.71zm-5.58-286.2c-21 0-39.4 12.25-54.8 36.41-3.58 5.68-5.39 15.06-5.39 27.91 0.13 84.13 0.06 136.33-0.2 155.14-0.38 23.09 9.93 41.42 30.64 54.51 22.5 14.23 45.5 14.76 68.38 1.54 22.37-13 33.52-32 33.14-56.44v-156.76c0-9-2.45-18.29-7.28-27.69-2.14-4.14-7.74-10.89-16.65-20.06-8.19-8.57-19-13.39-32-14.35a7 7 0 0 1-0.73 0.05h-2.94q-3.63-0.06-10.91-0.24zm4.95 238c-8.28 0-14.61-3.43-18.82-10.19a35.59 35.59 0 0 1-4.9-12.55 79.09 79.09 0 0 1-1.42-16.07c-0.14-41.93-0.14-81.39 0-117.28a113.72 113.72 0 0 1 1.61-17.59 26.27 26.27 0 0 1 6.71-13.86 22.1 22.1 0 0 1 14.77-7.26 20.67 20.67 0 0 1 15.4 5.54 27.36 27.36 0 0 1 9.86 19.34c0.26 3.89 0.4 9.28 0.4 16v118.66c0 8.12-0.77 14.67-2.29 19.5-2.92 9.21-8.83 14.4-17.54 15.43a33.15 33.15 0 0 1-3.78 0.25zm-0.84-193.61h-1.1a20.88 20.88 0 0 0-14 6.89 25.08 25.08 0 0 0-6.43 13.27 112.61 112.61 0 0 0-1.6 17.41c-0.13 35.89-0.13 75.35 0 117.28a77.77 77.77 0 0 0 1.4 15.85 34.54 34.54 0 0 0 4.71 12.08c4.59 7.37 11.87 10.55 21.51 9.45 8.23-1 13.81-5.9 16.59-14.66 1.49-4.7 2.23-11.15 2.23-19.15v-118.72c0-6.7-0.13-12.07-0.4-15.93a26.19 26.19 0 0 0-9.47-18.57 19.57 19.57 0 0 0-13.44-5.28zm0.78 190.22c-7.07 0-12.28-2.84-15.88-8.61a32.22 32.22 0 0 1-4.4-11.33 75 75 0 0 1-1.36-15.4c-0.13-41.93-0.13-81.39 0-117.27a110.68 110.68 0 0 1 1.57-17.06 22.82 22.82 0 0 1 5.85-12.2 18.43 18.43 0 0 1 12.48-6.18h1a17.17 17.17 0 0 1 11.87 4.72 23.82 23.82 0 0 1 8.7 17c0.26 3.8 0.4 9.11 0.4 15.77v118.69c0 7.77-0.72 14-2.13 18.47-2.52 7.94-7.33 12.21-14.7 13.09a31.72 31.72 0 0 1-3.4 0.23zm-0.66-186.87h-1a17.28 17.28 0 0 0-11.73 5.82 21.73 21.73 0 0 0-5.57 11.49 109.32 109.32 0 0 0-1.55 16.88c-0.13 35.88-0.13 75.34 0 117.27a74.3 74.3 0 0 0 1.34 15.18 30.94 30.94 0 0 0 4.26 10.95c3.89 6.26 9.85 8.83 18.22 7.87 6.88-0.81 11.38-4.84 13.75-12.3 1.38-4.37 2.07-10.48 2.07-18.13v-118.68c0-6.64-0.13-11.91-0.39-15.69a22.74 22.74 0 0 0-8.32-16.26 16.06 16.06 0 0 0-11.08-4.4z"/>
   <path class="cls-9" d="m528.94 460.12q0 16.51-3 19.53-3 2.82-19.93 2.82a115.9 115.9 0 0 1-14.7-0.81q-6.65-0.8-7.25-7.45-0.6-7-0.6-16.1v-162.46q0-14.91-1.81-20.94-2.42-9.06-11.27-9.67-1.82 0-8.06-0.19-5-0.21-8.25-0.61-8.46-0.8-9.06-9.26a165.09 165.09 0 0 1 0.2-17.92q0.4-6.84 7.65-9.46c0.67-0.26 1.68-0.6 3-1s2.48-0.88 3-1q21.54-7.46 30.8-22.55 6.24-10.28 18.93-9.66h1.61q12.48-0.21 15.7 2.81 3 3.23 3 15.71v248.21z" fill="url(#linear-gradient-3)"/>
   <path class="cls-5" d="m456.65 249.77c0.87-9.84 8.92-10.73 16.76-13.77 8.19-3.17 16-7.65 22.09-14.06 5.55-5.84 8.32-13.58 16.63-16.14a41.37 41.37 0 0 1 16.47-1.15c-0.44-4.19-1.34-7-2.68-8.46q-3.23-3-15.7-2.81h-1.61q-12.69-0.62-18.93 9.66-9.26 15.11-30.8 22.55c-0.54 0.13-1.55 0.47-3 1s-2.35 0.74-3 1q-7.24 2.63-7.65 9.46a165.09 165.09 0 0 0-0.23 17.95q0.6 8.46 9.06 9.26c0.64 0.08 1.35 0.15 2.11 0.22-0.54-5.02 0.12-10.56 0.48-14.71z"/>
   <path class="cls-5" d="m495.2 480.17c-0.85-17.37-0.24-34.9-0.24-52.29v-113c0-7.17 0.18-14.39-0.57-21.54-0.51-4.88 0-5.18-4.76-5.29-2.07-0.06-4.21 0-6.34-0.12 0.1 2.35 0.15 4.92 0.15 7.75v162.43q0 9.06 0.6 16.1 0.61 6.65 7.25 7.45c1.27 0.17 2.62 0.3 4 0.42-0.02-0.62-0.06-1.26-0.09-1.91z"/>
   <path class="cls-6" d="m506 484.2a117.39 117.39 0 0 1-14.92-0.83c-5.24-0.63-8.27-3.74-8.75-9-0.4-4.74-0.61-10.2-0.61-16.26v-162.46c0-9.72-0.59-16.59-1.74-20.44-1.42-5.33-4.58-8.07-9.68-8.44-1.28 0-4-0.07-8-0.2-3.4-0.13-6.23-0.34-8.42-0.62-6.43-0.61-10.1-4.36-10.56-10.85a166.17 166.17 0 0 1 0.19-18.14c0.31-5.22 3.35-9 8.79-11 0.68-0.26 1.71-0.61 3.11-1s2.42-0.85 3-1c13.87-4.81 23.9-12.14 29.83-21.79 4.49-7.39 11.37-10.92 20.48-10.49h1.53c9-0.14 14.34 0.9 16.88 3.29 2.46 2.62 3.56 8 3.56 17v248.15c0 15.44-2 19.23-3.52 20.75-1.71 1.57-5.58 3.33-21.17 3.33zm1.27-289.12c-7.23 0-12.48 2.9-16.1 8.86-6.37 10.38-17 18.21-31.71 23.28h-0.15c-0.46 0.12-1.42 0.44-2.85 1s-2.34 0.73-3 1c-4.21 1.52-6.34 4.11-6.57 8a166.48 166.48 0 0 0-0.2 17.71c0.34 4.75 2.72 7.18 7.5 7.64q3.21 0.41 8.16 0.6c4 0.13 6.78 0.19 8 0.19h0.12c6.59 0.45 11 4.24 12.82 10.94 1.25 4.18 1.87 11.19 1.87 21.39v162.42c0 6 0.2 11.33 0.6 16 0.33 3.62 2.1 5.43 5.73 5.87a114.41 114.41 0 0 0 14.49 0.8c14.65 0 18-1.65 18.75-2.35s2.47-4 2.47-18.27v-248.26c0-10.27-1.6-13.51-2.55-14.52s-4.17-2.45-14.42-2.27h-1.63c-0.45-0.03-0.9-0.03-1.34-0.03z"/>
   <path class="cls-7" d="m506 484.77a120.7 120.7 0 0 1-15-0.82c-5.53-0.68-8.73-4-9.24-9.53-0.41-4.75-0.61-10.24-0.61-16.31v-162.46c0-9.66-0.58-16.48-1.72-20.28-1.36-5.12-4.28-7.67-9.17-8-1.26 0-4-0.07-8-0.2-3.42-0.14-6.27-0.35-8.47-0.62-6.75-0.64-10.58-4.58-11.07-11.38a168 168 0 0 1 0.2-18.22c0.32-5.47 3.49-9.44 9.17-11.5 0.67-0.27 1.74-0.62 3.14-1.05s2.41-0.84 3-1c13.69-4.76 23.62-12 29.48-21.54 4.6-7.58 11.65-11.21 21-10.76h1.51c9.13-0.15 14.61 1 17.28 3.44 2.6 2.77 3.74 8.12 3.74 17.39v248.19c0 15.48-2 19.44-3.69 21.16s-5.85 3.49-21.55 3.49zm1.27-292.58c-8.2 0-14.43 3.44-18.56 10.25-6 9.77-16.13 17.19-30.13 22-0.63 0.16-1.6 0.49-3 1s-2.43 0.76-3.09 1c-5.25 1.96-8.16 5.56-8.49 10.56a165.27 165.27 0 0 0-0.2 18.07c0.44 6.16 3.91 9.73 10 10.31 2.19 0.28 5 0.48 8.39 0.62 4 0.13 6.73 0.19 8 0.19 5.42 0.4 8.75 3.29 10.24 8.87 1.16 3.88 1.76 10.82 1.76 20.59v162.46c0 6 0.2 11.49 0.61 16.21 0.45 4.95 3.3 7.89 8.24 8.48a116.28 116.28 0 0 0 14.85 0.82c15.39 0 19.18-1.69 20.75-3.17 0.82-0.82 3.35-3.34 3.35-20.33v-248.22c0-8.83-1.08-14.1-3.41-16.57-2.4-2.25-7.64-3.24-16.46-3.11h-1.53c-0.39-0.02-0.86-0.03-1.33-0.03zm-1.27 289.12a117.69 117.69 0 0 1-14.56-0.79c-3.9-0.47-5.88-2.51-6.23-6.4-0.4-4.66-0.61-10-0.61-16v-162.47c0-10.14-0.6-17.08-1.84-21.22-1.73-6.47-6-10.1-12.31-10.53h-0.11c-1.2 0-4-0.07-8-0.2-3.31-0.13-6.07-0.33-8.21-0.6-5-0.48-7.65-3.15-8-8.17a162.74 162.74 0 0 1 0.2-17.79c0.24-4.09 2.51-6.86 7-8.47 0.62-0.24 1.6-0.57 3-1s2.4-0.84 2.88-1h0.12c14.53-5 25.1-12.78 31.39-23 4-6.53 9.82-9.49 18-9.11h1.61c10.42-0.19 13.76 1.44 14.81 2.42 1.26 1.35 2.73 5 2.73 15v248.14c0 13.95-1.64 17.68-2.63 18.67s-4.93 2.52-19.24 2.52zm1.27-285.66c-7 0-12.1 2.81-15.61 8.59-6.43 10.49-17.21 18.4-32 23.53h-0.16c-0.34 0.09-1.07 0.31-2.82 0.95-1.39 0.42-2.35 0.74-3 1-4 1.46-6 3.83-6.2 7.46a162.58 162.58 0 0 0-0.2 17.64c0.32 4.49 2.47 6.68 7 7.11 2.13 0.26 4.86 0.46 8.13 0.59 4 0.13 6.77 0.2 8 0.2h0.14c6.88 0.48 11.5 4.4 13.35 11.37 1.27 4.24 1.9 11.29 1.9 21.54v162.48c0 5.94 0.2 11.29 0.59 15.9 0.3 3.35 1.87 5 5.23 5.36a113.52 113.52 0 0 0 14.42 0.79c14.85 0 17.8-1.68 18.36-2.19 0.37-0.38 2.28-3.05 2.28-17.85v-248.22c0-10.44-1.67-13.36-2.39-14.13-0.56-0.52-3.29-2.27-14-2.09h-1.64z"/>
   <path class="cls-10" d="m431 414.61q0.58 38.24-34.27 58.44-35.65 20.59-70.72-1.59-32.3-20.4-31.7-56.46 0.39-28.32 0.2-155.11 0-20 5.74-29.12 24.38-38.24 58-37.44 16.44 0.39 14.26 0.2 20.81 1.38 33.88 15.05 13.66 14.07 17 20.6 7.61 14.67 7.61 28.73zm-47.7-134.91c0-6.73-0.14-12-0.39-15.85a25.13 25.13 0 0 0-9.12-17.85 18.34 18.34 0 0 0-13.67-5 19.68 19.68 0 0 0-13.27 6.54 23.84 23.84 0 0 0-6.14 12.68 110.69 110.69 0 0 0-1.59 17.23q-0.19 54.08 0 117.28a76.81 76.81 0 0 0 1.39 15.65 33.17 33.17 0 0 0 4.56 11.69q6.53 10.5 20.4 8.91 11.68-1.38 15.65-13.87 2.17-6.93 2.18-18.82z" fill="url(#linear-gradient-4)"/>
   <path class="cls-5" d="m394.63 292.14c0-4.31 0-8.61-0.18-12.92-0.16-3.82 0.09-9.77-2.45-12.89-1.88-2.31-5.84-2.8-9.11-2.58v0.1c0.25 3.84 0.39 9.12 0.39 15.85v118.66q0 11.89-2.18 18.82-4 12.48-15.65 13.87c-0.9 0.1-1.77 0.15-2.62 0.18 0.11 0.63 0.2 1.26 0.33 1.89 0.06 0.31 0.09 0.5 0.11 0.6 0.4 2.2 1.14 6.38 2.57 7.65s5.28 1.18 7 1.22a20.62 20.62 0 0 0 12-3c7.22-4.8 8.95-14.14 9.57-22.17 0.49-6.19 0.27-12.49 0.27-18.7q-0.05-53.3-0.05-106.58z"/>
   <path class="cls-5" d="m305.83 432.47c-0.48-7.4 0-15 0-22.37 0.13-23.89 0.12-47.78 0.12-71.66q0-27.39-0.05-54.78c0-16.3-0.93-32.17 8.74-46.06 8.43-12.12 19.26-23.23 33.12-28.92a54.68 54.68 0 0 1 20.28-4c5.19-0.06 11 1.07 16.13 0.26h-0.21a0.36 0.36 0 0 1 0.18 0 53.48 53.48 0 0 1 30.35 12.33q-3.42-3.87-8-8.58-13.08-13.67-33.88-15.05 2.19 0.19-14.26-0.2-33.69-0.79-58 37.44-5.75 9.12-5.74 29.12 0.19 126.78-0.2 155.11-0.51 31.67 24.31 51.25a61 61 0 0 1-12.89-33.89z"/>
   <path class="cls-6" d="m362.58 484.63q-18.85 0-37.44-11.73c-22-13.88-32.89-33.36-32.49-57.93 0.26-18.73 0.33-70.91 0.2-155.08 0-13.8 2-23.62 6-30 16.51-25.91 36.58-38.76 59.52-38.23 11.58 0.28 13.91 0.28 14.27 0.25v0.52-0.57c14.24 0.95 26 6.19 35 15.58 9.3 9.57 15 16.44 17.32 21 5.12 10 7.71 19.9 7.71 29.5v156.65c0.4 26-11.42 46.19-35.12 59.93-11.55 6.74-23.31 10.11-34.97 10.11zm-5.58-289.63c-21.18 0-39.77 12.34-55.28 36.67-3.63 5.77-5.48 15.25-5.48 28.21 0.13 84.18 0.06 136.38-0.2 155.14-0.38 23.29 10 41.79 30.91 55 22.69 14.36 45.89 14.88 69 1.55 22.56-13.07 33.8-32.23 33.42-56.94v-156.72c0-9.06-2.47-18.46-7.34-28-2.16-4.19-7.79-11-16.75-20.19-8.29-8.67-19.17-13.55-32.35-14.52a8.37 8.37 0 0 1-1 0h-2.75c-2.42 0-6.05-0.11-10.89-0.23zm5 238c-8.07 0-14.22-3.33-18.33-9.93a34.84 34.84 0 0 1-4.78-12.27 78.08 78.08 0 0 1-1.42-16c-0.13-41.93-0.13-81.39 0-117.29a112.55 112.55 0 0 1 1.53-17.51 25.67 25.67 0 0 1 6.57-13.57 21.51 21.51 0 0 1 14.43-7.06 20.12 20.12 0 0 1 14.94 5.39 26.86 26.86 0 0 1 9.67 19c0.26 3.87 0.4 9.24 0.4 16v118.6c0 8.06-0.76 14.56-2.26 19.33-2.86 9-8.59 14-17.07 15.05a31.94 31.94 0 0 1-3.68 0.26zm-0.76-190.22h-1a17.84 17.84 0 0 0-12.12 6 22.24 22.24 0 0 0-5.7 11.79 109.41 109.41 0 0 0-1.57 17c-0.13 35.89-0.13 75.34 0 117.27a75.42 75.42 0 0 0 1.35 15.3 31.73 31.73 0 0 0 4.33 11.14c4 6.46 10.17 9.12 18.78 8.13 7.12-0.84 11.77-5 14.22-12.69 1.39-4.44 2.1-10.6 2.1-18.31v-118.71c0-6.65-0.13-11.94-0.4-15.73a23.24 23.24 0 0 0-8.52-16.66 16.61 16.61 0 0 0-11.52-4.57z"/>
   <path class="cls-7" d="m362.58 485.2c-12.64 0-25.34-4-37.74-11.82-22.14-14-33.16-33.64-32.75-58.41 0.26-18.79 0.32-71 0.19-155.08 0-13.9 2-23.83 6.1-30.33 16.62-26.08 36.84-39 60-38.5 9.59 0.24 12.77 0.28 13.78 0.27v-0.11h1c14.19 1 25.95 6.32 34.93 15.72 9.35 9.61 15 16.52 17.42 21.13 5.16 10 7.78 20.07 7.78 29.76v156.76c0.4 26.24-11.51 46.57-35.4 60.42-11.69 6.76-23.58 10.19-35.31 10.19zm-5.56-293c-22.21 0-41.61 12.78-57.69 38-4 6.31-5.92 16-5.92 29.72 0.13 84.12 0.07 136.3-0.19 155.09-0.4 24.35 10.44 43.67 32.22 57.44 12.22 7.73 24.72 11.65 37.14 11.65 11.53 0 23.22-3.38 34.76-10 23.51-13.63 35.23-33.62 34.84-59.43v-156.76c0-9.51-2.58-19.35-7.66-29.25-2.32-4.5-8-11.32-17.22-20.86-8.78-9.18-20.27-14.35-34.17-15.37h-0.44c-0.65 0-5.74 0-14.32-0.25h-1.37zm5.57 289.59c-12.06 0-24.07-3.76-35.94-11.27-21.06-13.31-31.55-32-31.16-55.48 0.26-18.81 0.33-71 0.19-155.13 0-13.06 1.88-22.65 5.57-28.51 15.94-25 35.12-37.43 57.06-36.92q7.26 0.18 10.9 0.24h2.91a6 6 0 0 0 0.71 0c13.44 1 24.44 5.91 32.84 14.68 9 9.25 14.65 16.09 16.83 20.33 4.92 9.57 7.41 19.06 7.41 28.21v156.69c0.38 24.92-11 44.25-33.71 57.43-11.2 6.48-22.43 9.71-33.61 9.71zm-5.59-286.21c-21 0-39.41 12.25-54.8 36.41-3.58 5.67-5.4 15-5.4 27.9 0.14 84.13 0.07 136.33-0.19 155.14-0.38 23.09 9.93 41.43 30.64 54.51 22.5 14.24 45.5 14.76 68.38 1.54 22.37-13 33.51-31.95 33.13-56.44v-156.73c0-9-2.44-18.29-7.27-27.69-2.14-4.14-7.74-10.89-16.65-20.05-8.19-8.58-19-13.4-32-14.35a5.25 5.25 0 0 1-0.73 0h-2.94q-3.63-0.06-10.91-0.23c-0.4-0.01-0.83-0.01-1.26-0.01zm5 237.94c-8.27 0-14.6-3.42-18.81-10.19a35.62 35.62 0 0 1-4.86-12.46 79.23 79.23 0 0 1-1.42-16.07c-0.14-41.93-0.14-81.39 0-117.29a113.5 113.5 0 0 1 1.61-17.58 26.2 26.2 0 0 1 6.71-13.86 22 22 0 0 1 14.76-7.26 20.67 20.67 0 0 1 15.37 5.53 27.4 27.4 0 0 1 9.86 19.35c0.26 3.89 0.4 9.27 0.4 16v118.67c0 8.12-0.77 14.68-2.29 19.5-2.93 9.22-8.83 14.41-17.55 15.44a33 33 0 0 1-3.78 0.22zm-0.83-193.61h-1.1a20.94 20.94 0 0 0-14 6.9 25 25 0 0 0-6.42 13.27 112.6 112.6 0 0 0-1.6 17.4c-0.13 35.9-0.13 75.35 0 117.29a77.74 77.74 0 0 0 1.4 15.84 34.59 34.59 0 0 0 4.71 12.09c4.59 7.37 11.86 10.55 21.51 9.45 8.23-1 13.81-5.91 16.59-14.66 1.48-4.71 2.23-11.16 2.23-19.16v-118.63c0-6.71-0.13-12.07-0.4-15.94a26.25 26.25 0 0 0-9.47-18.57 19.62 19.62 0 0 0-13.5-5.28zm0.78 190.22c-7.08 0-12.29-2.83-15.88-8.61a32.25 32.25 0 0 1-4.4-11.32 75 75 0 0 1-1.36-15.41c-0.13-41.93-0.13-81.38 0-117.27a109.23 109.23 0 0 1 1.57-17 22.85 22.85 0 0 1 5.85-12.09 18.41 18.41 0 0 1 12.48-6.18h1a17.1 17.1 0 0 1 11.87 4.72 23.77 23.77 0 0 1 8.71 17c0.26 3.8 0.39 9.11 0.39 15.78v118.61c0 7.77-0.71 14-2.12 18.48-2.52 7.93-7.33 12.21-14.7 13.08a29.5 29.5 0 0 1-3.46 0.21zm-0.71-186.82h-1a17.31 17.31 0 0 0-11.72 5.83 21.66 21.66 0 0 0-5.57 11.49 109.31 109.31 0 0 0-1.55 16.87c-0.13 35.89-0.13 75.34 0 117.27a74.41 74.41 0 0 0 1.33 15.23 31.08 31.08 0 0 0 4.27 10.93c3.89 6.26 9.85 8.83 18.22 7.87 6.88-0.82 11.38-4.84 13.75-12.31 1.38-4.37 2.07-10.47 2.07-18.13v-118.66c0-6.64-0.13-11.92-0.39-15.69a22.7 22.7 0 0 0-8.32-16.26 16.07 16.07 0 0 0-11.14-4.44z"/>
   <g data-name="1">
    <path class="cls-1" d="m47.56 232.34a12.06 12.06 0 1 0 12 12.06 12.06 12.06 0 0 0-12-12.06zm29.92-0.83a12.05 12.05 0 1 0-12.06-12 12.05 12.05 0 0 0 12.06 12zm0 23.27a12.06 12.06 0 1 0 12 12.06 12.06 12.06 0 0 0-12-12.06zm0 47.38a12.05 12.05 0 1 0 12 12 12.05 12.05 0 0 0-12-12zm0 47.37a12.06 12.06 0 1 0 12 12.06 12.06 12.06 0 0 0-12-12.06zm0 47.38a12.05 12.05 0 1 0 12 12 12.05 12.05 0 0 0-12-12zm0 47.37a12.06 12.06 0 1 0 12 12.05 12.06 12.06 0 0 0-12-12.05z"/>
   </g>
   <g data-name="0">
    <path class="cls-1" d="m171.72 215.72a12 12 0 1 0 12.05 12.05 12.05 12.05 0 0 0-12.05-12.05zm-16.62 63.17a12.06 12.06 0 1 0-12.1-12.05 12.06 12.06 0 0 0 12.1 12.05zm0 47.37a12.05 12.05 0 1 0-12.1-12.05 12.05 12.05 0 0 0 12.1 12.05zm0 47.38a12.06 12.06 0 1 0-12.1-12.05 12.06 12.06 0 0 0 12.1 12.05zm12.05 35.36a12.06 12.06 0 1 0-12.05 12 12.05 12.05 0 0 0 12.05-12zm4.57 25.35a12.05 12.05 0 1 0 12.05 12.05 12 12 0 0 0-12.05-12.09zm56-194.49a12.05 12.05 0 1 0-12.06-12 12.05 12.05 0 0 0 12.1 11.96zm4.57 27a12.05 12.05 0 1 0 12-12.06 12.05 12.05 0 0 0-11.96 12.04zm12 35.32a12.05 12.05 0 1 0 12.05 12 12 12 0 0 0-11.96-12.02zm0 47.37a12.06 12.06 0 1 0 12.05 12.06 12.05 12.05 0 0 0-11.96-12.08zm0 47.38a12.05 12.05 0 1 0 12.05 12 12 12 0 0 0-11.96-12.02zm-16.62 37.4a12.05 12.05 0 1 0 12.05 12.05 12.05 12.05 0 0 0-11.96-12.07z"/>
   </g>
   <g id="_0_copy" data-name="0 copy">
    <path class="cls-1" d="m334.62 215.72a12 12 0 1 0 12.05 12.05 12.05 12.05 0 0 0-12.05-12.05zm-16.62 63.17a12.06 12.06 0 1 0-12-12.05 12.06 12.06 0 0 0 12 12.05zm0 47.37a12 12 0 1 0-12-12.05 12.05 12.05 0 0 0 12 12.05zm0 47.38a12.06 12.06 0 1 0-12-12.05 12.06 12.06 0 0 0 12 12.05zm12.05 35.36a12.05 12.05 0 1 0-12.05 12 12.05 12.05 0 0 0 12.05-12zm4.57 25.35a12.05 12.05 0 1 0 12.05 12.05 12 12 0 0 0-12.05-12.09zm55-194.49a12.05 12.05 0 1 0-12.05-12 12.05 12.05 0 0 0 12.09 11.96zm4.57 27a12.05 12.05 0 1 0 12-12.06 12.05 12.05 0 0 0-11.96 12.04zm12 35.32a12.05 12.05 0 1 0 12.05 12 12 12 0 0 0-11.96-12.02zm0 47.37a12.06 12.06 0 1 0 12.05 12.06 12.05 12.05 0 0 0-11.96-12.08zm0 47.38a12.05 12.05 0 1 0 12.05 12 12 12 0 0 0-11.96-12.02zm-16.62 37.4a12.05 12.05 0 1 0 12 12.05 12 12 0 0 0-11.91-12.07z"/>
   </g>
   <g data-name="Shape 2">
    <path class="cls-11" d="m711.21 237.33c-0.06-1.25-5-44.88-5-44.88l-31.59 44.88-20.77-30.75 7.48 61.5 28.26-4.15 27.41 16.62 30.75-53.19s-36.47 11.22-36.54 9.97z"/>
   </g>
   <path class="cls-11" d="m684 217.52c-0.65 1.23-1.31 2.39-2 3.6a16.64 16.64 0 0 0-1.06 2.11l4.17-7.57c-0.37 0.61-0.74 1.23-1.11 1.86z"/>
   <path class="cls-11" d="m705.24 208.5a26.79 26.79 0 0 1 0.28 6.1c0 1.58-0.3 3.08-0.34 4.66a35.28 35.28 0 0 0 0.44 4.39c0.28 3-0.21 5.93 0 8.9 0.1 1.38 0.37 2.71 0.42 4.11l-0.12-16.34c0-3.41 0-6.82-0.08-10.22v-3.76l-0.14-5.73-0.06-0.11-0.14 0.08a22.22 22.22 0 0 0-0.26 7.92z"/>
   <path class="cls-11" d="m706 236.66v0.81c0.05-0.3 0-0.55 0-0.81z"/>
   <path class="cls-11" d="m760.11 221.33a3.78 3.78 0 0 0-3.07-1.39 26.06 26.06 0 0 0-9.81 1.88c-0.92 0.33-3.05 0.47-3.47 1.42 1.16 0 2.21-1.35 3.4-0.78-1.25 0.59-2.53 1.12-3.79 1.7-1.52 0.7-3.73 2.38-5.39 2.38 0.4-0.78 1.42-0.66 1.92-1.3 0.9-1.14-0.4-0.49-0.93-0.28-2.28 0.89-5 1-7.06 2.35a16.43 16.43 0 0 1-4.83 2.27 40 40 0 0 0-6.38 1.75 11.84 11.84 0 0 1-3.78 1.1c-0.43-2.68-0.65-5.37-0.93-8.07-0.15-1.35-0.31-2.71-0.54-4.06a8.55 8.55 0 0 1-0.27-1.41v-1.85-2.4-1.06c0-0.35 0-0.89 0.26-0.43a6 6 0 0 1 0.24 1.78 6.57 6.57 0 0 1 0.22 0.93 6.25 6.25 0 0 0 0.25-2.75 17.15 17.15 0 0 1-0.06-3.21 9.15 9.15 0 0 0-0.11-2.72 8.75 8.75 0 0 1-0.12-2.8c0.09-3.34 0.38-6.36-0.18-9.71-0.4-2.41 0.2-4.48 0.27-6.83 0-1.52-0.32-2.91-0.41-4.41-0.12-1.88 0.65-4.13-0.23-5.87a6.41 6.41 0 0 0-4-3.23c-2.13-0.4-3.93 1.83-5.05 3.32s-2.6 3.31-3.74 5a11.37 11.37 0 0 0-1 2.23c-0.62 1.48-1.87 2.73-2.32 4.22 0.67 0 1.42-0.9 2-1.26-1.19 1.82-2.11 3.68-3.42 5.36a29.28 29.28 0 0 0-2.15 2.83 53.33 53.33 0 0 0-2.3 5.49c-0.67 1.47-1.73 2.25-2.6 3.48-1 1.48-1.47 3.27-2.34 4.82-0.06 0.12-0.13 0.23-0.19 0.34l-0.26 0.52a35.48 35.48 0 0 0-2.66 4.7l-0.15 0.29c0.36-0.56 0.73-1.1 1.11-1.65l-6.13 12a14.69 14.69 0 0 0 0.59-2.17c0.08-0.22 0.16-0.44 0.26-0.66-0.66 1.18-1.31 2.37-2 3.56a12.77 12.77 0 0 0-1.34-2.14c-2.36-3.75-4.83-7.43-7.25-11.14q-1.39-2.13-2.74-4.29c-0.79-1.27-1.59-2.54-2.4-3.79-0.25-0.39-0.49-0.77-0.7-1.18a12.58 12.58 0 0 0-0.83-1.13 4 4 0 0 0-0.42-0.57 3.07 3.07 0 0 0-0.39-0.41 0.26 0.26 0 0 0-0.21 0 0.77 0.77 0 0 0 0.12 0.49c0.22 0.32 0.52 0.71 0.26 1.11 0 0-0.78-0.95-0.85-1.05a3.46 3.46 0 0 1-0.56-1.16 4 4 0 0 0-0.23-0.9c-0.21-0.43-0.4-0.85-0.58-1.29a1.24 1.24 0 0 1-0.09-0.38c0-0.3 0.23-0.13 0.34 0a18.21 18.21 0 0 0 1 1.55 0.52 0.52 0 0 0 0.45 0.22 1.67 1.67 0 0 0-0.22-0.94 10.8 10.8 0 0 0-3.23-4 4.9 4.9 0 0 0-1-0.65 4.12 4.12 0 0 0-2.31-0.08 6.31 6.31 0 0 0-4.78 4.98c0 0.14 0 0.28-0.05 0.42-0.7 11.79-0.16 23.63 0.11 35.42 0.06 2.68 0.13 5.35 0.19 8a23.09 23.09 0 0 1 0 3.9 19.59 19.59 0 0 0 0 2 14.09 14.09 0 0 0 0 2.25 12.83 12.83 0 0 1 0.24 2.3 8.28 8.28 0 0 0-0.09 1c0 0.31 0.12 0.84 0.49 0.91 0.18-0.38 0.31-4 0.54-4s0.23 0.2 0.23 0.36v0.91c0 3-0.31 6.08-0.53 9.12-0.1 1.51-0.19 3-0.2 4.55s0 2.74 0 4.12a5.27 5.27 0 0 0 4.63 5.31 6.21 6.21 0 0 0 3.77-0.78c0.53-0.3 0.86-0.75 1.41-1.05a13.23 13.23 0 0 0 1.62-0.87 8.81 8.81 0 0 1 2.61-1.46c1-0.37 1.93-0.78 2.89-1.18a15.62 15.62 0 0 1 3.57-0.92 28.64 28.64 0 0 1 3.69-0.88c1.1 0 2.21 0.14 3.31 0.07a18 18 0 0 1 2.32 0c1.47 0.1 2.8 0.6 4.23 0.83 0.63 0.1 1.24 0.17 1.85 0.33a15.28 15.28 0 0 0 1.6 0.58 2.2 2.2 0 0 1 1.78 0.86 4.73 4.73 0 0 0 1.6 0.75c1 0.45 2.13 0.83 3.14 1.35 0.84 0.43 1.55 1 2.38 1.5a6.89 6.89 0 0 1 1.45 1.09 19.29 19.29 0 0 1 3.71 4.69 12.72 12.72 0 0 0 1.77 2.17 4.68 4.68 0 0 1 0.8 1.8 5.48 5.48 0 0 0 0.87 1.25c0.32 0.4 0.47 1 0.82 1.35a6.6 6.6 0 0 0-0.6-1.94c-0.21-0.46-1-1.51-0.89-2 0.48 0.34 0.65 1.12 0.9 1.62s0.6 1 0.86 1.58a9.66 9.66 0 0 1 0.56 1.78 6.11 6.11 0 0 0 0.83 2.42 8.71 8.71 0 0 0 1.83 1.65 3.07 3.07 0 0 0 1.26 0.6c0.56 0.08 0.77-0.22 1.18-0.53a5.12 5.12 0 0 1 1.24-0.84 9.32 9.32 0 0 0 1.47-0.47c0.91-0.52 0.84-1.3 1.36-2a8.88 8.88 0 0 1 1.39-1.35c1.45-1.36 2.23-3.26 3.61-4.65 3.1-3.12 4.55-7.45 6.87-11.1a25.26 25.26 0 0 1 2.63-4c0.09 0.54-0.22 1.07-0.25 1.61a25.28 25.28 0 0 1 1.84-2.42 28 28 0 0 0 2-3.12c0.93-1.79 1.45-3.71 2.44-5.45a17.64 17.64 0 0 1 1.93-2.78c-0.3 0.8-1.15 1.89-1.09 2.76a7.61 7.61 0 0 0 1.64-2.32c1.42-2.68 3.36-5.11 4.84-7.72s4-4 5.16-6.67a45.86 45.86 0 0 1 2.63-5c1.07-1.85 2.62-3.34 3.78-5.12 1-1.61 2.06-3.35 3-5 1.01-2.13 1.15-4.7-0.06-6.26zm-89-6 1.29 2.21c0.2 0.33 0.39 0.68 0.56 1 0.13 0.18 0.22 0.34 0.2 0.41-0.06-0.14-0.13-0.27-0.2-0.41-0.22-0.31-0.55-0.7-0.63-0.82q-0.43-0.66-0.84-1.32a16.64 16.64 0 0 1-1.48-2.59c0.52 0.19 0.81 1.06 1.08 1.53zm65.23 26.76c-1.06 2-2.19 4-3.34 6s-2.85 3.42-3.9 5.32a20.16 20.16 0 0 1-1.17 2.32 24.66 24.66 0 0 1-1.69 2c-0.47 0.52-0.92 1-1.34 1.56a43.62 43.62 0 0 0-3 5.14c-0.21 0.37-0.3 0.79-0.52 1.14s-1 0.81-1.13 1.37c0.29-0.25 0.5-0.54 0.81-0.76a10.75 10.75 0 0 1 1.11-0.69c0.5-0.26 1.09-0.74 1.67-0.68-0.05 0.32-0.54 0.62-0.77 0.82-0.38 0.33-0.73 0.69-1.09 1s-0.74 0.55-1.05 0.88a8 8 0 0 1-1.19 1.14c-0.21 0.14-0.42 0.26-0.62 0.4a4.63 4.63 0 0 0-1.22 1.42c-0.42 0.65-0.84 1.28-1.27 1.93l-2.52 3.84c0.07-0.11-0.23-0.46-0.29-0.54-0.22-0.32-0.46-0.62-0.71-0.92s-0.38-0.6-0.6-0.85a7.61 7.61 0 0 0-1-1c-0.46-0.35-0.84-0.81-1.32-1.14-0.33-0.24-0.62-0.51-1-0.72a2.69 2.69 0 0 1-0.86-0.85c0.17 0.09 0.31 0.24 0.49 0.33a1.5 1.5 0 0 1 0.39 0.22 3.42 3.42 0 0 0 0.82 0.54c-0.15-0.25-0.48-0.36-0.67-0.58s-0.56-0.64-0.85-0.94a7.53 7.53 0 0 1-0.79-0.81 15.6 15.6 0 0 0-1.52-1.63 10.13 10.13 0 0 0-1.28-1c-0.5-0.36-0.81-0.87-1.32-1.22-1.21-0.83-2.7-0.87-3.91-1.79a13.57 13.57 0 0 0-2.69-1.85c-0.6-0.24-1.19-0.28-1.81-0.5a44.45 44.45 0 0 0-7-2.13c-6.22-1.18-12.78-1.48-18.8 0.48-1.76 0.57-3.37 1.55-5.15 2-0.68 0.15-2.77 0.59-2.66 1.58-0.2-1.81 0.55-3.62 0.38-5.43-0.08-0.8-0.34-1.57-0.49-2.35-0.58-2.88-0.09-6 0.13-8.89a10.39 10.39 0 0 0 0-2.43c-0.07-0.49-0.21-1-0.31-1.45-0.25-1.21-0.06-2.45-0.29-3.63a17.82 17.82 0 0 1-0.2-3.43 1.44 1.44 0 0 0-0.29-1.06c-0.15 1.45-0.29 3-0.32 4.4a21.43 21.43 0 0 0 0.12 2.4 9.07 9.07 0 0 0 0.23 2.1 1.25 1.25 0 0 1-0.42-1q-0.54-5.64-1.06-11.29a16.19 16.19 0 0 1 0-3.68c0 0.38 0.15 0.76 0.13 1.14a3.09 3.09 0 0 0 0 1.28 9.63 9.63 0 0 1 0.4 1.18c0.06 0.32 0 1.76 0.62 1.77 0.34 0 0.21-0.64 0.21-0.88v-4.67c0-1.7-0.11-3.4-0.2-5.1 0-0.83-0.09-1.65-0.14-2.48a6.33 6.33 0 0 0-0.21-2.57 33.71 33.71 0 0 0 3.88 4.58 8 8 0 0 1 2.49 4.45c0.48 1.84 1.78 2.94 2.82 4.46a25.35 25.35 0 0 1 3.56 6.15c0.64 1.94 2.82 5.67 5.11 5.93 2.46 0.28 5-2.18 6-4.15 1.3-2.49 3-4.8 4.38-7.27 1.83-3.29 2.65-7 5.09-10a18.69 18.69 0 0 0 2.93-3.78c1-2 2.06-3.88 3.21-5.83s2-3.92 3-5.87c0.76-1.47 1.6-4.06 3.12-4.95a2.4 2.4 0 0 0 0-0.24 0.91 0.91 0 0 1 0.11 0.16v0.1c0.63 1.2 0.12 3.25 0.13 4.51v1.22l0.89 36.29a1.14 1.14 0 0 1-0.11-0.11 6 6 0 0 0 2.72 2.89c2.16 1.08 5.14-0.52 7.18-1.48a26 26 0 0 1 4.5-1.18c3.55-1 7.08-2.59 10.68-3.81 3.1-1.05 6.34-1.81 9.39-2.95-1.23 0.45-1.52 1.21-2.19 2.2a37.37 37.37 0 0 0-2.44 3.93zm5.27 5.25c-0.86 0.77-1.48 1.73-2.39 2.46 0.53-0.71 1.08-1.42 1.58-2.17a18 18 0 0 1 1.56-1.95 11.42 11.42 0 0 0 0.9-0.93 7.51 7.51 0 0 1-1.67 2.6zm10.21-17.3c-1.54 4-4.06 8.87-7.13 12.09 1.05-2 1.91-4.1 3-6.09 0.86-1.62 1.69-3.2 2.52-4.85 0.69-1.36 1.93-3 1.8-4.62 0 0.19 0.26 0.23 0.42 0.25a7.72 7.72 0 0 1-0.63 3.23z"/>
   <path class="cls-11" d="m706 237.47c0 1.29-0.4 4 0.54 5.05a5.71 5.71 0 0 1-0.52-2.29c0.03-0.92 0.03-1.84-0.02-2.76z"/>
   <g class="cls-2">
    <path class="cls-3" d="m688.82 215c-0.64 1.23-1.3 2.38-2 3.59a19.8 19.8 0 0 0-1.06 2.11l4.17-7.56c-0.4 0.62-0.78 1.23-1.11 1.86z"/>
    <path class="cls-3" d="m710 206a25.8 25.8 0 0 1 0.28 6.11c0 1.58-0.3 3.08-0.34 4.66a33.66 33.66 0 0 0 0.45 4.39c0.27 3-0.22 5.93 0 8.9 0.09 1.38 0.36 2.71 0.42 4.11q-0.06-8.18-0.13-16.34c0-3.41-0.05-6.82-0.07-10.23v-3.75l-0.14-5.74-0.07-0.11-0.14 0.08a22.46 22.46 0 0 0-0.26 7.92z"/>
    <path class="cls-3" d="m710.82 234.15v0.8c0.01-0.29 0.01-0.55 0-0.8z"/>
    <path class="cls-3" d="m764.9 218.82a3.85 3.85 0 0 0-3.08-1.4 25.86 25.86 0 0 0-9.8 1.89c-0.93 0.32-3.06 0.46-3.48 1.42 1.16 0 2.22-1.35 3.41-0.79-1.25 0.6-2.54 1.13-3.8 1.71-1.52 0.7-3.73 2.37-5.39 2.38 0.4-0.79 1.43-0.67 1.92-1.3 0.91-1.14-0.39-0.5-0.93-0.28-2.28 0.89-5 1-7 2.34a16.23 16.23 0 0 1-4.84 2.27 41.74 41.74 0 0 0-6.37 1.75 11.94 11.94 0 0 1-3.78 1.11c-0.43-2.68-0.65-5.38-0.94-8.07-0.14-1.36-0.3-2.71-0.53-4.06a9.77 9.77 0 0 1-0.28-1.41v-1.86-2.4-1.06c0-0.36 0-0.88 0.26-0.43a6.08 6.08 0 0 1 0.25 1.78 6.35 6.35 0 0 1 0.21 0.94 6.3 6.3 0 0 0 0.26-2.76 16.25 16.25 0 0 1-0.07-3.2 8.91 8.91 0 0 0-0.11-2.73 8.69 8.69 0 0 1-0.11-2.79c0.08-3.34 0.37-6.37-0.18-9.72-0.41-2.41 0.2-4.47 0.27-6.82 0.05-1.53-0.33-2.91-0.42-4.41-0.11-1.88 0.65-4.13-0.23-5.87a6.39 6.39 0 0 0-4-3.24c-2.13-0.39-3.93 1.84-5 3.32-1.24 1.64-2.61 3.32-3.74 5a10.78 10.78 0 0 0-1 2.22c-0.61 1.49-1.87 2.74-2.32 4.23 0.67-0.05 1.43-0.9 2-1.26-1.2 1.81-2.12 3.67-3.42 5.35a30.14 30.14 0 0 0-2.15 2.83 54.34 54.34 0 0 0-2.31 5.49c-0.67 1.48-1.73 2.25-2.59 3.49-1 1.47-1.47 3.26-2.34 4.82l-0.2 0.34-0.26 0.52a36.56 36.56 0 0 0-2.65 4.7c-0.05 0.09-0.1 0.19-0.16 0.28l1.11-1.64-6.12 12a13.67 13.67 0 0 0 0.58-2.18c0.08-0.22 0.17-0.44 0.26-0.66l-2 3.56a13.52 13.52 0 0 0-1.33-2.14c-2.37-3.75-4.84-7.43-7.26-11.14-0.93-1.41-1.83-2.85-2.73-4.28-0.8-1.27-1.59-2.54-2.41-3.8-0.24-0.39-0.49-0.76-0.7-1.17s-0.57-0.76-0.82-1.14a5.67 5.67 0 0 0-0.43-0.57 3 3 0 0 0-0.39-0.41 0.3 0.3 0 0 0-0.21 0 0.74 0.74 0 0 0 0.13 0.48c0.22 0.33 0.51 0.71 0.26 1.12 0 0-0.79-1-0.86-1.06a3.33 3.33 0 0 1-0.56-1.15 4 4 0 0 0-0.23-0.91c-0.2-0.42-0.4-0.85-0.57-1.29a0.82 0.82 0 0 1-0.09-0.38c0-0.3 0.23-0.12 0.34 0 0.39 0.49 0.6 1.1 1 1.56a0.56 0.56 0 0 0 0.44 0.22 1.61 1.61 0 0 0-0.22-1 10.75 10.75 0 0 0-3.22-3.95 5.11 5.11 0 0 0-1-0.64 4 4 0 0 0-2.31-0.08 6.29 6.29 0 0 0-4.79 4.83 2.68 2.68 0 0 0 0 0.42c-0.71 11.78-0.17 23.63 0.11 35.42l0.18 8a22 22 0 0 1 0 3.89 19.64 19.64 0 0 0 0 2 14.09 14.09 0 0 0 0 2.25 13.93 13.93 0 0 1 0.24 2.31c0 0.33-0.1 0.66-0.1 1s0.13 0.84 0.5 0.91c0.18-0.38 0.3-4 0.53-4s0.23 0.19 0.24 0.36 0 0.61 0 0.91c0 3-0.31 6.08-0.53 9.11-0.11 1.52-0.19 3-0.21 4.55s0 2.75 0 4.12a5.27 5.27 0 0 0 4.62 5.32 6.19 6.19 0 0 0 3.77-0.78c0.53-0.3 0.87-0.76 1.41-1.06a13.36 13.36 0 0 0 1.63-0.87 9.08 9.08 0 0 1 2.6-1.46c1-0.37 1.94-0.77 2.89-1.17a15.91 15.91 0 0 1 3.57-0.93 30.11 30.11 0 0 1 3.7-0.88c1.1 0 2.21 0.15 3.31 0.08a17.78 17.78 0 0 1 2.31 0c1.48 0.1 2.8 0.6 4.23 0.83 0.64 0.1 1.24 0.18 1.86 0.34s1 0.48 1.59 0.57a2.22 2.22 0 0 1 1.78 0.87 4.8 4.8 0 0 0 1.6 0.74c1 0.45 2.13 0.84 3.15 1.36 0.83 0.43 1.55 1 2.37 1.5a6.64 6.64 0 0 1 1.45 1.09 19.1 19.1 0 0 1 3.71 4.69 12.71 12.71 0 0 0 1.78 2.16 5.08 5.08 0 0 1 0.8 1.8 5 5 0 0 0 0.87 1.25 12.74 12.74 0 0 0 0.82 1.35 6.66 6.66 0 0 0-0.61-1.93c-0.2-0.46-1-1.51-0.88-2 0.47 0.35 0.64 1.12 0.89 1.63s0.61 1 0.86 1.58a8.75 8.75 0 0 1 0.56 1.78 6 6 0 0 0 0.84 2.42 8.94 8.94 0 0 0 1.82 1.65 3.11 3.11 0 0 0 1.26 0.59c0.57 0.09 0.78-0.21 1.19-0.52a4.76 4.76 0 0 1 1.24-0.84 10.08 10.08 0 0 0 1.47-0.48c0.9-0.51 0.84-1.29 1.36-2a9.2 9.2 0 0 1 1.38-1.34c1.46-1.36 2.24-3.26 3.62-4.65 3.1-3.13 4.54-7.46 6.86-11.1a23.82 23.82 0 0 1 2.64-4 7.32 7.32 0 0 1-0.26 1.6 27 27 0 0 1 1.85-2.41 29.94 29.94 0 0 0 2-3.12c0.92-1.79 1.44-3.72 2.43-5.46a18 18 0 0 1 1.93-2.77c-0.29 0.79-1.14 1.89-1.09 2.76a7.71 7.71 0 0 0 1.65-2.32c1.41-2.69 3.35-5.12 4.84-7.73s4-4 5.16-6.66a45.77 45.77 0 0 1 2.62-5c1.08-1.85 2.63-3.35 3.79-5.13 1-1.6 2.06-3.35 3-5 0.93-1.92 1.03-4.54-0.17-6.1zm-89-6 1.3 2.21c0.2 0.34 0.38 0.68 0.56 1a1 1 0 0 1 0.2 0.41c-0.06-0.14-0.13-0.27-0.2-0.41-0.22-0.31-0.56-0.7-0.64-0.82-0.28-0.43-0.56-0.87-0.83-1.31a17.11 17.11 0 0 1-1.48-2.59c0.5 0.21 0.79 1.05 1.06 1.51zm65.23 26.76c-1.06 2-2.18 4-3.34 6s-2.85 3.41-3.89 5.31a18.79 18.79 0 0 1-1.17 2.33c-0.51 0.7-1.11 1.33-1.69 2s-0.91 1-1.33 1.57a44.29 44.29 0 0 0-3 5.14c-0.2 0.36-0.29 0.78-0.52 1.14s-0.95 0.8-1.12 1.36a5.93 5.93 0 0 1 1.93-1.43c0.49-0.27 1.08-0.75 1.67-0.68 0 0.31-0.55 0.62-0.78 0.81s-0.72 0.69-1.08 1-0.75 0.55-1.06 0.88a8 8 0 0 1-1.19 1.14l-0.62 0.39a4.66 4.66 0 0 0-1.21 1.43c-0.43 0.64-0.85 1.28-1.27 1.92-0.84 1.28-1.68 2.57-2.53 3.85 0.07-0.12-0.22-0.47-0.28-0.54-0.22-0.33-0.47-0.63-0.71-0.93s-0.38-0.59-0.61-0.85a7.57 7.57 0 0 0-1-0.95c-0.45-0.36-0.84-0.81-1.31-1.15s-0.63-0.5-1-0.71a2.9 2.9 0 0 1-0.86-0.85c0.18 0.09 0.32 0.24 0.49 0.32a1.6 1.6 0 0 1 0.4 0.23 3.94 3.94 0 0 0 0.81 0.54c-0.14-0.26-0.47-0.36-0.66-0.58s-0.56-0.64-0.86-0.94a10.2 10.2 0 0 1-0.79-0.82 15.5 15.5 0 0 0-1.52-1.62 9.22 9.22 0 0 0-1.27-1c-0.5-0.37-0.82-0.87-1.32-1.22-1.22-0.84-2.71-0.87-3.92-1.79a13.29 13.29 0 0 0-2.72-1.88c-0.6-0.25-1.19-0.28-1.8-0.5a45.09 45.09 0 0 0-7-2.13c-6.23-1.18-12.78-1.48-18.81 0.47-1.76 0.58-3.36 1.55-5.15 1.95-0.67 0.15-2.77 0.6-2.66 1.59-0.19-1.81 0.56-3.62 0.38-5.44-0.08-0.79-0.33-1.56-0.49-2.35-0.57-2.88-0.08-6 0.13-8.88a10.4 10.4 0 0 0 0-2.43c-0.08-0.49-0.22-1-0.32-1.46-0.25-1.2-0.06-2.44-0.29-3.63a18.59 18.59 0 0 1-0.19-3.42 1.52 1.52 0 0 0-0.29-1.07c-0.15 1.45-0.29 3-0.32 4.4 0 0.8 0 1.6 0.11 2.4a9.16 9.16 0 0 0 0.23 2.11 1.33 1.33 0 0 1-0.42-1l-1-11.3a15.54 15.54 0 0 1-0.06-3.67c0 0.38 0.15 0.75 0.13 1.14a2.88 2.88 0 0 0 0.06 1.27 10.33 10.33 0 0 1 0.39 1.19c0.06 0.32 0 1.76 0.63 1.76 0.34 0 0.21-0.64 0.2-0.88v-4.67c0-1.56-0.12-3.39-0.2-5.09l-0.15-2.48a6.51 6.51 0 0 0-0.2-2.57 35 35 0 0 0 3.87 4.58 8 8 0 0 1 2.49 4.44c0.49 1.84 1.78 2.94 2.83 4.46a25.5 25.5 0 0 1 3.55 6.15c0.65 1.94 2.82 5.67 5.11 5.94 2.46 0.28 5-2.19 6-4.15 1.29-2.49 3-4.81 4.38-7.27 1.83-3.29 2.64-7 5.09-10a18.77 18.77 0 0 0 2.93-3.78c1-2 2.06-3.87 3.21-5.83s2-3.92 3-5.86c0.76-1.47 1.6-4.07 3.12-5a2 2 0 0 0 0-0.24 1.4 1.4 0 0 1 0.1 0.16v0.1c0.62 1.21 0.12 3.26 0.13 4.51v1.22l0.89 36.29a0.94 0.94 0 0 1-0.1-0.1 6 6 0 0 0 2.72 2.89c2.16 1.07 5.13-0.52 7.18-1.48 1.57-0.74 2.89-0.74 4.5-1.19 3.55-1 7.08-2.59 10.68-3.8 3.09-1.05 6.33-1.81 9.38-3-1.23 0.45-1.51 1.21-2.19 2.2a38.91 38.91 0 0 0-2.48 4.03zm5.27 5.26c-0.85 0.76-1.47 1.73-2.39 2.46 0.54-0.71 1.08-1.43 1.59-2.17a16.18 16.18 0 0 1 1.55-1.95c0.24-0.26 0.67-0.61 0.91-0.93a7.77 7.77 0 0 1-1.69 2.59zm10.21-17.31c-1.53 4-4.06 8.88-7.13 12.09 1-2 1.91-4.09 3-6.08 0.87-1.63 1.7-3.21 2.53-4.86 0.68-1.36 1.92-3 1.8-4.61 0 0.19 0.26 0.23 0.42 0.25a7.65 7.65 0 0 1-0.65 3.21z"/>
    <path class="cls-3" d="m710.83 235c-0.05 1.3-0.41 4 0.54 5.06a5.58 5.58 0 0 1-0.52-2.29c-0.01-0.98-0.02-1.9-0.02-2.77z"/>
   </g>
   <g data-name="1">
    <path class="cls-1" d="m475.59 232.34a12.06 12.06 0 1 0 12.05 12.06 12.05 12.05 0 0 0-12.05-12.06zm29.92-0.83a12.05 12.05 0 1 0-12.05-12 12 12 0 0 0 12.05 12zm0 23.27a12.06 12.06 0 1 0 12 12.06 12.05 12.05 0 0 0-12-12.06zm0 47.38a12.05 12.05 0 1 0 12 12 12 12 0 0 0-12-12zm0 47.37a12.06 12.06 0 1 0 12 12.06 12.05 12.05 0 0 0-12-12.06zm0 47.38a12.05 12.05 0 1 0 12 12 12 12 0 0 0-12-12zm0 47.37a12.06 12.06 0 1 0 12 12.05 12.05 12.05 0 0 0-12-12.05z"/>
   </g>
  </g>
 </g>
</svg>
