<svg data-name="Layer 1" version="1.1" viewBox="0 0 1643 289.75" xmlns="http://www.w3.org/2000/svg" xmlns:xlink="http://www.w3.org/1999/xlink"><defs><style>.cls-1{fill:url(#n);}.cls-2{fill:#f8293a;}.cls-3{fill:#372614;}.cls-4{fill:url(#d);}.cls-5{fill:url(#m);}.cls-6{fill:url(#c);}.cls-7{fill:url(#h);}.cls-8{fill:url(#g);}.cls-10,.cls-11,.cls-12,.cls-13,.cls-14,.cls-9{stroke:#372614;stroke-miterlimit:10;}.cls-10,.cls-11,.cls-12,.cls-13,.cls-9{stroke-width:2.5px;}.cls-9{fill:url(#a);}.cls-10{fill:url(#l);}.cls-11{fill:url(#k);}.cls-12{fill:url(#j);}.cls-13{fill:url(#i);}.cls-14{fill:#eb282e;stroke-width:2.4px;}.cls-15,.cls-16,.cls-17{opacity:0.3;}.cls-15{fill:url(#b);}.cls-16{fill:url(#f);}.cls-17{fill:url(#e);}</style><linearGradient id="n" x1="1366.9" x2="1366.9" y1="180.3" y2="432.44" gradientTransform="translate(-1.6,-180.3)" gradientUnits="userSpaceOnUse"><stop stop-color="#da9235" offset="0"/><stop stop-color="#d28d35" offset=".18"/><stop stop-color="#be8035" offset=".45"/><stop stop-color="#a36e35" offset=".72"/><stop stop-color="#ad7b3e" offset=".78"/><stop stop-color="#c79e54" offset=".89"/><stop stop-color="#e4c36d" offset="1"/></linearGradient><linearGradient id="d" x1="1107.9" x2="1107.9" y1="244.33" y2="368.15" gradientUnits="userSpaceOnUse"><stop stop-color="#da9235" offset="0"/><stop stop-color="#db993d" offset=".15"/><stop stop-color="#dfab51" offset=".38"/><stop stop-color="#e4c36d" offset=".6"/><stop stop-color="#a36e35" offset=".81"/></linearGradient><linearGradient id="m" x1="1626.2" x2="1626.2" y1="243.94" y2="368.8" gradientTransform="translate(-1.6,-180.3)" xlink:href="#d"/><radialGradient id="c" cx="1199.1" cy="306.21" r="99.66" gradientUnits="userSpaceOnUse"><stop stop-color="#e1e1e1" offset=".08"/><stop stop-color="#d9d9d9" offset=".25"/><stop stop-color="#c3c3c3" offset=".53"/><stop stop-color="#9f9f9f" offset=".87"/><stop stop-color="#8f8f8f" offset="1"/></radialGradient><radialGradient id="h" cx="1366.9" cy="305.49" r="99.66" gradientTransform="translate(-1.6,-180.3)" xlink:href="#c"/><radialGradient id="g" cx="1533.3" cy="305.49" r="99.66" gradientTransform="translate(-1.6,-180.3)" xlink:href="#c"/><linearGradient id="a" x1="157.61" x2="157.61" y1="201.8" y2="389.55" gradientUnits="userSpaceOnUse"><stop stop-color="#fad572" offset="0"/><stop stop-color="#f6ce6e" offset=".23"/><stop stop-color="#e9bc62" offset=".56"/><stop stop-color="#d59d4f" offset=".94"/><stop stop-color="#d1984b" offset="1"/></linearGradient><linearGradient id="l" x1="287.1" x2="287.1" y1="201.8" y2="389.57" gradientTransform="translate(-1.6,-180.3)" xlink:href="#a"/><linearGradient id="k" x1="377.81" x2="377.81" y1="263.84" y2="389.64" gradientTransform="translate(-1.6,-180.3)" xlink:href="#a"/><linearGradient id="j" x1="487.79" x2="487.79" y1="263.73" y2="389.64" gradientTransform="translate(-1.6,-180.3)" xlink:href="#a"/><linearGradient id="i" x1="601.96" x2="601.96" y1="263.73" y2="452.43" gradientTransform="translate(-1.6,-180.3)" xlink:href="#a"/><radialGradient id="b" cx="1209.8" cy="235.85" r="60.73" gradientUnits="userSpaceOnUse"><stop stop-color="#e1e1e1" offset="0"/><stop stop-color="#e4e4e4" offset=".41"/><stop stop-color="#ededed" offset=".71"/><stop stop-color="#fdfdfd" offset=".98"/><stop stop-color="#fff" offset="1"/></radialGradient><radialGradient id="f" cx="1544" cy="235.08" r="60.73" gradientTransform="translate(-1.6,-180.3)" xlink:href="#b"/><radialGradient id="e" cx="1377.6" cy="235.85" r="60.73" gradientTransform="translate(-1.6,-180.3)" xlink:href="#b"/><linearGradient id="r" x1="1107.9" x2="1107.9" y1="244.33" y2="368.15" gradientTransform="translate(-1.6,-180.3)" gradientUnits="userSpaceOnUse" xlink:href="#d"/><radialGradient id="p" cx="1199.1" cy="306.21" r="99.66" gradientTransform="translate(-1.6,-180.3)" gradientUnits="userSpaceOnUse" xlink:href="#c"/><linearGradient id="q" x1="157.61" x2="157.61" y1="201.8" y2="389.55" gradientTransform="translate(-1.6,-180.3)" gradientUnits="userSpaceOnUse" xlink:href="#a"/><radialGradient id="o" cx="1209.8" cy="235.85" r="60.73" gradientTransform="translate(-1.6,-180.3)" gradientUnits="userSpaceOnUse" xlink:href="#b"/></defs><title>Logo</title><path class="cls-1" d="m1126.2 62.7 7.7-42.6s4.7-20.1 26.1-20.1h121.7s19.3 3.6 17.6 20.1c0 0 6.4-20.1 24.8-20.1h123s22.7 0.6 21 22c0 0 7.7-22 25.7-22h118.7s24.8 1.4 21.4 24.1-35.6 202.6-35.6 202.6-5.1 22.7-25.7 24-122.5 0-122.5 0-18.4 0-19.3-23.6c0 0-2.1 23-35.6 24.1s-112.2 0-112.2 0-20.6-2.7-18.4-22.8c0 0-8.6 22.7-29.6 23.4s-120.8 0-120.8 0-22.7-3.2-16.7-33.6 28.7-155.5 28.7-155.5z" style="fill:url(#n)"/><rect class="cls-2" y="63.3" width="42" height="41.99"/><rect class="cls-2" x="77.1" y=".59999" width="37.3" height="41.27"/><rect class="cls-2" x="132.8" y="4.2" width="36" height="32.56"/><rect class="cls-2" x="188.5" y="4.2" width="34.1" height="34.06"/><rect class="cls-2" x="242.5" y="4.2" width="34.1" height="34.06"/><rect class="cls-2" x="298.6" y="4.2" width="30.8" height="34.06"/><rect class="cls-2" x="353" y="7.6" width="28.7" height="28.71"/><rect class="cls-2" x="408.7" y="7.6" width="28.3" height="28.28"/><rect class="cls-2" x="464.4" y="9.3" width="25.1" height="25.06"/><rect class="cls-2" x="520.1" y="9.3" width="22.7" height="22.71"/><rect class="cls-2" x="574.1" y="11" width="21" height="20.99"/><rect class="cls-2" x="630.2" y="11" width="18.4" height="18.42"/><rect class="cls-2" x="685.5" y="13.6" width="16.3" height="16.28"/><rect class="cls-2" x="740.7" y="13.6" width="14.6" height="14.57"/><rect class="cls-2" x="796" y="15.7" width="12.4" height="12.42"/><rect class="cls-2" x="907" y="17.9" width="6.5" height="6.5"/><rect class="cls-2" x="961.4" y="17.9" width="6.5" height="6.5"/><rect class="cls-2" x="54.8" y="63.3" width="38.1" height="38.13"/><rect class="cls-2" x="114.4" y="67.6" width="33.8" height="33.85"/><rect class="cls-2" x="167" y="67.6" width="33.2" height="33.2"/><rect class="cls-2" x="228.3" y="67.6" width="26.6" height="33.2"/><rect class="cls-2" x="332.4" y="70.7" width="27.3" height="27.33"/><rect class="cls-2" x="389.8" y="70.7" width="25.3" height="30.02"/><rect class="cls-2" x="442.5" y="70.7" width="24.8" height="24.76"/><rect class="cls-2" x="498.7" y="73.1" width="22.4" height="22.37"/><rect class="cls-2" x="552.6" y="73.1" width="22.4" height="22.37"/><rect class="cls-2" x="609.6" y="75.7" width="16.9" height="16.92"/><rect class="cls-2" x="664" y="75.7" width="15" height="15"/><rect class="cls-2" x="772.6" y="78.7" width="15.1" height="15.14"/><rect class="cls-2" x="885.1" y="78.7" width="7.6" height="7.57"/><rect class="cls-2" x="941.2" y="82.3" width="5.7" height="5.71"/><rect class="cls-2" x="907" y="143.4" width="6.5" height="6.5"/><rect class="cls-2" x="850.8" y="142.1" width="10.1" height="10.12"/><rect class="cls-2" x="685.5" y="139.6" width="16.3" height="16.28"/><rect class="cls-2" x="777.1" y="203" width="11.9" height="11.92"/><rect class="cls-2" x="665.7" y="200.4" width="17.6" height="17.57"/><rect class="cls-2" x="630.2" y="262.5" width="18.4" height="18.42"/><rect class="cls-2" x="685.5" y="262.5" width="16.7" height="16.71"/><rect class="cls-2" x="740.7" y="265.1" width="12.9" height="12.85"/><rect class="cls-2" x="796" y="265.1" width="12.4" height="12.42"/><rect class="cls-2" x="850.8" y="266.8" width="11.1" height="11.14"/><rect class="cls-2" x="907" y="268.5" width="6.5" height="6.5"/><rect class="cls-2" x="961.4" y="268.5" width="6.5" height="6.5"/><rect class="cls-2" x="520.1" y="133.2" width="22.7" height="22.71"/><rect class="cls-2" x="556.1" y="197.2" width="20.8" height="20.78"/><rect class="cls-2" x="499.9" y="197.8" width="20.1" height="20.14"/><rect class="cls-2" x="356.8" y="133.1" width="26.6" height="26.56"/><rect class="cls-2" x="295.6" y="131" width="32.1" height="32.13"/><rect class="cls-2" x="244.2" y="133.5" width="29.6" height="29.56"/><rect class="cls-2" x="132.8" y="128" width="36" height="35.99"/><rect class="cls-2" x="21" y="125.8" width="42.6" height="42.62"/><rect class="cls-2" x="112.2" y="192.2" width="36" height="35.99"/><rect class="cls-2" x="167" y="191" width="35.6" height="35.56"/><rect class="cls-2" x="221.5" y="191.6" width="34.9" height="34.92"/><rect class="cls-2" x="276.5" y="192.9" width="31.5" height="31.49"/><rect class="cls-2" x="332.4" y="191.8" width="30" height="29.99"/><rect class="cls-2" x="389.8" y="196.5" width="25.3" height="25.28"/><rect class="cls-2" x="188.5" y="253.9" width="35.8" height="35.85"/><rect class="cls-2" x="244.2" y="256.1" width="31.3" height="31.28"/><rect class="cls-2" x="298.6" y="256.1" width="31.3" height="31.28"/><rect class="cls-2" x="353" y="256.1" width="28.7" height="28.71"/><rect class="cls-2" x="408.7" y="258.2" width="26.6" height="26.56"/><rect class="cls-2" x="464.4" y="259.9" width="25.1" height="25.06"/><rect class="cls-2" x="518.4" y="259.9" width="24.4" height="24.42"/><path class="cls-3" d="m210.6 44.4 3.9-11.6h35.6l-17.1 66.4h-25.4s0.4-47.6-44.1-38.6-47.6 72-47.6 72-0.4 49.7 28.7 55.7 36.8-10.3 38.3-14.1 5.4-17.9 5.4-17.9 3.9-9.5-5.4-10.4a108.7 108.7 0 0 0-15.6-0.4l4.3-24.4h81.4l-4.7 24s-16.7-1.1-19.3 11.2-12.9 60.3-12.9 60.3h-26.4l-1.7-10.7s-28.3 20.1-60 12.9-51.4-41.6-51.4-41.6-26.6-55.2 14.9-107.5 103.3-37.7 119.1-25.3z"/><path class="cls-3" d="m261.6 44s21.4 2.1 50.6-11.4h12.9l-31.8 151.5s-3 12.4 7.3 6.9 12.4-6.9 12.4-6.9l12 15.9s-15.4 19.9-39 20.4-31.3-12.7-30.8-30.3 24.8-123 24.8-123h-24.8z"/><path class="cls-3" d="m393.2 95.4c-39.4-6.9-58.3 36-58.3 36-7.7 17.1-17.1 91.7 39.4 89s58.3-71.9 58.3-75.3 0-42.9-39.4-49.7zm-6.3 94c-4.5 2.9-21.7 11.2-25.6-6.7s5.1-40.1 5.1-40.1 16.7-37.7 30.2-12.6-5.2 56.5-9.7 59.3z"/><path class="cls-3" d="m442.9 106.1s31.7-2.3 38.6-11.5h11.6l-4.3 27.3s12.4-29.3 39.8-27.3 12.9 35.9 7.7 39.3-13.3 7.3-24.8-4.3-28.7 36-32.1 51-8.1 39.8-8.1 39.8h-34.4l18-90.8h-18z"/><path class="cls-3" d="m556.8 105.7s12.9 4.5 42-11h12l-15.4 88.1s-5.6 23.6 11.6 10.3 22.3-28 31.7-98.4h33.4s-21.9 119.8-25.7 133.5-18 49.3-49.7 53.6-48 0-58.3-21.9c0 0-5.6-27.4 19.7-22.7 0 0 12 1.3 18.9 17.6 0 0 21.4 14.1 34.7-20.1s8.6-27 8.6-27-15.4 30-43.3 18-4.3-95.5-4.3-95.5l-21-0.4z"/><path class="cls-3" d="m799.4 40.9s21.4 2.1 50.6-11.4h12.9l-31.8 151.5s-3 12.4 7.3 6.9 12.4-6.9 12.4-6.9l12 15.9s-15.4 19.9-39 20.4-31.3-12.7-30.8-30.3 24.8-123 24.8-123h-24.8z"/><path class="cls-3" d="m930.1 91.9c-40.1-6.9-59.3 36-59.3 36-7.8 17.1-17.4 91.7 40.1 89s59.3-71.9 59.3-75.3 0-42.9-40.1-49.7zm-7.7 94.7c-4.5 2.9-21.7 11.2-25.6-6.7s5.1-40.1 5.1-40.1 16.7-37.7 30.2-12.6-5.2 56.5-9.7 59.4z"/><path class="cls-3" d="m692.9 115.6s5.1-37.3 46.6-36 48.2 18 48.2 18 10.6 23.5-2.6 28a21.2 21.2 0 0 1-21.9-4.8s-11.9-23.1-30.8-12.9 14.1 23.8 22.2 27 47.3 23.5 23.8 59.8-82.9 18-82.9 18-28-14.5-16.1-35.7 30.5 2.9 30.5 2.9 11.9 18.6 31.2 10.6 1.3-19.6 1.3-19.6-43.1-11.2-49.8-37.6c0 0-0.8-12.8 0.3-17.7z"/><path class="cls-3" d="m975.4 79.6s37-5.7 45.9-50.1h31.2l-8.7 46.6 34.7 1.3-5.8 26h-36.3l-14.1 69.1s-3.5 16.1 8.4 12.2 26-21.2 26-21.2l18.6 17s-26.7 36.9-53 36.8-40.5-10.4-39.8-31.6 14.8-81 14.8-81l-27.1-1z"/><path class="cls-4" d="m1125.9 64.1s-18.9-2.7-23.6 18.1-15.4 89-15.4 89-2.6 19.3 16.7 16.3z" style="fill:url(#r)"/><path class="cls-5" d="m1627.6 63.7s18.4-2.6 15 23.1-13.3 84.4-13.3 84.4-4.7 18.9-23.1 17.1z" style="fill:url(#m)"/><path class="cls-6" d="m1142.2 44.4s0.9-29.6 27.8-30 97.7 0 97.7 0 20.1-2.6 15 30-26.6 166.7-26.6 166.7-3.4 24-26.1 25.7-99.8 0-99.8 0-22.7 0-18-24.8 30-167.6 30-167.6z" style="fill:url(#p)"/><path class="cls-7" d="m1310 43.7s0.9-29.6 27.8-30 97.7 0 97.7 0 20.1-2.6 15 30-26.6 166.7-26.6 166.7-3.4 24-26.1 25.7-99.8 0-99.8 0-22.7 0-18-24.8 30-167.6 30-167.6z" style="fill:url(#h)"/><path class="cls-8" d="m1476.3 43.7s0.9-29.6 27.8-30 97.7 0 97.7 0 20.1-2.6 15 30-26.6 166.7-26.6 166.7-3.4 24-26.1 25.7-99.8 0-99.8 0-22.7 0-18-24.8 30-167.6 30-167.6z" style="fill:url(#g)"/><path class="cls-9" d="m206 33.3 3.9-11.6h35.6l-17.1 66.4h-25.4s0.4-47.6-44.1-38.6-47.6 72-47.6 72-0.4 49.7 28.7 55.7 36.8-10.3 38.3-14.1 5.4-17.9 5.4-17.9 3.9-9.5-5.4-10.4a108.7 108.7 0 0 0-15.6-0.4l4.3-24.4h81.4l-4.7 24s-16.7-1.1-19.3 11.2-12.9 60.3-12.9 60.3h-26.5l-1.7-10.7s-28.3 20.1-60 12.9-51.4-41.6-51.4-41.6-26.5-55.3 15-107.5 103.3-37.7 119.1-25.3z" style="fill:url(#q)"/><path class="cls-10" d="m257 32.9s21.4 2.1 50.6-11.4h12.8l-31.7 151.5s-3 12.4 7.3 6.9 12.4-6.9 12.4-6.9l12 15.9s-15.4 19.9-39 20.4-31.3-12.7-30.8-30.3 24.8-123 24.8-123h-24.8z" style="fill:url(#l)"/><path class="cls-11" d="m388.5 84.3c-39.4-6.9-58.3 36-58.3 36-7.7 17.1-17.1 91.7 39.4 89s58.3-71.9 58.3-75.3 0.1-42.9-39.4-49.7zm-6.3 94c-4.5 2.9-21.7 11.2-25.6-6.7s5.1-40.1 5.1-40.1 16.7-37.8 30.2-12.7-5.1 56.5-9.6 59.4z" style="fill:url(#k)"/><path class="cls-12" d="m438.2 95s31.7-2.3 38.6-11.5h11.6l-4.3 27.3s12.4-29.3 39.8-27.3 12.9 35.9 7.7 39.3-13.3 7.3-24.8-4.3-28.7 36-32.1 51-8.1 39.8-8.1 39.8h-34.4l18-90.8h-18z" style="fill:url(#j)"/><path class="cls-13" d="m552.2 94.6s12.9 4.5 42-11h12l-15.4 88.1s-5.6 23.6 11.6 10.3 22.3-28 31.7-98.4h33.4s-21.9 119.8-25.7 133.6-18 49.3-49.7 53.6-48 0-58.3-21.9c0 0-5.6-27.4 19.7-22.7 0 0 12 1.3 18.9 17.6 0 0 21.4 14.1 34.7-20.1s8.6-27 8.6-27-15.4 30-43.3 18-4.3-95.5-4.3-95.5l-21-0.4z" style="fill:url(#i)"/><path class="cls-14" d="m795.4 32s21.4 2.1 50.6-11.4h12.9l-31.8 151.5s-3 12.4 7.3 6.9 12.4-6.9 12.4-6.9l12 15.9s-15.4 19.9-39 20.4-31.3-12.7-30.8-30.3 24.8-123 24.8-123h-24.9z"/><path class="cls-14" d="m926 83c-40.1-6.9-59.3 36-59.3 36-7.8 17.1-17.4 91.7 40.1 89s59.3-71.9 59.3-75.3 0-42.8-40.1-49.7zm-7.7 94.8c-4.5 2.9-21.7 11.2-25.6-6.7s5.1-40.1 5.1-40.1 16.7-37.7 30.2-12.6-5.2 56.5-9.7 59.4z"/><path class="cls-14" d="m688.9 106.8s5.1-37.3 46.6-36 48.2 18 48.2 18 10.6 23.5-2.6 28a21.2 21.2 0 0 1-21.9-4.8s-11.8-23.2-30.8-12.9 14.1 23.8 22.2 27 47.2 23.5 23.8 59.8-82.9 18-82.9 18-28-14.5-16.1-35.7 30.5 2.9 30.5 2.9 11.9 18.6 31.2 10.6 1.3-19.6 1.3-19.6-43.1-11.2-49.8-37.6c0-0.1-0.9-12.9 0.3-17.7z"/><path class="cls-14" d="m971.3 70.7s37-5.7 45.9-50.1h31.2l-8.7 46.6 34.7 1.3-5.8 26h-36.2l-14.1 69.1s-3.5 16.1 8.4 12.2 26-21.2 26-21.2l18.6 17s-26.7 36.9-53 36.8-40.5-10.4-39.8-31.6 14.8-81 14.8-81l-27.1-1z"/><path class="cls-14" d="m1170.9 69.3h13.7v3.4h71.5l-1.7 13.7s-51.8 39.8-57.4 94.7h-32.6s5.6-51 54.4-81.8l-40.7-1.3-7.3 16.6-18.9-3.7s17.3-28.3 19-41.6z"/><path class="cls-14" d="m1338 69.3h13.7v3.4h71.5l-1.7 13.7s-51.8 39.8-57.4 94.7h-32.6s5.6-51 54.4-81.8l-40.7-1.3-7.3 16.6-18.9-3.7s17.3-28.3 19-41.6z"/><path class="cls-14" d="m1505.2 69.3h13.7v3.4h71.5l-1.7 13.7s-51.8 39.8-57.4 94.7h-32.6s5.6-51 54.4-81.8l-40.7-1.3-7.3 16.6-18.9-3.7s17.3-28.3 19-41.6z"/><path class="cls-15" d="m1205.6 86.3a262.7 262.7 0 0 1 69 9.3l8.1-51.1c5.1-32.6-15-30-15-30s-70.7-0.4-97.7 0-27.8 30-27.8 30l-9.3 52.3a198.2 198.2 0 0 1 72.7-10.5z" style="fill:url(#o)"/><path class="cls-16" d="m1539.7 85.5a262.7 262.7 0 0 1 69 9.3l8.1-51.1c5.1-32.6-15-30-15-30s-70.7-0.4-97.7 0-27.8 30-27.8 30l-9.3 52.3a198.2 198.2 0 0 1 72.7-10.5z" style="fill:url(#f)"/><path class="cls-17" d="m1373.4 86.3a262.7 262.7 0 0 1 69 9.3l8.1-51.1c5.1-32.6-15-30-15-30s-70.7-0.4-97.7 0-27.8 30-27.8 30l-9.3 52.3a198.2 198.2 0 0 1 72.7-10.5z" style="fill:url(#e)"/></svg>
