<?xml version="1.0" encoding="UTF-8"?>
<svg version="1.1" viewBox="0 0 1615.5 459.92" xmlns="http://www.w3.org/2000/svg" xmlns:xlink="http://www.w3.org/1999/xlink">
 <defs>
  <style>.cls-1{fill:#fff;}.cls-2{fill:url(#linear-gradient);}.cls-3{fill:url(#linear-gradient-2);}.cls-4{fill:url(#linear-gradient-3);}.cls-5{fill:url(#linear-gradient-4);}.cls-6{fill:url(#linear-gradient-5);}.cls-7{fill:url(#linear-gradient-6);}.cls-8{fill:url(#linear-gradient-7);}.cls-9{fill:url(#linear-gradient-8);}</style>
  <linearGradient id="linear-gradient" x1="1094.5" x2="1094.5" y1="111.95" y2="593.87" gradientUnits="userSpaceOnUse">
   <stop stop-color="#02f1fc" offset="0"/>
   <stop stop-color="#347cff" offset=".32"/>
   <stop stop-color="#ae1bef" offset=".72"/>
   <stop stop-color="#ff9e44" offset="1"/>
  </linearGradient>
  <linearGradient id="linear-gradient-2" x1="862.66" x2="862.66" y1="112.22" y2="594.16" xlink:href="#linear-gradient"/>
  <linearGradient id="linear-gradient-3" x1="874.04" x2="874.04" y1="91.04" y2="581.16" gradientUnits="userSpaceOnUse">
   <stop stop-color="#02f1fc" offset="0"/>
   <stop stop-color="#347cff" offset=".32"/>
   <stop stop-color="#ae1bef" offset=".72"/>
   <stop stop-color="#ff9e44" offset="1"/>
  </linearGradient>
  <linearGradient id="linear-gradient-4" x1="1094.5" x2="1094.5" y1="91.04" y2="581.16" xlink:href="#linear-gradient"/>
  <linearGradient id="linear-gradient-5" x1="1167.5" x2="1167.5" y1="217.23" y2="476.39" xlink:href="#linear-gradient"/>
  <linearGradient id="linear-gradient-6" x1="1085.4" x2="1085.4" y1="185.96" y2="427.79" xlink:href="#linear-gradient"/>
  <linearGradient id="linear-gradient-7" x1="934.6" x2="934.6" y1="185.96" y2="427.79" xlink:href="#linear-gradient"/>
  <linearGradient id="linear-gradient-8" x1="852.1" x2="852.1" y1="185.96" y2="427.79" xlink:href="#linear-gradient"/>
  <linearGradient id="linearGradient899" x1="1094.5" x2="1094.5" y1="111.95" y2="593.87" gradientUnits="userSpaceOnUse" xlink:href="#linear-gradient"/>
 </defs>
 <title>logo</title>
 <g transform="translate(-13.79,-112)" data-name="Layer 1">
  <g id="logo">
   <path class="cls-1" d="m13.79 433.36v-223.29h66.51v219.2q0 11.87 5.12 18t15.35 6.14h64.06v39.5h-94.76q-28.86 0-42.57-15.35t-13.71-44.2z"/>
   <path class="cls-1" d="m197.78 209.86h66.72v283.06h-66.72z"/>
   <path class="cls-1" d="m491.69 433.16q0 26.8-15.76 43.18t-45.85 16.37h-64.08q-30.09 0-45.85-16.37t-15.75-43.18v-163.53q0-26.82 15.75-43.19t45.85-16.37h64.06q30.09 0 45.85 16.37t15.76 43.19v32.74h-66.5v-26.6q0-13.92-7.16-23.13t-20-9.21q-12.8 0-19.95 9.21t-7.17 23.13v149.23q0 13.92 7.17 24.15t19.95 10.23q12.79 0 20-10.23t7.16-24.15v-33.6q0-7.77-3.07-10.84t-9.21-3.07h-17v-33.36h53.83q20.67 0 31.31 11.25t10.65 29.88z"/>
   <path class="cls-1" d="m596.27 390.18v102.53h-66.52v-282.64h125.67q30.09 0 45.85 16.37t15.73 43.19v223.08h-66.49v-102.53zm54.24-35.41v-77q0-13.9-7.17-24.15t-19.85-10.23h-27.22v111.38z"/>
   <path class="cls-1" d="m1392.9 360.5q28.44 12.69 28.45 44v28.66q0 26.8-15.76 43.18t-45.85 16.37h-47.68q-30.09 0-45.85-16.37t-15.76-43.18v-28.66q0-31.31 28.45-44v-2.5q-28.45-12.69-28.45-44v-26.2q0-26.8 15.76-43.18t45.85-16.38h47.68q30.09 0 45.85 16.38t15.76 43.18v26.2q0 31.32-28.45 44zm-38.07-40.32v-34.38q0-11.88-5.11-18t-13.82-6.15q-8.7 0-13.82 6.15t-5.11 18v34.38q0 11.88 5.11 19a16.9 16.9 0 0 0 27.64 0q5.1-7.12 5.11-19zm-37.87 78.18v36.84q0 11.88 5.11 18t13.82 6.13q8.7 0 13.82-6.13t5.11-18v-36.84q0-11.87-5.11-19a16.92 16.92 0 0 0-27.64 0q-5.11 7.14-5.11 19z"/>
   <path class="cls-1" d="m1600.9 360.5q28.44 12.69 28.45 44v28.66q0 26.8-15.76 43.18t-45.84 16.37h-47.73q-30.09 0-45.85-16.37t-15.76-43.18v-28.66q0-31.31 28.45-44v-2.5q-28.44-12.69-28.45-44v-26.2q0-26.8 15.76-43.18t45.85-16.34h47.69q30.07 0 45.84 16.38t15.76 43.18v26.16q0 31.32-28.45 44zm-38.07-40.32v-34.38q0-11.88-5.11-18t-13.82-6.15q-8.7 0-13.81 6.15t-5.12 18v34.38q0 11.88 5.12 19a16.89 16.89 0 0 0 27.63 0q5.11-7.12 5.11-19zm-37.81 78.18v36.84q0 11.88 5.12 18t13.81 6.13q8.7 0 13.82-6.13t5.11-18v-36.84q0-11.87-5.11-19a16.91 16.91 0 0 0-27.63 0q-5.12 7.14-5.12 19z"/>
   <path class="cls-2" d="m1197 304.2c0 20.95-0.18 41.94-0.32 62.89 0 1.94-0.13 7.15-0.31 9.09-0.55 0-8-15.52-11.41-21.22-1.9-3.12-4.88-7.69-8.68-12.89v-157.07l-163.61-44.34v403s65.11-12.21 96.87-44.79 47.1-61.08 56.06-78.14c-4.66-13.71-24.75-59-43.85-76.51-15.47-14.21-40.85-33.21-62-43.44 0-6.92-0.13-14.07-0.13-21.9 9.82 4.94 19 8.92 27.51 13.94a238.61 238.61 0 0 1 25.42 17 209.31 209.31 0 0 1 22.45 19.85c7 7.29 14 14.93 19.63 23.35 4 6.06 28.51 44.61 32.72 62.26s-30.54 69.81-48 88-69 67.1-147.6 68.6c0-14.66 0.68-419.79 0.59-452.15v-7.73c19.1 5.11 37.37 10 55.65 14.88 47.42 12.72 94.79 25.57 142.21 38.1 5.11 1.36 7.06 3 7 8.73-0.33 43.48-0.15 86.96-0.2 130.49z" fill="url(#linearGradient899)"/>
   <path class="cls-3" d="m965.08 265.15c0 6.61-0.86 277.4-0.86 306.77-70-5.43-108.77-37.06-108.77-37.06-33-22.4-61.81-53.12-81.17-102.39-12.28-31.4-14.28-64.16-14.08-97.42 0.37-54.11 0.14-108.22 0-162.34 0-4.48 1.13-6.33 5.65-7.55q96.8-25.66 193.43-51.77c1.63-0.4 3.26-0.67 5.57-1.17 0.09 1.67 0.27 11.63 0.36 21.63l-182.38 49.27v190.39c0 26.38 16.1 94.79 75.65 134.75 27.78 18.68 50.13 31.67 81.71 40v-262.57s-38.05 13.17-62 26.88c-20.09 11.49-40.18 33.62-50.63 46.06a1.7 1.7 0 0 1 0-0.5c-0.4-10.32-0.13-20.68 0.1-31a7.46 7.46 0 0 1 2.08-4.62c36.1-33.25 78.5-52.57 127.41-57.32a74.38 74.38 0 0 1 7.93-0.04z" fill="url(#linear-gradient-2)"/>
   <path class="cls-4" d="m965.21 152.26c0 4.93-1.35 6.06-5 7q-74.62 19.9-149.21 39.88c-4.66 1.22-6.47 2.85-6.47 8.09 0.18 34.93-0.36 69.86-0.14 104.79 0.14 23.35 0.28 46.79 2 70.05 1.4 19 8.19 36.83 16.83 53.84 0.54 1.08 3 6 6.38 11.63 1.09 1.49 2.26 3.07 3.44 4.79 3.12 4.44 6.29 8.55 9.5 12.49a16.77 16.77 0 0 0 1.54 1.13 1.76 1.76 0 0 0-0.36 0.32c36.56 43.43 77.59 53.16 77.59 53.16s-0.09-185.51-0.09-201.75c-39 14.07-68.77 38.14-91 71.94-0.91-10.31-2.26-20.68-2.67-31 10.45-12.44 30.54-34.57 50.63-46.06 24-13.71 62-26.88 62-26.88v262.57c-31.58-8.32-53.93-21.31-81.71-40-59.55-40-75.65-108.37-75.65-134.75v-190.38l182.34-49.27c0.1 7.15 0.1 14.2 0.05 18.41z" fill="url(#linear-gradient-3)"/>
   <path class="cls-5" d="m1153.2 308.45q0.27-51.85-0.23-103.7c0-1.63-1.76-4.26-3.21-4.66-37.1-10.14-74.29-20-111.48-29.91-0.32-0.09-0.68 0.09-1.63 0.32 0 14.29-1.13 348.39-1.13 348.39s52.93-18.14 78-53.16 27.06-44.8 27.6-47.47c-0.54-2.4-2.76-7.64-5.84-13.89-0.27-0.13-0.54-0.32-0.86-0.5a2.18 2.18 0 0 0 0.5-0.22c-2.44-4.89-5.38-10.32-8.6-15.48-0.95-1.4-5.33-8.28-6.74-10.13-1.45-1.54-2.71-3.35-4.07-5a197.26 197.26 0 0 0-42.52-38.04c-5.83-3.89-14.07-12.39-13.52-22.8 0.18-3.75 0.22-7.6 0.22-11.45 21.18 10.23 46.56 29.23 62 43.44 19.1 17.51 39.19 62.8 43.85 76.51-9 17.06-24.3 45.61-56.06 78.14s-96.87 44.79-96.87 44.79v-403l163.67 44.37v157.1a206.26 206.26 0 0 0-19-22.72c-3.13-3.1-4.12-6.45-4.08-10.93z" fill="url(#linear-gradient-4)"/>
   <path class="cls-6" d="m1196.9 337v44a243.35 243.35 0 0 0-58.92-75.63v-29a266.91 266.91 0 0 1 58.92 60.63z" fill="url(#linear-gradient-5)"/>
   <path class="cls-7" d="m1110.7 258.54v26.46a239.24 239.24 0 0 0-50.54-24.71v-23.92a261.83 261.83 0 0 1 50.54 22.17z" fill="url(#linear-gradient-6)"/>
   <path class="cls-8" d="m964.49 224.43v22.67a242.21 242.21 0 0 0-59.77 11.44v-23.66a260.45 260.45 0 0 1 59.77-10.45z" fill="url(#linear-gradient-7)"/>
   <path class="cls-9" d="m877.39 244.61v24.75a244.91 244.91 0 0 0-50.58 31.85v-28.41a265.18 265.18 0 0 1 50.58-28.19z" fill="url(#linear-gradient-8)"/>
  </g>
 </g>
</svg>
