<?xml version="1.0" encoding="UTF-8"?>
<svg version="1.1" viewBox="0 0 444.3 110.3" xml:space="preserve" xmlns="http://www.w3.org/2000/svg">
<style type="text/css">
	.st0{fill:#936F03;}
	.st1{fill:url(#SVGID_1_);}
	.st2{fill:url(#SVGID_2_);}
	.st3{fill-rule:evenodd;clip-rule:evenodd;fill:url(#SVGID_3_);}
	.st4{fill-rule:evenodd;clip-rule:evenodd;fill:#444343;}
	.st5{fill-rule:evenodd;clip-rule:evenodd;fill:url(#SVGID_4_);}
	.st6{fill:url(#SVGID_5_);}
	.st7{opacity:0.502;}
	.st8{fill:url(#SVGID_6_);}
	.st9{fill:url(#SVGID_7_);}
</style>
<title>logo pokervip88</title>





<linearGradient id="SVGID_3_" x1="52.284" x2="52.284" y1="101.72" y2=".3558" gradientUnits="userSpaceOnUse">
	<stop stop-color="#C49000" offset="0"/>
	<stop stop-color="#FFF263" offset="1"/>
</linearGradient>









<linearGradient id="SVGID_4_" x1="52.284" x2="52.284" y1="17.288" y2="84.793" gradientUnits="userSpaceOnUse">
	<stop stop-color="#C49000" offset="0"/>
	<stop stop-color="#FFF263" offset="1"/>
</linearGradient>







<g transform="translate(-1.5 -.3)"><g id="klik_copy_2_">
	
		<path class="st0" d="m161 29.3v-4.8l-11.6 4.8-18.8 23.7v-23.7h-18.4v52.9h18.4v-16.8l4.4-5.5 10.9 22.5h21.6l0.1-4.9-20.5-32.6zm29.6 0h-18.6v52.9h40.2v-8.6h-21.7v-44.3zm26.1 53h18.4v-53l-18.4 0.1zm78.7-4.7-20.4-32.8 13.8-15.5-0.1-4.8-11.5 4.8-18.8 23.7v-23.7h-18.4v52.9h18.4v-16.8l4.4-5.5 10.9 22.5h21.6z"/>
	
</g><g id="bet_copy_2_">
	
		<path class="st0" d="m349 57.9c-0.2-0.2-0.5-0.5-0.8-0.7s-0.7-0.4-1.1-0.6c-0.7-0.4-1.6-0.8-2.6-1-0.6-0.2-1.3-0.4-2-0.5s-1.4-0.3-2.1-0.4c0.6 0 1.2 0 1.9-0.1 0.7 0 1.4-0.1 2.2-0.3 0.4-0.1 0.9-0.2 1.3-0.3s0.8-0.3 1.2-0.5c0.5-0.2 0.9-0.5 1.3-0.8s0.7-0.7 1-1.1 0.5-0.9 0.7-1.5c0.2-0.5 0.3-1.2 0.3-1.8v-9.7c0-0.6-0.1-1.2-0.2-1.8s-0.3-1.2-0.6-1.8c-0.2-0.5-0.5-1.1-0.9-1.6s-0.8-1-1.4-1.4c-0.5-0.4-1-0.8-1.7-1.1-0.6-0.3-1.3-0.6-2.1-0.8-0.6-0.2-1.2-0.3-1.9-0.4s-1.4-0.1-2.2-0.1h-39.3v52.8h39.5c0.6 0 1.3 0 2-0.1s1.4-0.2 2.1-0.4c0.6-0.1 1.1-0.3 1.6-0.6s1-0.5 1.5-0.8 1-0.8 1.5-1.2l1.2-1.5c0.3-0.6 0.6-1.3 0.8-2s0.3-1.6 0.3-2.4v-12c0-0.6-0.1-1.2-0.3-1.8-0.4-0.8-0.7-1.3-1.2-1.7zm-16.8 12.9c0 0.3 0 0.6-0.1 0.9s-0.2 0.6-0.4 0.9c-0.2 0.2-0.4 0.5-0.6 0.6-0.2 0.2-0.5 0.3-0.8 0.3h-11.8v-14.3h11.5c0.2 0 0.5 0.1 0.7 0.2s0.5 0.3 0.7 0.5c0.2 0.1 0.4 0.3 0.5 0.6 0.1 0.2 0.2 0.5 0.2 0.7v9.6zm0-22.5c0 0.2-0.1 0.5-0.2 0.8s-0.3 0.5-0.5 0.8c-0.2 0.2-0.4 0.4-0.7 0.5s-0.5 0.2-0.8 0.2h-11.6v-12.5h11.6c0.2 0 0.5 0.1 0.7 0.2s0.5 0.3 0.7 0.5c0.2 0.1 0.4 0.3 0.5 0.6 0.1 0.2 0.2 0.5 0.2 0.7v8.2zm41.7 10.9h21.4v-8.6h-21.4v-12.7h21.9v-8.6h-40.4v52.9h41v-8.6h-22.5zm26-30v8.9h13.8v44.1h18.3v-44h13.8v-8.9h-45.9z"/>
	
</g><g id="klik_2_">
	
		<linearGradient id="SVGID_1_" x1="203.83" x2="203.83" y1="24.457" y2="77.423" gradientUnits="userSpaceOnUse">
			<stop stop-color="#fff" offset="0"/>
			<stop stop-color="#FFF263" offset="1"/>
		</linearGradient>
		<path class="st1" d="m161 24.5h-11.6l-18.7 23.7v-23.7h-18.4v52.9h18.4v-16.9l4.3-5.5 10.9 22.5h21.6l-20.3-37.5zm29.6 0h-18.6v52.9h40.2v-8.6h-21.7v-44.3zm26.1 52.9h18.4v-53l-18.4 0.1zm58.3-37.4 13.8-15.5h-11.6l-18.7 23.7v-23.7h-18.4v52.9h18.4v-16.9l4.4-5.5 10.9 22.5h21.6z" fill="url(#SVGID_1_)"/>
	
</g><g id="bet_2_">
	
		<linearGradient id="SVGID_2_" x1="372.87" x2="372.87" y1="77.423" y2="24.383" gradientUnits="userSpaceOnUse">
			<stop stop-color="#C49000" offset="0"/>
			<stop stop-color="#FFF263" offset="1"/>
		</linearGradient>
		<path class="st2" d="m349 53c-0.2-0.2-0.5-0.5-0.8-0.7s-0.7-0.4-1.1-0.6c-0.7-0.4-1.6-0.8-2.6-1-0.6-0.2-1.3-0.4-2-0.5s-1.4-0.3-2.1-0.4c0.6 0 1.2 0 1.9-0.1 0.7 0 1.4-0.1 2.2-0.3 0.4-0.1 0.9-0.2 1.3-0.3s0.8-0.3 1.2-0.5c0.5-0.2 0.9-0.5 1.3-0.8s0.7-0.7 1-1.1 0.5-0.9 0.7-1.5c0.2-0.5 0.3-1.2 0.3-1.8v-9.7c0-0.6-0.1-1.2-0.2-1.8s-0.3-1.2-0.6-1.8c-0.2-0.5-0.5-1.1-0.9-1.6s-0.8-1-1.4-1.4c-0.5-0.4-1-0.8-1.7-1.1-0.6-0.3-1.3-0.6-2.1-0.8-0.6-0.2-1.2-0.3-1.9-0.4s-1.4-0.1-2.2-0.1h-39.3v52.8h39.5c0.6 0 1.3 0 2-0.1s1.4-0.2 2.1-0.4c0.6-0.1 1.1-0.3 1.6-0.6 0.5-0.2 1-0.5 1.5-0.8s1-0.8 1.5-1.2l1.2-1.5c0.3-0.6 0.6-1.3 0.8-2s0.3-1.6 0.3-2.4v-12c0-0.6-0.1-1.2-0.3-1.8-0.4-0.7-0.7-1.2-1.2-1.7zm-16.8 13c0 0.3 0 0.6-0.1 0.9s-0.2 0.6-0.4 0.9c-0.2 0.2-0.4 0.5-0.6 0.6-0.2 0.2-0.5 0.3-0.8 0.3h-11.8v-14.3h11.5c0.2 0 0.5 0.1 0.7 0.2s0.5 0.3 0.7 0.5c0.2 0.1 0.4 0.3 0.5 0.6 0.1 0.2 0.2 0.5 0.2 0.7v9.6zm0-22.6c0 0.2-0.1 0.5-0.2 0.8s-0.3 0.5-0.5 0.8c-0.2 0.2-0.4 0.4-0.7 0.5s-0.5 0.2-0.8 0.2h-11.6v-12.5h11.6c0.2 0 0.5 0.1 0.7 0.2s0.5 0.3 0.7 0.5c0.2 0.1 0.4 0.3 0.5 0.6 0.1 0.2 0.2 0.5 0.2 0.7v8.2zm41.7 11h21.4v-8.6h-21.4v-12.8h21.9v-8.6h-40.4v52.9h41v-8.6h-22.5zm26-30v8.9h13.8v44.1h18.3v-44.1h13.8v-8.9z" fill="url(#SVGID_2_)"/>
	
</g><g id="Ellipse_1_2_">
	
		<circle class="st0" cx="52" cy="56.2" r="50.5"/>
	
</g><circle class="st3" cx="52.3" cy="51" r="50.7" fill="url(#SVGID_3_)"/><path class="st4" d="m68.1 2.9c3.3 1.1 6.5 2.5 9.5 4.3 3 1.7 5.8 3.8 8.4 6.1l-6 6.7c-1.6 1.8-3.6 2.4-5.8 0.8-1.1-0.8-2.1-1.5-3.3-2.1-1.1-0.6-2.3-1.2-3.5-1.8-2.4-1.1-3-3.1-2.2-5.4z"/><path class="st4" d="m18.5 13.2c2.6-2.3 5.4-4.4 8.4-6.1s6.2-3.2 9.5-4.3l2.8 8.5c0.8 2.3 0.2 4.3-2.2 5.4-1.2 0.5-2.3 1.1-3.5 1.8-1.1 0.6-2.2 1.4-3.3 2.1-2.2 1.6-4.2 1-5.8-0.8z"/><path class="st4" d="m2.7 61.4c-0.8-3.5-1.1-6.9-1.1-10.4 0-3.4 0.3-6.9 1.1-10.3l8.8 1.8c2.4 0.5 3.9 2 3.6 4.6-0.1 1.3-0.2 2.6-0.2 3.9s0.1 2.6 0.2 3.9c0.3 2.7-1.2 4.1-3.6 4.6z"/><path class="st4" d="m18.5 88.9c2.6 2.3 5.4 4.4 8.4 6.1s6.2 3.2 9.5 4.3l2.8-8.5c0.8-2.3 0.2-4.3-2.2-5.4-1.2-0.5-2.3-1.1-3.5-1.8-1.1-0.6-2.2-1.4-3.3-2.1-2.2-1.6-4.2-1-5.8 0.8z"/><path class="st4" d="m101.9 61.4c0.7-3.4 1.1-6.9 1.1-10.3s-0.3-6.9-1.1-10.3l-8.8 1.8c-2.4 0.5-3.9 2-3.6 4.6 0.1 1.3 0.2 2.6 0.2 3.9s-0.1 2.6-0.2 3.9c-0.3 2.7 1.2 4.1 3.6 4.6z"/><path class="st4" d="m52.3 3.9c1.7 0 3 1.4 3 3s-1.4 3-3 3c-1.7 0-3-1.4-3-3s1.3-3 3-3z"/><path class="st4" d="m11.5 27.5c0.8-1.5 2.7-2 4.1-1.1 1.5 0.8 2 2.7 1.1 4.1-0.8 1.5-2.7 2-4.1 1.1-1.5-0.8-1.9-2.7-1.1-4.1z"/><path class="st4" d="m11.5 74.6c-0.8-1.5-0.3-3.3 1.1-4.1 1.5-0.8 3.3-0.3 4.1 1.1 0.8 1.5 0.3 3.3-1.1 4.1s-3.3 0.3-4.1-1.1z"/><circle class="st5" cx="52.3" cy="51" r="33.8" fill="url(#SVGID_4_)"/><circle class="st4" cx="52.3" cy="51" r="30"/><path class="st4" d="m52.3 98.1c1.7 0 3-1.4 3-3s-1.4-3-3-3c-1.7 0-3 1.4-3 3s1.3 3 3 3z"/><path class="st4" d="m93.1 27.5c-0.8-1.5-2.7-2-4.1-1.1-1.5 0.8-2 2.7-1.1 4.1 0.8 1.5 2.7 2 4.1 1.1 1.4-0.8 1.9-2.7 1.1-4.1z"/><g id="_x31__2_">
	
		<linearGradient id="SVGID_5_" x1="48.637" x2="48.637" y1="24.383" y2="77.275" gradientUnits="userSpaceOnUse">
			<stop stop-color="#fff" offset="0"/>
			<stop stop-color="#FFF263" offset="1"/>
		</linearGradient>
		<polygon class="st6" points="36.2 40.6 42.9 40.6 42.9 77.3 61.1 77.3 61.1 24.4 56.8 24.4 36.2 31.2" fill="url(#SVGID_5_)"/>
	
</g><g id="Shape_4_2_" class="st7">
	
		<path d="m56.9 56.3-3.1-4.8 8.4 53.9s9.8-1.5 16.3-6.6c0.2-0.4-21.6-42.5-21.6-42.5z"/>
	
</g><g id="Shape_1_2_">
	
		<linearGradient id="SVGID_6_" x1="83.056" x2="83.056" y1="110.6" y2="51.028" gradientUnits="userSpaceOnUse">
			<stop stop-color="#C49000" offset="0"/>
			<stop stop-color="#FFF263" offset="1"/>
		</linearGradient>
		<polygon class="st8" points="53.5 51 59.2 57.9 75.1 102.2 86 89.8 102.7 110.6 112.6 100.6 95.9 83.8 106.8 72.8" fill="url(#SVGID_6_)"/>
	
</g><g id="Rectangle_2_2_">
	
		<linearGradient id="SVGID_7_" x1="80.581" x2="80.581" y1="50.899" y2="110.53" gradientUnits="userSpaceOnUse">
			<stop stop-color="#C49000" offset="0"/>
			<stop stop-color="#FFF263" offset="1"/>
		</linearGradient>
		<path class="st9" d="m77.3 97.4-16.4-39.2-7.2-7.3 21.5 53.8 11-11.1 16.7 16.9 2.5-2.5-19.3-19.4zm13.5-13.5 9-9.1-38.7-16.4 27 27.2 17.2 17.4 2.2-2.3z" fill="url(#SVGID_7_)"/>
	
</g></g>
</svg>
