<?xml version="1.0" encoding="UTF-8"?>
<svg version="1.1" viewBox="0 0 1631.6 303.95" xmlns="http://www.w3.org/2000/svg">
 <defs>
  <style>.cls-1{fill:#04fff9;}.cls-2,.cls-4{fill:none;stroke-miterlimit:10;stroke-width:6px;}.cls-2{stroke:#fff;}.cls-3{fill:#fff;}.cls-4{stroke:#04fff9;}</style>
 </defs>
 <title>logo</title>
 <g transform="translate(-5.2098 -189.73)" data-name="Layer 1">
  <g id="logo">
   <g id="aqua">
    <path class="cls-1" d="m109 198.32-99.24 231.49h48.94l7.64-17.72h90.66l6.92 17.72h49.55l-98.8-231.49zm-28.7 175.51 30.94-78.53 31.18 78.53zm329.08-145.83a116 116 0 0 0-38.08-26.18 113.65 113.65 0 0 0-44.82-9.09 115.33 115.33 0 0 0-45.35 9.09 112.58 112.58 0 0 0-37.86 26.18 121.53 121.53 0 0 0-25.63 39.46 126.23 126.23 0 0 0 0.07 93 119.43 119.43 0 0 0 25.55 39.3 116.44 116.44 0 0 0 37.91 25.94 111.36 111.36 0 0 0 44.35 9.33 107.18 107.18 0 0 0 19.1-2q10.71-2 26.9-6.41s17.49-5.92 30.26-20.08 24.14-26.2 31.26-41.92a121.67 121.67 0 0 0 10.67-50.77 123.77 123.77 0 0 0-8.85-46.65 121.08 121.08 0 0 0-25.48-39.2zm-19.83 117.14a77.15 77.15 0 0 1-15.64 26l-30.37 18.19q-6.29 1.09-10.85 1.66a62.9 62.9 0 0 1-7.11 0.55q-29.64 0-48.86-22t-19.23-55.36q0-33 19.6-55.43t49.39-22.38q29.32 0 48.93 22.46t19.59 55.39a89.4 89.4 0 0 1-5.45 30.92zm210.19-9.91q0 28.51-11.14 43.08c-7.43 9.71-15 14.57-29.49 14.57s-21.83-4.83-29.07-14.49-10.88-24.05-10.88-43.16v-136.51h-42.26v144.28q0 47.2 21.34 70.48c14.22 15.52 32.47 23.28 61.55 23.28 28.63 0 46.65-7.76 60.88-23.28s21.33-39.02 21.33-70.48v-144.28h-42.26zm158.31-136.91h-5.61l-99.24 231.49h48.93l7.64-17.72h90.61l6.93 17.72h49.55zm-34.32 175.51 30.94-78.53 31.18 78.53z"/>
    <path class="cls-2" d="m109 198.32-99.24 231.49h48.94l7.64-17.72h90.66l6.92 17.72h49.55l-98.8-231.49zm-28.7 175.51 30.94-78.53 31.18 78.53zm329.08-145.83a116 116 0 0 0-38.08-26.18 113.65 113.65 0 0 0-44.82-9.09 115.33 115.33 0 0 0-45.35 9.09 112.58 112.58 0 0 0-37.86 26.18 121.53 121.53 0 0 0-25.63 39.46 126.23 126.23 0 0 0 0.07 93 119.43 119.43 0 0 0 25.55 39.3 116.44 116.44 0 0 0 37.91 25.94 111.36 111.36 0 0 0 44.35 9.33 107.18 107.18 0 0 0 19.1-2q10.71-2 26.9-6.41s17.49-5.92 30.26-20.08 24.14-26.2 31.26-41.92a121.67 121.67 0 0 0 10.67-50.77 123.77 123.77 0 0 0-8.85-46.65 121.08 121.08 0 0 0-25.48-39.2zm-19.83 117.14a77.15 77.15 0 0 1-15.64 26l-30.37 18.19q-6.29 1.09-10.85 1.66a62.9 62.9 0 0 1-7.11 0.55q-29.64 0-48.86-22t-19.23-55.36q0-33 19.6-55.43t49.39-22.38q29.32 0 48.93 22.46t19.59 55.39a89.4 89.4 0 0 1-5.45 30.92zm210.19-9.91q0 28.51-11.14 43.08c-7.43 9.71-15 14.57-29.49 14.57s-21.83-4.83-29.07-14.49-10.88-24.05-10.88-43.16v-136.51h-42.26v144.28q0 47.2 21.34 70.48c14.22 15.52 32.47 23.28 61.55 23.28 28.63 0 46.65-7.76 60.88-23.28s21.33-39.02 21.33-70.48v-144.28h-42.26zm158.31-136.91h-5.61l-99.24 231.49h48.93l7.64-17.72h90.61l6.93 17.72h49.55zm-34.32 175.51 30.94-78.53 31.18 78.53z"/>
   </g>
   <g data-name="Shape 1">
    <path class="cls-1" d="m633.5 434.19c-47.38 19.55-97 17.22-131.92-3.75s-49.36-32.52-86.81-66-108.94-21.44-109.77 23.85c0.85 1.7 23.4-14 105.53 60.35s187.67 35.71 223-5.95c-0.45-4.25-0.03-5.95-0.03-8.5z"/>
    <path class="cls-2" d="m633.5 434.19c-47.38 19.55-97 17.22-131.92-3.75s-49.36-32.52-86.81-66-108.94-21.44-109.77 23.85c0.85 1.7 23.4-14 105.53 60.35s187.67 35.71 223-5.95c-0.45-4.25-0.03-5.95-0.03-8.5z"/>
   </g>
   <g id="slot">
    <path class="cls-3" d="m976.27 295.72q-3.81-1.72-10.93-4.72-35.77-15.18-35.77-33.52a23.45 23.45 0 0 1 9-19.06q9-7.35 23.75-7.35 12.18 0 20.81 5a35.91 35.91 0 0 1 13.87 15.06l29.28-28q-11.71-15.64-27-23t-36.28-7.34q-36.26 0-59 18.42t-22.72 47q0 20.87 11.72 36t42.11 30.91q6.33 3.33 17.25 8.54 33.72 16.34 33.72 32.74 0 13.92-10.13 22.14t-27.55 8.22a47.35 47.35 0 0 1-26-7.35 42.2 42.2 0 0 1-16.78-20.16l-27.51 31.15q9.35 17.24 28.34 26.41t45.6 9.17q37.51 0 59.76-19.37t22.24-51.95a58.4 58.4 0 0 0-14.17-38.58q-14.16-16.92-43.61-30.36zm142.79-97.4h-49.55v231.49h137.42v-42.06h-87.87zm300.84 30.05a121.12 121.12 0 0 0-38.82-26.27 114.33 114.33 0 0 0-45.2-9.34 115.77 115.77 0 0 0-45.5 9.34 119 119 0 0 0-38.82 26.27 116.59 116.59 0 0 0-25.83 39 124.77 124.77 0 0 0-8.81 46.94 122.82 122.82 0 0 0 11.17 52.08 117.51 117.51 0 0 0 32.13 41.61 122 122 0 0 0 35.78 20.7 114.41 114.41 0 0 0 84.85-2 122.44 122.44 0 0 0 39.05-26.44 115.38 115.38 0 0 0 25.6-38.94 128.88 128.88 0 0 0 0.08-93.87 117.41 117.41 0 0 0-25.68-39.08zm-34.11 141.28q-19.68 22.08-49.91 22.08-30.84 0-50.44-21.92t-19.6-55.48q0-33.09 19.91-55.49t50.13-22.39q29.77 0 49.68 22.47t19.91 55.41q0 33.24-19.68 55.32zm85-171.33v42.06h56.67v189.43h49.71v-189.43h56.68v-42.06z"/>
    <path class="cls-4" d="m976.27 295.72q-3.81-1.72-10.93-4.72-35.77-15.18-35.77-33.52a23.45 23.45 0 0 1 9-19.06q9-7.35 23.75-7.35 12.18 0 20.81 5a35.91 35.91 0 0 1 13.87 15.06l29.28-28q-11.71-15.64-27-23t-36.28-7.34q-36.26 0-59 18.42t-22.72 47q0 20.87 11.72 36t42.11 30.91q6.33 3.33 17.25 8.54 33.72 16.34 33.72 32.74 0 13.92-10.13 22.14t-27.55 8.22a47.35 47.35 0 0 1-26-7.35 42.2 42.2 0 0 1-16.78-20.16l-27.51 31.15q9.35 17.24 28.34 26.41t45.6 9.17q37.51 0 59.76-19.37t22.24-51.95a58.4 58.4 0 0 0-14.17-38.58q-14.16-16.92-43.61-30.36zm142.79-97.4h-49.55v231.49h137.42v-42.06h-87.87zm300.84 30.05a121.12 121.12 0 0 0-38.82-26.27 114.33 114.33 0 0 0-45.2-9.34 115.77 115.77 0 0 0-45.5 9.34 119 119 0 0 0-38.82 26.27 116.59 116.59 0 0 0-25.83 39 124.77 124.77 0 0 0-8.81 46.94 122.82 122.82 0 0 0 11.17 52.08 117.51 117.51 0 0 0 32.13 41.61 122 122 0 0 0 35.78 20.7 114.41 114.41 0 0 0 84.85-2 122.44 122.44 0 0 0 39.05-26.44 115.38 115.38 0 0 0 25.6-38.94 128.88 128.88 0 0 0 0.08-93.87 117.41 117.41 0 0 0-25.68-39.08zm-34.11 141.28q-19.68 22.08-49.91 22.08-30.84 0-50.44-21.92t-19.6-55.48q0-33.09 19.91-55.49t50.13-22.39q29.77 0 49.68 22.47t19.91 55.41q0 33.24-19.68 55.32zm85-171.33v42.06h56.67v189.43h49.71v-189.43h56.68v-42.06z"/>
   </g>
  </g>
 </g>
</svg>
