<svg id="Layer_1" data-name="Layer 1" xmlns="http://www.w3.org/2000/svg" viewBox="0 0 1014.9 302.7"><defs><style>.cls-1{fill:#f9ed35;}.cls-2{fill:#fed065;}.cls-3{fill:#feb617;}.cls-4{fill:#feb718;}.cls-5{fill:#1b1017;}.cls-6{fill:#564435;}.cls-7{fill:#4c3929;}.cls-8{fill:#4b3727;}.cls-9{fill:#00181b;}.cls-10{fill:#24191a;}.cls-11{fill:#554334;}.cls-12{fill:#1d1413;}.cls-13{fill:#20161a;}.cls-14{fill:#473323;}.cls-15{fill:#6c5c4f;}.cls-16{fill:#5f4d3f;}.cls-17{fill:#5d4c3e;}.cls-18{fill:#85786d;}.cls-19{fill:#625143;}.cls-20{fill:#a99f98;}.cls-21{fill:#706154;}.cls-22{fill:#6d653c;}.cls-23{fill:#796a5e;}.cls-24{fill:#746f72;}.cls-25{fill:#817468;}.cls-26{fill:#4e3c2c;}.cls-27{fill:#672e02;}.cls-28{fill:#6c5037;}.cls-29{fill:#fce96c;}.cls-30{fill:#f6ec69;}.cls-31{fill:#f9ef6f;}.cls-32{fill:#f8dc60;}.cls-33{fill:#efe9ac;}.cls-34{fill:#311a08;}.cls-35{fill:#351f0d;}.cls-36{fill:#453121;}.cls-37{fill:#402c1b;}.cls-38{fill:#453120;}.cls-39{fill:#321b09;}.cls-40{fill:#412d1c;}.cls-41{fill:#3a2514;}.cls-42{fill:#483424;}.cls-43{fill:#4a3727;}.cls-44{fill:#463322;}.cls-45{fill:#3a2413;}.cls-46{fill:#fe7300;}.cls-47{fill:#2a1402;}.cls-48{fill:#fe7f00;}.cls-49{fill:#fd6c00;}.cls-50{fill:#fe8b01;}.cls-51{fill:#fea702;}.cls-52{fill:#fd6600;}.cls-53{fill:#fe7a01;}.cls-54{fill:#fd9c01;}.cls-55{fill:#fe9001;}.cls-56{fill:#fc7f00;}.cls-57{fill:#fe9601;}.cls-58{fill:#f5e7d7;}.cls-59{fill:#fcb150;}.cls-60{fill:#ed7e29;}.cls-61{fill:#2f1602;}.cls-62{fill:#f3892f;}.cls-63{fill:#fe8701;}.cls-64{fill:#c9b89e;}.cls-65{fill:#ee7e26;}.cls-66{fill:#fcac74;}.cls-67{fill:#fe8e02;}.cls-68{fill:#faa162;}.cls-69{fill:#d7a482;}.cls-70{fill:#feb100;}.cls-71{fill:#edba3e;}.cls-72{fill:#e8d6ae;}.cls-73{fill:#f6eedd;}.cls-74{fill:#f2e0b9;}.cls-75{fill:#f4e9cf;}.cls-76{fill:#eac08a;}.cls-77{fill:#e3a55c;}.cls-78{fill:#d39a52;}.cls-79{fill:#cb9f69;}.cls-80{fill:#f5ead9;}.cls-81{fill:#f1d9b4;}.cls-82{fill:#ecd0aa;}.cls-83{fill:#00f5fe;}.cls-84{fill:#00c5fe;}.cls-85{fill:#00d7fe;}.cls-86{fill:#00f1fe;}.cls-87{fill:#01f0fd;}.cls-88{fill:#01cdfe;}.cls-89{fill:#01d6fe;}.cls-90{fill:#01e8fc;}.cls-91{fill:#00f0fe;}.cls-92{fill:#00eefe;}.cls-93{fill:#01e3fe;}.cls-94{fill:#01e4fd;}.cls-95{fill:#00cdfb;}.cls-96{fill:#01e8fd;}.cls-97{fill:#01defe;}.cls-98{fill:#02ebfd;}.cls-99{fill:#00effd;}.cls-100{fill:#c5f1f3;}.cls-101{fill:#e7f3f5;}.cls-102{fill:#eaf4f5;}.cls-103{fill:#ecf4f5;}.cls-104{fill:#41ddef;}.cls-105{fill:#e3eff2;}.cls-106{fill:#e3f2f4;}.cls-107{fill:#02dcfe;}.cls-108{fill:#00d5ea;}.cls-109{fill:#dff2f4;}.cls-110{fill:#e9f6f9;}.cls-111{fill:#d3ebed;}.cls-112{fill:#c5eaed;}.cls-113{fill:#b4e6ee;}.cls-114{fill:#68cfee;}.cls-115{fill:#42d2ed;}.cls-116{fill:#cbeff2;}.cls-117{fill:#8dced4;}.cls-118{fill:#c2ebec;}.cls-119{fill:#52cee4;}.cls-120{fill:#d8f4f5;}.cls-121{fill:#abe1e9;}.cls-122{fill:#49d3ec;}.cls-123{fill:#cef0f2;}.cls-124{fill:#cce4e7;}.cls-125{fill:#8bc6cf;}.cls-126{fill:#b5eff3;}.cls-127{fill:#bee6e8;}.cls-128{fill:#beeaec;}.cls-129{fill:#d3eef0;}.cls-130{fill:#afe6e8;}.cls-131{fill:#48d3ea;}.cls-132{fill:#86dfe4;}.cls-133{fill:#46cae9;}.cls-134{fill:#71d7e7;}.cls-135{fill:#8be1ea;}.cls-136{fill:#007192;}.cls-137{fill:#6cc3dc;}.cls-138{fill:#63d7f7;}.cls-139{fill:#ccf5f8;}.cls-140{fill:#8edfe2;}.cls-141{fill:#7ae1f0;}.cls-142{fill:#63d9f7;}.cls-143{fill:#71f2fc;}.cls-144{fill:#71e2f1;}.cls-145{fill:#97cdd3;}.cls-146{fill:#87d0d3;}.cls-147{fill:#85eefb;}.cls-148{fill:#8ec8cd;}.cls-149{fill:#85d3d8;}.cls-150{fill:#a8dde4;}.cls-151{fill:#87e8ec;}.cls-152{fill:#6ff5fb;}.cls-153{fill:#8bc7ce;}.cls-154{fill:#6fcbd0;}.cls-155{fill:#6ff2f9;}.cls-156{fill:#2b1402;}.cls-157{fill:#e6cd9e;}.cls-158{fill:#ecd6aa;}.cls-159{fill:#fbce7f;}.cls-160{fill:#e0bb77;}.cls-161{fill:#e9c582;}.cls-162{fill:#fe8101;}.cls-163{fill:#fd7d02;}.cls-164{fill:#fe8600;}.cls-165{fill:#fe8a00;}.cls-166{fill:#fe9301;}.cls-167{fill:#24190f;}.cls-168{fill:#eed6bf;}.cls-169{fill:#e3bd9c;}.cls-170{fill:#fda143;}.cls-171{fill:#e1a97b;}.cls-172{fill:#f1a768;}.cls-173{fill:#f6aa67;}.cls-174{fill:#de9b56;}.cls-175{fill:#f3aa73;}.cls-176{fill:#f7af5d;}.cls-177{fill:#f3aa6d;}.cls-178{fill:#e19354;}.cls-179{fill:#f7af61;}.cls-180{fill:#f38b34;}.cls-181{fill:#fe7700;}.cls-182{fill:#fe9202;}.cls-183{fill:#fea100;}.cls-184{fill:#f4e4c8;}.cls-185{fill:#fab939;}.cls-186{fill:#eddaba;}.cls-187{fill:#fe6c01;}.cls-188{fill:#fe9a01;}.cls-189{fill:#f4e1cc;}.cls-190{fill:#edd0a9;}.cls-191{fill:#ebc287;}.cls-192{fill:#f0d5af;}.cls-193{fill:#fe7101;}.cls-194{fill:#feb702;}.cls-195{fill:#feaa01;}.cls-196{fill:#fe9a00;}.cls-197{fill:#fdb836;}.cls-198{fill:#faf9f9;}.cls-199{fill:#01eefd;}.cls-200{fill:#01e5fe;}.cls-201{fill:#e1f3f4;}.cls-202{fill:#01ecfe;}.cls-203{fill:#01191c;}.cls-204{fill:#e0f0f1;}.cls-205{fill:#00ccfd;}.cls-206{fill:#e1eff3;}.cls-207{fill:#c1eefa;}.cls-208{fill:#01ddfe;}.cls-209{fill:#01ddfd;}.cls-210{fill:#01ebfe;}.cls-211{fill:#cce9f0;}.cls-212{fill:#82e3fb;}.cls-213{fill:#8fccdc;}.cls-214{fill:#a4ccd4;}.cls-215{fill:#01dcfe;}.cls-216{fill:#01eafe;}.cls-217{fill:#00e3fe;}.cls-218{fill:#00e6fe;}.cls-219{fill:#fe9f00;}.cls-220{fill:#fe8f01;}.cls-221{fill:#1e1e1d;}.cls-222{fill:#f7e3ca;}.cls-223{fill:#f3d7b1;}.cls-224{fill:#e1bd90;}.cls-225{fill:#f1d4b0;}.cls-226{fill:#fcb95e;}.cls-227{fill:#efcfa0;}.cls-228{fill:#f1ceae;}.cls-229{fill:#f1c9a2;}.cls-230{fill:#fba437;}.cls-231{fill:#2b1503;}.cls-232{fill:#e7c499;}.cls-233{fill:#fccb8e;}.cls-234{fill:#2c1503;}.cls-235{fill:#f8e4c2;}.cls-236{fill:#f8f4ed;}.cls-237{fill:#e8d0a2;}.cls-238{fill:#ecd09c;}.cls-239{fill:#f4e7d2;}.cls-240{fill:#e2bd8d;}.cls-241{fill:#fea501;}.cls-242{fill:#273a3d;}.cls-243{fill:#f4decc;}.cls-244{fill:#1f1d1c;}.cls-245{fill:#f6e5d2;}.cls-246{fill:#eed3b2;}</style></defs><title>logo</title><path class="cls-1" d="M199.7,276c3.2,0,3.2-5,0-5s-3.2,5,0,5Z"/><path class="cls-2" d="M907.6,42.9l19.1-16.1c7.2,3.9,9.8,10.9,12.4,18,.2,3.1.1,6.3,0,9.4s1.6-.2,2.4-.1a3.8,3.8,0,0,1,3.8-.6c9.2,13.2,18.6,26.3,25.4,41-.1,3.5-4.5,4.6-4.6,8.1-1.8,4.4-5.7,6.5-9.7,8.6-3.3.5-4.8-2.4-7-3.9-4.3-3.4-7.4-7.8-10.8-12-11.1-9-22.4-17.6-35.9-22.8-2.7-1-5.7-1.7-7.5-4.4s-8.8-4.7-15.1-2.9a5.1,5.1,0,0,1-5.1-1.3c2.6-7.9,4.8-16.1,8-23.8,2.3-5.5,1.9-9.9-1.9-14.2s-5.3-11.5-2-17.7S887.5-.6,894.3.1s12,5,14.3,11.9a2.6,2.6,0,0,1-1.4.7c0,3,.9,5.9,1,8.8s-3.2,6.7-6.8,8.5c-2,5.1,1.3,8.5,3.7,12.2A4.7,4.7,0,0,0,907.6,42.9Z"/><path class="cls-3" d="M970.1,95.4,944.5,53.7a2.3,2.3,0,0,1-.1-2,6.8,6.8,0,0,1,3.2-3c6.9-2.8,9.3-8.2,9.2-15.2a8.9,8.9,0,0,1,3.7-5.1c10.3-10.9,20.5-9.4,28.7,4.2,1.1,1.1.9,2.8,1.4,4.1-.8,9.5-4.3,13.8-13.9,16.9-5.1,1.6-10.8,10.5-10.3,15.5.2,2,3.3,1.4,2.8,3.7,3.9,2.1,8.2,3.6,10.5-1.5,3.1-7.1,7.8-11.4,15.6-11.4s12.2,4.5,15.1,11.1a15,15,0,0,1,1.5,5.5c-2,11.9-11.4,18.4-22.4,14.8-4.4-1.5-7.6-.9-10.9,2.1s-3.5,3.6-6.1,4A2.3,2.3,0,0,1,970.1,95.4Z"/><path class="cls-4" d="M937.5,45.5c-2.1-7.1-6.8-12.6-10.8-18.6a4.5,4.5,0,0,0-1.4-3.8c-1.2-3.8-.8-7.6-.3-11.4,2-7.2,7.3-10.7,14.2-11s13,3.9,16,10.9a11.3,11.3,0,0,1,1.5,5.9,13.8,13.8,0,0,1-7.7,12.7c-5.2,2.7-9.1,5.7-8.8,12.2A3.2,3.2,0,0,1,937.5,45.5Z"/><path class="cls-5" d="M971.1,96.9a54.1,54.1,0,0,0,5.2-4.1c4.1-4.1,7.5-6.8,14.3-3.3s16.2-1.6,19.9-12.1c.6-1.1,1.1-2.3,2.8-1.5,3.2,7.1,1.3,13.2-4.1,18.1s-11.7,5.5-17.8,1.7c-3.1-1.9-4.7-1-6.9,1-6.5,5.8-13.5,11-19.6,17.1s-8.8,4.5-11.8-1.9c.9-1.2,2.7-.4,3.5-1.7l9.2-8.7C966.9,99.2,968.2,97.1,971.1,96.9Z"/><path class="cls-6" d="M909.1,92.4c28.2,12.7,35.6,42.5,15.6,67.8-6.3,8-7.6,12.5-2.2,22.2,10.7,19.2,6.4,38.7-6,56.5a3.5,3.5,0,0,1-1.3-1.7c1.4-7.8,5.5-14.8,7-22.6a40.6,40.6,0,0,0,.2-18.9c-1.3-6.7-4.5-12.4-8.5-17.8-2.6-3.6-4.7-7.4-.5-11.1,9.9-8.9,16.1-19.7,17.8-33,1.5-2.7,1.3-5.5.2-8.4-1.9-10.5-8.7-17.8-16.2-24.6-2.5-3.6-8.6-3.2-9.3-8.7A3.3,3.3,0,0,1,909.1,92.4Z"/><path class="cls-7" d="M787.8,271.5c-5.1-2-8.5-6.1-11.3-10.4s-5.3-4.3-9.2-1c-16.8,13.7-36.2,21.4-57.6,23.7s-39.5-1.1-55.9-14.6c-2.5-2-4.5-2.9-7.1-.6-1.5.4-2.1-.4-2.4-1.7,1.7-5.7,5.6-4.5,9.3-2.7s7.8,5.1,11.8,7.5c6.2,3.6,13.2,5.4,20,7.3,2.9,1.1,6,.9,9.1.8h8.2c3.4.1,6.9.4,10.3-.6a109.4,109.4,0,0,0,51.6-23.2c6-4.9,9.2-4.7,13.6,1.5s9.7,7.8,11.5,14.1A1.4,1.4,0,0,1,787.8,271.5Z"/><path class="cls-8" d="M582.5,111.9c2.7-5.5,7.6-7.4,13.2-8.3,24-3.5,47.9-7.2,71.9-10.5,10.2-1.4,16.1,3.9,16.3,14,0,1.8-1.2,4.5,2.6,3a1.4,1.4,0,0,1,2,.1,3.4,3.4,0,0,1,.4,2.2c-1.5,3-3.8,4.7-7.3,4.5s-2.6-4.3-2.4-6.9c2-5-.4-8.4-4.3-11.2s-5.8-1.5-8.7-1.1c-24.2,3.9-48.6,6.4-72.6,11.1-4.5,1.5-6.7,4.9-7.5,9.3-2.2,11.9-3.8,23.9-5.9,35.8-.7,4.1,1.7,7.7,1.5,11.7a2.1,2.1,0,0,1-1.6,1.7c-4.5-3.2-6-7.3-5-12.8C577.8,140.4,579.1,126,582.5,111.9Z"/><path class="cls-9" d="M54.8,298.2H53.4c-4.3,1.9-9.2-.7-13.5,1.5h0c-4.3,1.9-9.1-.7-13.4,1.5h0a9.6,9.6,0,0,1-7.6,0c-1.7.1-3.4.4-4.6-1.2a1.9,1.9,0,0,1,.2-2.3c10.2-2.2,20.7-1.2,30.9-3.1,7.5-1.4,15.4-.8,22.4-4.5,4.7-3.1,6.4-8.2,8.6-13s4.3-10.1,6.7-14.9,7-8.8,12.8-8.9c8.9-.2,17.7-2,26.7-1.9,11.2.1,12.5,1,15.4,11.9.3,5.5,3.3,10.7,2.4,16.4-1.8,2.1-2.6.2-3.7-.8s-1.4-2.9-1.4-4.5c-1.8-2.2.6-5.3-1.7-7.3a29.3,29.3,0,0,1-2.9-10.4c-10.5-2.7-20.8,1.4-31.2,1.4-7-.8-11.2,2.2-13.4,8.8s-4.4,10.5-6.4,15.8A22.7,22.7,0,0,1,64,296.9C61.1,298.3,57.7,296.3,54.8,298.2Z"/><path class="cls-10" d="M969.1,72.8c-4.8,1.7-7.4,1.2-4.9-4.7a50.2,50.2,0,0,0,2.5-7c1.4-5.4,3-9.4,10.4-9.8s10.9-7,12.4-14c1.6-.7,2,.8,2.9,1.5,2.3,9.5-2.1,19-10.9,19.9-7.2.7-9.6,4-10.8,10A21.8,21.8,0,0,1,969.1,72.8Z"/><path class="cls-11" d="M787.8,271.5l2-.3c8.2,1.9,15.5,6.8,24,7.8,3.2,1.1,6.7.6,10,1.1s8,.2,12-.3,5.9.1,8.8-.8c24.6-4.1,45.4-15.3,62.2-33.7,1.4-1.5,2.7-2.9,4.9-3.1a2.8,2.8,0,0,1,2,.9c-9.1,14.4-22.7,23.4-37.6,30.4-22.1,10.5-45.3,14.6-69.4,7.7C799.7,279.3,792.8,277.2,787.8,271.5Z"/><path class="cls-12" d="M895.3,67.3c13.9,5.8,27.4,12.4,38.9,22.5,1.8,1.6,4.4,2.6,4.4,5.6-3.5.6-5.3-2.4-7.6-3.9-15.4-10.3-31.5-18.8-50.6-19.7-1.5-4.8-.5-7.9,5.3-7.5A14.5,14.5,0,0,1,895.3,67.3Z"/><path class="cls-13" d="M937.5,45.5c.4-2.2,1.1-4.4,1.1-6.5-.1-4.7,1.1-7.5,6.4-8.7s9.1-6.4,10.4-12.4c.6-1,1.1-2.2,2.7-1.4,2.2,3.2,1.4,6.8,1.3,10.3-.5,2-.9,4.1-2.1,5.8s-2.8,5-5.5,5.7c-5.5,1.5-7.2,5.4-7.4,10.5a29.9,29.9,0,0,1-2.1,4.8c-1.6,1.1-2.2,3.9-5,2.9Z"/><path class="cls-9" d="M470.6,116.2c7-5,15.5-4.7,23.4-5.5,15.3-1.5,30.5.6,45.3,5.4a52.1,52.1,0,0,1,24.3,16.3c1.7,2,3.1,3.9,2.3,6.6-2.6.3-4.2-1.3-5.5-3-5.8-8.1-14.2-12.4-23.2-15.9-19-5.8-38.2-6.1-57.6-2.7C476.4,117.9,473.3,119,470.6,116.2Z"/><path class="cls-9" d="M547,276.2c-2.9,7-9.8,6.8-15.1,6.7-12-.2-24.2.3-35.9-3.4-4.2-1.4-7.8.5-11.5,1.5-14.3,3.8-28.6,4.8-43.1.9-2.4-.7-4.9-.9-6.5-3,2.7-2.8,5.9-1.7,9-1,13.3,2.9,26.4,2.8,39.3-1.7a15.3,15.3,0,0,1,3.7-.7c2.8-.1,5.6-.1,8.5,0a14.9,14.9,0,0,1,3.5.6l4.4,1.5c5.7,1.3,11.6.4,17.4.7s9.5,1.2,14.3.4,6.5-1.4,9.4-3.2a3.5,3.5,0,0,1,2-.1Z"/><path class="cls-9" d="M174,123.8l16.5,65.5c1.4,3,1.4,5.1-2.7,5-1.9-1.1-2.5-3-3-4.9-3.2-13.4-7.2-26.5-9.7-40.1.4-6.4-2.7-12-3.8-18.1-.7-3.8-3-7.5-.9-11.5C174.9,118.1,172.3,123,174,123.8Z"/><path class="cls-9" d="M539.3,119.3c11.6,2.9,19,11.4,26.5,19.7a5.9,5.9,0,0,0,.3,1.2c5,15.7,6.2,31.6,1.4,47.6a34.4,34.4,0,0,1-1.4,3.3c-1.6-1.1-2-2.8-2.5-4.5a7.4,7.4,0,0,1,1-5c1.2-2.1,1.2-4.4,1.6-6.7a16,16,0,0,1,.5-2c.4-5.1,1.4-10.3-.9-15.3a29.7,29.7,0,0,1-2.6-7.7c-2.9-12-10.4-20-21.5-24.9-2.2-1-5-1-6.1-3.8a3.1,3.1,0,0,1,.5-2.2A2.9,2.9,0,0,1,539.3,119.3Z"/><path class="cls-9" d="M227.7,116.3c11.2-.3,22.5-3.3,33.7.7,2.1.7,5.1-1.3,7.7-2,11.4-3,22.7-6,34.8-3.4,6.4,1.3,8.8,8,14.8,9.3-2.3,5.1-5.5,2.1-7.4.2-4.8-4.7-10.4-6.2-16.8-5.7-3.9.1-7.9-.5-11.7.9a21.1,21.1,0,0,1-3.7.6c-16.8,5.6-33.9,3.4-51,1.7A1.6,1.6,0,0,1,227.7,116.3Z"/><path class="cls-9" d="M57.8,150.6,82.9,95.3c1.6-1.7,1.8-4.1,3.1-5.9s2.3-4.5,4.6-5.9a2.6,2.6,0,0,1,3.1-.2c.9,1.6.1,2.9-.7,4.2-7.9,12-12.2,25.7-18.8,38.3a55.9,55.9,0,0,0-6.3,13.1c-2.1,4.5-4.5,8.9-6.1,13.6-1.1,1.5-1.7,3.6-4.3,2.6C57,153.5,56.7,152,57.8,150.6Z"/><path class="cls-9" d="M498.9,277.4l-2.8-.2a13.2,13.2,0,0,0-9.1.1l-2.8.2c-16.3,5.3-32.6,3.9-48.8-.2-3.9-1-7.2-3.4-10.9-4.7-1.1-.1-2.4.4-2.8-1.3s-5.5-4.7.3-6.7c14,9,29.5,11.8,45.9,10.8,6.5-.4,12.6-2,18.9-3.4s12.7-1.2,18.1,3.4a2.2,2.2,0,0,1,.1,2.4C502.9,278.7,500.9,278.3,498.9,277.4Z"/><path class="cls-9" d="M320,120.6c7.8-5.1,16.8-6.5,25.5-8.7a94.6,94.6,0,0,1,56.7,4.4h0c1.9,1.2,4.2,1.4,5.9,3h0c1.1,1.1,3.1,1.9.7,3.7s-3.9-.1-5.7-1c-24.4-11.3-48.9-9-73.5-.7-2.3.8-4.6,1.9-7.1,1.7A3,3,0,0,1,320,120.6Z"/><path class="cls-14" d="M783.9,95.4c9.9,5.5,12.4,8.4,21.9,26.3a86.7,86.7,0,0,1,22.7-20.2c1.9-1,3.5-3.1,6-1.7.8,2.9-1.3,4.1-3.2,5.2-8.3,5.1-15.1,12-21.7,19-3.7,3.9-7.6,3.5-9.1-1.4-3.2-10.2-9.5-17.8-18.2-23.6-1.2-.8-2.3-2-1.5-3.7A2.8,2.8,0,0,1,783.9,95.4Z"/><path class="cls-9" d="M136.7,278.9l3.3,1.3c2.5-.4,3.8,1.4,5.3,2.9,8.8,5.1,18.4,2.8,27.4,2.2,14.2-.9,28.3-2.9,42.6-2.6,5-.2,10,.7,15-.8a22.2,22.2,0,0,1,6.3-.5,6,6,0,0,1,4.6,1.9,42.4,42.4,0,0,1-17.2,2.9c-22.2-.5-44.2,2.7-66.3,4C150,290.7,140.6,289.3,136.7,278.9Z"/><path class="cls-9" d="M269.4,219.2c-2.3-9.4.1-18.6.7-27.9.1-1.2.8-2.7-1-2.8s-1.7,1.5-2.6,2.3c-2.6,3.6-1.7,8-2.9,12h0c-2.2,3.8.4,8.1-1.5,11.9h0c-1.3,6.4-2.1,12.9-2.8,19.4a1.9,1.9,0,0,1-2.3-.4c-3.5-6.5,0-13,.4-19.4.3-4.6,1-9.2,1.6-13.8s1.5-9.3,4.3-13.3,4.9-7.1,9.3-5.4,2.9,6.1,2,9.7c-.2,1-.4,1.9-.7,2.9-1.6,5.4-.5,10.9-.9,16.3-.2,2.7.2,5.5-1.3,8A1.7,1.7,0,0,1,269.4,219.2Z"/><path class="cls-9" d="M187.7,193.9c3-.3,2.6-2.6,2.8-4.5,6.1-.7,2.9-6,4.4-8.9s-.4-7.2,1.4-10.5a8.9,8.9,0,0,1,.1-1.4c2-3.3-.4-7.2,1.4-10.5h0c2.1-3.3-.3-7.2,1.5-10.5a8.3,8.3,0,0,1,.1-1.4c2.1-3.2-.5-7.1,1.6-10.3s-1.6-4.6,1.2-6.2a1.8,1.8,0,0,1,2.3.4,8.1,8.1,0,0,1,1.3,4.9c-2.7,18.3-4.2,36.7-7.6,54.9-.5,1.9-1,3.8-1.5,5.6-1.2,4.8-3.7,6.2-7.8,2.6C187.8,196.8,186.7,195.6,187.7,193.9Z"/><path class="cls-9" d="M409.5,122.5l-1.4-3.2c8.1,2.7,13.6,8.7,18,15.5s5.9,5.3,10.1.7,5.8-8.8,12-8.7c1.1,2.4-.5,3.8-2.1,5a44,44,0,0,0-8.2,8.5c-5.8,7.2-8.1,7-14.2-.3C420.3,132.9,412.7,129.5,409.5,122.5Z"/><path class="cls-9" d="M257.3,234h1.6a2.1,2.1,0,0,1,.2,3h0c-2.2,3.8.4,8.1-1.5,11.9-.9,6.5-1.7,13.1-2.8,19.6s-5.9,12.7-13.6,14.7h-4.5a1.6,1.6,0,0,1-.1-1.8c2.4-2.4,6.1-2.6,8.5-5a13.1,13.1,0,0,0,3.3-4c4-10.3,3.8-21.3,5.7-32,.3-1.9.2-4,1.2-5.7A1.6,1.6,0,0,1,257.3,234Z"/><path class="cls-9" d="M539.3,119.3l-3.1.2c-6.7,1.9-13-1.9-19.6-1.8a105.7,105.7,0,0,0-41.6,2.5c-3.5.9-7,2.4-10.8,1.5-3.4-3.2,1.4-2.6,1.9-4s3-1.1,4.5-1.5c13.3-1.1,26.4-4.1,39.9-2.9C520.3,114.1,530.2,115,539.3,119.3Z"/><path class="cls-15" d="M783.9,95.4l-3.2.2c-6.4,1.7-11.5-3.3-17.5-3.4L760,90.8a61.9,61.9,0,0,0-21.3-.1c-5.4.9-10.7,3.4-16.4,2a1.5,1.5,0,0,1,.1-2c18.3-6.3,36.6-6.3,54.8.4C779.7,92.1,782.4,92.7,783.9,95.4Z"/><path class="cls-9" d="M174,123.8l-3-4.5c-3.1-1.2-3.2-4.1-3.9-6.7-1.7-6.7-3.8-13.2-5.3-19.9S156.7,84,154,79.6a2.5,2.5,0,0,1,.7-2.1c5.5.4,8.6,4.4,9.9,8.7C168.2,98.6,172.6,110.9,174,123.8Z"/><path class="cls-16" d="M589.9,277.4c-4.7-3.8-4.6-8.8-3.6-14.1l9.7-51.6a1.9,1.9,0,0,1,2.1.8c2.3,7.4-1.7,14.1-2.2,21.2-1,2.6-.9,5.5-1.3,8.2-2.1,11-4.7,21.9-3.5,33.3A3.8,3.8,0,0,1,589.9,277.4Z"/><path class="cls-9" d="M424.5,272.6c.9-1.5,2-.9,3.1-.4a73.5,73.5,0,0,0,52.2,5.4,20.3,20.3,0,0,1,4.4-.2c-13.5,6.1-27.4,5-41.4,2.2-2.7-.5-5.3-1.4-8-.8C431.2,277.1,426.7,276.7,424.5,272.6Z"/><path class="cls-9" d="M366.4,280.4c-17.1,4-34.1,4.9-50.8-1.5,1.3-1.6,3.1-1.9,4.9-2,13.7,1.7,27.3,2.2,41,.2a6.5,6.5,0,0,1,4.2.9A1.7,1.7,0,0,1,366.4,280.4Z"/><path class="cls-9" d="M5.3,274.2c5.5-14.6,10.9-29.3,18.1-43.2a4,4,0,0,1,1.5,2.9c0,3.9-2.3,7-3.2,10.6s-3.6,7.1-4.2,11.1-3.8,9.5-5.6,14.2c-.9,2.2-1.7,4.6-4.5,5.3A2.6,2.6,0,0,1,5.3,274.2Z"/><path class="cls-9" d="M270.7,219.3c1-8.5-1.6-17.1,1.7-25.4,3,3,1.9,6.8,2.1,10.4.4,6.6-.6,13.1.7,19.7s5,13.9,4,21.5c-1.8,2.1-2.7.5-3.7-.9-2.9-4.5-3-9.9-4.8-14.7A22.6,22.6,0,0,1,270.7,219.3Z"/><path class="cls-9" d="M424.6,138.5c6.5,7.2,6.8,7.4,12.9-.9,3.1-4.2,8.3-6.1,10.7-10.9l1.6-1.6a4.1,4.1,0,0,1,4.2-.4c1.3,1.4.5,2.7-.2,4a123.6,123.6,0,0,0-18.6,18.7c-7,2.2-8.8,1.1-11.5-6.9A3.1,3.1,0,0,1,424.6,138.5Z"/><path class="cls-9" d="M417.3,268.2c-7.1-8.5-13.7-6.4-20.8.3-2.9,2.7-7.1,4-10.8,5.9a1.8,1.8,0,0,1-.5-1.8,12.2,12.2,0,0,1,3.2-3.9c3.5-2.7,7.2-4.9,10.8-7.5l1.8-1.3c3-2,5.9-5.7,9.8-3.1S418.3,262.6,417.3,268.2Z"/><path class="cls-9" d="M320.3,278.6l-4.8.2c-12.7-2.9-22.9-9.5-31.2-19.5a1.1,1.1,0,0,1-.5-1.1c.1-.4.2-.6.3-.6a4,4,0,0,1,2-.6c2.6.4,4.1,2.4,5.6,4.3a27.3,27.3,0,0,0,10.1,7.4c5.6,3.6,12.5,4.4,18.2,7.9A2,2,0,0,1,320.3,278.6Z"/><path class="cls-9" d="M154.7,77.5v1.7c-6.3,2.7-13,.8-19.5,1.6-11.3,1.2-22.6,1.8-34,2.8a7.5,7.5,0,0,1-3.6-.6c-3-5.1,3-2.1,3.6-4h0c5.3-2,11.1.6,16.4-1.5h1.4c5.9-2,12.1.7,17.9-1.5h0a25.8,25.8,0,0,1,13.3.1C151.3,77.7,153.1,77.3,154.7,77.5Z"/><path class="cls-9" d="M402.1,116.3c-13.3-3.2-26.6-7.3-40.6-5.9l-16.1,1.5C364.9,106.4,383.8,107.3,402.1,116.3Z"/><path class="cls-9" d="M417.3,268.2c0-1.9-1.3-3.1-2.3-4.4-5.6-7.9-5.5-7.9-13.1-2.3a14.8,14.8,0,0,1-2.6,1.2l-.6-.9c0-1.9,1.1-3.4,2.1-4.9a8,8,0,0,1,4.4-3.2c4.6-1,7.8,1.3,10.7,4.4s3.6,4.4,4.1,7.3,4.7,2.9,1.7,5.9Z"/><path class="cls-17" d="M589.9,277.4l.2-2c9.5,2.8,18.5-1.2,27.7-2.4a5.5,5.5,0,0,1,3.4.9,1.5,1.5,0,0,1,.2,2.1c-6.7,1.7-13.4,3.6-20.1,5C596.9,281.9,592.8,281.3,589.9,277.4Z"/><path class="cls-18" d="M909.1,92.4l-3.2.2c-4.6,1.3-8.6-1.7-13-1.6l-2.3-.6c-6.9-.7-13.8-.1-20.7-.3-2.2-.1-4.4-.2-5.9-2.1C879.5,84.4,894.6,84.8,909.1,92.4Z"/><path class="cls-9" d="M5.3,274.2l2.1.2a4,4,0,0,1,1.1,4c-2,7.2.3,12.8,5.7,17.5a2.2,2.2,0,0,1,.4,2.1l-.3,2c-5.6-1.5-8.7-5.3-10.2-10.7a18.2,18.2,0,0,1,0-10.6C4.1,277.1,3.8,275.4,5.3,274.2Z"/><path class="cls-9" d="M30.8,214.4c2.4-7.9,4.8-15.8,10.4-22.1,2.3,2.6.5,5.1,0,7.7-1.5,4.4-3.3,8.7-5.2,12.9-1,2.2-1.6,5.4-5.3,4.9A3.5,3.5,0,0,1,30.8,214.4Z"/><path class="cls-9" d="M320,120.6l1.6,1.8c-3.9,5.7-5.5,5.7-12.6-.3-3.4-4.9-9.7-4-14.1-6.8a1.5,1.5,0,0,1,0-1.9c7-.5,13.2.9,18,6.7,1.5,1.9,3.5,4,6,.8Z"/><path class="cls-9" d="M203.7,129.7h-1.6c4.2-12.8,14.6-13.5,25.6-13.2q0,.7,0,1.5a3.1,3.1,0,0,1-1.7,1.3C217.5,120.4,209.8,123.3,203.7,129.7Z"/><path class="cls-9" d="M43.2,185.2c1.9-7.5,5.4-14.3,8.5-21.3a1.5,1.5,0,0,1,2,0c2.5,5.7-2.7,9.6-3.5,14.5a34.2,34.2,0,0,1-1.9,4C47.1,184.2,46.1,186.4,43.2,185.2Z"/><path class="cls-9" d="M47.3,181.8l1.2-3.1c2.6-1.2.9-6.1,5.1-5.9a4.6,4.6,0,0,1,1,2c-2.6,8-3.8,16.6-11.2,22.2-2.3-1.6-.4-4.2-1.6-6.1s.2-1.3.9-1.6A15,15,0,0,0,47.3,181.8Z"/><path class="cls-19" d="M864,87.9l6.3.3a1.7,1.7,0,0,1-.7,2.1c-7.5,2.3-15,4.9-23.1,4.2a1.5,1.5,0,0,1-.3-2.1A77.2,77.2,0,0,1,864,87.9Z"/><path class="cls-9" d="M385.7,272.9q0,.7,0,1.5c-6.2,2.9-12.3,5.8-19.3,6v-1.6a3.9,3.9,0,0,1,1.9-2.5c4.7-1.8,9.6-3.1,14.5-4.6A3.7,3.7,0,0,1,385.7,272.9Z"/><path class="cls-9" d="M99.5,258c10.4-1.2,20.6-5,31.2-1.4C120.3,255.8,110,259.1,99.5,258Z"/><path class="cls-9" d="M30.8,214.4l.3,3.6c2.5,3.5-.6,5.8-1.7,8.5a32.3,32.3,0,0,0-2.9,6.2,5.5,5.5,0,0,1-1.1,1.6,1.5,1.5,0,0,1-1.8-.2V231C25.6,225.3,27.2,219.4,30.8,214.4Z"/><path class="cls-9" d="M454.3,125.2h-4.5a23.1,23.1,0,0,1,16.3-7.4l-2.9,3A11.1,11.1,0,0,1,454.3,125.2Z"/><path class="cls-20" d="M846.2,92.4v1.5c-3.3,3.4-7.1,5.6-11.9,5.7l-5.9,1.8C833.3,96.3,839.4,93.8,846.2,92.4Z"/><path class="cls-9" d="M259.1,237.1l-.2-3c.3-6.6.3-13.2,3.1-19.3A78.1,78.1,0,0,1,259.1,237.1Z"/><path class="cls-9" d="M284.5,257.9v1.5c-5.3-3.6-7.3-9.1-8.9-15l2.8,1.6a6.2,6.2,0,0,1,2.7,2.9C282,252,285.2,254.2,284.5,257.9Z"/><path class="cls-9" d="M53.6,164.2l-1.9-.2,6.1-13.3v4.5C59.6,159.6,57.9,162.5,53.6,164.2Z"/><path class="cls-21" d="M722.4,90.7v1.6c-4.6,4-9.8,6.7-16.1,6.6a1.3,1.3,0,0,1-.3-1.9A40.1,40.1,0,0,1,722.4,90.7Z"/><path class="cls-22" d="M886.4,65.3c-4.6-.4-6.4,2-6,6.4-.5-3.4-4.2-4.6-5.4-7.6l5.6-.3C882.8,63.4,885.3,61.6,886.4,65.3Z"/><path class="cls-23" d="M706.2,97v1.6A14.2,14.2,0,0,1,694,106a1.6,1.6,0,0,1,.1-1.9A31.5,31.5,0,0,1,706.2,97Z"/><path class="cls-9" d="M136.8,76.1c-5.8,2.9-12,.9-17.9,1.5C124.6,74.7,130.8,76.6,136.8,76.1Z"/><path class="cls-9" d="M117.4,77.6c-5.2,3-10.9.8-16.4,1.5C106.3,76,112,78.2,117.4,77.6Z"/><path class="cls-9" d="M101,79.1l-4.5,3c-.5,1.3-1.3,2-2.8,1.6l-3.3-.2C93.1,79.7,96.8,78.8,101,79.1Z"/><path class="cls-9" d="M150.1,76.2H136.8C141.2,73.9,145.7,73.6,150.1,76.2Z"/><path class="cls-9" d="M47.3,181.8c-.1,3.4-.1,6.8-4.6,7.4l.5-4.1C45.6,185.3,45.7,182.7,47.3,181.8Z"/><path class="cls-24" d="M903.7,37.5c.2-1,.7-1.9,1.9-1.8l2,7.2-1.2,1.6C903.4,43,901.8,40.9,903.7,37.5Z"/><path class="cls-9" d="M263.5,202.8c0-4.2-.9-8.7,2.9-12C265.7,194.9,265.7,199.1,263.5,202.8Z"/><path class="cls-9" d="M39.9,299.7c4.2-2.9,9-1.1,13.5-1.5C49.2,300.9,44.4,299.3,39.9,299.7Z"/><path class="cls-9" d="M26.5,301.2c4.2-2.9,9-1,13.4-1.5C35.7,302.4,31,300.8,26.5,301.2Z"/><path class="cls-9" d="M257.6,249c.5-4-1.4-8.3,1.5-11.9C258.6,241.1,260.3,245.3,257.6,249Z"/><path class="cls-25" d="M694.1,104.1v1.7c-.8,3-2.4,5.1-5.9,4.8l-1.7-.4C688.3,107.2,691,105.4,694.1,104.1Z"/><path class="cls-9" d="M262,214.7c.5-4-1.3-8.2,1.5-11.9C263.1,206.8,264.8,211.1,262,214.7Z"/><path class="cls-9" d="M199.3,147.6c-.4,3.5,1.3,7.3-1.5,10.5C198.3,154.6,196.8,150.8,199.3,147.6Z"/><path class="cls-9" d="M196.4,169.9c-.4,3.5,1.3,7.3-1.4,10.5C195.3,176.9,193.8,173.2,196.4,169.9Z"/><path class="cls-9" d="M197.9,158.1c-.4,3.5,1.3,7.3-1.4,10.5C196.8,165,195.2,161.2,197.9,158.1Z"/><path class="cls-9" d="M41.7,190.8c2.2,1.6.8,4,1.2,6v.9c-.6,1.3-1.1,2.9-3.1,2l1.5-7.5Z"/><path class="cls-9" d="M270.7,219.3q0,5.2,0,10.5c-2.2-3.3-1.1-7-1.4-10.5Z"/><path class="cls-26" d="M913.6,243.1l-2-.3c-.3-3.3.7-5.7,4.5-6l.4,2.1A5.3,5.3,0,0,1,913.6,243.1Z"/><path class="cls-9" d="M4.1,278.7v10.6A9.3,9.3,0,0,1,4.1,278.7Z"/><path class="cls-27" d="M956.6,110.2c-.7,1.5-2,1.9-3.5,1.7a8,8,0,0,1-3.7-4.6C952.5,106.5,953.1,111.9,956.6,110.2Z"/><path class="cls-9" d="M200.9,135.8c-.6,3.4,1.2,7.2-1.6,10.3C199.9,142.7,198.1,138.9,200.9,135.8Z"/><path class="cls-28" d="M1013.3,75.9l-2.8,1.5-.2-6.4C1011.9,72.3,1013.3,73.6,1013.3,75.9Z"/><path class="cls-9" d="M54.8,298.2c2.8-2.6,6.1-1.2,9.2-1.3C61.2,299,57.9,298.1,54.8,298.2Z"/><path class="cls-9" d="M85.9,89.3c0,2.5-.7,4.7-3.1,5.9C83.1,92.9,83.6,90.7,85.9,89.3Z"/><path class="cls-9" d="M133.6,267c2.8,1.9,1.4,4.8,1.7,7.3C132.9,272.3,134.1,269.5,133.6,267Z"/><path class="cls-9" d="M408.1,119.3a7.8,7.8,0,0,1-5.9-3C404.7,116.2,406.9,116.7,408.1,119.3Z"/><path class="cls-9" d="M19,301.2h7.6C24,303.3,21.5,303.2,19,301.2Z"/><path class="cls-29" d="M903.7,37.5c.7,2.4.7,5.1,2.7,7-4-1.9-9.4-11.3-8.5-15.1.1-.4,1.7-.5,2.6-.7C900.5,32,902.6,34.5,903.7,37.5Z"/><path class="cls-30" d="M886.4,65.3c-1.5-1.8-3.9-.7-5.7-1.5,4-2.4,13.9-.8,16.4,2.7l-1.8.8Z"/><path class="cls-31" d="M971.1,96.9l-5.3,4.6c-1.2-3.9,2.4-4.4,4.3-6.2Z"/><path class="cls-32" d="M937.4,56.5l4.1-2.9q.7.3.6.8t-.3.5c-1,1.6-1.5,3.7-3.9,3.5C937.7,58.4,937.5,57.2,937.4,56.5Z"/><path class="cls-33" d="M941.8,54.9a3.3,3.3,0,0,0-.3-1.4l1.3-4.4c1.5.5,1.8,1.8,1.9,3.2a8.8,8.8,0,0,1-.2,1.3Z"/><path class="cls-34" d="M916.1,236.8l-4.5,6c-13.9,17-31.7,27.9-52.4,34.7-4.7,1.5-9.4,3-14.5,2.8-2.8,1.8-6.2-.4-9,1.4-3.9-.1-7.9,2.8-11.8,0s-7.2.5-10.5-1.4a46.2,46.2,0,0,1-23.7-9.1c-4.7-3.7-9.3-7.3-12.4-12.5s-6.9-5.6-11.9-1.4c-15,12.7-32.2,20.8-51.9,23.1-3.3,1.9-7.2-.5-10.5,1.4h-8.8c-2.8-1.8-6.2.4-9-1.4-11.5-1.4-21.3-6.7-30.5-13.4-3-2.2-6.4-5.7-9.7-.1l-1.7,1.5c-3.7,1.8-7.9,1.7-11.8,3.1a10.1,10.1,0,0,1-5.8,1.6c-2.4,1.5-5.3-.3-7.6,1.3-9.3,1.4-18.4,8.4-28.1,1.2-4.2-8,.2-15.9.4-23.9.1-3.3,1.6-6.6,2.4-10s-.3-5.2,1.5-7.5c-.4-7.6,3.8-14.7,2.9-22.4h0c1.7-1.8.1-4.3,1.3-6.3s.3-5.1,1.5-7.5a1.1,1.1,0,0,1,.2-1.1c1.8-2.2-.2-5.2,1.5-7.5h0c1.2-1.1.8-2.8,1.4-4.1.9-3.6,1.5-7.3,2.2-10.9,1.3-6.6,0-7.9-6.9-7.1-3.4.4-6.8,1.3-10.3,1.3s-5.5-.1-7-3.1c-3.3-4.8-3.3-9.9-2.2-15.6,2.2-10.6,3.3-21.4,5.2-32,.9-5,2.7-9.6,8.8-10.4s5-.8,3,5.4a36.1,36.1,0,0,1,.1,4,16.3,16.3,0,0,1-.5,3.2c-.9,3.6-1,7.4-2,11-.6,5.4-1.8,10.8-2.1,16.2s1.5,4.5,4.5,4.1l16.9-2.3c4.7-.6,8.6.4,8.6,6.3-2.1,11.2-4.4,22.3-6.1,33.6-5,22.4-8.4,45-13,67.5-.3,1.7-1.7,3.9.9,5.2,11.5-1.5,22.5-5.4,33.9-7.5a7.2,7.2,0,0,0,2.2-1.9c1.4-2.1.8-4.4,1-6.7a9.4,9.4,0,0,1,1.2-5.1c3.1-1.9,7-.5,10-2.4a2.9,2.9,0,0,1,2,.9c10.1,22,29.3,27.7,51.1,27.2,13.7-.3,26.9-4.3,39.2-10.5,4.6-1.8,8.6-4.7,12.6-7.6s7-8.9,13.1-9.6c4.2,1.8,8.8.5,13,1.9a7.9,7.9,0,0,1,3.7,3.5c10.6,18.1,28,22.7,47,22.3,12.8-.3,25.5-2.9,37.1-9,5.4-2.4,10.9-4.8,15.5-8.8s10.1-6.9,14.2-11.6c.8-1,1.5-2.1,2.3-3.2,2.5-3,5.4-5.6,6.5-9.5s4.2-7,5-11.1,1.8-7,2.8-10.4a28.5,28.5,0,0,0-1.1-17.7c-.8-2-1.8-4-1.3-6.3l.7-.9c5.6,4,6.8,10.5,8.9,16.4a65.5,65.5,0,0,1-.1,22.2A100,100,0,0,1,916.1,236.8Z"/><path class="cls-35" d="M916.4,99.9c8.3,6.6,14.9,14.4,16.4,25.4a12.4,12.4,0,0,1,0,9c-1.7,14.2-8.3,25.6-19.1,34.8-4,3.4,1.9,5.5,1.2,8.4h0c-3.7,1-5.2-2.1-7.2-4a17.7,17.7,0,0,0-9.3-5.3c-3.3-2.3-.7-3.7.8-5.1,3.2-3,7.2-5.3,10.1-8.7s5-6.3,7.5-9.5c4.1-4,4.9-9.5,6.4-14.6a47.7,47.7,0,0,1,.8-6.3c2.4-7.1-1.1-12.3-5.6-17.2S915,103,916.4,99.9Z"/><path class="cls-36" d="M916.4,99.9c-.9,3.8,2.8,4.5,4.4,6.6,3.9,5.2,8.1,10.2,4.8,17.3-2.2-1.2-2.1-3.7-3-5.5a35,35,0,0,0-3.5-6.7c-7.2-9.9-17.5-14.3-29.1-15.5-14.7-1.5-29,.5-42.5,7-3.4,1.5-6.7,3.2-10,4.9s-4.2,3.2-6.5.3c.5-4.1,3.9-5.4,6.9-7.1,17-9.6,35.6-12.3,54.8-11.8,4.7-.2,9,1.2,13.2,3.1S913.9,96,916.4,99.9Z"/><path class="cls-37" d="M923.7,216.1V193.9A33.4,33.4,0,0,1,923.7,216.1Z"/><path class="cls-36" d="M932.8,134.2v-9A7.1,7.1,0,0,1,932.8,134.2Z"/><path class="cls-38" d="M703.1,281.7c3.2-2.7,7-.9,10.5-1.4C710.4,283.1,706.6,281.3,703.1,281.7Z"/><path class="cls-38" d="M685.3,280.3c3,.4,6.3-1.1,9,1.4C691.3,281.4,688,282.9,685.3,280.3Z"/><path class="cls-39" d="M682.4,116.4l6-4.5c4.5-3.4,8.8-7.3,14-9.6,1.6-.7,3.7-3,5.1-.5s-1.2,3.5-2.8,4.7c-6.3,4.4-12.4,9.1-17,15.3-2,2.6-3.9,5.2-4.1,8.6a4.2,4.2,0,0,1-1.3,2.9,4.6,4.6,0,0,1-2.1.3c-4.3-2.4-9.4-1.1-13.8-3a2.7,2.7,0,0,1-1.1-1.9c0-3.4,1.3-6.5,1.9-9.8l4.3-14.6a10.7,10.7,0,0,1,2.2-3.7c1.3-1,2.2-3,4.4-2.1,2.3,3.1,5.4,5.9,3,10.4-1.3,1.3-.4,3-.9,4.5s-.9,2.9,1,3.7A2.5,2.5,0,0,0,682.4,116.4Z"/><path class="cls-40" d="M677.8,98.5l-3.3,2.8c-24.2,4.1-48.6,7.2-72.8,11-2.4.4-4.9.7-7.3-.4s5.8-5.4-1.6-4.5c10.8-3.5,22.1-4.1,33.2-5.9s23.8-3.7,35.7-5.3C667.3,95.4,673.1,93.7,677.8,98.5Z"/><path class="cls-41" d="M682.4,129.8c-.2-7.8,6-11.7,10.5-16.3s9.1-7.3,14.7-11.6c-8.6.9-12.4,8.4-19.3,10a9.6,9.6,0,0,1-.1-1.4l5.9-4.8,12-7.2,16.3-6.3,14.9-2.8a85.5,85.5,0,0,1,23.9,0l1.4,1.5-.8.8c-7.8,2.4-16.1.5-24,2.5s-15.2,3.8-22.1,7.8a51.2,51.2,0,0,1-7,5c-4,1.8-7.1,4.8-10.7,7.2a70.7,70.7,0,0,0-7.6,7.5C687.5,124.2,687.2,129.2,682.4,129.8Z"/><path class="cls-42" d="M581.1,165.4c5.7,2.7,11.4,1.8,17.3.6,7.4-1.6,9.3.3,8.1,7.9-.7,4.3-1.1,8.7-3,12.7-1.3-1.6-1-3.3-.2-5,.9-13.1.9-13.1-12.7-11.9-3.5.3-6.9.3-9.5-2.7Z"/><path class="cls-40" d="M682.4,116.4q0,.7-.1,1.4c-5.1,1.2-3.7-1.8-3-4.5s-.2-3.4,1.5-4.5C681.2,111.4,679.8,114.3,682.4,116.4Z"/><path class="cls-9" d="M564.6,186.4c1.7,1.2,1.3,3,1.5,4.7l-3.2,18.9c-1.7,10.3-4.2,20.4-6.6,30.6-.3,1.5-.3,3-2.5,2.6s-1.7-3.9-1.8-6c1.8-15.9,6.7-31.1,9.6-46.8A5.6,5.6,0,0,1,564.6,186.4Z"/><path class="cls-43" d="M600.1,198c.3,2.7,1,5.5-.9,8q-1.5-.7-.5-1.9C598.9,202,598.8,199.8,600.1,198Z"/><path class="cls-43" d="M603.2,181.6l.2,5c-.1,1.2-.4,2.3-1.7,2.8C601.6,186.7,601.7,184,603.2,181.6Z"/><path class="cls-16" d="M598.7,204.1l.5,1.9c-.6,1.9.4,4.4-1.8,5.7l.4-7.1Z"/><path class="cls-43" d="M601.8,189.3c-.1,2.6,1.1,5.4-1.5,7.5C600.2,194.2,600.1,191.6,601.8,189.3Z"/><path class="cls-9" d="M14.6,298c-9.7-5.6-9.9-14.2-7.3-23.6L16.1,255c1.8-1.8.6-6.1,4.8-6a4.8,4.8,0,0,1,.9,2c-1.6,9.4-6.6,17.6-9.5,26.5-2.2,6.7-1.5,12.2,4.7,16.3,5.2,1.8,10.5,1.2,15.7.5l2.1-.5c4.3-.8,8.7.2,13-1l2.1-.5c3.5-.6,7.2,0,10.7-1.2a33,33,0,0,1,6.4-1.5,3.7,3.7,0,0,1,3,1.3c-4.8,5-11.2,4.3-17.2,4.9C40.1,297,27.5,300,14.6,298Z"/><path class="cls-9" d="M136.4,264.2c-3.6-11.4-3.6-11.4-15.8-10.8-7.6.4-15.2,1.4-22.9,1.7s-11.4,3.2-13.9,10c-1.7,4.8-3.1,9.9-6.5,14-1.5-1.2-1.7-2.9-1.6-4.7.9-5.7,3.7-10.7,6.2-15.8s5.4-6.2,9.8-7.2c6.1-1.4,12.3-1.4,18.4-1.4s10.6.6,15.9-.6c9.4.4,12.5,3.7,12.2,13.1A3.3,3.3,0,0,1,136.4,264.2Z"/><path class="cls-9" d="M142.8,283.2l-2.9-3c-1.3-5.3-3.5-10.4-3.5-16l.8-.7c3.1.4,3.7,2.9,4.4,5.3,3.6,11.1,5.5,12.4,16.9,12.5h6.7c6.7,0,13.5.3,20.2-.2a10.5,10.5,0,0,1,2.4-.5c1.7,0,3.4.1,4.4,1.8a2.6,2.6,0,0,1-1,2.2c-13.5,1.4-27,2.8-40.6,2.4C147.7,286.8,145.3,284.9,142.8,283.2Z"/><path class="cls-9" d="M77.2,274.3V279c-1.3,4.7-3,9.1-7.4,11.8l-3.3-.2C69.2,284.6,71.7,278.5,77.2,274.3Z"/><path class="cls-44" d="M813.5,280.3c3.5.5,7.3-1.2,10.5,1.4C820.5,281.3,816.7,283,813.5,280.3Z"/><path class="cls-44" d="M835.8,281.7c2.7-2.5,6-1,9-1.4C842.1,282.9,838.8,281.4,835.8,281.7Z"/><path class="cls-9" d="M554.3,243.3a130.9,130.9,0,0,1-5.9,26.6l-2.1,5.5a2.1,2.1,0,0,0-1.1.4c-3.1,1.7-6,4-9.9,3.7s-9-.4-13.5,0a31,31,0,0,1-5-.2c-3.8-1.6-8.4,1.1-12-2.1q0-.7,0-1.4c4.9-3.7,10.5-2,15.8-2,22.5-.2,22.3-.1,27.3-21.9,1.2-5.1,0-11.6,6-14.9Z"/><path class="cls-9" d="M517,278.7h4.4q.7.4.5.9t-.4.5c-6.5-.3-13.2,1.5-19.6-1.3C506.9,277.4,511.9,277.9,517,278.7Z"/><path class="cls-9" d="M517,278.7l-15.1.2-3-1.5,6-.2C508.9,278.1,513.2,276.3,517,278.7Z"/><path class="cls-9" d="M521.5,280.2a10.2,10.2,0,0,1-.1-1.4h14.9q.8.5.5,1c-.2.3-.4.4-.6.4C531.3,282.3,526.4,279.5,521.5,280.2Z"/><path class="cls-9" d="M536.2,280.2a9.1,9.1,0,0,0,.1-1.4l9-2.9C543.2,279.5,539.9,280.3,536.2,280.2Z"/><path class="cls-9" d="M487,277.3c3-2,6.1-2.2,9.1-.1Z"/><path class="cls-9" d="M187.7,193.9l1.4,2.9a8.5,8.5,0,0,1,1.6,3.9c.5,2.2-.2,5.7,2.9,5.6s2.2-3.3,2.4-5.4.4-3.8.7-5.7a20.5,20.5,0,0,0,1.2-7.3,17.7,17.7,0,0,1,.9-4.3c.9-2.6.4-5.4.6-8.1,1.4-4.2-.5-9.1,2.7-13a2,2,0,0,1,2.3.4c1.8,2.7,1.6,5.7,1.3,8.6-1.5,11.5-2.9,23.1-4.4,34.7-.5,4.3-2.3,7.8-7,8.3s-7-3-8.4-6.9a62.4,62.4,0,0,1-1.8-6.4q-12.9-52-26.6-103.7c-.8-2.8-1.8-5.7-.6-8.7a2.1,2.1,0,0,1,2-1.1c3,1.3,3,4.2,3.8,6.8,5.4,18.1,9,36.7,14.2,54.9Z"/><path class="cls-9" d="M176.9,149.3c-2.3-1.1-2.4-3.3-2.9-5.5-4.3-18.8-8.8-37.5-14.7-55.8-2.1-1.6-4-3.6-6.6-4.5l-2.1-.7c-6.1-2.1-12.2-.4-18.2.1-10.9.9-22,.4-32.7,3.5a18,18,0,0,1-4.4,1.4,3.8,3.8,0,0,1-3.2-1.1l1.7-2.8L96.6,82c15-1.4,29.9-2.6,44.9-4.1,4.6-.5,8.8,1.3,13.2,1.3,5.2,3.2,7.8,7.9,9.2,13.7,2.2,8.9,4.8,17.6,7.2,26.4.4,7.4,3.1,14.2,4.9,21.3C176.6,143.5,177.6,146.3,176.9,149.3Z"/><path class="cls-9" d="M95.2,86.7,98,85c18.3-2.3,36.6-5.4,55.1-2.9h0c1.8,1.7,5.1,2.3,4.5,5.9q9.3,36.5,18.6,73c3.8,15,7.5,30.1,11.3,45.1.8,3.4,1.6,7.3,6.2,6.9s5.5-3.9,5.7-8c.8-14.2,4.6-28.2,4.4-42.5-2-2.1-1.3-4.8-1.4-7.3a10.4,10.4,0,0,1,.3-2.1c1.4-3.3,1.3-6.6.6-10a4.7,4.7,0,0,1,1-3c1.7-2.7.4-6,1.6-8.8,2.7-8.8,10.4-10.4,17.7-10.7,11.8-.5,23.7-1.5,35.5.8,3,.6,5.8-.2,8.7-1.2,10.4-3.6,21-5.4,32-3.7,3.8.6,7.2,1.6,9.5,4.8,3.8,4.8,7.5,4.9,13.4,2.4,28.4-12.2,57.1-15.3,85.4.6a37.3,37.3,0,0,1,14.6,14.4c1.3,2.6,2.1,5.5,4.3,7.7s5.4,3.3,7.8-.4a54.6,54.6,0,0,1,17.9-17.9c9.3-7.6,20.8-8.7,31.9-10.9a104.4,104.4,0,0,1,27.4-1.5c7.9,2.2,16.5,1.5,24.1,5.4,18.5,4.8,27.4,18,31.3,35.6,1.6,5.9,1.3,11.8.2,17.7h0c-1.7,2.3.3,5.2-1.4,7.5l-1.5,4.4c-2.9,17-8.5,33.4-10.6,50.6-2.4,9.5-5,18.9-7.1,28.5-1.6,7.3-6.2,10.3-13.1,10.4-9.6.1-19.3,0-28.9,0-8.1-3.6-15.9-2.1-24.4-.4-20.4,4.1-40.7,4.5-58.4-9.5-.5-.4-1.4-.4-2.1-.5-2.6-1.1-2.9-4-4.6-5.9-2.5-3.9-5.1-7.3-10.5-4.6l-3.1,2.8a44.2,44.2,0,0,0-5.5,5.8l-9.6,6.4c-4.6,1.8-8.9,4.3-14,4.7-11.6,3.1-23.4,5.1-35.4,4.4-1.6,0-3.2,0-4.8-.2a63.5,63.5,0,0,0-7.9-1.3c-9.2-1-17.2-5.3-25.3-9.2a38.5,38.5,0,0,1-7.2-5.4c-13.7-12.8-16.4-30-18.8-47.3-.1-3.5-.1-7.1,0-10.6s.5-7.6.7-11.4a17,17,0,0,1,.2-2.1c1.2-3.1,2.6-6.3-.3-9.3-5.6-1.9-7.9,2.3-10.4,5.8s-2.8,7.7-3.7,11.8a13.7,13.7,0,0,1-.5,2.1c-.7,3,0,6.1-.7,9.1-1.7,7.4-2.3,15-3.1,22.6-1,2.7-1,5.5-1.3,8.3a130.9,130.9,0,0,0-2.9,21.2,45.6,45.6,0,0,0-1.7,8,18.4,18.4,0,0,1-7.1,7.6,21,21,0,0,1-7.1,2c-11.6.1-23.2,1-34.8,1.8h-2.5c-3.6.7-7-2.8-10.8-.6h0c-7.3,2.1-15-.6-22.4,1.5H157c-11.2,0-15-3-17.1-14-.4-2.2-.8-4.3-2.6-5.9-.3-7.2-1.8-13.2-10.9-13.1-5.4,2.1-11.2-.5-16.5,1.5-23.9.1-23.9.1-32.7,22.4-3.1,5.7-5.5,11.8-10.6,16.3a9.4,9.4,0,0,1-5.8,1.7c-3.8,1.8-8.1-.5-12,1.4h0c-4.8,2.1-10.1-.6-14.9,1.5h0a44.5,44.5,0,0,1-17.9,0c-6.1-3.7-9-8.7-6.3-15.8,3.6-9.6,7.2-19.2,10.9-28.8C23,237.8,30,226.9,34.7,215a143.3,143.3,0,0,1,8.2-18.1h0c5-6.7,7.3-14.7,10.5-22.3,3.2-14.2,11.2-26.4,16.4-39.9.9-2.3,2.2-4.4,2.9-6.7,5.2-11.6,10.1-23.3,16-34.6C90.2,90.4,92,87.9,95.2,86.7Z"/><path class="cls-9" d="M536.1,121.1l-23.9-4.6c1.6-1.3,3.3-1,5-.2,6.6-.2,12.8,1.6,19.1,3.3Z"/><path class="cls-9" d="M567.5,174.5q-.1-8.9-.2-17.7C570.1,162.6,569.8,168.5,567.5,174.5Z"/><path class="cls-9" d="M566.1,181.9c.2-2.5-.9-5.3,1.4-7.5C567.3,177,568.4,179.8,566.1,181.9Z"/><path class="cls-9" d="M203.7,129.7c4.6-10.8,14.5-11,24-11.9,17.4-1.2,35.1,3.1,52.2-2.8a1.6,1.6,0,0,1-.5,2.2c-8.6,2.7-16.6,5.8-26.4,4.1s-21.6-.6-32.4.6c-6.3.7-12.2,2.6-14.1,9.8a11,11,0,0,0-.7,2.3,1.3,1.3,0,0,1-2,.3Z"/><path class="cls-9" d="M294.8,113.4v1.4c-1.7,1.9-4,1.4-6.1,1.5s-4.5.4-6-1.7C286.5,112.4,290.7,113.4,294.8,113.4Z"/><path class="cls-9" d="M282.6,114.6l6.4.3c-2.5,4-5.9,1.7-9.1,1.4q0-.7,0-1.4Z"/><path class="cls-9" d="M95.2,86.7c-9.8,12.4-15.1,27.2-21,41.6a1.4,1.4,0,0,1-1.9,0,3,3,0,0,1,.3-3c4.9-10.8,9.8-21.5,14.7-32.3,1.1-2.4,2.2-5,4.8-6.4Z"/><path class="cls-9" d="M53.6,164.2a25.6,25.6,0,0,0,4.2-9.1l2.6-3.3a2.1,2.1,0,0,1,1.2,1.6c-1.5,7-5.5,13-8.5,19.4-2.1,1.5-1.7,5.1-4.7,5.9Z"/><path class="cls-9" d="M72.6,125.2v3.1c-.1,4.2-2.7,7.3-4.6,10.7a1.4,1.4,0,0,1-1.7-.5A33.7,33.7,0,0,1,72.6,125.2Z"/><path class="cls-9" d="M60.4,151.8a46,46,0,0,1,6-13.4l.8.6c.3,5.5-2.1,9.8-6,13.4Z"/><path class="cls-9" d="M422.7,140.4c-19.9-25.4-46.7-28.4-75.9-23.1a91.3,91.3,0,0,0-26,8.4c-4.7,2.4-8.6,1.6-11.1-3.4q-.7-.6-.4-1.2t.5-.5c3.5,3.2,6.9,7.4,11.8,1.9,29.3-12.4,58.6-14.3,87.9,0,5.8,4.6,11.8,9.1,15.1,16.1l-.4,1.8Q423.5,141.3,422.7,140.4Z"/><path class="cls-45" d="M892.7,89.4c-7.8,3.5-16.3,1.1-24.5,2.9a120.4,120.4,0,0,0-33.6,13,5.7,5.7,0,0,0-3,4,2.4,2.4,0,0,1,0,2c-1.6,2.6-4.6,3.9-6.7,6s-4.9,6-7.3,8.9-2.1,4.2-4.1,5.6a3.1,3.1,0,0,1-2-.3c-2.4-2-1.9-4.2-.6-6.5-1.7,2.7-3.2,6.1-7.2,5.7s-3.8-3.2-3.9-5.9-1.6,0-.6-.3.4.1.3.7c-.6,2.5-.5,5.7-4.7,3.9-1.3-2.4-1-5.1-1.1-7.7.7-8.3-3.6-14-9.8-18.6A60.2,60.2,0,0,0,768,94.9c-2-.7-5.3-.2-5.2-3.9h0c6.6-.9,11.9,3,17.9,4.6,9.9,6.8,18.9,14.2,21.3,27,.4,2.4,3.2,4,5,1.5,7.4-10,18.1-16.4,27.2-24.4a37.1,37.1,0,0,1,11.9-5.7L870,89.5a80.3,80.3,0,0,1,22.5,0Z"/><path class="cls-9" d="M142.8,283.2c8.1,3.9,16.6,3.7,25.1,2.3s16.2.5,24-2.1,15.3-1.5,23-1a1.6,1.6,0,0,1,.7,2.3c-20.3-.6-40.3,3.6-60.6,3.2C150.5,287.8,145.6,288.2,142.8,283.2Z"/><path class="cls-9" d="M236.7,281.8a11.4,11.4,0,0,1-.1,1.4l-5.8.2c-4.6.8-9.2,1.2-13.8-.2C223.2,277.8,230,280.2,236.7,281.8Z"/><path class="cls-9" d="M217.1,283.2l13.6.2c-4.9,2.5-10,.9-15.1,1.2a10,10,0,0,0,.1-1.4A1,1,0,0,1,217.1,283.2Z"/><path class="cls-9" d="M274,204.4v11.7c.9,3.1,1.2,6.2-.2,9.3-3.2-10.4-.8-21-1.4-31.5.1-.7.3-1.5.3-2.2.2-2.9,3.2-7-.7-8.5s-6,2.7-7.4,5.7a113.1,113.1,0,0,0-3.8,11q-1,1.1-1.8-.1c1-13.1,6.5-19.6,16.5-19.4a17.2,17.2,0,0,1,.1,10.5,6.1,6.1,0,0,1-.1,1.4C273.4,196.2,275.8,200.5,274,204.4Z"/><path class="cls-9" d="M258.9,199.8h1.8L257.3,234l-1,.2q-1,1.1-1.8-.1c-.1-8.1,1.4-16,3-23.8,2-2.8-.2-6.3,1.4-9.2A3.3,3.3,0,0,1,258.9,199.8Z"/><path class="cls-9" d="M203.9,134.2l1.4-.2a8.4,8.4,0,0,1,.1,7.7l-1.2,1.2c.5,3.6,1,7.3-.3,10.8h0c-2,2.8.3,6.2-1.4,9.1s-1.3,8.8-1.6,13.3c-1.8,2.3.1,5.3-1.4,7.7v4.2c-1.8,2.3.1,5.3-1.4,7.7s0,3.4-.1,5.1c-.2,3.6-.3,8.6-4.6,8.6s-4.3-4.5-4.3-8.1c9,1.2,5.5-6.5,7.4-10.4Z"/><path class="cls-9" d="M196.4,190.9c0,2.5.1,5-.1,7.4-.5,5.5-2.8,7.1-7.3,3v-4.5C197.4,202,193.4,192.1,196.4,190.9Z"/><path class="cls-9" d="M254.4,234.1h1.8c-.2,11.1-2.4,21.9-4,32.8-.4,2.8-.6,6-3.5,7.8a2.4,2.4,0,0,1-.2-3.5c.2-2.5-.8-5.3,1.4-7.4,1.6-7.3,1.9-14.9,3.1-22.3A15,15,0,0,1,254.4,234.1Z"/><path class="cls-9" d="M217.1,283.2H192q0-.7,0-1.4c1.6-1.8,4.3.1,5.9-1.6h1.5c12.5,1.2,24.8-1.2,37.2-1.6a9.9,9.9,0,0,0,5.9-1.5,2.3,2.3,0,0,1,3.4.2c-2.3,3.2-6.1,3.1-9.3,4.3C230.2,282.2,223.5,280.9,217.1,283.2Z"/><path class="cls-9" d="M246,277.5l-3.4-.2,6-6,.2,3.5A3.4,3.4,0,0,1,246,277.5Z"/><path class="cls-9" d="M517.1,116.2l-5,.2c-20.7-.5-40.6,2.8-59.4,11.7l1.5-3a22.9,22.9,0,0,1,8.9-4.5c15.2-3.1,30.3-7.3,46.1-5.8C511.9,115.2,514.7,114.4,517.1,116.2Z"/><path class="cls-14" d="M761.4,89.5H737.4A43.4,43.4,0,0,1,761.4,89.5Z"/><path class="cls-43" d="M594.4,234.1c-.3,2.5.8,5.3-1.5,7.5C593.2,239,592.1,236.2,594.4,234.1Z"/><path class="cls-9" d="M368,277.4l-1.7,1.3c-15.3,2.1-30.6,3-46-.1a4.7,4.7,0,0,1-.2-1.3c1.3-1.2,2.9-.6,4.4-.7a11.2,11.2,0,0,1,3.5.3,27.4,27.4,0,0,0,9.5,1.2,100.5,100.5,0,0,0,25.6-2C364.9,275.9,366.7,275.8,368,277.4Z"/><path class="cls-9" d="M23.6,234.2H25c2.2,4.4-1.5,7.1-3,10.5a1.6,1.6,0,0,1-1.9-.3Z"/><path class="cls-9" d="M20.3,248.7,16.1,255c0-4.1,2.1-7.4,4.1-10.7l.8.6C21.8,246.3,21.7,247.6,20.3,248.7Z"/><path class="cls-9" d="M273.8,225.4l.2-9.3c1.2,5.9,2.2,11.9,3.6,17.7,2.5,11,8.6,20.1,15.4,28.8a1.6,1.6,0,0,1-2.6-.3l-4.4-4.5c-2.9-2.3-3.9-6-6.4-8.6l-1.4-3.1C277.8,239,273.8,232.6,273.8,225.4Z"/><path class="cls-9" d="M422.7,140.4h1.5c2.6,3.7,3.9,9.8,10.6,5.8-1.7,4.7-4.3,5.4-7.9,1.8A16.6,16.6,0,0,1,422.7,140.4Z"/><path class="cls-9" d="M387.1,268.2l9-5.8a2.2,2.2,0,0,1,2.8-.3l.5.6-10.5,7.5a1.6,1.6,0,0,1-1.9-.1A1.5,1.5,0,0,1,387.1,268.2Z"/><path class="cls-9" d="M387.2,269.7l1.7.4-3.1,2.8h-3C382.6,269.5,385.2,270,387.2,269.7Z"/><path class="cls-9" d="M324.6,277.2h-4.5c-6.8-1.5-13.5-3.5-19.3-7.5-.8-.8-2.4-1.2-1.5-2.9,8.4,3.1,15.8,9,25.4,8.9q.7.5.5.9T324.6,277.2Z"/><path class="cls-9" d="M299.2,267l1.5,2.9a20.6,20.6,0,0,1-10.3-7.6l2.6.3Z"/><path class="cls-9" d="M279.8,249.2c3.4,1.9,4.7,5.4,6.4,8.6h-1.6C282.6,255.2,280.2,252.7,279.8,249.2Z"/><path class="cls-9" d="M405,254.9c6.2-4.6,8.7-.8,10.5,4.6C412.4,257,409.6,253.9,405,254.9Z"/><path class="cls-9" d="M398.9,262.1l-2.8.3a9.3,9.3,0,0,1,5.8-4.7Z"/><path class="cls-42" d="M618.2,274.3c2.2-2.3,5-1.3,7.6-1.3-1.2,1.4-2.9,1.3-4.5,1.5Z"/><path class="cls-36" d="M892.6,89.4H870a9,9,0,0,1,.2-1.2C877.7,88.3,885.3,86.6,892.6,89.4Z"/><path class="cls-9" d="M20.3,248.7l.7-3.9c1.9-3.4,4.2-6.6,4.1-10.7h0c1.3-2.3,1.7-5.1,3-7.5s3.7-5.2,3.1-8.6c4.1-5.5,5.1-12.5,8.7-18.2l3.2-2.9c-3.1,12.2-9.1,23.4-13.9,34.9-2.7,6.3-4.2,13.2-8.4,18.8Z"/><path class="cls-9" d="M309.8,120.5v1.7c-8.3-7.6-18.2-4.4-27.5-3.7-5.3.4-10.4,2.7-15.6,4.4a17.5,17.5,0,0,1-8.7.3c-12.3-2-24.6-1.1-36.9-.3-6.5.4-11.7,3.4-14.3,9.8q-.8,1.1-1.5,0c1.4-7.4,6.5-11.2,13.3-11.7,13.5-1,26.9-3.3,40.5-.4,7.3,1.6,13.7-3.4,20.8-4.3,3-.3,6.3.6,9-1.4l5.8-.2C300.2,115.7,306.2,115.1,309.8,120.5Z"/><path class="cls-9" d="M61.2,152.4c2.5-4.2,4.9-8.5,6-13.4l5.6-10.7h1.4c-6.4,15.7-13,31.2-20.8,46.3l-.3-1.8Z"/><path class="cls-42" d="M631.7,271.4c3.6-2.3,7.6-3,11.8-3.1C640,271.2,635.8,271.4,631.7,271.4Z"/><path class="cls-9" d="M387.2,269.7l-4.5,3.1a35.2,35.2,0,0,1-14.7,4.6l-4.8-.3c2.6-3.9,7.3-2.3,10.7-4.3l13.3-4.7Z"/><path class="cls-9" d="M28,226.6a8.3,8.3,0,0,1-3,7.5A9,9,0,0,1,28,226.6Z"/><path class="cls-46" d="M756.9,249.2a30.3,30.3,0,0,1-12,7.3,90.8,90.8,0,0,0-8.8,3.7c-12.7,5.4-24,4.9-35.6-4s-22.3-13.7-33.5-20.5c-4.9-2.9-9.7-5.9-15.1-7.6-1.9-3.1-.6-6,.6-8.9,3.3-5.7,5.5-12.1,10.4-16.9s7-4.2,11.3-1.8,7.1,4.4,10.8,6.4,7.8,5.6,7.1,12.2,3,11.3,9.4,13.6a29.4,29.4,0,0,0,5,1.8c4.6,1.2,9.2.8,13.8.3a6.6,6.6,0,0,1,2.1.2c4.4,3,8.8,6.2,13.4,9s11.6,7.6,19,3.5C756.1,246.8,757.5,247.3,756.9,249.2Z"/><path class="cls-47" d="M666.3,129.8c5.1.5,10.8-1.9,14.9,3.1,2,2.8.1,5.7.1,8.5a22.3,22.3,0,0,1-.6,3.1c-1.5,3.4.1,6.6.8,9.9s3.4,7.4,6.4,10.4,5,4.1,4.2,7.9a11.7,11.7,0,0,1-3.4,3.9c-6.2,2.2-10.6,6.8-15.6,10.6s-7.2,7.7-10.4,12a40.2,40.2,0,0,0-6,10.5c-1.3,3.1-2.1,6.3-3.6,9.3s-1.6,7.1-.4,10.9.9,5.9-1.4,8.4c-1.9,5.5-5.3,3.2-8.5,1.7s-.5-5.8-.4-8.8.8-6.8,1-10.2a16.2,16.2,0,0,1,.6-3.4,52.1,52.1,0,0,0,3-12.1q1.4-6.7,2.2-13.6c.2-4.3,1.6-8.4,2.1-12.7s2.2-11.3,4.3-16.6a54.9,54.9,0,0,0,2.7-9.4c.6-2.5,1.4-4.9,1.8-7.4s1.2-5,1.8-7.5S662.6,131.5,666.3,129.8Z"/><path class="cls-48" d="M619.9,155.1c.7-4.2-1.6-5.1-5.2-4.5-6.8,1-13.7,1.7-20.5,3s-6.9-1.2-4.6-6.1,2.5-11,3.3-16.6c.7-3.6.7-7.3,2.1-10.8a2.4,2.4,0,0,1,1.6-1.5c2.2-.4,3.8.8,5.4,1.9,15.9,9.9,32,19.7,48.3,28.9,5.7,3.2,7,6.9,5.2,12.7s-2.4,11.5-3.7,17.2c0,3.8-.2,7.5-3,10.4a2.4,2.4,0,0,1-1.9-2.7c1.9-7.7-3.6-10.3-8.8-13.2s-11.3-7.9-18.6-8.1C617.6,162,621.5,158.7,619.9,155.1Z"/><path class="cls-49" d="M652.5,228.1c2.4-1.8,4.6-.9,6.9.5,18.1,11.1,36.3,22.1,54.4,33.3,1.9,1.2,3.3,1.2,5.4.9,8.9-1,17.1-4.7,25.8-6.4-26,13.1-52.3,17.6-78.7,1.5-7-4.3-12.5-10.5-14-19.2C651.6,235.3,651.3,231.7,652.5,228.1Z"/><path class="cls-50" d="M887.1,249.2a39.5,39.5,0,0,1-15.2,8.8c-2.5.6-4.9,1.8-7.3,2.6s-5.8-.7-8.4-2.3c-21.7-13.1-43.6-25.8-65.3-38.9-3.1-1.9-6.5-3.7-8-7.5a4,4,0,0,1,.5-2.1c1.8-1.7,4.4-1.9,6.2-3.8,6.5-6.7,6.6-6.6,14.9-1.8,2.8,1.6,5.4,3.6,8.3,4.9,6.1,2.6,10,6.1,10.6,13.6s5.8,9.5,11.6,11.2l2.1.6c3.9,1.1,8,.2,12,.8,6.9,1.7,12.2,6.2,18.1,9.7s9.8,5.6,15.8,3.2A3.2,3.2,0,0,1,887.1,249.2Z"/><path class="cls-51" d="M910.7,155.2c-3.3,4.8-8.7,7-12.8,10.8-.1.1-.1.5,0,.6s.4.3.6.4a3.3,3.3,0,0,1,.8,1.8c-.1,2.8,1.6,4.5,3.6,6,5.5,4,9.2,9.5,12,15.5,1,3,2,6.1,1.9,9.4s-.9,9.6-1.9,14.3-3.1,7.3-4.8,11c-4.6-1.9-1.6-5.1-1.4-7.9a35.2,35.2,0,0,0,1.1-5.1c1.2-11.6.6-12.4-9.5-18.2-12.4-7.2-25-14.2-36.7-22.4-2.6-1.8-5.4-2.2-8.4-2.6s-5.8.6-6.1-3.6a5.7,5.7,0,0,1,4.7-1.6c10.7,1.4,18.7-3.6,25.8-10.9,4.5-1.2,7.6,1.8,10.8,3.8s8.5,3.1,12.9,0C905.4,155.2,907.7,152.9,910.7,155.2Z"/><path class="cls-52" d="M639,255.4c-12.3,3.3-24.6,6.6-37.2,8.6-3-.5-1.3-2.6-1.1-3.9,1.3-8.9,3.8-17.6,4.9-26.6,2.2-4.7,5.9-3.9,9.4-2.2,7.1,3.5,13.7,8,20.6,11.9,4,2.3,3.2,6.3,3,10C638.7,254,638.9,254.7,639,255.4Z"/><path class="cls-53" d="M756.9,249.2c-15.5,5.6-24.4-5.3-34.4-13.6-.5-2,1-2.6,2.3-3.1s4.5-1.2,6.1-2.6c10-9,19.4-6.1,28.6,1.3,3,2.5,7.3,3,9.7,6.4a2.9,2.9,0,0,1-.2,2.2C764.9,242.8,761.9,247.2,756.9,249.2Z"/><path class="cls-54" d="M910.4,217.7c.3,2.5-3,4.8-.3,7.4a23.3,23.3,0,0,1-6.9,9.6c-5.2-5-11.7-8.2-17.6-12.1-4.4-2.9-7.7-2.3-11,1.4a50.3,50.3,0,0,1-7.6,7.1c-5.7,3.7-11.6,6.5-18.7,5.2-4.1-.3-8.3.7-12.4-.7h-.1a1.5,1.5,0,0,1,.3-2c4.1-2.4,8.7-.8,13-1.8s8.2-1.8,11.6-4.4a26.4,26.4,0,0,1,4.2-3,18.7,18.7,0,0,0,6-4.7,11.6,11.6,0,0,0,3.5-8.6,23.4,23.4,0,0,1,.6-4.1c1-2.7.4-5.8,2.1-8.4a2.2,2.2,0,0,1,2.7-.4C890.1,204.4,901.2,209.5,910.4,217.7Z"/><path class="cls-55" d="M849.3,235.6c6.8.4,11.8-4.3,17.9-6,2.3-1.8,4.1-.2,6,.8a96.5,96.5,0,0,1,10.1,6c4.4,3.1,8.5,4.6,13.3.9,1.3-1,3.1-1.7,4.7-.3a44,44,0,0,1-14.2,12.2c-10.6,5.1-18.6-1-26.9-6.3-3.5-2.2-6.8-4.9-10.9-5.9q-.7-.5-.5-1T849.3,235.6Z"/><path class="cls-56" d="M864.2,259.4c2.6-.2,5-2,7.8-1.4-22.2,11-45,14-68.4,4.3-9.7-4-16.3-11.7-21.2-20.8-2.8-2.8-4-6-2.3-9.9,3-2.1,4.1.8,4.9,2.4,3.9,7.4,10.5,11.6,17.5,15.5,4.1,2.3,8.3,4.4,12,7.3,7.6,5.9,16,7.2,25.1,5.1C847.8,261.5,855.9,259.9,864.2,259.4Z"/><path class="cls-57" d="M901.2,237.1c-1.9,0-3.1,1.2-4.5,2.2-4.2,3-7.8,3.2-12.5,0s-10.7-7.6-17.1-9.6c11.2-14,11.3-14.1,25.8-4.6,3.9,2.6,9.7,3.4,10.3,9.7A2.8,2.8,0,0,1,901.2,237.1Z"/><path class="cls-58" d="M594.5,111.9c15.1-3.8,30.7-4.8,46.1-7.5,8.8-1.5,17.6-2.7,26.4-3.9,2.5-.3,5.3-1.9,7.6.8l-1.7,3.6c-13.8,4.4-28.2,4.9-42.3,7.3-9.3,1.6-18.6,2.6-27.9,4.1-2.7.4-5.4,1-8-.4Z"/><path class="cls-59" d="M594.6,116c21.7-4.5,43.9-6.6,65.8-10.1,4.1-.7,8.2-2.2,12.4-1l-4.2,14.3a1.3,1.3,0,0,1-2-.4,4.8,4.8,0,0,1-.7-2.8c.9-6.1-2.4-6.3-7.1-5.6l-39.5,5.9c-2.7.4-5.4.4-8.1.9l-2.1.6c-3.1.5-6.3.4-9.4.8-1.3.2-2.7-.3-3.9.7h0a1.6,1.6,0,0,1-2.2.1Z"/><path class="cls-60" d="M606.4,232.6c-.2,10.7-5.2,20.6-4.7,31.4-4.7,1.6-2.6-2.1-2.3-3.4q4.4-23.9,9.1-47.7c1.5-7.9,3.3-15.8,4.9-23.7a1.6,1.6,0,0,1,2.1-.1,4.3,4.3,0,0,1,.8,2.1c-.4,7.6-3.2,14.9-3.7,22.5C610.5,220,612,227.5,606.4,232.6Z"/><path class="cls-61" d="M781,231.2c-.9,3.6,1.5,6.8,1.3,10.3-4.4-.7-9.2,1.8-13.3-1.7a4.1,4.1,0,0,1-.2-1.1c1-4.4,5-6.7,7.3-10.2,1-1.5,2.1-4.2,4.3-3.1S782.6,229.1,781,231.2Z"/><path class="cls-37" d="M898.4,167.8a2.5,2.5,0,0,1,.1-.7c4.8-1,7.5,2.2,10.4,5.2s3.9,3.5,5.9,5.2c2.8,8.2,7,16.3,3.2,25.4-2-1.2-1.6-3.3-1.8-5.2-1-3.5-1.1-7.2-2.6-10.6-2.7-6.3-6.3-11.7-12.3-15.4C900,170.8,898.3,169.9,898.4,167.8Z"/><path class="cls-62" d="M615.2,189.4h-1.7a281.9,281.9,0,0,1,6.5-34.2c3.3,3.5-1,6.9-.1,10.4C621.4,174.1,619.1,181.9,615.2,189.4Z"/><path class="cls-63" d="M594.4,131.2l-3.2,17.6-.5.2-1.1-1.6,2.1-17.6C593.3,129.1,593.6,130.5,594.4,131.2Z"/><path class="cls-64" d="M917.6,196.8l.5,6c-.8,3.8-1.2,7.8-3.2,11.3l.4-15.7C915.6,197.2,916.3,196.5,917.6,196.8Z"/><path class="cls-65" d="M652.5,228.1l-.2,10.7-1.2-.5c-.1-6.9-1.7-13.9,1.1-20.6a1.5,1.5,0,0,1,1.8-.4,1.3,1.3,0,0,1,0,1.8C653.5,222.1,652,225,652.5,228.1Z"/><path class="cls-66" d="M643.7,231.6c1.2,3-2.2,5.4-1.1,8.5l-.7,5.9a1.4,1.4,0,0,1-2.1-.5,8,8,0,0,1-1.1-3.5c-.2-5,.1-10,3.4-14.2C644.8,228.2,644.3,229.9,643.7,231.6Z"/><path class="cls-67" d="M594.4,131.2l-2.6-1.4,1.8-10.5h2.2Z"/><path class="cls-68" d="M640.5,242.8l.2,3.3a12.2,12.2,0,0,1,0,8.1l-1.7,1.2-.4-.6c-1.4-3.7.2-7.4-.3-11.1A1.6,1.6,0,0,1,640.5,242.8Z"/><path class="cls-69" d="M640.7,254.2q0-4,0-8.1h1.2C642.1,248.8,642.6,251.7,640.7,254.2Z"/><path class="cls-70" d="M910.7,155.2c-10.6,9.1-20.4,4.6-30.2-1.6-1.6-1.6-1.7-3.5-1.5-5.6,1.8-9.5-1.1-13-11.1-13.3-14.3-.5-24.5-8.8-34.3-17.8.1-4.8,4.6-5.5,7.5-7.7a32.4,32.4,0,0,1,8.3-3.4c9.8-4.7,18-2,26.6,4,11.9,8.3,25.1,14.6,37.2,22.6,3.9,2.6,7.2,5.4,5.9,10.8a5.9,5.9,0,0,1-1.5,3.1C915.7,149.5,914.5,153.3,910.7,155.2Z"/><path class="cls-71" d="M917.7,146.2l.2-2.9c7.3-26.2-9-36.3-27.4-39.7a72.5,72.5,0,0,0-41.3,3.9l-7.4,3.1a2.5,2.5,0,0,1-3.2,0c1.2-6.9,8.3-5.6,12.2-8.8a53,53,0,0,1,11.4-3.5c11.2-2.2,22.3-2.7,33.5-.3,4.7.5,8.7,2.9,12.8,5,2.3,1.5,4.3,3.6,6.7,5.1a16,16,0,0,1,3.7,3.7c1.8,3,3.9,5.8,4.8,9.2s.9,6.9,1.1,10.4C923.4,136.8,922.5,142.4,917.7,146.2Z"/><path class="cls-72" d="M924.8,131.4a32.9,32.9,0,0,1-2.4-10.6c.8-.9.1-2.6,1.6-3.2,1.7,1.8.9,4.2,1.6,6.2Z"/><path class="cls-73" d="M908.4,104.6,896.9,100c-11.9-3.8-23.8-2.9-35.7-.1L851,103.1c-1.8.3-4.1,1.8-4.7-1.5A75.8,75.8,0,0,1,898,95.6c9.5,2.2,18,6.8,23.1,15.9-.2,2.7-.3,2.8-3.7.6l-2.7-2.7A14.2,14.2,0,0,0,908.4,104.6Z"/><path class="cls-74" d="M846.3,101.6c1.2,1.7,3.1,1.1,4.7,1.5-3.5,3.3-9.4,2.6-12.2,7.2-.9,2-2.8,2.5-4.7,2.8s-3.2-.5-2.8-2.8a3,3,0,0,0,.3-1.1C836.7,107.1,840.8,103,846.3,101.6Z"/><path class="cls-75" d="M917.4,112.1c1.2-.1,2.7,1.4,3.7-.6a8.7,8.7,0,0,1,2.9,6.1l-1.6,3.2Z"/><path class="cls-76" d="M682.4,129.8c3.1-2.4,3.7-6.9,7.2-9a2.6,2.6,0,0,1,2.2,1.9,7.8,7.8,0,0,1-1.5,4.8c-2.7,2.4-3.5,7.1-8.3,7a1.4,1.4,0,0,1,.2-1.8Z"/><path class="cls-77" d="M666.3,129.8l-3.1,9.3a4.7,4.7,0,0,1-1.9-3.2c.1-4.2-.6-8.8,4.6-10.8a2.6,2.6,0,0,1,.2,3.5A7.2,7.2,0,0,0,666.3,129.8Z"/><path class="cls-78" d="M666,128.5l-.2-3.5c-1.5-2.4-2.3-4.5,1.3-5.7h1.5C668.3,122.5,667.8,125.6,666,128.5Z"/><path class="cls-79" d="M682.3,132.6l.2,1.8c1.9,3.7,1.3,6.4-3.1,7.6l1.8-9.1Z"/><path class="cls-41" d="M679.3,113.4c0,2.2,0,4.3,3,4.5-1,1.3-2.5,2-3.6.6S677.6,114.9,679.3,113.4Z"/><path class="cls-80" d="M707.6,106.1l6-4.6c9.8-4.5,19.9-8.1,30.8-8.8a30.4,30.4,0,0,0,13.6,0c13.6,1.1,25.4,5.9,33.5,17.6,2,2.8,3.6,5.9,3.2,9.7a1.9,1.9,0,0,1-1.5,1.5c-2.3.2-3.6-1.4-4.7-3.1-8.7-13.2-21.5-18-36.7-18H739.3c-4.5-.2-8.8,0-12.8,2.4a100.1,100.1,0,0,1-15.7,5.8C709.2,108.4,707.6,108.3,707.6,106.1Z"/><path class="cls-14" d="M745,94.2c-11.2-.7-20.9,4.8-31.3,7.3,11.1-7.5,23.7-9.7,36.7-10.4,4.1-.2,8.3,0,12.5,0,7.7,3.1,15.9,5.2,22.5,10.5s11.1,10.6,10.2,19.3h-1c-3.9-15.8-18.2-26.2-36.2-26.6A35.3,35.3,0,0,1,745,94.2Z"/><path class="cls-81" d="M707.6,106.1l3.2,1.5c-1.3,5-6,6-9.7,8.3-1.9,0-4.1.5-4-2.5A30.2,30.2,0,0,1,707.6,106.1Z"/><path class="cls-82" d="M697.2,113.3c.8,1.6,2.3,1.4,3.8,1.5a1.1,1.1,0,0,1,1.2,1.3c-2.7,3.8-6.6,5.3-10.9,6.2l-1.6-1.6A22.1,22.1,0,0,1,697.2,113.3Z"/><path class="cls-9" d="M16.1,295.2H34C28,297.5,22,297.7,16.1,295.2Z"/><path class="cls-9" d="M33.9,295.2c4.7-2.9,9.9-1,14.9-1.5C44.1,296.6,38.9,294.7,33.9,295.2Z"/><path class="cls-9" d="M48.8,293.7c3.7-2.7,8-1.1,12-1.4C57.1,294.9,52.8,293.3,48.8,293.7Z"/><path class="cls-9" d="M109.8,251.9c5.3-2.8,11-.9,16.5-1.5C121.1,253.6,115.3,251.3,109.8,251.9Z"/><path class="cls-9" d="M165.1,283.3c7.3-3.1,14.9-.8,22.4-1.5C180.2,284.9,172.5,282.6,165.1,283.3Z"/><path class="cls-9" d="M197.9,280.3c-1.6,2-3.9,1.2-5.9,1.6h-4.5C190.6,279.1,194.4,280.6,197.9,280.3Z"/><path class="cls-9" d="M157.7,88l-4.5-5.9c3.6.3,5.5,2.4,6.1,5.8Z"/><path class="cls-9" d="M202.5,162.7c.3-3.1-1.3-6.4,1.4-9.1v8.9Z"/><path class="cls-9" d="M198,195.6c.2-2.6-1.1-5.5,1.4-7.7C199.2,190.5,200.1,193.3,198,195.6Z"/><path class="cls-9" d="M199.5,183.7c.2-2.6-1.1-5.5,1.4-7.7C200.7,178.6,201.6,181.4,199.5,183.7Z"/><path class="cls-9" d="M153.2,82.1C134.7,81.1,116.4,84.2,98,85c12.1-4.6,25-3.2,37.5-4.4C141.4,80.1,147.7,77.6,153.2,82.1Z"/><path class="cls-83" d="M26.2,271.1l2.7-7.2c6.2-11.4,10.1-23.8,15.4-35.6,1.2-2.7,1.7-5.7,4.5-7.4C58.1,219,67,216,76,213.2a79.8,79.8,0,0,1,16.7-3.3c9.8-2.4,19.9-2.1,29.8-3.1,4.3-.4,8.8,0,12.3-3.3a31.3,31.3,0,0,0,2.1-3.9,17.5,17.5,0,0,0,.9-3.3c.4-2,.9-4,2.8-4.9a96.1,96.1,0,0,1,25.2-7.7c5.3-.9,6.3,4.4,8.3,7.9,3,10.1,6.4,20.1,7.5,30.6,1.1,5.7-1.4,8.8-6.7,10.6s-11.8,3.6-17.8,5.3c-4,1.2-7.3.3-9.4-3.6s-7.4-1.5-11.1-1.9a60.7,60.7,0,0,0-10.3,1.3,53.3,53.3,0,0,1-5.9.2,29.2,29.2,0,0,0-10.5,1.3,51,51,0,0,1-5.9.2,40.9,40.9,0,0,0-11.4,1.2,21.6,21.6,0,0,1-4.4.3c-2.8.2-5.6-.6-8.2,1l-1.8,1.2a48.6,48.6,0,0,0-4.4,10.1c-3.3,12.7-12,18.6-24.1,20.9-5.8,1.1-11.2,4-17.1,4.6C29.6,275.1,26.3,275.8,26.2,271.1Z"/><path class="cls-83" d="M291.6,178.9c.3-7.1,5-12.4,7.7-18.6,1.5-2.1,4-3.4,5-5.9a99.9,99.9,0,0,1,8-9c3.4-1.6,5.7-4.6,8.9-6.5s5.5-3.1,8-4.8c4.1-2,8.6-3.2,12.9-4.6,16.1-3.1,32.1-5,48.2,0,8.2,3.3,16.1,7.1,21.5,14.5,3,3.9,4.6,8.4,6.4,12.8a18.4,18.4,0,0,1,.3,4.5c-.6,3.4-3.3,4.8-6.1,5.8-5.4,1.9-10.9,3.3-16.3,5-3.9,1.2-7.2.2-8.4-3.8-3.3-11.8-11.3-17-22.9-17.2-13.3-.3-24.1,4.8-31.4,16.3-2.1,3.3-3.9,6.9-4,11.1a10.6,10.6,0,0,1-.5,2.3,8.5,8.5,0,0,1-2.9,3.9c-8.4,5-18,6.7-27.3,9.3-2.8.8-5.9.8-8.5-1.2-1-1.9-.5-3.9-.5-5.9C291.9,184.6,290.5,181.4,291.6,178.9Z"/><path class="cls-84" d="M501.8,251.7c-18.1,11.9-37.7,14.6-58.3,8.9-13.6-3.8-20.2-12.9-20.6-26.5,3.2-.3,3.1,2.5,4.2,4.2,3.6,9.6,4.1,9.7,14.1,7.2,6.4-1.6,12.3-5.3,19.2-5a32.7,32.7,0,0,0,25,1.2c3.1-1,6.1-2,7.7-5.2a6.7,6.7,0,0,1,2.6-2.2,16,16,0,0,1,3.3-1c.7-.2,1.6-.3,2-.8,9.1-12,23.5-12.1,36.1-16.3,4.9-1.7,8.4-.3,8,5.8a16.5,16.5,0,0,0-.6,4.6c-.1,3.1-1.9,5.9-1.9,9.1-2.7,8.6-2.9,17.7-6.5,26.1l-30.9-1.1c-1.9-2.1-.6-4.6-.9-6.9S504,250.8,501.8,251.7Z"/><path class="cls-85" d="M92,120.6l.3-2.5c4.7-6.5,5.3-15.3,11.3-21.1,14.1-3.3,28.4-3.7,42.8-3.7,1,0,1.7.9,2.4,1.6a81.8,81.8,0,0,1,4.4,16.9,25.4,25.4,0,0,0,.8,5.1c1.5,5.4-.5,8.4-5.9,9.7-3.3.8-6.6,2.1-9.9,3.1-10,3-9.9,3.3-8.9,13.3.6,5.3,2.9,10.5.8,15.9-3.7,1.8-3.8-1.5-4.4-3.4a58.9,58.9,0,0,1-3-13.6c-.4-5-2.7-.8-3.9-1.3-4-2.7-8.2-2.6-12.7-1.2S96,143,90.6,144c-2.9.5-6,1.2-7.2-2.9a5.6,5.6,0,0,1,.3-2.2C85.3,132.2,89,126.6,92,120.6Z"/><path class="cls-86" d="M297.7,145a1.7,1.7,0,0,1-.2,1.2c-1,2.4-.3,5-.5,7.4a9.1,9.1,0,0,1-2.1,7.1c-5.6.2-11.3-.3-16.9.8-14.2,2.6-23.5,10.6-27.8,24.3-.5,1.5.1,3.7-2.6,3.7-3.3-7.1,1.8-12.4,4.1-18.2.7-1.8,2.5-3,4.5-5.8a202.5,202.5,0,0,0-33.9,9.9c-5.8,2.3-5,9.1-5.9,14.3s-.7,5-4.1,6.7a6.6,6.6,0,0,1,.4-4.5,107.9,107.9,0,0,1,2.8-22.2c2.5-4.9-.7-12.4,4.9-15.2,8.8-4.3,18.2-7.5,28.2-8.1,1.4-.1,2.9.8,4.3-.2,2.1-3.4,6.8-3.7,8.7-7.3a28.3,28.3,0,0,1,15-8.1c7.5-1.5,15-3.2,22.5-.3,1.5,1.9.7,4,.8,6.1C298.4,139.3,299,142.4,297.7,145Z"/><path class="cls-83" d="M212.9,196.8c2.5-5.2.9-11.2,3.1-16.5,1-2.4,1-5.7,4.2-6.6,13.1-3.7,25.8-8.9,40.1-10.1a39.8,39.8,0,0,0-12.6,25.9c2.7,3-1.5,5.5-.7,8.4-1.2,2.4-.4,5-.6,7.5a13.9,13.9,0,0,1-.3,3.4c-.6,1.9-.9,3.9-2.2,5.5-8.8,4.8-18.5,6.6-28,8.8-3.8.9-6.2-1.2-5.8-5.4C210.7,210.8,211.3,203.7,212.9,196.8Z"/><path class="cls-87" d="M440.7,163l1.8-6.3c2.8-2.3,4.4-5.6,6.5-8.5a47,47,0,0,1,12.2-10.5l9.5-4.7,2.2-.7c14.3-3.2,28.5-7.1,43.3-2.8,2.5,1.1,5.3,1.2,8,1.6a18.9,18.9,0,0,1,6.6,2.5c3.6,5.9-1.5,6.8-4.9,8-8.1,2.9-16.7,4.4-24.4,8.7-11.7,0-21.3,4-27.6,14.2-1.4,2.3-3.2,3.8-5.8,4.1a116.1,116.1,0,0,1-23.7,0C441,168.3,439.2,166.5,440.7,163Z"/><path class="cls-88" d="M426,238.6l-3-4.5c-.9-3.5,0-6.9.3-10.4,14.4,1.5,27.3-1.1,37.4-12.5,5.7-6.4,13.8-8.7,21.8-10.5s19.1-3.2,28.4-6.1c1.2-.4,2.7-1,3.6-.4,10.1,6.3,19.1-.6,28.4-2.3,3.4-.6,7.2-2.1,8,3.4-.6,3.1-.5,6.3-1.9,9.2.2,3.2-1.2,6.1-2.3,9l-.2,2.7c-1.8,1.7,1.4,5.6-2.7,6.3.1-3.9-.9-6.1-5.6-4.6-8.6,2.7-17.3,5.2-26.1,7.4-3.2.8-3.9,3.5-5.7,5.3s-3.8,5.3-7.6,5.2c-.4-4,3.3-5.4,5-8.1a49.8,49.8,0,0,0,3.2-4.8,13,13,0,0,0,2.1-7.4c.5-4.4,2.1-8.6,2.8-13.8-12.3,3.7-24.6,4.7-36.3,8-6.4,1.8-10.3,6.5-14.1,11.4-2.2,1.8-2.6,4.2-2.4,6.8.1,1,.1,1.9.3,2.9a12.5,12.5,0,0,0,2.9,6.2c7.8,6.8,16.4,4.5,25,2.3,2.4-.6,4.4-3.5,7.4-1.7-5.7,9-15.2,7.8-23.6,8.1-3.4.1-8-.5-10.8-4-4.9-4.7-10.3-4.9-16.3-2.3-3.4,1.4-7.1,1.9-10.7,3.1S427.1,242.4,426,238.6Z"/><path class="cls-85" d="M549.7,195.4c-.4-3.4-2.4-3-4.9-2.2-5.2,1.7-10.4,3.2-15.6,4.8s-8.9,4-12.6-1.6c-.4-.7-2.4-.9-3.4-.5-13.1,5.3-27.8,4.5-40.9,10-5.3,2.3-10.5,4.6-13,10.4-1.1,2.5-3.2,3.6-5.7,4.4-6.6,2-13.3,3.7-19.9,6-4.5,1.6-8,1-10.7-3-.5-2.2-.4-4.2,1.3-5.9s1.6-5.5,3.9-7.4a11.5,11.5,0,0,1,5.9-3.4c23.9-5.5,47.1-13.2,70.4-20.5,13-4,26.1-7.4,39.1-11.4,4.5-1.4,9.8-2.7,10.2,5a63.8,63.8,0,0,1-2.2,11.9C551.6,193.5,552.4,195.7,549.7,195.4Z"/><path class="cls-89" d="M411.7,225.7l-.8,1.1c-9.6,14.6-24.9,19-40.6,23.1a237.4,237.4,0,0,0-30.4,9.7c-9.8,4-31.3-3.8-34.9-12.2,12-4.8,23.4-12,37.3-8a11.5,11.5,0,0,0,8-.7c5-2.2,10.7-2.8,15.5-5.7s7.6-7.9,13.1-9.5c8.8-1,17.6-.4,26.3-.4C407.6,223,410.2,223.1,411.7,225.7Z"/><path class="cls-90" d="M104,234.1h6c3.3-1.9,7.2.5,10.4-1.5h6c3.3-1.9,7.2.5,10.4-1.5,4,.2,8.2-.8,11.9,1.5,1.6,5.3,4.4,10.2,5.9,15.6,1,3.7,3.9,3.9,7.1,3,5.7-1.6,11.2-3.7,16.9-5,2.6-.6,5.2-1.6,8-1,4.2,6.4,5,13.6,5.1,21-11.1.8-22.2,1.4-33.3,2.4-3.4.3-4.7-.5-5.4-4-1.6-8.8-3.8-17.4-5.6-26.1-.6-3.1-1.5-5-5.2-4.7-21.2,2.1-42.5,2.8-63.5,6.1a2,2,0,0,1,0-2.9h0c2.8-1.9,6.2.4,8.9-1.5h4.5C95.9,233.6,100.2,236.1,104,234.1Z"/><path class="cls-91" d="M290.3,192.4c12.7.4,23.8-5.3,35.5-8.9a14.6,14.6,0,0,1,3,1.5c6,1.9,12.2.4,18.3,1,2.2.2,5.1,0,5.7,2.4s-2,4.3-4.3,5.1c-8.5,3-17.4,5.2-25.3,9.7-1,1.7-1.6,3.6-3.8,4.3a170.9,170.9,0,0,1-22.7,6.7c-4.8,1-7.9-1.2-7.7-6.3s-1.8-8.8-.3-13.2l-.2-.5.3-.4C289.3,193.4,289.5,192.5,290.3,192.4Z"/><path class="cls-92" d="M212.9,196.8c-.5,6.6-1.1,13.2-1.6,19.9-.3,4,.6,6.1,5.5,4.4,8.9-3,17.9-5.3,26.9-7.9,1.5.9,1.2,2.1.4,3.3a2.4,2.4,0,0,1-.3,1.3c-1.5,3.4.6,7.3-1.3,10.7v2.6c-1.4,3.4.1,6.9-.9,10.3a2.4,2.4,0,0,1-2.2.5c-5.9-2-11.1,1.1-16.4,2.7-15.1,4.6-15.5,4.5-15.3-10.9,0-1.9-.4-3.9.6-5.8a252.3,252.3,0,0,1,4.5-35.8Z"/><path class="cls-93" d="M440.7,163c.1,3.2,1.8,4.2,4.8,4.1a64.8,64.8,0,0,1,10.4,0c8.8,1,15.8-.7,21.5-8.7s15-9.8,24.5-9.3c4.9-3.1,10.2-1.6,14.2.8,7.8,4.7,14.7,1.9,22-.2,4.4-1.3,8.6-4.3,13.5-1.6s5.9,9,5.1,14.8a3.3,3.3,0,0,1-1.5,1.7c-11.1,1.4-21.1,7.2-32.4,7.9-1.1-.5-2-1.1-1.5-2.5.1-12.5-2.7-16-15-17.4-14.1-1.7-26.3,1.2-32.6,15.7-1.5,3.5-4.2,2.9-6.8,2.9-7.2,0-14.4-.6-21.5-.2S437.8,168.3,440.7,163Z"/><path class="cls-94" d="M208.2,227.9c0,4.7.1,9.3.1,14s1.2,4.4,4.6,3.4c7.5-2.3,15-4.3,22.5-6.6,3.2-1,4.7-.4,4.3,3.1,1.5,2.6.2,5.5.6,8.2a16.1,16.1,0,0,1-.2,3.6c-1.5,3.2-.3,7-2.4,10l-29.6,1.8c-2.9.2-4.8.2-4.3-3.7C205.1,250.4,205.8,239,208.2,227.9Z"/><path class="cls-95" d="M305.2,247.5c7.6,8.9,25.4,12.9,36.3,9.2,14.5-5,29.2-9.5,44-13.4,6.5-1.7,11.7-4.4,16.3-9.4,2.6-2.8,4.6-6.7,9.1-7.1-12.3,21-31,32.3-54.6,35.3-14.8,1.9-29.7,1.6-43.6-5.4-10.7-5.4-18-13.7-21.1-25.4a2.1,2.1,0,0,1,3.1.8C297.6,237.5,302.5,241.8,305.2,247.5Z"/><path class="cls-96" d="M288.7,194.7c4.3,22.3-2.8,20.4,21,13.5,4.1-1.2,11.2.7,11.9-7a2.6,2.6,0,0,1,3-.4c1,1.8-.6,2.5-1.4,3.5l.2,3.6a26.3,26.3,0,0,0-.2,3.4c-.9,5,1.6,9.8.5,14.8-6.3,1-12.3,3-18.4,4.7-10.4,2.9-13.2,1.2-15.5-9.2-.3-1.4.3-3-1.2-4A51.8,51.8,0,0,1,288.7,194.7Z"/><path class="cls-97" d="M288.6,217.8c3.9,3.5,1.9,11.4,7.4,12.7s12.7-2.6,19-4.4c3-.9,5.7-3.2,8.2.6a1.7,1.7,0,0,1,2.1.1c5.6,7.3,12.9,11.5,22.2,11.7a4.6,4.6,0,0,1,3.9,1.8,4.9,4.9,0,0,1-5.4,1.3c-13.4-4.3-25,1.9-37.1,5.6a20,20,0,0,1-3.6.4c-6.8-3.6-8.7-11.3-13.8-16.3A28.1,28.1,0,0,1,288.6,217.8Z"/><path class="cls-98" d="M254.5,147.5c-.2,1.6-1.1,3.7-2.5,2.7-5.4-4.3-10.2-.4-15.2.6-1.9.4-3.7,1.5-5.6,1.8-9.4,1.1-14.9,5.6-14.3,15.8,0,.5-1,1-1.5,1.5.6-11.4,2.4-22.6,4.3-33.9,2-2.1,4.7-2.4,7.4-2.5,6.4-.2,12.8,0,19.1-.6,2.7-.3,5.5-.3,6.8,3v5.5C255.1,143.1,253,145.7,254.5,147.5Z"/><path class="cls-99" d="M78.7,237.1V240L65,273.5c-1,2.5-2.5,3.7-5.4,3.9-12.2,1.1-24.4,2.6-37.2,4.1a23.7,23.7,0,0,1,3.9-10.3c3.1,4.7,7.2,1.5,10.6.9,5.1-.9,9.8-3.4,14.9-4.2,14.6-2.4,19.8-13.2,23.8-25.3C76.2,240.3,76.2,238.1,78.7,237.1Z"/><path class="cls-100" d="M191.6,266.3c-2.3-6.6-2.6-13.8-5.7-20.2-5.1-7.2-4-15.9-5.9-23.9a167.3,167.3,0,0,0-7.5-29.8c-4.5-10.9-6.8-22.4-10.8-33.4-2.4-8-2.5-16.5-5.4-24.3s-1.8-15.5-4.5-22.9l-3.3-16.1a1,1,0,0,1,1.6-.1c5.4,13.9,8.3,28.5,12.1,42.8,10.1,37.4,19.3,75.1,29,112.7,1.2,4.5.9,9.2,3.1,13.5C195.2,266.3,193.3,266.8,191.6,266.3Z"/><path class="cls-101" d="M439.3,195.5c11.8-9,25.9-11.2,39.9-13.7,12.5-2.2,25.5-1.7,37.6-6.5a3.4,3.4,0,0,1,.8,3.5c-4,6.3-11,6.6-17.1,7.3-19.7,2.1-39.1,4.9-57.7,12.2C441.1,198,439.4,197.8,439.3,195.5Z"/><path class="cls-102" d="M341,131.4l-11.6,4.5c-1.9.7-3.6.9-3.5-2,22.5-11.5,45.6-14.1,69.8-5.9,8.5,2.9,13.7,9.3,18.6,16.1-.3,2.8-.3,2.8-3.9.8-5.3-5.8-11.9-9.9-18.9-13.3-14.3-5.5-29-4.9-43.6-1.8C345.7,130.3,343,129.5,341,131.4Z"/><path class="cls-103" d="M466.2,132.9c6.9-4.8,15.1-6,23-6.9,16-1.8,32.1-1.9,47.6,3.8,7.5,2.8,14.2,7,17.4,15,1.1,3.9-.9,3.5-3.5,2.5-4.7-3.5-9.1-7.4-13.8-10.9a78.3,78.3,0,0,0-46.2-6.3c-6.8,1.1-13.5,2-20,4.3h.1C469,134.8,466.8,136.3,466.2,132.9Z"/><path class="cls-104" d="M48.7,222.1c-5.9,10.9-10,22.5-14.9,33.9-1.2,2.9-1.6,6.3-5,7.9,13.3-34.7,28.4-68.5,43.3-102.5,1.6-3.6,3.4-7.1,5.1-10.7a1.3,1.3,0,0,1,1.9.1c1.3,3.6-1.3,6.2-2.2,9.3C74,167,70.6,173.7,68,180.8s-6.4,13.6-9,20.7S53.8,216.1,48.7,222.1Z"/><path class="cls-105" d="M150,95.4h-1.6c-15.5-1-30.7,1.2-46,3-.6.6-1,.5-1.3-.3.4-3.2,1.6-5.5,5.5-5.8,12.8-.9,25.6-1.8,38.4-3C150.2,88.9,151.1,91.2,150,95.4Z"/><path class="cls-106" d="M351.4,240.2c-8.1-.4-16.4-.3-22.7-6.7-1.9-1.9-3.9-3.8-4.2-6.7s-1.7-3.8,1.3-4.5c7.3,11.6,18.6,15.2,33.4,10.9l6.9-2.3c4.2.8,1,2.2.3,3.4C362.2,238,356.3,237.9,351.4,240.2Z"/><path class="cls-107" d="M442.5,197c16.1-7.8,33.5-10,51-12,8.1-.9,16.4-1.2,23.3-6.3,1.8-1.6,1.6-4.2,3.1-5.9l1.4-2.7,1.5,1.5c1.4,6.3-.2,9.7-6.2,11.9-9.8,3.7-20,5.5-30.3,6.5s-19,3.2-28.3,5.6-16.7,8.2-24.6,13.3l-4.6,3c-1.5-1.9.2-3.2,1-4.7C433.4,202.8,436.5,198.1,442.5,197Z"/><path class="cls-108" d="M323.2,204.5l1.4-3.2c2-1.2,4.3-1.2,6.5-1.8,8.3-.7,16.5-.1,24.8-.4,18.2-.5,36.5.6,54.7-1.1,2.7-.2,5.5-.2,7.5,2.1a1.7,1.7,0,0,1-.1,2.5c-4.9.1-9.9.4-14.8.4Q363.3,202.9,323.2,204.5Z"/><path class="cls-109" d="M253.1,135.9c-7.4-2.3-14.9.3-22.4-.1-3.6-.2-7.3.1-11,.2-.4-3.2.5-4.9,4.2-5,8.8-.2,17.6-.9,26.4-1.4C256.9,129.3,256.1,132.2,253.1,135.9Z"/><path class="cls-110" d="M411.7,225.7l-34.9-.5c-1.4.3-2-.2-1.7-1.7.6-3.4,3.2-3.1,5.7-3.1,9.6,0,19.2.1,28.8-.1C415.9,220.2,413.8,222.8,411.7,225.7Z"/><path class="cls-111" d="M275.4,132.8c-4.6,2.4-9.6,3.8-13.6,7.3a1.1,1.1,0,0,1-1.9-.2c1.9-5.9,7.6-7.6,12.3-9.8,8.1-3.9,17-4.8,26-4.9,4.1-.1,5,1.3,2.9,4.8C292.6,131.3,283.6,129,275.4,132.8Z"/><path class="cls-9" d="M373.8,272.9c-2.9,3-7.5,1.9-10.7,4.3a109.8,109.8,0,0,1-26.6,1.6q-.8-.5-.5-.9c.2-.3.3-.5.5-.5C349.3,278.5,361.4,274.5,373.8,272.9Z"/><path class="cls-9" d="M236.6,278.8c-12.4,1.5-24.7,4.2-37.2,1.6C211.8,279.8,224.2,278.1,236.6,278.8Z"/><path class="cls-112" d="M551.1,146.2c1.5.6,3,1.1,3.1-1.4,2.4,3,3.1,6.6,3.1,10.3s2.1,6.4-1.4,8.9c-.7-5.2-.9-10.5-4.5-14.8C550.2,148.3,550.3,147.3,551.1,146.2Z"/><path class="cls-113" d="M442.5,197l-12,10.5a1.3,1.3,0,0,1-1.8-.1,24.7,24.7,0,0,1,10.6-11.9Z"/><path class="cls-114" d="M536.1,261.8l6-26.3a1.5,1.5,0,0,1,.4,2.2C540.7,245.8,540.9,254.5,536.1,261.8Z"/><path class="cls-115" d="M551.1,192.4l1.6-11.9c1.6-2.4-.1-4.6-.2-6.9s-.9-6,3.3-6.7c1.1,2.5.8,5.1.1,7.7.4,6.2-1.3,12-3.2,17.7C552.1,193,551.6,193.1,551.1,192.4Z"/><path class="cls-116" d="M275.4,132.8c8.1-5,17-3.1,25.8-2.9a1,1,0,0,1-.2,1.3c-.5.7-.9.7-1.5.1C291.3,130.1,283.4,132,275.4,132.8Z"/><path class="cls-117" d="M421.8,168.3c1.9,6.1,1.2,12.1-.1,18.1a1.6,1.6,0,0,1-2.3-.3c-1.9-3.2-1.4-6.6-.9-9.9S419,170.3,421.8,168.3Z"/><path class="cls-118" d="M461.9,138.8,449.5,149c-1.2.4-1.7,0-1.3-1.3a28.2,28.2,0,0,1,10.6-10.5A3.3,3.3,0,0,1,461.9,138.8Z"/><path class="cls-119" d="M101.2,98.3a2.4,2.4,0,0,1,1.3.3c-3.5,6.4-4.6,14.1-10.2,19.5A76.8,76.8,0,0,1,101.2,98.3Z"/><path class="cls-120" d="M410.4,144.9c1.3-.1,3,1.3,3.9-.8,3.2,2.3,2.1,6.6,4.3,9.3s.9,3.6-2,3.5Z"/><path class="cls-121" d="M375.1,223.5l1.7,1.7c-3.2,3.3-5.4,7.7-10.3,9,.1-1.2,1.5-2.4-.3-3.4Z"/><path class="cls-122" d="M92,120.6c-1.4,6.5-5.4,12-7.6,18.1a1.2,1.2,0,0,1-1.8-.2C85.3,132.3,86.7,125.4,92,120.6Z"/><path class="cls-123" d="M461.9,138.8c-1.2-.1-2.4-.3-3.1-1.5a15.4,15.4,0,0,1,7.4-4.4c1.2,1.7,3,1.2,4.6,1.5C468.2,136.6,465.1,137.7,461.9,138.8Z"/><path class="cls-124" d="M325.8,222.2c-1.5,1.2-1.1,2.9-1.3,4.5h-1.3c-.8-5.5-2.5-10.8-1.3-16.5,3.8.8.8,4.3,2.4,6Z"/><path class="cls-125" d="M555.8,174.6l-.3-7.5a2.6,2.6,0,0,1-.4-3.2l.8.2c2.2-2.7.4-6.1,1.4-9C559.7,161.8,558.1,168.2,555.8,174.6Z"/><path class="cls-126" d="M259.9,139.9l1.9.2-7.3,7.4c-6.2-.8-.2-4.2-1.3-6.1C255.8,142.6,257.4,139.1,259.9,139.9Z"/><path class="cls-9" d="M253,241.5a60,60,0,0,1-3.1,22.3C250.1,256.3,250.5,248.7,253,241.5Z"/><path class="cls-127" d="M416.7,156.9c1.4-.7,1.7-2.1,2-3.5a19.5,19.5,0,0,1,2.6,10.7c-.9.9,0,3-2,3.2-3.3-1.3-.4-4.7-2.1-6.5Z"/><path class="cls-128" d="M321.6,140.2l-8.5,6.2c-1.6.5-2-.3-2-1.7a23.4,23.4,0,0,1,7.4-6.1A3.2,3.2,0,0,1,321.6,140.2Z"/><path class="cls-129" d="M321.6,140.2c-1.2-.1-2.4-.3-3-1.5a19.8,19.8,0,0,1,7.3-4.8c.7,1.5,2.1,1.7,3.5,2Z"/><path class="cls-130" d="M311.2,144.8l2,1.7L305,155c-1.3.3-1.9,0-1.4-1.5A27,27,0,0,1,311.2,144.8Z"/><path class="cls-131" d="M82.6,138.5l1.8.2q.1.7.2,1.4c-1.9,3.6-.4,8.9-5.8,10.6H77.2Z"/><path class="cls-132" d="M448.2,147.8l1.3,1.3c-1.8,3-2.7,6.9-7,7.7C444,153.5,445.5,150.3,448.2,147.8Z"/><path class="cls-133" d="M551.1,192.4h1.5a33.2,33.2,0,0,1-2.8,12c-.5.7-1,.7-1.5,0l1.3-8.9Z"/><path class="cls-134" d="M428.7,207.3h1.8l-1.7,4.3-4.3,6.1A17.7,17.7,0,0,1,428.7,207.3Z"/><path class="cls-135" d="M240.9,241.4c.3-3.5-.7-7.1,1.5-10.3.3,4.7,1.1,9.4-1.1,13.8C240.2,243.9,240.3,242.7,240.9,241.4Z"/><path class="cls-136" d="M501.8,251.7c1.2-1.6,2.6-3,3.1.2a68.7,68.7,0,0,1,.3,8.8C501.2,258.7,505.5,253.7,501.8,251.7Z"/><path class="cls-9" d="M274,204.4c.5-4-1.5-8.3,1.4-12C275,196.4,276.6,200.6,274,204.4Z"/><path class="cls-137" d="M542.5,237.7l-.4-2.2,1.7-8.8q.6-1,1.2-.1A26.9,26.9,0,0,1,542.5,237.7Z"/><path class="cls-138" d="M545,226.6h-1.2v-4.4l2.7-6.3C547.4,219.8,546.2,223.2,545,226.6Z"/><path class="cls-139" d="M419.7,167.4l1.5-3.3.5,4.2c-1.2,2.4.4,5.5-1.5,7.8C417.5,173.3,417.7,170.4,419.7,167.4Z"/><path class="cls-140" d="M303.6,153.6,305,155a8.3,8.3,0,0,1-5.7,5.3A13.5,13.5,0,0,1,303.6,153.6Z"/><path class="cls-141" d="M237.8,263.5c.7-3.4-.6-7.1,1.7-10.3,1.4,1.6,1,3.4.4,5.1S241.3,263,237.8,263.5Z"/><path class="cls-142" d="M548.4,204.3h1.5c-.4,3.2.2,6.8-3.1,9.1Z"/><path class="cls-143" d="M242.6,228.5c.1-3.6-.8-7.3,1.3-10.7C244.2,221.4,246,225.3,242.6,228.5Z"/><path class="cls-9" d="M275.5,191V180.4C278.1,183.9,277.5,187.4,275.5,191Z"/><path class="cls-144" d="M418.2,202.7l-.2-1.6c-1.1-2.9-2-5.8.1-8.6a1.8,1.8,0,0,1,2.3,0,8.1,8.1,0,0,1-.2,5C419.7,199.3,421.4,202,418.2,202.7Z"/><path class="cls-9" d="M203.9,153.6l.3-10.8C206,146.5,206.2,150.1,203.9,153.6Z"/><path class="cls-145" d="M420.2,197.5l-.4-5.4c-1.5-2-1.5-3.9.3-5.7h1.5C421.3,190.2,422.3,194,420.2,197.5Z"/><path class="cls-9" d="M258.9,201.1c-.3,3.1,1.3,6.5-1.4,9.2C257.8,207.2,256.7,203.9,258.9,201.1Z"/><path class="cls-146" d="M294.9,160.8l1.4-7.1c.4-.7.8-.8,1.3-.2C297.3,156.2,299.1,159.6,294.9,160.8Z"/><path class="cls-147" d="M240.9,241.4l.4,3.5-.4,5.5c-.4.7-.8.8-1.3.2v-8.8Z"/><path class="cls-148" d="M324.3,216.1c-2.2-1.4-.7-4.3-2.4-6l1.4-2Z"/><path class="cls-9" d="M205.3,132.7h1.5c-.3,3,1.1,6.3-1.5,8.9V134A2.9,2.9,0,0,1,205.3,132.7Z"/><path class="cls-96" d="M290.3,192.4l-1.6,1.5c.1-3.1-.4-6.3,1.4-9.1q.8.3.7.9t-.3.6Z"/><path class="cls-149" d="M299.5,131.3a3,3,0,0,1,1.5-.1c-.2,3.2.3,6.5-1.4,9.4-1.2-1-1-2.3-.5-3.5Z"/><path class="cls-9" d="M336.5,277.3q0,.7,0,1.4c-3.1-.1-6.3.9-9.2-1.3,1.5-1.3,3.1-1.1,4.7-.2Z"/><path class="cls-150" d="M519.9,172.7c.1,2.6-.2,4.9-3.1,5.9q0-1.7,0-3.4Z"/><path class="cls-151" d="M244.1,216.5l-.4-3.3,1.6-4.9c1.4,1.6,1.1,3.3.3,5S245.8,216,244.1,216.5Z"/><path class="cls-152" d="M297.6,153.5l-1.3.2c.1-2.6-.6-5.2,1.3-7.5Z"/><path class="cls-153" d="M239.6,250.6l1.3-.2a12.8,12.8,0,0,1-1.1,8l-.4-5.1Z"/><path class="cls-154" d="M245.7,213.4l-.3-5v-2.5q.6-1.1,1.4-.2A11.3,11.3,0,0,1,245.7,213.4Z"/><path class="cls-155" d="M299,137.2l.5,3.5c-.1,1.6.3,3.5-1.8,4.3C297.8,142.3,297.1,139.5,299,137.2Z"/><path class="cls-9" d="M332.1,277.3l-4.7.2-2.8-.2q0-.7,0-1.4C327.2,276.1,330,275,332.1,277.3Z"/><path class="cls-91" d="M290.5,186.3l-.4-1.5c.3-2-.1-4.2,1.5-5.9C291.6,181.4,292.7,184.1,290.5,186.3Z"/><path class="cls-151" d="M246.9,205.8h-1.4c.1-2.7-.5-5.5,1.5-7.9C248.4,200.6,247,203.2,246.9,205.8Z"/><path class="cls-156" d="M795.2,129.6c3.2-1.4,3.2-4.6,3.7-7.5,3.4,1.5.6,9.6,7.2,6.5,3.5-1.6,3.9-6.8,8.4-8.5-.2,4-5.9,6.9-2.4,11.3,1.8,2.6.1,5-.2,7.5s-.8,6.4-.8,9.7c0,1.1,0,2.1,0,3.2.2,6.8,4.4,11.2,9.1,15.3,3.1,2.7,4.7,5.2.3,8l-3.7,2c-8.9,4.7-15.1,12.6-22,19.6-2,1.6-3,5.4-6.1,4.4s-2.1-4.7-3.1-7.1-1.3-6.7-3-9.8c-3-6.5-8.1-11.1-13.9-14.9a5.3,5.3,0,0,1-1.7-2.6c.6-4.4,5-5.4,7.5-8.1a33.6,33.6,0,0,0,10.5-10.5,20.7,20.7,0,0,1,2.5-4.3,20.8,20.8,0,0,0,4.9-9.4C792.7,132.6,792.4,130.2,795.2,129.6Z"/><path class="cls-157" d="M816.4,125.3a23.1,23.1,0,0,1,7.5-8.9,3.7,3.7,0,0,1,3.6,1.6,4.1,4.1,0,0,1,.1,2.1c-2.6,3.4-5.3,6.6-9.8,7.4C816.7,127.2,815.9,126.7,816.4,125.3Z"/><path class="cls-158" d="M826.7,117.8a2.8,2.8,0,0,1-2.8-1.4,18.5,18.5,0,0,1,7.4-6.1c.7,1.3,1.9,1.5,3.2,1.6C833.5,116.1,831.3,118.5,826.7,117.8Z"/><path class="cls-159" d="M795.2,129.6c-2,1.6-.3,4.4-1.8,6.2-4.6-5.1-3.3-9.9.6-14.7a.4.4,0,0,1,.6-.3h1Z"/><path class="cls-160" d="M809.7,138.9l2.4-7.4,1.1-.3a1.4,1.4,0,0,1,2.1.2C815.2,135.2,815,139,809.7,138.9Z"/><path class="cls-161" d="M814.9,131.3l-1.7-.2a8.2,8.2,0,0,1,3.2-5.9l1.6,1.5C818.6,129.4,818.2,131.3,814.9,131.3Z"/><path class="cls-162" d="M781,231.2l-.6-5.1c-4.2,4.3-6.4,9.9-11.5,12.6-7.2-4.1-14.5-8.2-21.7-12.5-2.1-1.3-3.5-2-5.8-.2-5.6,4.5-12.3,7-18.9,9.6h-1.5a33.2,33.2,0,0,1-14.9,0c-1.7-.1-3.4.2-4.6-1.5a1.5,1.5,0,0,1,.3-2c2.6-1.6,5.2-.3,7.8,0a34.8,34.8,0,0,0,20.4-4.4,58,58,0,0,0,5.4-3.4,68.2,68.2,0,0,0,6.1-4.2,12.7,12.7,0,0,0,4.4-6.7c1.7-5.2,5.2-5.4,9.4-3.3s8.9,5.3,13.4,7.9,6,3.5,9.5,3.8c1.5.1,3.1.3,4.2,1.4,14.5,15.1,34.3,22,51,33.6a20.6,20.6,0,0,1,4.2,3.1c1,1.1,1.9,2.3,1.2,4-8.4,2.3-16.2,1.3-23.4-4.1a82.1,82.1,0,0,0-13.2-8.1C792.9,247.1,785.6,240.7,781,231.2Z"/><path class="cls-163" d="M701.7,232.7a11.2,11.2,0,0,1-.1,1.4c-8.8-3.1-11.1-8.7-11.4-18s-11.4-8.8-16.8-13.9c-2.5-2.3-5.2-2.4-8.4.4-5.3,4.6-6.7,11.5-11,16.5v-1.5c-1.7-3.1,1.5-5.1,1.9-7.7s4.1-7.1,6.1-10.7a71.9,71.9,0,0,1,8-7.8c4.4-3,8.4-6.7,12.8-9.9l1.9-1.1a22.3,22.3,0,0,1,6.5-1.6,6.4,6.4,0,0,1,4.2,1.1c9.4,7.9,20.2,9.1,31.9,7.5,4.8-.7,10-.4,13.5,4.1a2.8,2.8,0,0,1,.2,2.2c-1.7,1.6-3.7.9-5.6.6-17.6-2.8-28.8,2.4-37.8,17.7-3.9,6.1-2.9,11.5,2.2,16.4C700.8,229.6,702.6,230.5,701.7,232.7Z"/><path class="cls-163" d="M706.2,235.6h14.9A17.1,17.1,0,0,1,706.2,235.6Z"/><path class="cls-164" d="M740.5,192.4c-6.5-4.5-14.2-4.1-20.9-2.6-8.5,2-14.3-1.4-20.7-5.3-2.9-1.8-5.3-4.7-9.2-4.1-.8-2.8,1.5-4.9,1.8-7.4.3-4.1-3.9-4.7-5.7-7.1s-5.5-6.4-6-10.9c1-5.5,4.1-2.7,6.5-1.5,14.7,7.8,28.7,16.6,42.8,25.3,18.2,11.1,36.7,21.5,54.6,32.9,17.8,13.9,38.2,23.4,57.3,35.2,7.4,4.6,14.3,10.5,23.2,12.5-8.1,3.6-16.6,4.5-25.3,4.5-7.5-8.1-18-11.8-27-17.8S795,236,786.3,231.3a4.7,4.7,0,0,1-2.8-3.9c-.3-1.9-1.4-3.5-3.3-3.5-10.2,0-16.7-7.8-25-11.8-4.2-2-6.6-3.1-7.7,2.8a9.2,9.2,0,0,1-5.8,7.2c-2-3.4,1.7-5.9,1.4-9a19,19,0,0,1,2.1-6c2.4-2.9,2-5.7-.4-8.4A28.5,28.5,0,0,1,740.5,192.4Z"/><path class="cls-165" d="M783.7,211.7c-9-1.2-15.4-7.6-22.8-11.8-25.5-14.7-50.6-29.9-75.9-45-1.8-1.1-3.5-3.2-5.3.1-1-3.4-2.6-6.8-.6-10.4,2.6.5,2-2,2.5-3.1,3.1-6.4,5.1-7.2,11.4-3.8,4.8,2.6,9.2,5.7,14,8.3s5.1,6.4,6.5,10.3a36.4,36.4,0,0,0,6.5,7.8c10.6-.4,18.5,5.7,26.9,10.8,11.8,7.3,23.8,14.2,35.7,21.3a21.6,21.6,0,0,1,1.1,13.9Z"/><path class="cls-63" d="M595.8,119.3c.6-1.3,1.7-1.5,3-1.5,3.3-1.9,7.2.6,10.5-1.5h0c5-1.1,10.1-1,15.1-2.1a20.1,20.1,0,0,1,17.3,4,56,56,0,0,0,6.3,3.8c14.2,8.5,14.2,8.5,12,25,.1,1.9-.7,3.7-.8,5.6-1,3.4-2.3,6.8-2.1,10.5-2.6,4.9-.7,11.1-4.4,15.8-.5.7-1.1.6-1.6,0-.4-7.3,2.5-14,3.3-21.1.2-2.1.9-3.6-1.5-4.9Z"/><path class="cls-166" d="M712.2,158.1c-2.5-12.6-14.3-15.1-23.2-20-6.5-3.6-5.2,5-7.9,7.7a6.4,6.4,0,0,0-.9,2c-.3-.3-.7-.6-.8-1a15.5,15.5,0,0,1-.4-2.2l.2-2.7a10.3,10.3,0,0,0,3.1-7.6c3.1-1.8,3.6-6.1,7.1-7.6a37.3,37.3,0,0,1,7-6.5,7,7,0,0,1,8.3-.5c2.4,1.4,4.6,2.9,6.9,4.4,7.3,4.8,14.5,9.1,24,7a14.7,14.7,0,0,1,13.6,4.5c2.2,2.3,4.6,5,.7,8-12.6-8.8-21.3-7.7-31.9,3.7C714.9,150.1,714.9,154.8,712.2,158.1Z"/><path class="cls-167" d="M671.9,173.1c-.2,3.2-2.4,5.3-5.1,6.5s-2.6-1.3-2.1-2.6c1.2-3-.1-7.6,3.7-8.8C670.2,167.6,671.7,170.5,671.9,173.1Z"/><path class="cls-168" d="M671.9,186.5c4.8-4.8,9.5-9.6,16.4-11.3,2.9,5.1-2.4,4.9-4.5,6.7h0a44.3,44.3,0,0,1-10.3,6.6C672.3,188.3,671.5,187.8,671.9,186.5Z"/><path class="cls-169" d="M671.9,186.5l1.4,1.5c1.1,2.8-1.9,3-2.8,4.5l-7.6,7.4c-1.3.3-2,0-1.5-1.5A35.2,35.2,0,0,1,671.9,186.5Z"/><path class="cls-170" d="M683.7,181.8c.9-2.7,5.3-2.9,4.5-6.7.3-1.9,1.8-2.1,3.3-2.2,3.1,3.4-.8,5.1-1.8,7.4S686,182.3,683.7,181.8Z"/><path class="cls-171" d="M661.4,198.4l1.5,1.5-6.1,10.3c-1.3.3-2,.1-1.4-1.5A24.9,24.9,0,0,1,661.4,198.4Z"/><path class="cls-172" d="M650.8,192.4a42.5,42.5,0,0,1-2.7,13.5,1.4,1.4,0,0,1-1.8.2,4.1,4.1,0,0,1-.8-1.9,8.5,8.5,0,0,1,.2-2c.7-2.3.5-4.8.8-7.1a5.4,5.4,0,0,1,1.3-2.9A2.4,2.4,0,0,1,650.8,192.4Z"/><path class="cls-173" d="M650.8,192.4h-2.7a2,2,0,0,1-.1-2.9c2.5-3.1,3-6.7,3-10.4h1.6C653.5,183.7,650.7,187.8,650.8,192.4Z"/><path class="cls-174" d="M657.1,163.3c-2.5-3.6.1-6.6,1.1-9.7.5-.6,1-.7,1.5,0C659.3,156.9,658.9,160.3,657.1,163.3Z"/><path class="cls-175" d="M643.7,231.6l-1.2-3.4c-2.8-2.5-.9-4.9.3-7.2a1.6,1.6,0,0,1,2.1-.3C645.4,224.3,645.6,228.1,643.7,231.6Z"/><path class="cls-176" d="M662.9,135.5l.2,3.5c-.2,2.5-.3,5-1.8,7.1a1.2,1.2,0,0,1-1.9-.5C659.9,142.1,659.2,138,662.9,135.5Z"/><path class="cls-177" d="M646.7,205.8h1.4c-.2,4.2,0,8.6-3,12.1-1.6-1.3-1.6-3-1.5-4.8a12.6,12.6,0,0,1,.5-2C644.9,209.3,644.8,207,646.7,205.8Z"/><path class="cls-178" d="M655.4,208.7l1.4,1.5-2.9,7.5h-1.7C652.5,214.4,653.2,211.3,655.4,208.7Z"/><path class="cls-179" d="M659.9,146.2h1.4c.4,2.7-1,5-1.6,7.4h-1.5l.3-5.9C659,147.2,659.1,146.3,659.9,146.2Z"/><path class="cls-180" d="M645,211.7v6.2l-.2,2.7h-1.5C641.5,217.2,640.2,214,645,211.7Z"/><path class="cls-181" d="M648.1,189.5v5.9c-1.8,2.2.2,5.2-1.4,7.4v1.4a1.5,1.5,0,0,1-1.9.1c-8.9-6.7-17.1-14.7-29.3-15h-.1l4.6-23.9c3-1.7,5.8-1.9,8.8.4a46.7,46.7,0,0,0,9.4,5.6C645.9,175.1,652,179.4,648.1,189.5Z"/><path class="cls-182" d="M783.7,210.3c-2-4.3-1.4-8.9-1.5-13.4-2.1-1.4-3.4-3.1-1.9-5.7s3.2.8,4.3,2.1a19.5,19.5,0,0,1,1.9,4.9c.5,1.8-.7,4.3,2,5.2,3.3-1.5,3.9-5.3,6.6-7.3s3.9-4.2,6.6-5.4c7.1-6.2,14-5.4,20.9.6,5,4.3,10.2,5,16.1,1s10.7-3.6,16.3-4.3c2.5-.3,5.6-.9,6.5,3-2.7,2.7-6.4,2.3-9.7,3.1-11.1,2.7-20.4,7.6-24.8,19-2.3,3.9-2.7,7.9-.3,11.9s8.1,4.2,9.2,9.2q0,.7,0,1.5c-9.2-1.6-14.3-6.7-14.8-15.6-.2-3.5-1.5-5.4-4.5-6.8s-6.9-3.9-10.3-5.8c-5.7-3.2-11.6-9.3-16.4,1.4C788.9,211,785.9,210.1,783.7,210.3Z"/><path class="cls-182" d="M849.3,235.6q0,.7,0,1.4c-4.4-.7-9.2,1.5-13.4-1.5Z"/><path class="cls-183" d="M809.3,152.2l-.2-3.1c4.7-16.7,4.7-16.7,19.7-7.8a70.4,70.4,0,0,0,6.4,3.8c5.7,2.6,8.8,6.9,9.1,13.2.6,3.1,3.5,4.7,4.9,7.2,18.6,1.8,30.8,16.3,46.6,23.5,1.6.7,2.9,1.9,4.5,2.7,12.6,6.6,14.7,12.1,10.1,25.9-11.6-5.4-22.1-12.5-32.8-19.4-5.6-3-10.5-8.4-16.7-9.1-15.2-1.7-25.3-12.4-37.5-19.4C816.5,165.9,812.3,159.5,809.3,152.2Z"/><path class="cls-184" d="M898.4,167.8c8,3.9,14,9.6,16.6,18.4.8,1.9,1,3.4-1.8,3.3-3.9-5.7-7.6-11.4-13.7-15.1C896.8,172.8,895.6,170.5,898.4,167.8Z"/><path class="cls-185" d="M849.3,165.6c-3.5-.5-5.5-2.6-6-6s-3-8.8,1.9-12.2c1.5-.1,1.8.9,2.1,2,0,2.9-1.3,5.8-.1,8.7a7.8,7.8,0,0,0,1.6,2.1,11.9,11.9,0,0,0,2.5,1.3c7.5,2.1,14-.4,20.3-4.1a9.1,9.1,0,0,0,4.4-5.9,6.7,6.7,0,0,1,2.7-4.2,1.9,1.9,0,0,1,1.9.2v6C873,165.1,861.6,166.7,849.3,165.6Z"/><path class="cls-186" d="M913.1,189.5c1.4-.7,1.7-2,1.8-3.3,3,3,.1,7.5,2.6,10.6l-2.3,1.6Z"/><path class="cls-187" d="M639.1,243.1l-.5,11.7c-.8-.5-2.2-1.3-2.2-1.5,3.3-7.5-2.5-9-7.2-11.6s-8.4-5-12.5-7.6-6.5-3.3-10.3-1.5l4.4-19.4c2.1-6.5,3.8-7.3,9.9-4.2s9.6,6.1,14.6,8.5,7.5,7.1,5.7,12.6S640.6,238.9,639.1,243.1Z"/><path class="cls-47" d="M825.5,212.8c6.1-16.8,19.8-21.1,35.7-21.7,11.2.1,15.6,4.6,15.6,15.9l-.8,4.1a16.5,16.5,0,0,1-5.3,9c-1.6,1.6-3.2,3.3-5.4,4-7.5,5.8-16.1,7-25.2,6-6.1-.7-11.5-2.8-14.5-8.8C824.6,218.4,824.1,215.6,825.5,212.8Z"/><path class="cls-188" d="M876.8,207c.6-11-7.6-13.4-15.6-15.9s-16-.7-22.3,3.2-11.2,3.2-16.5-1c-1.7-1.4-4.4-1.8-5.7-3.4-3.5-4.3-6.7-2.6-10-.1-1.6,1.2-3,2.6-5.3,2.4,1.5-6.9,7.4-9.6,12.5-13.1,2.6-1.1,5.4-2,5.7-5.5,4-2,1.7-3.3-.4-5-5.3-4.3-9.5-9.3-9.9-16.6,9.8,17.7,29.1,23.5,44,34.8,2.4,1.8,6.6,1.3,10,1.9a20.6,20.6,0,0,1,14.3,9.4C877.3,201.2,878.3,204.2,876.8,207Z"/><path class="cls-189" d="M826.8,220.6c7.3,7.7,19.6,10.1,29.7,5.8,3.1-1.3,6.1-2.9,9.1-4.3a2.6,2.6,0,0,1,.1,3.3l-3.4,2.7c-8.7,4.1-17.5,7.2-27.5,4-4.5-1.5-7.9-3.8-9.8-8.1C824.6,222.2,824.3,220.7,826.8,220.6Z"/><path class="cls-190" d="M825.5,223.6q10.7,13.7,29.9,6.6c2.3-.9,4.4-2.4,7-2.1-7.8,6.8-17.3,6-26.6,6-3.6-2.8-9.4-3-10.6-8.7A1.2,1.2,0,0,1,825.5,223.6Z"/><path class="cls-191" d="M870,219l6-7.9c.1,3.9-.7,7.4-4.3,9.7A2,2,0,0,1,870,219Z"/><path class="cls-192" d="M870,219l1.7,1.8c-1.4,2.3-3.1,4.2-5.9,4.7v-3.3Z"/><path class="cls-67" d="M659.9,146.2l-1.4,1.5c0-1-.3-2.1,0-2.9,5.4-11.8-2.4-16.4-11.1-20.6S633.6,112.8,624,115a62.5,62.5,0,0,1-14.7,1.3c11.5-3.3,23.6-3.6,35.3-5.8,5-1,10.2-1.3,15.3-2.3,8.9-1.7,9.4-1.2,7.7,7.5a33.3,33.3,0,0,0-.3,3.7c-1.6,1.6-1.2,3.7-1.3,5.7a18.1,18.1,0,0,0-3,10.5C660.9,138.8,660.4,142.5,659.9,146.2Z"/><path class="cls-67" d="M609.3,116.3c-3.1,2.9-7,1-10.5,1.5C602,115.3,605.8,116.7,609.3,116.3Z"/><path class="cls-193" d="M639.1,243.1c0-3.2-.9-6.9.3-9.6,3.5-8.3-.7-12.3-7.3-15.6-4.2-2.1-8.5-4.2-12.2-7.1s-6.9-1.7-9.1,2.4l4.5-23.9c1.7-1.2,2.7-3.9,5.5-2.3,7.9,4.5,15.8,9.1,23.5,13.8.7.4.5,2.3.7,3.5a8.6,8.6,0,0,1,0,7.4h0c-2.6,2.6-1.2,5.9-1.5,8.9l-1,7.5c-1,4.9-2.3,9.7-2.1,14.7Z"/><path class="cls-194" d="M849.2,107.4c19.6-10.3,47.3-10.3,64.3,4.3,7.5,6.4,12.4,17.4,4.4,31.5.4-3.8-1-6.2-4.4-8.5-15.5-10.6-32.7-18.3-47.9-29.3-2.2-1.6-4.7-1.1-7.1-.3S852.5,107.6,849.2,107.4Z"/><path class="cls-195" d="M846.6,147.6c-5.4,2.8-2.6,7.9-3.3,12-2.4-14.5-16.5-15.5-25.6-22.3-2.6-1.9-3,1.3-4,2.8s-1.6,6.8-4.5,9.1a28,28,0,0,1,.6-10.3c3.4-1.4,3.7-4.9,5.3-7.5l3-4.5,9-7.5c2.5-.9,3.8-4.9,7.4-3,11.1,7.3,20.8,17.2,35.8,16.6,9.1-.4,13.2,6.2,10.4,14.6h-1c-6.7-12.3-17-13.5-27.8-3.4C850.3,145.5,849.3,147.9,846.6,147.6Z"/><path class="cls-194" d="M834.4,116.3l-7.4,3-.3-1.5c2.8-1.7,5.8-3.1,7.8-5.9l4.3-1.6,3,.2C839.9,113.1,835.7,112.9,834.4,116.3Z"/><path class="cls-74" d="M861.2,99.9c11.9-4.2,23.8-5,35.7.1C885,97.6,873.1,98.4,861.2,99.9Z"/><path class="cls-75" d="M908.4,104.6c3.5-.3,5.3,1.6,6.3,4.7A16.4,16.4,0,0,1,908.4,104.6Z"/><path class="cls-196" d="M749.7,143.2c2.9-5-1.6-6.7-4.4-8.4s-6.7-3.1-10-1.9c-9.3,3.3-16.8-1-23.1-6.4-8.2-7.1-15.2-6.9-22.7.2l1.7-4.4a38.2,38.2,0,0,1,10-6.3c4.9-4.2,10.3-7.8,16.7-9.2q31.6,19.8,64.2,38.1c1.7,1,3.4,2,4,4.1A32.2,32.2,0,0,1,775,160.1c-6.7,4.3-13.5,5.4-20.4.3-2-1.5-4.8-1-7-2.1a4.9,4.9,0,0,1-1-3.1,53.3,53.3,0,0,0,.8-6.7C747.7,146.4,747.8,144.4,749.7,143.2Z"/><path class="cls-197" d="M718.1,107.4l-16.8,8.6a1.5,1.5,0,0,0-.3-1.2l9.9-7.3,14.7-6.2c4.3-1.7,9-1.9,13.5-2.9,10.3-.2,20.7-1,30.6,2.6s16.6,8.6,21,17.4c.7,1.5,1.5,2.5,3.2,2.5a25.9,25.9,0,0,0-.6,14.7c-.9,3.4-1.8,6.9-5,9.1-4.9-2.7-.8-5.8-.4-8.7,3-8.4.6-15.6-5.3-21.7-9.5-9.8-21.9-12-34.7-11.8-4.3.1-8.9.1-13.1,1.8S724.2,109.5,718.1,107.4Z"/><path class="cls-81" d="M739.1,98.5a37,37,0,0,1-13.5,2.9C729.6,98.2,734.3,98.3,739.1,98.5Z"/><path class="cls-198" d="M745,94.2h13.4A15.1,15.1,0,0,1,745,94.2Z"/><path class="cls-9" d="M119.1,140.5l3.5-5.9,6.5,25.3c4.1,6.1,3.9,13.6,6,20.3s3.6,12.9,2.8,19.7c-.2,1.1.1,2.5-1.3,3.2-4.1,3-9.1,2.3-13.6,2.6-9.8.6-19.5,3.5-29.4,1.5a4.6,4.6,0,0,1-2-1.5c.8-8.1,5.6-14.9,7.9-22.5,2.6-6,5.3-12,7.7-18.2s5-12.1,7.6-18.2C115.9,144.5,116.3,141.7,119.1,140.5Z"/><path class="cls-199" d="M163.6,158.3a178.6,178.6,0,0,1,8.9,34c-2.3-7-6.4-8.7-13.3-5.4-4.6,2.2-9.8,3.2-14.8,4.5s-5.3,3.1-4.7,6.9c-1.7.4-2-.7-2.2-2-.8-5.6-2.1-11.1-3.3-16.6-1.6-7.3-.1-9.6,6.9-12.2S157.2,164,163.6,158.3Z"/><path class="cls-91" d="M92.2,204.4q0,.6-.1,1.3c1.5,2,.9,4-.1,5.9-11,1.2-21.2,5.5-31.8,8.5-3.8,1.1-7.5,2.5-11.6,1.9a72.3,72.3,0,0,1,8.9-20.9c9.5-4.9,19.9-7.1,30.2-9.6,6.5-1.6,8.5,1.5,6.1,7.9C93.4,201.2,92.9,202.8,92.2,204.4Z"/><path class="cls-200" d="M163.6,158.3c.3,3.6-1.6,5.2-4.9,6.1-6.1,1.6-12.1,4-18.3,5.4-4.1.9-5.5,2.9-5.1,6.6.9,7.4,2,14.8,4.4,22l-1.8,1.6a86.1,86.1,0,0,1-4.2-19.4c-1.1-8.5-3.3-16.8-3.8-25.4-.2-4.4,1.5-7,5.4-8.4s6.5-2.6,9.8-3.2a15.6,15.6,0,0,0,12.4-9.2C161.6,141.8,161.4,150.4,163.6,158.3Z"/><path class="cls-99" d="M180,222.2a104.9,104.9,0,0,1,5.9,23.9c-8.7,2.5-17.5,4.8-26.2,7.7-3.9,1.3-5.7-.1-6.6-3.3-1.6-5.9-4.6-11.5-4.5-17.8,1.9,3.7,4.1,5.4,8.8,3.4a92.1,92.1,0,0,1,16.3-4.9C178.9,229.9,181,227.3,180,222.2Z"/><path class="cls-201" d="M92.1,211.7c-1.3-2-.5-4,.1-5.9,12.2.2,24.3-1.8,36.5-2.7,2.7-.2,5.4,0,8,0,.5,5-3.4,4.7-6.4,5Z"/><path class="cls-99" d="M104,234.1c-3.7,3-8,.8-11.9,1.5C95.8,232.6,100.1,234.7,104,234.1Z"/><path class="cls-99" d="M120.4,232.6c-3.1,2.8-7,.9-10.4,1.5C113.1,231.2,116.9,233.2,120.4,232.6Z"/><path class="cls-99" d="M136.8,231.1c-3.1,2.8-7,.9-10.4,1.5C129.5,229.8,133.3,231.7,136.8,231.1Z"/><path class="cls-99" d="M87.6,235.6c-2.6,2.7-6,1-8.9,1.5C81.3,234.4,84.6,236.1,87.6,235.6Z"/><path class="cls-202" d="M420.1,186.4l-.3,5.7-1.2.4c-2.1-5.3-5.3-6.3-10.9-4.3-11.3,4-23.2,6.7-34.5,10.8-6,2.2-12.1,1.3-18.3,1.5-8.1.5-16.3-1-24.4.8h-8.9c9.6-5.2,20.5-6.9,30.3-11.5l-.3-1.9c-6,0-12,.1-18-.1-2.5-.1-5.5,1.2-7.4-1.8,2.3-1.9,5.1-1.9,7.8-1.8,14.4.6,28.7-2.3,43.1-1.6,2.1.1,4.6.6,5.9-1.9s.8-6.8.7-10.3c-.3-7.5-4.1-12.3-11.3-14.7-13.6-4.5-28.1.7-36.4,12.5-2.6,3.6-3.2,8.8-8.2,10.7.2-15.2,16.3-29,33.3-29.7s22.4,3.7,28,18.3c.8,2,1.6,4.6,4.6,3.7,7.1-2.1,14.1-4.5,21.1-6.8,1.6-.5,2.2-1.9,2.4-3.5l2.6,6.5.5,8.7Z"/><path class="cls-203" d="M327.8,178.9c6.1-13.8,14.7-24.6,31-26.5a34.7,34.7,0,0,1,16.1,1.9c9.5,3.4,12.9,12.1,10.5,26.3-1.9,1.9-4.4,2.1-6.9,2.1-14.2-.1-28.5.4-42.7.1-2.9-.1-6,.1-8.2-2.4Z"/><path class="cls-204" d="M327.6,180.4h48.1c3.2,0,6.4.2,9.6.3-.2,3.3-1.9,4.7-5.3,4.7l-53.9.7-.5-2.6Z"/><path class="cls-129" d="M341,131.4c16.9-6,33.8-7.3,50.6.2C374.7,126.9,357.9,128.7,341,131.4Z"/><path class="cls-205" d="M426,238.6c1.9,2.1,3.7,3.4,7,2s9.1-2.3,13.4-4.1c6.5-2.7,11.2-1.9,13.9,5.1-7,2.1-14,4.2-21,6.2C430.1,250.3,427.7,248.5,426,238.6Z"/><path class="cls-206" d="M494.6,237.4c-7.3,5.1-15.5,6.8-24.2,5.9-4.3-.4-8.1-1.7-10.3-5.9-.8-1.7-.7-3.2,1.3-4,10.1,3.5,20.1,4.8,30.1-.2a4.5,4.5,0,0,1,4.3.4,1.4,1.4,0,0,1,.3,2.1Z"/><path class="cls-207" d="M496,235.7v-1.8c-.6-3.3,2.2-4.6,3.9-6.6a5.4,5.4,0,0,1,3.8-1.4c1.1.3,1.9.8,1.4,2.2l-6.3,7.4Z"/><path class="cls-208" d="M119.1,140.5a171.7,171.7,0,0,1-10.5,25.1c-3.5-8.1-3.5-8.1-13.1-5.5-4.7,1.3-9.2,3.5-14.1,3.9-2.8.2-7,1.3-5.7-4.3l3.1-8.9c2.4-3.3,2.6-7.7,5.8-10.6.4,3.2,2.2,3.1,4.8,2.3,6.8-2.1,13.7-3.7,20.4-5.9C114.4,134.9,117.4,135.9,119.1,140.5Z"/><path class="cls-209" d="M157.7,134.3c1.2,6.2-1.9,8.8-7.6,10.3-21,5.3-20.9,5.4-16.7,26.4.6,3.1.3,6.4.5,9.6a98.1,98.1,0,0,1-4.6-20.6c.2-6.4-1.2-12.7-2.4-18.9-1.6-8.5-.5-10.6,7.7-12.7l5.7-1.5c11.7-3.7,11.7-3.7,11.6-15.1C155.1,118.9,156.2,126.6,157.7,134.3Z"/><path class="cls-210" d="M551.1,146.2l.3,3c-8.2-1.5-14.9,4-22.5,5.3-3.5.6-5.9.9-9.3-1.2a31.7,31.7,0,0,0-17.6-4.1c6.1-6.6,15.1-5.7,22.5-9,2.7-1.2,7.7-.4,5.8-6,3.5-1.8,6,.6,8.8,1.9C543.3,139.2,547.8,142,551.1,146.2Z"/><path class="cls-123" d="M539.1,136l-8.8-1.9-5.8-1.5c-2.3-1.6-5.1,0-7.5-1.2-13.1-2.8-26.1-1.2-39,1.5l-7.2,1.4c14.1-6.9,29.1-7.1,44.1-5.4C523.2,129.9,532.2,129.6,539.1,136Z"/><path class="cls-210" d="M517,131.5c2.6-.3,5.2-.6,7.5,1.2C522,132.4,519.2,133.6,517,131.5Z"/><path class="cls-9" d="M503.6,226.6l-2.7,1.8c-7.3,4.4-14.4,9-23.6,8.8-6.2-.1-11.6-1.2-16.3-5.3a7.1,7.1,0,0,1-1.4-1.7c-.9-1.6-.7-3.5-1.4-5.2s.4-3.3,2-4.3c3.9-10.1,12.9-12.9,22.1-15s21.4-2.9,32.5-7.6L510.9,216c-1,2-1.5,4.1-2.5,6.1S505.6,225.5,503.6,226.6Z"/><path class="cls-211" d="M461.8,234c-1.4.7-1.5,2.1-1.7,3.4-2-1.8-2.1-4.1-1.8-6.5s.6-1.7,1.8-1.1l.4-.2C460.8,231.1,462.6,232.1,461.8,234Z"/><path class="cls-212" d="M507.7,221.6l3.2-5.6a10.4,10.4,0,0,1-3,7.9A1.7,1.7,0,0,1,507.7,221.6Z"/><path class="cls-85" d="M460.2,220.7c-.2,1.5-2,2.5-1.4,4.2s1.2,3.2-1.5,3.3C457.9,225.6,455.4,221.8,460.2,220.7Z"/><path class="cls-213" d="M507.7,221.6l.3,2.3-3,4.2-1.4-1.4Z"/><path class="cls-214" d="M457.3,228.2l1.5-3.3c2.2,1.2,1.4,3.1,1.2,4.8l-1.8,1.1Z"/><path class="cls-215" d="M555.1,163.9l.4,3.2c-3.3,4,.6,9.5-2.9,13.5.1-5.7-3.6-4.9-7.1-3.9-21.7,6.5-43.3,13.5-65.1,19.6-15.6,4.4-30.7,10.8-47,12.5,6.6-10.2,17.3-13.2,28-16.4,15.2-4.4,31-4.8,46.4-7.5,10.3-1.8,13.5-4.7,15-13.4,9.2-2.6,18.3-5.2,27.4-7.9C552.1,163,553.6,162.9,555.1,163.9Z"/><path class="cls-216" d="M92.2,204.4c1.6-13.4,1.6-13.4-12.4-8.8-7.3,2.3-14.4,5.3-22.1,5.6,1.7-7.5,5.5-14.1,9-20.9,7.7-2,15.4-4,22.9-6.5a23.9,23.9,0,0,1,5.1-1.1c7.2-.8,8.7.9,7.1,7.8a8.7,8.7,0,0,1-.7,2.9C98.9,190.7,96.3,197.9,92.2,204.4Z"/><path class="cls-217" d="M101.2,183.4c.3-10-.8-10.7-10.8-7.6l-17.6,5.4c-2.2.7-4.3,1.4-6-.8,1.8-7.5,5.5-14.1,9-20.8,1.1,4.6,4.4,3,7,2.3,5.9-1.6,11.7-3.5,17.6-5.3,8.5-2.6,9.2-2.1,8.2,6.7a14.5,14.5,0,0,0,.1,2.2A84.3,84.3,0,0,1,101.2,183.4Z"/><path class="cls-218" d="M355.9,199.8c12.7,1.8,22.9-6.3,34.6-8.5,6.2-1.2,12.3-3.5,18.4-5.4,9.5-3.1,9.5-3.1,9.7,6.6l-.6,8.6c-5.1-3.3-10.1.5-15.2.3-15.6-.4-31.2-.1-46.9-.1q-.7-.5-.5-1T355.9,199.8Z"/><path class="cls-96" d="M355.9,199.8v1.5H330.6C338.9,198.1,347.5,200.6,355.9,199.8Z"/><path class="cls-219" d="M718.1,107.4l16.3-4.5c4.3-1.6,8.1-.6,11.8,1.9,12.5,8.3,25.6,15.7,38.5,23.3,3.4,2,7.2,3.9,5,9a7.6,7.6,0,0,0-1.4,7.7l-2.1,4.2c-21.2-11.2-41.6-23.8-62.1-36.2C721.7,111.4,719.3,110.1,718.1,107.4Z"/><path class="cls-220" d="M747.8,158c2.5-1.4,4.8-1.6,7.4.4,5.7,4.3,11.8,6.1,18.1.8.2-.1,1.1.6,1.6.9l-7.9,6.9c-1.6,6.8,4.7,7.9,8,11.1a11.3,11.3,0,0,1,2.2,2.2c1.5,3.3,5.6,5.9,3.5,10.4a10,10,0,0,0,1.4,6.1c-15.7-6.2-29.4-16.2-43.7-25-5-3.1-9.6-5.7-15.7-4.9-1.7.2-3.5.2-4.7-1.5.4-.3.7-.9,1.1-.9C729.2,164.3,738.6,161.4,747.8,158Z"/><path class="cls-221" d="M801.6,173.2a8.7,8.7,0,0,1-8,6.7c-4.5,0-7.7-5.3-7.5-8.4s5.4-9.6,8.9-9.3S799,169.6,801.6,173.2Z"/><path class="cls-222" d="M776.1,180.6l-1.5-1.5c-2.4-1.8-4.5-3.9-6.8-5.7s-2.6-4.1,1-5.1a27.7,27.7,0,0,1,15,15.2c1,1.6.7,2.8-1,3.6C778.9,186.6,778.7,182.3,776.1,180.6Z"/><path class="cls-223" d="M815,180.3c-4.8,3.7-10,6.9-13.6,12l-5.8,4.6c-1.3.2-2-.2-1.5-1.6,6.2-7.9,12.6-15.4,22.1-19.5,1-.4,1.9-.3,1.9,1S816.4,179.4,815,180.3Z"/><path class="cls-224" d="M794,195.2l1.5,1.6c-2.2,3.2-3.6,7.1-7.5,8.8-4.3-1.4-1-5-2.1-7.4s-.7-3.4,1-4.7l1.7,6.9C791.4,199.9,791.4,196.2,794,195.2Z"/><path class="cls-225" d="M786.9,193.6l-.4,4.7c-.5.7-.9.7-1.4,0l-1.3-4.5c-.6-2.4-2.9-4.5-1.6-7.4,1.3-.6,1.5-1.8,1.7-3C786.2,186.4,786.9,189.9,786.9,193.6Z"/><path class="cls-226" d="M768.8,168.2c-2,2-1.5,3.6.7,5.2s4.5,2.7,5.1,5.6c-3.5-.4-5.3-3.4-8-5.1s-2.6-4.8.4-7Z"/><path class="cls-227" d="M815,180.3c-.1-1.6,3.8-2.3,1.1-4.6l3.4-2C822.1,178.7,818.4,179.4,815,180.3Z"/><path class="cls-228" d="M701.7,232.7c-9.5-7.9-10.5-11.1-6.2-20.7,2.9,2.4,2,5.8,2.5,8.8,2.3,7.2,9.5,10.9,18.3,9.5,4.7-.7,9-3,13.8-3.1a2.8,2.8,0,0,1,1.7,1.2C722.5,235.5,712.2,234.8,701.7,232.7Z"/><path class="cls-229" d="M745,212.8c.8,3.7-2.5,6.1-3.2,9.3l-5.7,3.5c-1.1-1.4-.6-3-.5-4.5C738.6,218.1,740.5,214,745,212.8Z"/><path class="cls-228" d="M735.8,222c1.8,1,.2,2.4.3,3.5a5.9,5.9,0,0,1-4.3,2.9l-.4-.5c-.3-1.2.7-2.5-.2-3.7C732.2,222.3,733.6,221.4,735.8,222Z"/><path class="cls-47" d="M735.8,222l-4.6,2.8c-11,8.5-27.1,7.2-35.3-3l-.4-9.8c8-17.6,24.8-24.3,44.9-17.9,4.7,3.1,9.2,6.3,6.3,13.1l-1.7,5.6Z"/><path class="cls-162" d="M746.7,207.2c.5-5.6-2.3-9.7-6.3-13.1v-1.7a21.7,21.7,0,0,1,7.3,7.2C749.5,202.4,750.4,205.1,746.7,207.2Z"/><path class="cls-170" d="M670.5,192.5l2.8-4.5c3.4-2.2,6.3-5.1,10.5-6.1C680.3,186.5,675.6,189.8,670.5,192.5Z"/><path class="cls-230" d="M747.8,158c-8.7,7.4-18.9,8.6-29.7,7.4l-5.9-7.4c-.2-4.7,1-8.8,4.7-11.9,1.1,1.2,1.1,2.6.9,4s-1.6,5.8.4,8.5c4.8,5,10.2,3.6,15.7,1.8,3.5-1.2,6.6-3.3,9.8-5.1,1.3-.6,2.7-1.1,4.1-.4Z"/><path class="cls-231" d="M716.2,150.7l.7-4.5c5.6-7.4,12.9-11.4,22.3-10.7,4.9.4,9.1,2.2,10.5,7.7l-.5,5.6a12.3,12.3,0,0,1-6.4,7.5c-8.2,4.6-16.5,7.9-25.3,1.2A7.4,7.4,0,0,1,716.2,150.7Z"/><path class="cls-180" d="M645.1,211.7v-7.4h1.4l.3,1.6C646.2,207.8,647.3,210.2,645.1,211.7Z"/><path class="cls-180" d="M646.6,202.8c.2-2.5-.9-5.3,1.4-7.4C647.8,197.9,648.9,200.7,646.6,202.8Z"/><path class="cls-226" d="M782.1,186.5l1.6,7.4-2.9-3.1c-.1-4.1-4-6.3-4.7-10.1C779.5,181.2,780,184.6,782.1,186.5Z"/><path class="cls-232" d="M825.5,223.6l-.3,1.8c-3.1-4.3-3-8.5.2-12.6l1.4,7.8A2.8,2.8,0,0,0,825.5,223.6Z"/><path class="cls-233" d="M785,198.4h1.4c.6,2.5-.9,5.3,1.6,7.4-1.6,1.9-2.6.8-2.8-.8A52.8,52.8,0,0,1,785,198.4Z"/><path class="cls-234" d="M846.6,147.6c5.2-8.5,12.7-12.8,22.7-12.1,7.5.5,10.6,4.3,10.3,12l-2,3.8c-.8,3.2-3.8,4.3-5.9,6.3s-7,2.3-10.6,3.2-6.7-.3-9.9-1.4a9.6,9.6,0,0,1-4.4-3.4c-.5-1.7-1.7-3.3-.7-5.3Z"/><path class="cls-235" d="M861.1,159.4l10.1-3.2c1.6-.4,2.2.4,2.1,1.9-7.3,5.3-15,8.1-23.9,4.1.6-3.3,3-2.5,4.9-1.8s4.6.4,7,.1-.4.4.5,0S861.6,159.6,861.1,159.4Z"/><path class="cls-236" d="M861.1,159.4l2.8.5c-4.3,4.3-9.9.6-14.6,2.3l-1.5-1.2c-1.2-3.2-.2-4.2,2.9-3Z"/><path class="cls-237" d="M873.2,158.1l-2.1-1.9,6.4-4.9C877.8,154.6,875.9,156.6,873.2,158.1Z"/><path class="cls-238" d="M846.1,150.7l1.5,4.4c-.7,1.4.2,3.3-1.3,4.5A6.9,6.9,0,0,1,846.1,150.7Z"/><path class="cls-239" d="M846.2,159.6c.2-1.6-.3-3.4,1.3-4.5l3.2,3a2.8,2.8,0,0,0-2.9,3Z"/><path class="cls-221" d="M843.4,222.1c-3.2.2-4.9-.6-6.1-2.3s-.3-3.6.8-4.6c5.5-4.8,11.6-8.3,19.2-7.7,2,.2,4,.8,4.9,2.8s-.9,3.6-2.3,5C855.1,219.9,848.7,220.9,843.4,222.1Z"/><path class="cls-240" d="M743.3,154.9l5.8-6.1a9.1,9.1,0,0,1-1.3,6.3l-3.1,1.3C744.2,156,743.3,155.9,743.3,154.9Z"/><path class="cls-241" d="M789.6,137.2c.3-3.1-1.1-4.9-3.9-6.4-14.7-8.4-29.7-16.5-43.5-26.6-2.5-1.8-5.2-1-7.9-1.3,18.7-4.6,36.2-3.2,50.5,11.2C791.3,120.4,793.1,128.5,789.6,137.2Z"/><path class="cls-242" d="M461.8,234l-1.4-4.5c9.4,8.9,19.8,7.5,30.7,3.3,3.4-1.3,5.7-4.8,9.8-4.5l-5,5.5c-7,.9-13,5.5-20.5,4.8C470.3,238.2,465.8,237.3,461.8,234Z"/><path class="cls-243" d="M695.9,221.8c11.1,8.5,23.1,7.6,35.3,3,1.7.9.8,2,.1,3-8.8,2.8-17.4,7-26.9,2.9C700.3,229,696.2,227.1,695.9,221.8Z"/><path class="cls-244" d="M714.5,222.2c-3.5,0-6.6-.1-7.8-2.9s1.8-5,3.9-6.4c5.2-3.4,10.8-6.2,17.3-5.4,1.9.2,4.1.8,4.7,3s-1.1,3.7-2.7,4.8C725.1,218.8,720,221.8,714.5,222.2Z"/><path class="cls-245" d="M743.3,154.9l1.5,1.5c-6.2,5.3-13.2,8.4-21.6,7.3-2.7-.4-5.2-1.4-6.7-4.1s-1-3.3,1.8-3.2C727,162,735.1,157.9,743.3,154.9Z"/><path class="cls-246" d="M718.3,156.4c-1.4.7-1.6,1.9-1.8,3.2-2.6-2.9-2-5.9-.3-9Z"/></svg>