<svg version="1.1" viewBox="0 0 1638.7 417.7" xmlns="http://www.w3.org/2000/svg"><defs><style>.cls-1,.cls-4{fill:none;stroke-miterlimit:10;stroke-width:8px;}.cls-1{stroke:#000;}.cls-2{fill:url(#b);}.cls-3{fill:url(#a);}.cls-4{stroke:#ffab19;}.cls-16,.cls-5{fill:#d58019;}.cls-10,.cls-11,.cls-12,.cls-13,.cls-14,.cls-15,.cls-20,.cls-21,.cls-22,.cls-23,.cls-24,.cls-25,.cls-26,.cls-27,.cls-28,.cls-29,.cls-31,.cls-32,.cls-33,.cls-34,.cls-35,.cls-36,.cls-5,.cls-6,.cls-7,.cls-8,.cls-9{fill-rule:evenodd;}.cls-6{fill:#f9a719;}.cls-7{fill:#fdc04a;}.cls-17,.cls-8{fill:#ffcc02;}.cls-9{fill:#ffdd7f;}.cls-10,.cls-18{fill:#ffe56f;}.cls-11{fill:#00a551;}.cls-12{fill:#5fba46;}.cls-13{fill:#a3ce59;}.cls-14{fill:#008b44;}.cls-15{fill:#00793a;}.cls-19,.cls-22{fill:#f7971d;}.cls-20{fill:#df724e;}.cls-21{fill:#ffdc52;}.cls-23{fill:#f9b39a;}.cls-24{fill:#f59073;}.cls-25{fill:#fbd2c0;}.cls-26{fill:#35180c;}.cls-27{fill:#d72754;}.cls-28{fill:#f05b66;}.cls-29{fill:#f59b95;}.cls-30{fill:#351806;}.cls-31{fill:#4b2028;}.cls-32{fill:#86715b;}.cls-33{fill:#250002;}.cls-34{fill:#44b549;}.cls-35{fill:#8ec63e;}.cls-36{fill:#006c32;}</style><linearGradient id="b" x1="1438.4" x2="1438.4" y1="463.4" y2="204.07" gradientTransform="translate(0,11)" gradientUnits="userSpaceOnUse"><stop stop-color="#b3b3b3" offset="0"/><stop stop-color="#fff" offset=".5"/><stop stop-color="#b3b3b3" offset="1"/></linearGradient><linearGradient id="a" x1="741.92" x2="741.92" y1="463.4" y2="204.07" gradientTransform="translate(0,11)" gradientUnits="userSpaceOnUse"><stop stop-color="#af5403" offset="0"/><stop stop-color="#fe9718" offset=".5"/><stop stop-color="#af5403" offset="1"/></linearGradient></defs><title>logo</title><g transform="translate(-2.9991 -130.98)" data-name="Layer 1"><g data-name="138 copy 3"><path d="m1288.3 227.46a96.22 96.22 0 0 1-20.92 19.5 101.4 101.4 0 0 1-30 14.09l6.48 23.84 27.57-6.5-28.85 208.4h42.23l34.2-247-26.3-12.28zm138 0h-24.9q-51.12 0-57.27 44.42l-4 28.9h42.67l3.65-26.37q2.11-15.17 19-15.17h5.78q19.11 0 17 15.17l-6.8 49.12q-2.36 17-27.24 17h-6.23l-4 29.26h11.56q24.88 0 22.54 17l-7.4 53.46q-2.1 15.17-21.21 15.17h-9.78q-16.9 0-14.8-15.17l2-14.09h-42.67l-2.3 16.62q-6.1 44.07 45 44.06h28.9q51.1 0 57.22-44.06l7.8-56.35q3.55-25.63-28.79-32.87 28.75-5.42 32.16-30l7.15-51.65q6.08-44.44-45.04-44.45zm164.22 0h-26.23q-51.12 0-57.27 44.42l-7.1 51.29q-3.62 26 26.32 31.43-34.79 7.23-38.09 31.06l-7.9 57.07q-6.1 44.07 45 44.06h32.46q51.1 0 57.22-44.06l7.85-56.71q3.3-23.83-26.82-31.06 28.77-5.41 32.36-31.43l7.15-51.65q6.17-44.41-44.95-44.42zm-10.7 160.73-6.7 48.4q-2.6 18.78-21.71 18.78h-11.12q-19.11 0-16.51-18.78l6.75-48.76q2.45-17.7 27.39-18.06 24.45 0 21.9 18.42zm12.15-110.19-6 43.34q-2.19 15.9-21.66 18.42h-4.89q-19.12 0-16.52-18.78l6-43q2.61-18.78 21.72-18.79h4.89q19.05 0.05 16.46 18.81z"/><path class="cls-1" d="m1288.3 227.46a96.22 96.22 0 0 1-20.92 19.5 101.4 101.4 0 0 1-30 14.09l6.48 23.84 27.57-6.5-28.85 208.4h42.23l34.2-247-26.3-12.28zm138 0h-24.9q-51.12 0-57.27 44.42l-4 28.9h42.67l3.65-26.37q2.11-15.17 19-15.17h5.78q19.11 0 17 15.17l-6.8 49.12q-2.36 17-27.24 17h-6.23l-4 29.26h11.56q24.88 0 22.54 17l-7.4 53.46q-2.1 15.17-21.21 15.17h-9.78q-16.9 0-14.8-15.17l2-14.09h-42.67l-2.3 16.62q-6.1 44.07 45 44.06h28.9q51.1 0 57.22-44.06l7.8-56.35q3.55-25.63-28.79-32.87 28.75-5.42 32.16-30l7.15-51.65q6.08-44.44-45.04-44.45zm164.22 0h-26.23q-51.12 0-57.27 44.42l-7.1 51.29q-3.62 26 26.32 31.43-34.79 7.23-38.09 31.06l-7.9 57.07q-6.1 44.07 45 44.06h32.46q51.1 0 57.22-44.06l7.85-56.71q3.3-23.83-26.82-31.06 28.77-5.41 32.36-31.43l7.15-51.65q6.17-44.41-44.95-44.42zm-10.7 160.73-6.7 48.4q-2.6 18.78-21.71 18.78h-11.12q-19.11 0-16.51-18.78l6.75-48.76q2.45-17.7 27.39-18.06 24.45 0 21.9 18.42zm12.15-110.19-6 43.34q-2.19 15.9-21.66 18.42h-4.89q-19.12 0-16.52-18.78l6-43q2.61-18.78 21.72-18.79h4.89q19.05 0.05 16.46 18.81z"/></g><g data-name="berkah copy 3"><path d="m374 227.46h-72.9l-35.93 259.33h85.83q48.45 0 53.81-38.65l9-65q3-21.67-31-29.62l0.25-1.8q31.38-5.06 34.47-27.45l6.91-49.85q6.45-46.96-50.44-46.96zm-3.4 159.28-8 57.43q-1.54 11.2-18.44 11.2h-32l12.05-87.05h23.56q25.39 0 22.83 18.42zm10.66-109.08-5.6 40.46q-2.61 18.78-27.05 18.78h-20l10.8-78h25.34q19.1-0.02 16.51 18.76zm119.74-18.78h63.13l4.35-31.42h-105.85l-35.9 259.33h105.8l4.35-31.42h-63.12l11.95-86.37h56l4.35-31.42h-56zm173.47-31.42h-83.62l-35.91 259.33h42.68l14.5-104.74h25.79l13.5 104.74h40.46l-14.87-107.99q26.6-9 31.29-43l8.86-63.93q6.18-44.4-42.72-44.41zm-0.73 50.2-7.75 56q-2.61 18.78-21.72 18.78h-28l13-93.55h28q19.02-0.01 16.43 18.77zm205.41-50.2h-39.15l-62.5 130.39-0.3 2.16 35.8 126.78h42.68l-39.33-130.39zm-128.48 0-35.95 259.33h42.68l35.91-259.33zm246.28 0h-32q-51.12 0-57.27 44.42l-29.81 214.91h42.68l13.15-95h48.9l-13.15 95h42.68l29.75-214.91q6.12-44.41-44.97-44.42zm2 46.59-11.95 86.33h-48.9l12-86.33q2.1-15.17 20.78-15.17h11.55q18.57 0 16.47 15.17zm173.79-46.59-15.25 110.16h-52.49l15.25-110.16h-42.67l-35.91 259.33h42.68l16.28-117.79h52.46l-16.3 117.75h42.67l35.91-259.33z"/><path class="cls-1" d="m374 227.46h-72.9l-35.93 259.33h85.83q48.45 0 53.81-38.65l9-65q3-21.67-31-29.62l0.25-1.8q31.38-5.06 34.47-27.45l6.91-49.85q6.45-46.96-50.44-46.96zm-3.4 159.28-8 57.43q-1.54 11.2-18.44 11.2h-32l12.05-87.05h23.56q25.39 0 22.83 18.42zm10.66-109.08-5.6 40.46q-2.61 18.78-27.05 18.78h-20l10.8-78h25.34q19.1-0.02 16.51 18.76zm119.74-18.78h63.13l4.35-31.42h-105.85l-35.9 259.33h105.8l4.35-31.42h-63.12l11.95-86.37h56l4.35-31.42h-56zm173.47-31.42h-83.62l-35.91 259.33h42.68l14.5-104.74h25.79l13.5 104.74h40.46l-14.87-107.99q26.6-9 31.29-43l8.86-63.93q6.18-44.4-42.72-44.41zm-0.73 50.2-7.75 56q-2.61 18.78-21.72 18.78h-28l13-93.55h28q19.02-0.01 16.43 18.77zm205.41-50.2h-39.15l-62.5 130.39-0.3 2.16 35.8 126.78h42.68l-39.33-130.39zm-128.48 0-35.95 259.33h42.68l35.91-259.33zm246.28 0h-32q-51.12 0-57.27 44.42l-29.81 214.91h42.68l13.15-95h48.9l-13.15 95h42.68l29.75-214.91q6.12-44.41-44.97-44.42zm2 46.59-11.95 86.33h-48.9l12-86.33q2.1-15.17 20.78-15.17h11.55q18.57 0 16.47 15.17zm173.79-46.59-15.25 110.16h-52.49l15.25-110.16h-42.67l-35.91 259.33h42.68l16.28-117.79h52.46l-16.3 117.75h42.67l35.91-259.33z"/></g><g data-name="138 copy 2"><path class="cls-2" d="m1289.9 215.07a96.22 96.22 0 0 1-20.92 19.5 101.15 101.15 0 0 1-30 14.09l6.48 23.84 27.57-6.5-28.85 208.4h42.23l34.21-247-26.31-12.28zm138 0h-24.92q-51.12 0-57.27 44.43l-4 28.89h42.68l3.65-26.36q2.1-15.18 19-15.17h5.78q19.11 0 17 15.17l-6.8 49.12q-2.34 17-27.24 17h-6.23l-4 29.26h11.56q24.9 0 22.55 17l-7.4 53.46q-2.15 15.13-21.28 15.13h-9.78q-16.9 0-14.79-15.17l2-14.09h-42.68l-2.3 16.62q-6.11 44.07 45 44.06h28.9q51.12 0 57.22-44.06l7.8-56.35q3.56-25.64-28.79-32.87 28.76-5.42 32.16-30l7.15-51.65q6.11-44.42-44.97-44.42zm164.22 0h-26.23q-51.12 0-57.27 44.43l-7.1 51.28q-3.6 26 26.32 31.43-34.78 7.23-38.09 31.06l-7.9 57.07q-6.11 44.07 45 44.06h32.46q51.12 0 57.22-44.06l7.85-56.71q3.3-23.83-26.81-31.06 28.76-5.42 32.35-31.42l7.15-51.65q6.19-44.43-44.95-44.43zm-10.69 160.73-6.7 48.4q-2.61 18.8-21.75 18.8h-11.12q-19.11 0-16.51-18.78l6.75-48.76q2.44-17.7 27.4-18.06 24.48-0.02 21.93 18.4zm12.14-110.16-6 43.34q-2.21 15.9-21.67 18.42h-4.92q-19.12 0-16.52-18.78l6-43q2.6-18.78 21.71-18.78h4.89q19.1 0.02 16.51 18.8z" style="fill:url(#b)"/><path class="cls-1" d="m1289.9 215.07a96.22 96.22 0 0 1-20.92 19.5 101.15 101.15 0 0 1-30 14.09l6.48 23.84 27.57-6.5-28.85 208.4h42.23l34.21-247-26.31-12.28zm138 0h-24.92q-51.12 0-57.27 44.43l-4 28.89h42.68l3.65-26.36q2.1-15.18 19-15.17h5.78q19.11 0 17 15.17l-6.8 49.12q-2.34 17-27.24 17h-6.23l-4 29.26h11.56q24.9 0 22.55 17l-7.4 53.46q-2.15 15.13-21.28 15.13h-9.78q-16.9 0-14.79-15.17l2-14.09h-42.68l-2.3 16.62q-6.11 44.07 45 44.06h28.9q51.12 0 57.22-44.06l7.8-56.35q3.56-25.64-28.79-32.87 28.76-5.42 32.16-30l7.15-51.65q6.11-44.42-44.97-44.42zm164.22 0h-26.23q-51.12 0-57.27 44.43l-7.1 51.28q-3.6 26 26.32 31.43-34.78 7.23-38.09 31.06l-7.9 57.07q-6.11 44.07 45 44.06h32.46q51.12 0 57.22-44.06l7.85-56.71q3.3-23.83-26.81-31.06 28.76-5.42 32.35-31.42l7.15-51.65q6.19-44.43-44.95-44.43zm-10.69 160.73-6.7 48.4q-2.61 18.8-21.75 18.8h-11.12q-19.11 0-16.51-18.78l6.75-48.76q2.44-17.7 27.4-18.06 24.48-0.02 21.93 18.4zm12.14-110.16-6 43.34q-2.21 15.9-21.67 18.42h-4.92q-19.12 0-16.52-18.78l6-43q2.6-18.78 21.71-18.78h4.89q19.1 0.02 16.51 18.8z"/></g><g data-name="berkah copy 2"><path class="cls-3" d="m375.64 215.07h-72.91l-35.91 259.33h85.8q48.45 0 53.81-38.65l9-65q3-21.67-31-29.62l0.25-1.8q31.38-5.06 34.48-27.45l6.84-49.88q6.54-46.92-50.36-46.93zm-3.39 159.28-7.95 57.43q-1.54 11.22-18.44 11.22h-32l12-87.05h23.56q25.39-0.02 22.83 18.4zm10.66-109.07-5.6 40.45q-2.6 18.78-27.05 18.78h-20l10.81-78h25.33q19.1-0.02 16.51 18.77zm119.7-18.79h63.13l4.35-31.42h-105.8l-35.91 259.33h105.8l4.35-31.4h-63.12l11.95-86.32h56l4.35-31.43h-56zm173.47-31.42h-83.58l-35.91 259.33h42.68l14.5-104.74h25.79l13.5 104.74h40.46l-14.83-108q26.58-9 31.29-43l8.85-63.93q6.17-44.4-42.75-44.4zm-0.73 50.21-7.75 56q-2.6 18.72-21.72 18.72h-28l13-93.55h28q19.06 0.04 16.47 18.83zm205.41-50.21h-39.12l-62.51 130.39-0.3 2.17 35.79 126.77h42.68l-39.3-130.4zm-128.48 0-35.91 259.33h42.68l35.95-259.33zm246.28 0h-32q-51.12 0-57.27 44.43l-29.77 214.9h42.68l13.15-95h48.9l-13.15 95h42.68l29.75-214.9q6.15-44.43-44.97-44.43zm2 46.59-11.96 86.34h-48.9l12-86.33q2.1-15.17 20.77-15.17h11.53q18.65-0.01 16.56 15.16zm173.78-46.59-15.25 110.16h-52.46l15.26-110.16h-42.68l-35.91 259.33h42.7l16.3-117.74h52.46l-16.3 117.74h42.67l35.87-259.33z" style="fill:url(#a)"/><path class="cls-4" d="m375.64 215.07h-72.91l-35.91 259.33h85.8q48.45 0 53.81-38.65l9-65q3-21.67-31-29.62l0.25-1.8q31.38-5.06 34.48-27.45l6.84-49.88q6.54-46.92-50.36-46.93zm-3.39 159.28-7.95 57.43q-1.54 11.22-18.44 11.22h-32l12-87.05h23.56q25.39-0.02 22.83 18.4zm10.66-109.07-5.6 40.45q-2.6 18.78-27.05 18.78h-20l10.81-78h25.33q19.1-0.02 16.51 18.77zm119.7-18.79h63.13l4.35-31.42h-105.8l-35.91 259.33h105.8l4.35-31.4h-63.12l11.95-86.32h56l4.35-31.43h-56zm173.47-31.42h-83.58l-35.91 259.33h42.68l14.5-104.74h25.79l13.5 104.74h40.46l-14.83-108q26.58-9 31.29-43l8.85-63.93q6.17-44.4-42.75-44.4zm-0.73 50.21-7.75 56q-2.6 18.72-21.72 18.72h-28l13-93.55h28q19.06 0.04 16.47 18.83zm205.41-50.21h-39.12l-62.51 130.39-0.3 2.17 35.79 126.77h42.68l-39.3-130.4zm-128.48 0-35.91 259.33h42.68l35.95-259.33zm246.28 0h-32q-51.12 0-57.27 44.43l-29.77 214.9h42.68l13.15-95h48.9l-13.15 95h42.68l29.75-214.9q6.15-44.43-44.97-44.43zm2 46.59-11.96 86.34h-48.9l12-86.33q2.1-15.17 20.77-15.17h11.53q18.65-0.01 16.56 15.16zm173.78-46.59-15.25 110.16h-52.46l15.26-110.16h-42.68l-35.91 259.33h42.7l16.3-117.74h52.46l-16.3 117.74h42.67l35.87-259.33z"/></g><path class="cls-5" d="m50.33 418.42s2.6-14.57 43-11.35 125.51-19.36 137.91-1.32-46.75 39.81-49.11 40.59-71 23.89-75.71 21-36-13.69-37.91-19.39-18.18-29.53-18.18-29.53z"/><path class="cls-6" d="m143.31 448 5.8-0.41s57.65-6.21 82.15-41.84l24.14 44.35s4.41 4.67-0.21 10.28-36.19 44.92-101.66 49.5l-5.85 0.41z"/><polygon class="cls-5" points="172.75 469.54 171.28 476.42 164.69 474.58 163.63 479.38 171.33 483.26 177.02 481.83 181.43 473.69 182.09 471.55"/><polygon class="cls-5" points="203.32 444.34 200.06 437.27 185.77 442.11 185.28 443.43 188.91 452.14 179.85 456.1 184.89 468.36 217.15 453.17 211.78 440.86"/><polygon class="cls-5" points="187.44 483.64 183.42 473.06 211.53 461.74 214.63 471.9 206.44 474.46 209.14 485.77 199.2 488.53 195.99 480.35"/><polygon class="cls-5" points="240.35 441.21 215.91 461.12 222.08 469.49 228.42 464.31 233.35 469.88 239.08 465.71 234.54 457.08 245.74 451.27 247.41 449.45"/><path class="cls-5" d="m254.27 448 1.13 2.09s4.41 4.67-0.21 10.28-36.19 44.93-101.66 49.51l-5.85 0.41-0.78-11.12c7.59-0.84 30.54-3.69 44.18-8.6 16.01-5.77 46.45-19.93 63.19-42.57z"/><path class="cls-7" d="m229.49 408.19c0.61-0.8 1.21-1.61 1.77-2.44l24.14 44.35a7.59 7.59 0 0 1 1.55 7.16c-1.52-1.7-2.58-2.95-2.58-2.95l-24.37-43.26z"/><polygon class="cls-5" points="235.8 433.22 224.04 442.71 223.8 450.01 221.94 451.2 213.53 440.56 221.19 434.45 216.14 427 223.95 421.32 232.54 426.81 239.53 420.94 242.83 427"/><path class="cls-8" d="m143.31 448 5.8-0.41s57.65-6.21 82.15-41.84l3.26 6c-10.79 19.07-39.61 30.16-52.37 34.61-11.37 4-30.62 6.71-38.41 7.73z"/><path class="cls-8" d="m255.53 450.24c0.67 0.81 3.82 5.09-0.34 10.14-4.64 5.62-36.19 44.92-101.66 49.5l-5.85 0.41-0.62-8.8 5.86-0.41c65.48-4.59 97-43.88 101.65-49.49a13.08 13.08 0 0 0 0.96-1.35z"/><path class="cls-9" d="m255.53 450.24c0.67 0.81 3.82 5.09-0.34 10.14-4.64 5.62-36.19 44.92-101.66 49.5l-5.85 0.41-0.19-2.63 2.57-0.18s22.87 0.29 49.45-10.62 53.2-34.95 54.81-39.11c0 0 0.92-0.48 0-2.71-0.39-0.89-0.66-1.56-0.86-2.05l1.16-1.4a13.08 13.08 0 0 0 0.91-1.35z"/><polygon class="cls-8" points="175.09 479 160.84 475.75 158.86 484.23 173.12 487.47"/><polygon class="cls-8" points="177.3 496.21 182.63 473.35 174.07 471.4 168.75 494.27"/><polygon class="cls-9" points="177.31 496.21 182.63 473.35 181.57 473.11 176.39 494.85 169.06 492.94 168.75 494.27"/><polygon class="cls-8" points="212.96 442.99 203.4 447.32 198.26 436.14 185.9 441.74 191.03 452.9 181.46 457.23 186.64 468.49 218.13 454.26"/><polygon class="cls-9" points="212.96 442.99 211.68 443.57 215.9 453.15 186.72 466.57 184.51 463.86 186.64 468.49 218.13 454.26"/><polygon class="cls-8" points="240.38 422.5 235.18 426.52 227.57 416.85 216.85 425.14 224.47 434.81 216.18 441.22 223.86 450.98 246.4 433.55"/><polygon class="cls-9" points="240.38 422.5 238.85 423.69 243.93 432.97 223.52 448.72 216.84 440.7 216.18 441.22 223.86 450.98 246.4 433.55"/><polygon class="cls-8" points="224.49 456.31 217.51 461.92 224.23 470.13 231.21 464.52 237.87 472.66 246.88 465.41 240.22 457.27 247.19 451.66 240.47 443.45 233.5 449.06"/><polygon class="cls-9" points="224.23 470.13 231.21 464.52 235.73 470.05 235.73 470.05 236.64 469.31 231.28 462.77 224.04 468.45 218.15 461.41 217.51 461.92"/><polygon class="cls-8" points="189.55 483.85 197.87 480.5 201.84 490.2 212.59 485.87 208.62 476.16 216.93 472.81 212.92 463.01 185.54 474.06"/><polygon class="cls-9" points="215.57 471.96 207.19 475.49 211.2 485.61 212.25 485.02 208.62 476.16 216.93 472.81 212.92 463.01 212.14 463.32"/><polygon class="cls-9" points="177.7 483.43 174.32 491.49 171.43 490.77 171.01 492.29 171.86 492.48 175.55 493.41"/><polygon class="cls-9" points="212.88 467.74 212.58 470.37 208.31 473.78 210.9 472.84 214.51 471.32"/><polygon class="cls-9" points="212.5 448.53 211.55 451.7 208.7 454.85 214.06 452.6"/><polygon class="cls-9" points="240.44 429.52 239.88 432.35 236.9 436.68 242.18 432.42"/><polygon class="cls-9" points="228 419.86 229.2 418.93 235.18 426.52 233.34 427.89"/><polygon class="cls-9" points="198.03 440.06 199.71 439.3 203.4 447.32 201.76 448.2"/><path class="cls-6" d="m143.31 448-5.79 0.4s-58 1.88-87.19-30l-17.72 47.3s-3.72 5.24 1.65 10.15 42.07 39.43 107.55 34.85l5.87-0.41z"/><polygon class="cls-5" points="117.17 473.43 119.58 480.04 125.85 477.3 127.57 481.9 120.48 486.82 114.65 486.2 109.15 478.75 108.19 476.72"/><polygon class="cls-5" points="83.38 452.73 85.63 445.28 100.46 448.08 101.12 449.32 98.73 458.45 108.27 461.11 104.97 473.96 70.91 463.41 74.52 450.47"/><polygon class="cls-5" points="104.58 489.44 107.09 478.41 77.68 471.11 76.02 481.61 84.5 483 83.39 494.57 93.63 495.92 95.66 487.37"/><polygon class="cls-5" points="46.28 454.8 73.25 471.11 68.31 480.26 61.31 476.01 57.2 482.22 50.94 478.88 54.24 469.7 42.34 465.51 40.44 463.94"/><path class="cls-5" d="m33.44 463.47-0.83 2.23s-3.72 5.24 1.65 10.15 42.07 39.43 107.55 34.85l5.87-0.41-0.78-11.12c-7.64 0.22-30.76 0.6-45-2.36-16.61-3.48-48.73-13.26-68.46-33.34z"/><path class="cls-7" d="m52.43 420.59c-0.72-0.71-1.42-1.43-2.1-2.17l-17.72 47.28a7.58 7.58 0 0 0-0.54 7.3c1.27-1.89 2.14-3.28 2.14-3.28l18.07-46.23s0.07-1.26 0.15-2.9z"/><polygon class="cls-5" points="49.67 446.25 62.63 454.01 63.89 461.2 65.9 462.13 72.75 450.41 64.3 445.44 68.27 437.36 59.74 432.81 52 439.45 44.26 434.61 41.84 441.08"/><path class="cls-8" d="m143.31 448-5.79 0.4s-58 1.88-87.19-30l-2.39 6.37c13.35 17.38 43.43 24.35 56.69 27 11.8 2.34 31.25 2.39 39.11 2.31z"/><path class="cls-8" d="m32.51 465.85c-0.56 0.9-3.08 5.58 1.75 10 5.37 4.92 42.07 39.43 107.55 34.85l5.87-0.41-0.62-8.8-5.86 0.41c-65.48 4.58-102.2-29.9-107.56-34.84a10.42 10.42 0 0 1-1.13-1.21z"/><path class="cls-9" d="m32.51 465.85c-0.56 0.9-3.08 5.58 1.75 10 5.37 4.92 42.07 39.43 107.55 34.85l5.87-0.41-0.19-2.63-2.56 0.18s-22.62 3.48-50.46-3.63-57.55-27.21-59.73-31.09c0 0-1-0.34-0.32-2.68 0.26-0.94 0.44-1.65 0.57-2.16l-1.35-1.22a10.42 10.42 0 0 1-1.13-1.21z"/><polygon class="cls-8" points="116.16 483.13 129.83 477.93 132.97 486.04 119.3 491.24"/><polygon class="cls-8" points="116.37 500.48 107.91 478.58 116.12 475.46 124.57 497.36"/><polygon class="cls-9" points="116.37 500.48 107.91 478.58 108.93 478.2 117.09 499 124.08 496.09 124.57 497.36"/><polygon class="cls-8" points="73.65 452.75 83.72 455.7 87.24 443.92 100.27 447.73 96.75 459.5 106.82 462.45 103.27 474.33 70.09 464.62"/><polygon class="cls-9" points="73.65 452.75 75 453.14 72.15 463.21 102.92 472.44 104.73 469.44 103.27 474.33 70.09 464.62"/><polygon class="cls-8" points="43.64 436.27 49.35 439.53 55.54 428.89 67.31 435.61 61.11 446.24 70.22 451.44 63.97 462.18 39.22 448.05"/><polygon class="cls-9" points="43.64 436.27 45.33 437.24 41.58 447.14 63.99 459.89 69.48 451.02 70.22 451.44 63.97 462.18 39.22 448.05"/><polygon class="cls-8" points="64.09 467.54 71.77 472.12 66.26 481.19 58.58 476.61 53.12 485.59 43.18 479.67 48.64 470.69 40.95 466.1 46.46 457.04 54.15 461.62"/><polygon class="cls-9" points="66.26 481.19 58.58 476.61 54.87 482.71 54.87 482.71 53.86 482.11 58.27 474.88 66.23 479.5 71.08 471.7 71.77 472.12"/><polygon class="cls-8" points="102.52 489.94 93.82 487.78 91.23 497.95 79.99 495.15 82.57 484.98 73.87 482.82 76.47 472.56 105.13 479.69"/><polygon class="cls-9" points="75.1 481.8 83.89 484.13 81.32 494.7 80.21 494.26 82.57 484.98 73.87 482.82 76.47 472.56 77.29 472.76"/><polygon class="cls-9" points="114.2 487.88 118.66 495.38 121.43 494.27 122.05 495.71 121.25 496.03 117.72 497.46"/><polygon class="cls-9" points="77.17 477.24 77.83 479.8 82.54 482.58 79.85 482.02 76.06 481.02"/><polygon class="cls-9" points="74.87 458.17 76.26 461.17 79.52 463.89 73.89 462.41"/><polygon class="cls-9" points="44.55 443.23 45.5 445.96 49.06 449.83 43.24 446.35"/><polygon class="cls-9" points="55.53 431.94 54.2 431.18 49.35 439.53 51.37 440.64"/><polygon class="cls-9" points="88.02 447.76 86.25 447.24 83.72 455.7 85.46 456.34"/><path class="cls-8" d="m146.05 499c-12.32 0.87-23-7.85-23.78-19.46s8.51-21.72 20.83-22.58 23 7.85 23.78 19.46-8.52 21.73-20.83 22.58z"/><path class="cls-9" d="m146.05 499c-12.32 0.87-23-7.85-23.78-19.46v-0.46c1 10.84 11.07 18.9 22.66 18.09 11.76-0.82 20.67-10.47 19.89-21.56-0.82-10.91-10.66-19.15-22.2-18.61h0.48c12.32-0.86 23 7.85 23.78 19.46s-8.52 21.69-20.83 22.54z"/><path class="cls-10" d="m145.57 492.26c-8.35 0.58-15.58-5.33-16.14-13.21s5.79-14.74 14.15-15.33 15.58 5.34 16.13 13.21-5.78 14.74-14.14 15.33z"/><path class="cls-8" d="m144.94 491.23c-8.05 0.57-15-5.13-15.54-12.71s5.6-14.19 13.6-14.76 15 5.13 15.54 12.72-5.54 14.19-13.6 14.75z"/><path class="cls-11" d="m144.8 489.23c-6.88 0.49-12.83-4.38-13.28-10.86s4.76-12.12 11.63-12.6 12.82 4.38 13.28 10.86-4.76 12.12-11.63 12.6z"/><path class="cls-12" d="m144.8 489.23a12.66 12.66 0 0 1-10.8-4.63 12.75 12.75 0 0 0 9.72 3.41c6.87-0.48 12.08-6.12 11.63-12.6a11.22 11.22 0 0 0-2.44-6.24 11.37 11.37 0 0 1 3.56 7.45c0.41 6.49-4.8 12.13-11.67 12.61z"/><path class="cls-12" d="m147.68 485.57a4.17 4.17 0 1 1 4.11-4.46 4.3 4.3 0 0 1-4.11 4.46z"/><path class="cls-13" d="m148.61 485a2.61 2.61 0 1 1 2.57-2.79 2.69 2.69 0 0 1-2.57 2.79z"/><path class="cls-14" d="m150.47 473s-7.42-2.33-10.83 0.75-2.3 7.48-1.94 9.64-3.43 2.64-4.48-3.49 0.67-10.5 6-12 10.37-0.06 12.05 2.29 1.38 3.71-0.8 2.81z"/><path class="cls-15" d="m134.4 483.31a9.39 9.39 0 0 1-1.18-3.4c-1.06-6.12 0.67-10.5 6-12 5.1-1.44 9.92-0.18 11.8 2-2.25-0.37-8.85-1.27-11.82 0.3a9.19 9.19 0 0 0-5.12 8.21c0.03 1.89 0.2 3.8 0.32 4.89z"/><path class="cls-9" d="m166.12 505.06s10.5-1.06 14.5-3.25c0 0 1.28-0.43 0.45-2.16s-3.82-0.18-6.5 0.57a103.45 103.45 0 0 1-10.43 2.07c-2.94 0.43-1.91 3.16 1.98 2.77z"/><path class="cls-6" d="m27.18 262.22s-5.71-42.29 6.88-65.66 19.59-34.88 39.56-38.11c18.8-3 29.27-3.06 49.11-4.37 19.83-1.47 30.2-2.91 49.25-2.52 20.22 0.42 28.75 10.84 44.48 32.23s16 64.06 16 64.06-95.46 32.85-98.73 32.61c-0.51 0-1.33-1.12-2.35-2.93-0.76 1.94-1.42 3.13-1.92 3.23-3.17 0.68-102.28-18.54-102.28-18.54z"/><path class="cls-5" d="m132.34 169.84s3.64 6.67 12 0.6l0.39-0.29 0.74-0.6 0.35-0.31 0.34-0.31 0.65-0.65 0.3-0.34 0.29-0.34c0.1-0.11 0.19-0.23 0.28-0.34l0.27-0.35 0.25-0.36 0.24-0.36c0.08-0.12 0.16-0.24 0.23-0.37l0.22-0.37 0.2-0.37 0.19-0.38 0.18-0.38c0.06-0.13 0.11-0.26 0.16-0.39s0.1-0.26 0.14-0.39l0.14-0.39c0.05-0.14 0.08-0.27 0.12-0.4a3 3 0 0 0 0.11-0.4l0.1-0.4c0-0.14 0.05-0.27 0.08-0.41 0-0.14 0-0.27 0.07-0.41l0.06-0.41v-0.41-0.42-0.41a2.94 2.94 0 0 0 0-0.42v-0.42-0.42-0.42l-0.06-0.42-0.08-0.42-0.09-0.43c0-0.14-0.07-0.28-0.11-0.42l-0.12-0.42-0.13-0.43-0.15-0.42-0.17-0.42-0.18-0.42-0.2-0.42-0.21-0.42c-0.08-0.14-0.16-0.28-0.23-0.42l-0.25-0.41c-0.08-0.14-0.17-0.28-0.26-0.42l-0.28-0.41c-0.09-0.14-0.19-0.27-0.29-0.41l-0.31-0.41c-0.11-0.13-0.21-0.27-0.33-0.4l-0.34-0.4c-0.12-0.14-0.23-0.27-0.36-0.4s-0.24-0.27-0.37-0.4l-0.8-0.78-0.43-0.39-0.44-0.38-0.46-0.38-0.48-0.37-0.49-0.37-0.52-0.37-0.53-0.36h-1.14l-0.28-0.08h-0.35c-2-0.51-5.24-1-8.11 0.43v-1.32a19.64 19.64 0 0 0-1.06-4 9.79 9.79 0 0 0-4.17-5.19h-0.06l-0.24-0.12-0.28-0.12-0.29-0.12h-0.08l-0.25-0.08h-0.08l-0.25-0.07h-0.11l-0.25-0.06h-3.69a11.72 11.72 0 0 0-10.57 10.64h-0.07a10.48 10.48 0 0 0-7.72-0.2 12.66 12.66 0 0 0-1.24 0.52c-0.2 0.1-0.41 0.21-0.61 0.33l-0.28 0.16h-0.06l-0.26 0.16-0.08 0.05-0.26 0.17h-0.05l-0.28 0.2-0.63 0.49-0.3 0.25-0.62 0.55-0.09 0.09-0.24 0.25h-0.06l-0.29 0.3-0.32 0.34-0.07 0.08c-0.32 0.35-0.63 0.72-0.94 1.13l-0.31 0.39c-0.1 0.14-0.21 0.28-0.3 0.42l-0.31 0.45-0.32 0.49-0.33 0.51-0.33 0.56c-0.11 0.18-0.21 0.37-0.3 0.55l-0.1 0.21-0.18 0.36-0.08 0.2c-0.06 0.13-0.12 0.25-0.17 0.38l-0.13 0.33-0.1 0.25-0.2 0.6-0.1 0.33-0.08 0.25-0.15 0.6-0.08 0.33v0.27l-0.06 0.34v0.25 0.37 3.8l0.06 0.41v0.16l0.09 0.42v0.13l0.11 0.42v0.14l0.12 0.4v0.14l0.13 0.4v0.13l0.15 0.39v0.13l0.17 0.4v0.1l0.19 0.4 0.05 0.1 0.21 0.4v0.08l0.23 0.41 0.27 0.42 0.29 0.42 0.31 0.42c3.44 4.38 9.61 6.28 17 2.07h0.06l0.69-0.41 0.71-0.45c0.36-0.24 0.73-0.49 1.09-0.76v0.25 0.18c0 0.1 0 0.22 0.07 0.36v1.35l0.12 0.32 0.07 0.15 0.06 0.14v0.05l0.06 0.13v0.06l0.16 0.32v0.08l0.06 0.12 0.24 0.4 0.11 0.18 0.12 0.18a6 6 0 0 0 0.42 0.57v0.06l0.13 0.15 0.15 0.16 0.13 0.14 0.06 0.06 0.16 0.15 0.37 0.34 0.19 0.16c0.13 0.11 0.28 0.22 0.44 0.33l0.17 0.12 0.25 0.15 0.12 0.07 0.13 0.08 0.1 0.06 0.14 0.07 0.13 0.07 0.16 0.07h0.08l0.18 0.08h0.1l0.23 0.1c0.19 0.07 0.39 0.14 0.6 0.2l0.28 0.07h0.15l0.19 0.05h3.92c9.13 0.41 7.95-7.31 7.95-7.31z"/><path class="cls-5" d="m27.37 218.58c1.2-7.91 3.26-15.66 6.69-22 12.59-23.37 19.59-34.88 39.56-38.11 18.8-3 29.27-3.06 49.11-4.37 19.83-1.47 30.2-2.91 49.25-2.52 20.22 0.42 28.75 10.84 44.48 32.23 4.07 5.53 7.09 12.49 9.35 19.76-4.2-4.55-8.25-9.09-10.87-11.94-7.13-7.73-21.79-25.09-40.1-27.93s-74.71 3-82.38 3.3-22.53 3.5-33.54 10.86c-8.23 5.47-24.07 29.14-31.55 40.72z"/><path class="cls-5" d="m26.41 254.19c-0.08-0.93-0.14-1.94-0.2-3 3.59-5.51 12.72-17.58 27.43-24.56 19.5-9.25 45.06-16.52 57.71-17.4s35.61-4.47 54.27-0.73c17.38 3.47 49.17 9.36 66.29 29.07 0.49 6.23 0.51 10.28 0.51 10.28s-18.62 6.4-39.69 13.54a373.92 373.92 0 0 1-38.52 0c-3.27-0.34-111.9-6.32-127.8-7.2z"/><rect class="cls-16" transform="rotate(-4 129.25 190.59)" x="118.31" y="156.76" width="21.44" height="67.23"/><rect class="cls-17" transform="rotate(-4 125.51 190.89)" x="114.57" y="157.02" width="21.44" height="67.23"/><rect class="cls-18" transform="rotate(-4 115.74 191.55)" x="114.6" y="157.71" width="1.88" height="67.23"/><rect class="cls-19" transform="rotate(-4 125.51 190.89)" x="123.76" y="157.02" width="3.08" height="67.23"/><path class="cls-20" d="m27.18 262.22s-5.67-42 6.76-65.43c-1.09 7.38-2.19 15.18-2.65 19.64-1.06 10.25-0.89 37.95-0.89 37.95s-1.1 3.39-2.66 7.95z"/><path class="cls-8" d="m27 221.18c1.12-8.81 3.25-17.57 7.05-24.62 12.59-23.37 19.59-34.88 39.56-38.11 18.8-3 29.27-3.06 49.11-4.37l0.52 7.34-6.25 0.44s-48 0.78-59.81 11.93c-9.04 8.55-23.03 30.74-30.18 47.39z"/><path class="cls-9" d="m27 221.18c1.11-8.72 3.21-17.39 6.93-24.39-0.71 4.83-1.43 9.85-2 14-1.83 3.57-3.51 7.09-4.93 10.39z"/><path class="cls-8" d="m38.45 197.54s-3.55-0.76-4 4.17 3.43 8.55 9.76 6.78a6.4 6.4 0 0 0 3.17-3.49s4.87 3.76 7.49-0.36a5.61 5.61 0 0 0-0.56-7.15s4.46-1.72 2.41-8.24-11.87-7.72-12.59 1.86a4.48 4.48 0 0 0-6.13 1.01c-2.72 3.44 0.45 5.42 0.45 5.42z"/><path class="cls-10" d="m47.42 205c0.47 0.35 5 3.51 7.45-0.39a5.61 5.61 0 0 0-0.56-7.15h0.08l-0.18-0.06a8.18 8.18 0 0 1 1.09 3.19 4.48 4.48 0 0 1-2.63 5.08c-2.46 1.21-5.25-0.66-5.25-0.66z"/><path class="cls-10" d="m54.35 197.43c0.44-0.19 4.31-2.08 2.37-8.23-2-6.37-11.43-7.66-12.53 1.23 0.34-1.16 1.6-4.79 4.39-5.57 3.34-0.92 7.16 1.43 8 5.53s-1.11 5.88-1.6 6.28-0.84 0.64-0.84 0.64z"/><path class="cls-10" d="m38.45 197.54s-3.55-0.76-4 4.17 3.43 8.55 9.76 6.78a6.15 6.15 0 0 0 0.79-0.49 10.48 10.48 0 0 1-5.13 0.57 6.28 6.28 0 0 1-5-6.91c0.37-4 3.76-3.78 3.76-3.78l0.34-0.45c-2.3-1.46-1.73-3.59 0.21-5.72s5-0.49 5-0.49l-0.09-0.23a4.44 4.44 0 0 0-6.09 1.13c-2.72 3.44 0.45 5.42 0.45 5.42z"/><path class="cls-21" d="m38.23 201.85s0.17 2.17 1.64 2.54 2.23 0 2.75-0.83 0.91-3.31 0.36-4a8.06 8.06 0 0 0-2.46-2c-0.44-0.11 0-0.56 0.87-0.18a5.3 5.3 0 0 1 2.73 2.75 4.15 4.15 0 0 1-0.33 3.33 6.14 6.14 0 0 1-2.24 2 5.69 5.69 0 0 1-2.35-0.54c-0.21-0.1-1.27-0.79-1.27-0.79v-1.56z"/><path class="cls-21" d="m44.34 192s1.3 2.81 3.52 2.93a3.42 3.42 0 0 0 3.74-3 2.3 2.3 0 0 0-1.76-2.34 4.87 4.87 0 0 0-2.33 0.61 1.29 1.29 0 0 1 1.16-1.17 5.15 5.15 0 0 1 3.33 0.97c0.47 0.54 0.95 3.19-0.11 4.24a4.17 4.17 0 0 1-3.49 1.46c-1.62 0-1.64-0.2-2.29-0.71a3.85 3.85 0 0 1-1.11-1.2c0-0.14-0.66-1.79-0.66-1.79z"/><path class="cls-21" d="m44.21 198.9a8.51 8.51 0 0 1 0.77 1.2 6.45 6.45 0 0 0 0.29 0.61s1.69-0.1 2.29-0.91a5.72 5.72 0 0 0 0.86-2.72 3.77 3.77 0 0 0-0.28-1.11l1.07-0.06a3.48 3.48 0 0 1 0 2.43c-0.43 1.73-1.13 2.93-1.93 3.19a24.66 24.66 0 0 1-2.47 0.54s-0.37-0.12-0.33-0.4a19.88 19.88 0 0 0-0.2-2z"/><path class="cls-22" d="m48.78 196.05a5.08 5.08 0 0 1-0.68 3.69c-1.14 1.63-3.64 1.5-3.64 1.5l-0.14 1.33s3.19 0.22 4.54-1.66 0.92-5.15 0.92-5.15z"/><path class="cls-22" d="m38.45 197.54s3.95-0.52 5 2.3-1.22 5.57-3.15 5.09-2.41-1.78-2-3.07a1.44 1.44 0 0 1 2.55-0.53c0.86 0.86 0.07 1.28-0.26 1.3 0.74 0.61 2.24-1.21 0-2.34-2-0.66-3.76 0.56-2.86 4 0 0 1 2.77 4.78 1.09s2.38-6.58 1-7.41a5.28 5.28 0 0 0-5.06-0.43z"/><path class="cls-22" d="m44.15 191s0.48 3.95 3.48 4.28 5.09-2.58 4.14-4.32-2.32-1.89-3.47-1.18a1.45 1.45 0 0 0 0.12 2.61c1 0.61 1.25-0.26 1.2-0.57 0.76 0.55-0.61 2.46-2.26 0.59-1.14-1.74-0.4-3.79 3.17-3.77 0 0 2.94 0.32 2.25 4.35s-5.79 4-6.94 2.78a5.28 5.28 0 0 1-1.69-4.77z"/><path class="cls-20" d="m232.42 247.85s-0.24-42.39-15.81-63.85c2.11 7.15 4.28 14.72 5.36 19.08 2.47 10 6.17 37.46 6.17 37.46s1.57 3.2 3.74 7.5z"/><path class="cls-8" d="m226.87 207.18c-2.34-8.56-5.67-16.94-10.41-23.39-15.73-21.39-24.26-31.79-44.46-32.23-19-0.39-29.42 1.05-49.25 2.52l0.52 7.34 6.24-0.44s47.65-5.91 60.89 3.48c10.14 7.21 27.08 27.24 36.47 42.72z"/><path class="cls-9" d="m226.87 207.18c-2.31-8.47-5.6-16.76-10.26-23.18 1.38 4.69 2.79 9.55 3.9 13.58 2.34 3.29 4.49 6.54 6.36 9.6z"/><path class="cls-8" d="m212.25 185.37s3.41-1.25 4.51 3.57-2.2 9-8.72 8.08a6.36 6.36 0 0 1-3.6-3.07s-4.29 4.4-7.46 0.69a5.59 5.59 0 0 1-0.45-7.15s-4.66-1.09-3.54-7.83 10.68-9.3 12.73 0.08a4.48 4.48 0 0 1 6.25 0.19c3.14 3.07 0.28 5.44 0.28 5.44z"/><path class="cls-10" d="m204.41 194c-0.42 0.41-4.44 4.17-7.43 0.65a5.59 5.59 0 0 1-0.45-7.15h-0.08l0.16-0.08a8.4 8.4 0 0 0-0.63 3.31 4.48 4.48 0 0 0 3.31 4.67c2.6 0.85 5.12-1.39 5.12-1.39z"/><path class="cls-10" d="m196.49 187.48c-0.46-0.13-4.56-1.46-3.5-7.82 1.1-6.59 10.25-9.18 12.58-0.53-0.49-1.1-2.24-4.52-5.13-4.9-3.43-0.45-6.88 2.41-7.16 6.59s1.92 5.67 2.46 6 0.93 0.52 0.93 0.52z"/><path class="cls-10" d="m212.25 185.37s3.41-1.25 4.51 3.57-2.2 9-8.72 8.08a6.3 6.3 0 0 1-0.83-0.36 10.5 10.5 0 0 0 5.16-0.14 6.29 6.29 0 0 0 4-7.55c-0.93-3.95-4.25-3.22-4.25-3.22l-0.4-0.39c2.07-1.77 1.22-3.8-1-5.64s-5 0.21-5 0.21l0.06-0.24a4.44 4.44 0 0 1 6.18 0.24c3.15 3.07 0.29 5.44 0.29 5.44z"/><path class="cls-21" d="m213.07 189.61s0.13 2.18-1.27 2.74-2.21 0.29-2.84-0.44-1.36-3.14-0.93-3.94a8.15 8.15 0 0 1 2.17-2.31c0.42-0.17-0.12-0.55-0.89-0.06a5.31 5.31 0 0 0-2.31 3.1 4.16 4.16 0 0 0 0.79 3.26 6.08 6.08 0 0 0 2.49 1.64 5.51 5.51 0 0 0 2.24-0.87c0.2-0.12 1.16-0.95 1.16-0.95l-0.2-1.56z"/><path class="cls-21" d="m205.66 180.74s-0.91 3-3.09 3.4a3.42 3.42 0 0 1-4.12-2.43 2.3 2.3 0 0 1 1.42-2.56 4.85 4.85 0 0 1 2.39 0.27 1.28 1.28 0 0 0-1.31-1 5.1 5.1 0 0 0-3.12 1.33c-0.39 0.61-0.5 3.3 0.69 4.19a4.21 4.21 0 0 0 3.67 1c1.6-0.26 1.59-0.42 2.17-1a3.92 3.92 0 0 0 0.87-1.31c0.04-0.2 0.43-1.89 0.43-1.89z"/><path class="cls-21" d="m206.73 187.52a8.27 8.27 0 0 0-0.59 1.3c-0.11 0.4-0.2 0.64-0.2 0.64a3.73 3.73 0 0 1-2.4-0.58 5.68 5.68 0 0 1-1.23-2.57 3.84 3.84 0 0 1 0.12-1.14l-1.06 0.09a3.41 3.41 0 0 0 0.36 2.4c0.67 1.65 1.53 2.74 2.37 2.89s2.51 0.19 2.51 0.19 0.35-0.17 0.27-0.45-0.08-2-0.08-2z"/><path class="cls-22" d="m201.81 185.34a5.07 5.07 0 0 0 1.19 3.56c1.36 1.45 3.81 1 3.81 1l0.33 1.3s-3.13 0.66-4.73-1-1.63-5-1.63-5z"/><path class="cls-22" d="m212.25 185.37s-4 0-4.65 3 2 5.35 3.84 4.6 2.13-2.1 1.55-3.32a1.45 1.45 0 0 0-2.6-0.17c-0.73 1 0.11 1.28 0.43 1.25-0.64 0.71-2.38-0.88-0.33-2.31 1.85-0.93 3.8 0 3.39 3.57 0 0-0.65 2.89-4.58 1.75s-3.27-6.19-2-7.21a5.32 5.32 0 0 1 4.95-1.16z"/><path class="cls-22" d="m205.7 179.71s0.07 4-2.85 4.72-5.4-1.84-4.71-3.7 2-2.19 3.28-1.65a1.44 1.44 0 0 1 0.23 2.6c-0.94 0.76-1.27-0.08-1.26-0.4-0.68 0.66 1 2.35 2.33 0.27 0.88-1.87-0.14-3.8-3.67-3.29 0 0-2.86 0.73-1.61 4.62s6.27 3.11 7.25 1.79a5.31 5.31 0 0 0 1.01-4.96z"/><path class="cls-23" d="m42.18 331.86s-21-17.74-32.68-2.8-5.33 20.71 1.26 34.09 6.4 27 4 33.33 3.81 22 13.45 14.59 16.6-9.07 19.23-27.9-5.26-51.31-5.26-51.31z"/><path class="cls-24" d="m14.88 396.19-0.1 0.29c-2.37 6.38 3.81 22 13.45 14.59 7.77-6 13.8-8.22 17.22-18.7-3.12 3.88-9.24 11.11-12.75 12.52-4.83 1.94-9.66 4.05-11.59 1.77-1.2-1.41-4.11-6.66-6.23-10.47z"/><path class="cls-25" d="m37.69 328.65c-6.83-4.29-19.88-10.23-28.19 0.41-11.67 14.94-5.33 20.71 1.26 34.09s6.4 27 4 33.33c-2.23 6 3.06 20.11 11.67 15.73-13.57-5-6.93-9.44-8.11-26.41-1.29-18.38-4.83-20-9.64-32.31s-2.36-14.89 5-23.05c5.77-6.44 18.78-3.37 24.01-1.79z"/><path class="cls-24" d="m40 357.43s-5.51-18.26-13.76-19.09-12.9 1.65-11.62 12 6.83 12.53 7.48 21.8 0.32 12.49 1.37 19.48 1.74 8.64 4.79 7.86c0 0-4.15-2.82-2.73-10.83s1.3-17.94-2.38-25.63c-6.2-13-3.39-23.21 2.68-21.1s14.17 15.51 14.17 15.51z"/><path class="cls-24" d="m32.25 345.65s-5.32 7-5.51 12.57 2.14 14 2.14 14 0.1-9.68 1.19-13.43 6.21-8 6.21-8-4.42-5.11-4.03-5.14z"/><path class="cls-23" d="m227.28 318.9s18.33-20.5 32-7.33 8.16 19.77 3.5 33.93-2.58 27.58 0.66 33.57-0.69 22.36-11.29 16.32-17.69-6.66-22.93-24.94-1.94-51.55-1.94-51.55z"/><path class="cls-24" d="m263.26 378.8 0.15 0.27c3.24 6-0.69 22.36-11.29 16.32-8.53-4.86-14.8-6.21-19.65-16.12 3.63 3.42 10.7 9.72 14.36 10.63 5.07 1.24 10.14 2.66 11.72 0.14 1-1.57 3.2-7.21 4.71-11.24z"/><path class="cls-25" d="m231.28 315.1c6.16-5.21 18.26-12.91 28-3.53 13.63 13.17 8.16 19.77 3.5 33.93s-2.58 27.58 0.66 33.57c3 5.61-0.23 20.34-9.37 17.21 12.75-6.81 5.55-10.31 4.36-27.29-1.28-18.38 2-20.46 5-33.34s0.26-15.06-8.13-22.13c-6.61-5.58-19.06-0.72-24.02 1.58z"/><path class="cls-24" d="m233 343.92s2.92-18.85 11-20.83 13-0.16 13.17 10.28-5 13.36-4.37 22.63 1.43 12.42 1.36 19.48-0.52 8.8-3.65 8.45c0 0 3.72-3.37 1.21-11.1s-3.8-17.59-1.23-25.72c4.34-13.7 0.13-23.45-5.6-20.51s-11.89 17.32-11.89 17.32z"/><path class="cls-24" d="m239 331.18s6.24 6.14 7.2 11.68-0.17 14.12-0.17 14.12-1.44-9.57-3-13.13-7.27-7-7.27-7 3.66-5.7 3.24-5.67z"/><path class="cls-23" d="m129.9 256.38c56.29-3.94 105 37 108.85 91.49s-38.75 101.83-95.04 105.77-105-37-108.85-91.49 38.75-101.83 95.04-105.77z"/><path class="cls-24" d="m141.43 256.2c51.27 2 93.77 41 97.32 91.67 3.81 54.47-38.75 101.83-95 105.77a106.44 106.44 0 0 1-16.75-0.14 108.53 108.53 0 0 0 11.53-0.18c56.3-3.94 98.85-51.31 95-105.77-3.35-49-43.15-87.07-92.1-91.35z"/><path class="cls-25" d="m129.9 256.38a105.71 105.71 0 0 1 19.61 0.44 106.28 106.28 0 0 0-15.25 0c-56.29 3.95-98.85 51.31-95 105.78 3.37 48 41.65 85.53 89.24 91-49.6-3.65-90.14-42-93.6-91.46-3.9-54.46 38.71-101.82 95-105.76z"/><path class="cls-24" d="m129.9 256.38c45.91-3.22 86.79 23.45 102.38 62.95l-0.9-0.31s-36.12-39.13-95.38-35.02c-50.08 3.5-86.94 33.75-97.12 43 11.92-38.35 47.33-67.56 91.02-70.62z"/><path class="cls-26" d="m99.08 376.46s9.75 5.54 39.92 1.54 38-7.78 38-7.78 6.62 49.85-33.78 52.29-44.14-46.05-44.14-46.05z"/><path class="cls-27" d="m175.54 394.48-0.16 0.61v0.07l-0.14 0.55-0.17 0.61-0.18 0.62-0.18 0.61-0.16 0.54-0.2 0.61-0.2 0.58-0.23 0.61-0.17 0.47v0.11l-0.24 0.61-0.2 0.48-0.28 0.64-0.26 0.59v0.09l-0.28 0.6-0.18 0.38-0.4 0.79-0.18 0.35-0.34 0.62-0.3 0.53-0.41 0.7-0.24 0.38-0.42 0.66-0.26 0.4-0.46 0.67-0.31 0.42-0.49 0.65-0.26 0.33c-0.18 0.24-0.38 0.48-0.57 0.71l-0.21 0.26-0.67 0.75-0.19 0.21-0.73 0.76-0.21 0.2c-0.26 0.26-0.53 0.51-0.8 0.76l-0.16 0.15-0.83 0.72-0.22 0.19c-0.3 0.24-0.6 0.48-0.91 0.71l-0.14 0.11-0.94 0.67-0.26 0.17-1 0.63-0.18 0.11-1.06 0.61-0.17 0.1c-0.38 0.2-0.76 0.41-1.15 0.6l-0.13 0.06-1.18 0.55-0.24 0.1-1.21 0.49-0.16 0.06c-0.44 0.16-0.88 0.32-1.34 0.47h-0.11c-0.47 0.16-0.94 0.31-1.42 0.44h-0.11c-0.5 0.14-1 0.27-1.51 0.39h-0.05c-0.52 0.12-1 0.22-1.58 0.32h-0.15l-1.56 0.26h-0.22c-0.52 0.07-1.05 0.14-1.59 0.18h-0.09c-0.6 0.06-1.2 0.1-1.82 0.14s-1.18 0.06-1.76 0.08h-0.17-1.69-0.14c-0.54 0-1.08 0-1.6-0.06h-0.11c-0.55 0-1.09-0.08-1.63-0.13h-0.09c-0.53-0.05-1-0.11-1.55-0.18h-0.09l-1.53-0.26h-0.11l-1.42-0.29h-0.18c-0.48-0.11-0.94-0.23-1.4-0.35l-1.33-0.41-0.21-0.06c-0.42-0.13-0.84-0.28-1.25-0.43l-0.18-0.07-1.12-0.44-0.23-0.1c-0.39-0.16-0.77-0.34-1.15-0.51l-0.19-0.09-1.15-0.58h-0.07l-1-0.55-0.31-0.18c-0.3-0.17-0.58-0.35-0.87-0.53l-0.41-0.26-0.7-0.47-0.45-0.31c-0.25-0.17-0.49-0.35-0.73-0.53l-0.3-0.23c-0.26-0.2-0.52-0.4-0.77-0.61l-0.39-0.31-0.6-0.52-0.5-0.44-0.57-0.52-0.32-0.31-0.37-0.36-0.06-0.07-0.55-0.55-0.35-0.37-0.44-0.48-0.34-0.37-0.33-0.38-0.3-0.34-0.32-0.39-0.59-0.73c25.62-34.88 53.35-21.47 64.09-14.07z"/><path class="cls-28" d="m123 413s-5.66-12.26 9.86-18.37 31.25-2.62 33.72 4.62-5 15.42-18.77 18.78-22.25 0.47-24.81-5.03z"/><path class="cls-29" d="m154.19 413.83s-6.07 3.88-12.55 2.66-10.23-3.56-5.52-5.45 7 0.42 11.36-0.87 10.89-2.71 6.71 3.66z"/><path class="cls-30" d="m172.86 332.16a3.83 3.83 0 0 1-3 3.95 2.89 2.89 0 0 1-3.38-2.85c0-0.06-1.32-22.38 14-22.44 14.12 0 16.36 19.35 16.37 19.4a3.85 3.85 0 0 1-2.79 4.11 2.85 2.85 0 0 1-3.53-2.59s-1.64-14.08-10.7-14.05c-7.83 0.02-6.97 14.43-6.97 14.47z"/><path class="cls-30" d="m80.31 338.63a3.84 3.84 0 0 1-3 4 2.89 2.89 0 0 1-3.38-2.85c0-0.06-1.32-22.38 14-22.44 14.12 0 16.37 19.35 16.37 19.4a3.85 3.85 0 0 1-2.79 4.11 2.86 2.86 0 0 1-3.51-2.63s-1.64-14.08-10.69-14.05c-7.84 0.02-7 14.43-7 14.46z"/><path class="cls-31" d="m110.89 428.31s12.49 8.69 20 8.92 16.75-10.58 16.75-10.58a20.42 20.42 0 0 0 16.73 9.3c11.62 0.3 18.28-11.38 18.28-11.38s6.39 48.54-1.52 74.52-19 33.12-19 33.12a49.64 49.64 0 0 0 9.36-26.46s-10.67 29.16-44 39.72-57.41-8.32-57.41-8.32 42.51 3.75 57.62-26.1c0 0-10.54 14.95-27.55 12.4l-8.47-3.51s21.57 3.72 28.11-15.06-0.43-35.67-8.9-76.57z"/><path class="cls-32" d="m73.9 539.65a39.36 39.36 0 0 1-3.79-2.5s40.93 3.61 56.74-24.45l0.68-1 3.42-9.9s-1.31 19.2-13.38 26.3c-9.9 5.85-30.89 11.17-43.67 11.55zm21.78-18.07c25.34-1.44 27.92-16.21 28.18-34.74s-9.88-47-11.4-51.09c7.73 35.6 13.48 51.53 7.36 69.13-6.54 18.78-28.11 15.06-28.11 15.06z"/><path class="cls-33" d="m147.62 426.65a20.42 20.42 0 0 0 16.73 9.3c11.62 0.3 18.28-11.38 18.28-11.38s6.39 48.54-1.52 74.52c-6.45 21.21-15 29.86-18 32.32 19.32-20 12.8-57.9 12.8-57.9v9.83c-0.45 11.08-4.42 22.41-4.42 22.41l-1.84 4.06a71.91 71.91 0 0 1-42.12 35.66c-33.28 10.56-57.41-8.32-57.41-8.32 35.07 21.12 71.18-4.49 77.57-26.79s-0.07-83.71-0.07-83.71z"/><path class="cls-31" d="m124.52 367.79s-8.79-11.58-26.52-10.34-26.17 15.44-22.94 41.55 9.55 69.27-9.65 76.72-29-5.48-25.1-16.55 14.57-13.22 18-5 0.82 11.68 0.82 11.68 10.53-10.59-2.34-20-31.87 7.39-22.43 28.32 41.74 26.18 52.14 0.58 8.17-44.23 7.07-66.68 4.07-48.72 30.95-40.28z"/><path class="cls-32" d="m63 454.77c-0.44-2.87-2.16-6-6.27-9-12.87-9.43-31.87 7.39-22.43 28.32a29.34 29.34 0 0 0 5.91 8.59c-4.57-5.76-9-14.51-7-23.58 2.94-13.18 13.91-16.44 21.37-13.46 4.54 1.79 7.11 6.04 8.42 9.13z"/><path class="cls-32" d="m107.82 358.1a35 35 0 0 0-9.84-0.65c-17.75 1.24-26.15 15.44-22.92 41.5s9.55 69.27-9.65 76.72c-6.06 2.35-11.18 2.67-15.23 1.66 3.39 1.35 7.85 1.95 13.65 0.78 18.28-3.66 18.3-29.87 15.85-57.24s-7.07-32.87 2-50.72c5.56-10.92 17.61-12.48 26.14-12.05z"/><path class="cls-32" d="m85.76 369s-4 4.71-4.29 7.5-0.44 4.13-0.44 4.13a65.26 65.26 0 0 1 3.21-7 26.18 26.18 0 0 0-0.66 3.87c-0.08 1.6 0 3.24 0 3.24l2.42-5.2v3.5l2.85-4.42s-1 6.87-0.74 6.32 3.21-6 3.21-6l-0.61 5.46a52.15 52.15 0 0 1 2.69-5.8 30.18 30.18 0 0 1 2.72-3.57l-3.59 2.37 0.72-2.89-4 3 0.61-3.62-3.76 3.11 1.1-3.12-2.29 2.14z"/><path class="cls-31" d="m150.75 366s7.09-12.7 24.84-13.95 28 11.65 28.47 37.91 0.2 69.93 20.25 74.63 28-9.47 22.55-19.89-16.27-11.06-18.48-2.46 0.82 11.68 0.82 11.68-11.9-9-0.48-20.15 32.59 2.88 26.16 24.92-37.68 31.74-51.56 7.84-14.25-42.7-16.32-65.09-10.82-47.59-36.25-35.44z"/><path class="cls-32" d="m223.77 443.51c0-2.89 1.3-6.23 4.95-9.78 11.43-11.13 32.59 2.88 26.16 24.92a29.6 29.6 0 0 1-4.66 9.33c3.73-6.34 6.9-15.62 3.63-24.32-4.74-12.65-16.06-14.35-23-10.36-4.25 2.41-6.2 6.98-7.08 10.21z"/><path class="cls-32" d="m165.93 354a35.37 35.37 0 0 1 9.66-2c17.75-1.24 28 11.65 28.47 37.91s0.2 69.93 20.25 74.63c6.33 1.48 11.44 1.08 15.32-0.48-3.17 1.81-7.51 3-13.41 2.67-18.62-1.07-22.29-27-23.67-54.47s2.41-33.54-9.06-49.95c-7.02-10.03-19.18-9.89-27.56-8.31z"/><path class="cls-32" d="m189.31 361.77s4.56 4.11 5.29 6.83 1 4 1 4a65.55 65.55 0 0 0-4.14-6.45 25.32 25.32 0 0 1 1.18 3.75c0.31 1.56 0.49 3.2 0.49 3.2l-3.13-4.84 0.44 3.48-3.45-4s2 6.67 1.62 6.16l-4-5.47 1.36 5.33a53.18 53.18 0 0 0-3.48-5.37 29.57 29.57 0 0 0-3.18-3.15l3.88 1.84-1.19-2.75 4.32 2.41-1.1-3.5 4.26 2.54-1.48-2.93 2.56 1.81z"/><path class="cls-31" d="m36.86 325.93a82.41 82.41 0 0 0-0.37 20.07s6-10.25 15.29-24.11 9.46-21.89 9.46-21.89c-3.89-0.43 2.72-5.29-1.17-5.72l-15.23 6.72z"/><path class="cls-31" d="m229.94 312.41a82.08 82.08 0 0 1 3.15 19.82s-7.34-9.32-18.49-21.75-12.43-20.38-12.43-20.38c3.8-1-3.42-4.86 0.38-5.83l16 4.58z"/><path class="cls-6" d="m130.75 281.31-6.19 0.43s-61.51 6.77-87.51 47l-26-50.32s-4.73-5.3 0.19-11.64 38.41-50.67 108.29-55.56l6.25-0.44z"/><path class="cls-5" d="m93.94 268.79s-0.25 5.43 2 7.61 11.36 4.5 17.91 1.21 8.46-6 8.46-6 3.8 1.64 6.41 1.46l1.44-0.1-0.63-9-13.41-5.7-6.69 5.66-0.22-8.32s-5.83 0.36-7.73 1.93-1.71 2.68-2 4.6-0.32 3-0.32 3z"/><polygon class="cls-5" points="99.23 256.78 100.76 249 107.81 251.11 108.92 245.69 100.68 241.26 94.61 242.85 89.94 252.04 89.25 254.47"/><polygon class="cls-5" points="66.7 285.17 70.22 293.19 85.46 287.77 85.97 286.29 82.05 276.41 91.71 271.96 86.27 258.06 51.9 275.12 57.69 289.07"/><polygon class="cls-5" points="83.48 240.75 87.82 252.75 57.87 265.44 54.5 253.91 63.25 251.06 60.31 238.24 70.91 235.17 74.37 244.44"/><polygon class="cls-5" points="27.19 288.54 53.2 266.12 46.57 256.62 39.83 262.45 34.53 256.12 28.43 260.81 33.33 270.61 21.39 277.14 19.62 279.19"/><path class="cls-5" d="m12.3 280.78-1.22-2.37s-4.73-5.3 0.19-11.64 38.41-50.67 108.29-55.56l6.25-0.44 0.88 12.59c-8.1 0.92-32.58 4-47.13 9.54-17.06 6.45-49.49 22.34-67.26 47.88z"/><path class="cls-7" d="m38.93 326c-0.64 0.9-1.27 1.81-1.88 2.75l-26-50.32a9 9 0 0 1-1.69-8.1c1.63 1.93 2.77 3.34 2.77 3.34l26.17 49.08s0.3 1.38 0.63 3.25z"/><polygon class="cls-5" points="32.09 297.61 44.59 286.92 44.82 278.67 46.8 277.31 55.83 289.41 47.67 296.28 53.1 304.74 44.79 311.14 35.59 304.88 28.16 311.5 24.61 304.62"/><path class="cls-8" d="m130.75 281.31-6.19 0.43s-61.51 6.77-87.51 47l-3.5-6.79c11.45-21.54 42.14-33.95 55.75-38.95 12.11-4.43 32.65-7.47 41-8.58z"/><path class="cls-8" d="m11 278.26c-0.72-0.92-4.11-5.79 0.32-11.49 4.92-6.33 38.41-50.67 108.29-55.56l6.25-0.44 0.7 10-6.26 0.44c-69.92 4.85-103.42 49.19-108.3 55.53a11.88 11.88 0 0 0-1 1.52z"/><path class="cls-9" d="m11 278.26c-0.72-0.92-4.11-5.79 0.32-11.49 4.92-6.33 38.41-50.67 108.29-55.56l6.25-0.44 0.21 3-2.74 0.2s-24.42-0.44-52.74 11.8-56.64 39.32-58.34 44c0 0-1 0.53 0.07 3.05 0.42 1 0.72 1.78 0.93 2.34-0.52 0.65-0.93 1.19-1.23 1.58a11.88 11.88 0 0 0-1.02 1.52z"/><polygon class="cls-8" points="96.68 246.07 111.92 249.8 113.99 240.21 98.75 236.48"/><polygon class="cls-8" points="94.25 226.57 88.66 252.43 97.81 254.67 103.38 228.81"/><polygon class="cls-9" points="94.24 226.57 88.66 252.43 89.8 252.71 95.22 228.12 103.06 230.32 103.38 228.81"/><polygon class="cls-8" points="56.42 286.65 66.61 281.8 72.14 294.47 85.31 288.2 79.79 275.53 89.98 270.68 84.4 257.9 50.85 273.87"/><polygon class="cls-9" points="56.42 286.65 57.79 286 53.23 275.14 84.33 260.08 86.7 263.17 84.4 257.9 50.85 273.87"/><polygon class="cls-8" points="27.25 309.73 32.78 305.2 40.95 316.18 52.35 306.85 44.18 295.86 52.99 288.64 44.75 277.56 20.77 297.19"/><polygon class="cls-9" points="27.25 309.73 28.88 308.39 23.41 297.85 45.12 280.12 52.29 289.22 52.99 288.64 44.75 277.56 20.77 297.19"/><polygon class="cls-8" points="44.06 271.52 51.48 265.21 44.27 255.88 36.84 262.2 29.7 252.96 20.11 261.12 27.26 270.36 19.84 276.68 27.05 286 34.47 279.69"/><polygon class="cls-9" points="44.27 255.88 36.84 262.2 32 255.92 32 255.92 31.02 256.75 36.78 264.18 44.48 257.79 50.8 265.78 51.48 265.21"/><polygon class="cls-8" points="81.23 240.5 72.36 244.26 68.08 233.25 56.62 238.12 60.91 249.12 52.05 252.88 56.37 263.99 85.56 251.61"/><polygon class="cls-9" points="53.51 253.85 62.44 249.89 58.1 238.42 56.99 239.08 60.91 249.12 52.05 252.88 56.37 263.99 57.2 263.64"/><path class="cls-11" d="m121.19 269.53s-8.74 11.06-20.84 7.05-6.46-14.64-0.37-13.32 6.13 4.91 6.13 4.91 7.25 4.05 15.08 1.36z"/><path class="cls-34" d="m93.35 270.43c-0.92-4 2.77-8 6.63-7.17 5.81 1.26 6.12 4.58 6.13 4.89a10.7 10.7 0 0 1-2.77 2.94c-3.48 2.6-5.2-1-5.2-1 1.68 1.56 4.1 0.2 4.7-1.52s0.46-4.19-4.29-3.46c-3.55 0.58-4.79 3.73-5.2 5.32z"/><path class="cls-35" d="m93.22 268.71c0.28-3.36 3.45-6.16 6.76-5.45 5.66 1.23 6.1 4.41 6.13 4.86v0.08a10.74 10.74 0 0 1-2.74 2.89l-0.28 0.2a26.67 26.67 0 0 1-3.3 0.48h-0.11l0.2-0.05c1.78-0.36 4.82-3.45 3.89-5.39s-3.71-3.21-7.16-1.4a6.89 6.89 0 0 0-3.39 3.78z"/><path class="cls-14" d="m121.19 269.53s-8.74 11.06-20.84 7.05c-4.65-1.54-6.68-4.06-7.07-6.5 1.11 1.73 4.13 5.16 11.09 6.21 9.44 1.44 13.56-5.15 13.56-5.15s-5.91-0.31-8.46-1.55a2.55 2.55 0 0 1-0.33-0.17 19.24 19.24 0 0 0 12.05 0.11z"/><path class="cls-36" d="m121.19 269.53s-8.74 11.06-20.84 7.05a11.43 11.43 0 0 1-6-4 16.48 16.48 0 0 0 10.4 4.42c8.35 0.7 12.61-4.19 14.24-5.76a5.31 5.31 0 0 0 1-1.29c0.39-0.16 0.79-0.28 1.2-0.42z"/><path class="cls-14" d="m102.52 264.07c3.57 1.59 3.59 4.1 3.59 4.1s0.25 0.14 0.7 0.35c-0.77 1.92-2.43 4.78-5.29 4.52-4.25-0.4-3.81-4.59-3.81-4.59s0.62 2.65 2.58 2.92 4.08-2.81 3.81-4.9a4 4 0 0 0-1.58-2.4z"/><path class="cls-36" d="m106.1 268v0.15s0.25 0.14 0.7 0.35c-0.77 1.92-2.43 4.78-5.29 4.52a3.81 3.81 0 0 1-3.72-3.21 4.15 4.15 0 0 0 3.49 2.44c3.48 0.55 4.12-4.66 3.92-5.21a10.48 10.48 0 0 0-1.15-1.7s1.6 1.29 1.74 2 0.13 0.66 0.31 0.66z"/><path class="cls-34" d="m107.25 269.89s5.81 1.63 7 1.61 2.54-0.15 2.54-0.15a51.89 51.89 0 0 1-7 1.19 11.65 11.65 0 0 1-3.72-0.55z"/><path class="cls-35" d="m107.53 270.55s3.23 0.88 4.15 1 1.49 0.2 1.49 0.2a44.37 44.37 0 0 1-4.65 0c-1.07-0.17-1.51-0.27-1.51-0.27z"/><path class="cls-34" d="m98.82 268.73a1 1 0 0 0 0.35 1.27 0.87 0.87 0 0 0 1.23-0.28 1 1 0 0 0-0.36-1.27 0.86 0.86 0 0 0-1.22 0.28z"/><path class="cls-34" d="m95.26 270.82s4.67 3.95 8.93 4.63a19.51 19.51 0 0 0 8.66-1s-7.41 2.4-11.53 0.68a15 15 0 0 1-6.06-4.31z"/><path class="cls-11" d="m121.5 269.79s-10.81 4.17-18-4.09 1.12-13.47 5-9.82 2.52 6.27 2.52 6.27 3.69 6.13 10.48 7.64z"/><path class="cls-34" d="m100.79 258.15a4.78 4.78 0 0 1 7.71-2.27c3.74 3.47 2.64 6 2.53 6.25a8.55 8.55 0 0 1-3.2 0.91 2.84 2.84 0 0 1-3.42-3 2.54 2.54 0 0 0 4 1c1.13-1 2-2.83-1.76-4.41a5.29 5.29 0 0 0-5.86 1.52z"/><path class="cls-35" d="m101.39 256.85a4.77 4.77 0 0 1 7.11-1c3.65 3.39 2.7 5.89 2.54 6.22h-0.06a8.48 8.48 0 0 1-3.15 0.89h-0.29a23.43 23.43 0 0 1-2.6-1.11l-0.06-0.08 0.16 0.05c1.45 0.53 4.91-0.37 5-2.2s-1.43-4-4.68-4.17a5.4 5.4 0 0 0-3.97 1.4z"/><path class="cls-14" d="m121.5 269.79s-10.81 4.17-18-4.09c-2.79-3.17-3.26-5.89-2.58-7.83 0.12 1.73 1 5.56 5.64 9.4 6.32 5.2 12 2.24 12 2.24s-4.21-2.83-5.57-4.86a2 2 0 0 1-0.17-0.27 17 17 0 0 0 8.68 5.41z"/><path class="cls-36" d="m121.5 269.79s-10.81 4.17-18-4.09a10.26 10.26 0 0 1-2.82-5.54 14.84 14.84 0 0 0 5.89 7.75 14 14 0 0 0 12.67 2.09 4 4 0 0 0 1.23-0.51c0.34 0.13 0.68 0.22 1.03 0.3z"/><path class="cls-14" d="m110 257.58c2 2.73 1 4.57 1 4.57l0.38 0.56c-1.34 1-3.7 2.39-5.68 0.94a3.54 3.54 0 0 1-1-5s-0.61 2.19 0.72 3.25 4.11-0.23 4.75-1.87a3.59 3.59 0 0 0-0.17-2.45z"/><path class="cls-36" d="m111.07 262v0.13l0.38 0.56c-1.34 1-3.7 2.39-5.68 0.94a3.36 3.36 0 0 1-1.43-4 3.68 3.68 0 0 0 1.57 3.31c2.32 1.93 4.87-1.56 4.94-2.05a8.09 8.09 0 0 0-0.15-1.74 5.53 5.53 0 0 1 0.46 2.22c-0.23 0.63-0.23 0.63-0.09 0.63z"/><path class="cls-34" d="m111.16 263.89a51.38 51.38 0 0 0 4.52 4.28c0.92 0.53 1.92 1 1.92 1a45.74 45.74 0 0 1-5.6-2.17 10.55 10.55 0 0 1-2.49-2z"/><path class="cls-35" d="m111.11 264.49s2 2.07 2.63 2.55 1 0.81 1 0.81a39.57 39.57 0 0 1-3.4-2.07c-0.72-0.59-1-0.85-1-0.85z"/><path class="cls-34" d="m105.47 259.33a0.8 0.8 0 0 0-0.25 1.08 0.73 0.73 0 0 0 1 0.33 0.8 0.8 0 0 0 0.24-1.07 0.73 0.73 0 0 0-0.99-0.34z"/><path class="cls-34" d="m102 259.27s1.83 4.93 4.68 7.31a17 17 0 0 0 6.72 3.12s-6.38-1.53-8.71-4.59a13.55 13.55 0 0 1-2.69-5.84z"/><polygon class="cls-9" points="93.88 241.03 97.44 231.93 100.54 232.76 100.98 231.04 100.08 230.82 96.13 229.75"/><polygon class="cls-9" points="56.4 258.63 56.7 255.67 61.24 251.82 58.49 252.87 54.64 254.57"/><polygon class="cls-9" points="56.88 280.38 57.89 276.8 60.91 273.25 55.2 275.78"/><polygon class="cls-9" points="27.14 301.78 27.73 298.58 30.89 293.69 25.28 298.49"/><polygon class="cls-9" points="40.47 312.76 39.19 313.81 32.78 305.2 34.74 303.65"/><polygon class="cls-9" points="72.37 290.04 70.58 290.9 66.61 281.8 68.36 280.81"/><path class="cls-6" d="m130.75 281.31 6.18-0.44s61.86-1.86 93.21 34.34l18.71-53.45s3.93-5.91-1.82-11.49-45.09-44.83-115-39.94l-6.25 0.44z"/><path class="cls-5" d="m165.45 263.78s1 5.35-0.92 7.82-10.62 6-17.56 3.7-9.22-4.78-9.22-4.78-3.53 2.16-6.14 2.34l-1.45 0.1-0.63-9 12.47-7.53 7.41 4.67-0.94-8.27s5.83-0.46 7.92 0.84 2.07 2.41 2.6 4.28 0.73 2.88 0.73 2.88z"/><polygon class="cls-5" points="158.54 252.63 155.94 245.14 149.26 248.21 147.4 242.99 154.94 237.46 161.17 238.19 167.08 246.64 168.1 248.95"/><polygon class="cls-5" points="194.71 276.21 192.34 284.64 176.5 281.4 175.78 280 178.29 269.68 168.1 266.62 171.56 252.09 207.97 264.19 204.18 278.81"/><polygon class="cls-5" points="171.9 234.56 169.28 247.05 200.7 255.44 202.43 243.56 193.38 241.95 194.5 228.85 183.57 227.28 181.44 236.95"/><polygon class="cls-5" points="234.3 274.04 205.43 255.46 210.66 245.13 218.16 249.96 222.51 242.96 229.21 246.76 225.72 257.13 238.46 261.94 240.49 263.72"/><path class="cls-5" d="m248 264.28 0.88-2.52s3.93-5.91-1.82-11.49-45.09-44.83-115-39.94l-6.25 0.44 0.88 12.59c8.15-0.22 32.83-0.55 48 2.88 17.79 4.01 52.12 15.22 73.31 38.04z"/><path class="cls-7" d="m227.89 312.75c0.76 0.8 1.51 1.61 2.25 2.46l18.71-53.45a9 9 0 0 0 0.53-8.25c-1.34 2.14-2.27 3.69-2.27 3.69l-19.11 52.25s0 1.42-0.11 3.3z"/><polygon class="cls-5" points="230.72 283.7 216.84 274.86 215.47 266.72 213.32 265.66 206.06 278.89 215.1 284.55 210.9 293.69 220.03 298.87 228.26 291.39 236.54 296.91 239.1 289.6"/><path class="cls-8" d="m130.75 281.31 6.18-0.44s61.86-1.86 93.21 34.34l2.52-7.21c-14.33-19.73-46.47-27.75-60.63-30.78-12.62-2.7-33.38-2.85-41.76-2.79z"/><path class="cls-8" d="m249 261.59c0.58-1 3.26-6.29-1.92-11.32-5.75-5.59-45.09-44.83-115-39.94l-6.25 0.44 0.7 10 6.25-0.44c69.87-4.89 109.22 34.35 115 39.94a12.46 12.46 0 0 1 1.22 1.32z"/><path class="cls-9" d="m249 261.59c0.58-1 3.26-6.29-1.92-11.32-5.75-5.59-45.09-44.83-115-39.94l-6.25 0.44 0.21 3 2.73-0.19s24.13-3.83 53.88 4.34 61.55 31 63.89 35.47c0 0 1 0.39 0.37 3-0.28 1.05-0.47 1.85-0.6 2.44 0.61 0.57 1.09 1 1.44 1.39a12.46 12.46 0 0 1 1.25 1.37z"/><polygon class="cls-8" points="159.57 241.66 145 247.49 141.62 238.28 156.19 232.46"/><polygon class="cls-8" points="159.27 222.02 168.39 246.84 159.65 250.34 150.53 225.51"/><polygon class="cls-9" points="159.27 222.01 168.39 246.84 167.31 247.28 158.51 223.69 151.06 226.96 150.53 225.51"/><polygon class="cls-8" points="205.09 276.25 194.32 272.86 190.62 286.17 176.7 281.8 180.41 268.49 169.64 265.1 173.38 251.67 208.83 262.81"/><polygon class="cls-9" points="205.09 276.25 203.65 275.79 206.64 264.39 173.76 253.82 171.84 257.21 173.38 251.67 208.83 262.81"/><polygon class="cls-8" points="237.2 295.03 231.09 291.31 224.53 303.33 211.94 295.67 218.5 283.66 208.76 277.74 215.39 265.61 241.86 281.71"/><polygon class="cls-9" points="237.2 295.03 235.4 293.93 239.35 282.73 215.37 268.2 209.54 278.21 208.76 277.74 215.39 265.61 241.86 281.71"/><polygon class="cls-8" points="215.23 259.54 207 254.32 212.85 244.08 221.07 249.3 226.86 239.15 237.49 245.9 231.71 256.05 239.93 261.27 234.09 271.51 225.86 266.29"/><polygon class="cls-9" points="212.85 244.08 221.07 249.3 225 242.41 225 242.41 226.08 243.09 221.41 251.25 212.89 246 207.75 254.79 207 254.32"/><polygon class="cls-8" points="174.1 234 183.4 236.49 186.11 224.99 198.13 228.21 195.42 239.71 204.72 242.19 201.98 253.8 171.37 245.61"/><polygon class="cls-9" points="203.41 243.35 194.02 240.68 196.71 228.71 197.89 229.21 195.42 239.71 204.72 242.19 201.98 253.8 201.11 253.57"/><path class="cls-11" d="m138.57 268.31s10.2 9.74 21.62 4.08 4.36-15.4-1.49-13.24-5.39 5.72-5.39 5.72-6.61 5.01-14.74 3.44z"/><path class="cls-34" d="m166.27 265.33c0.34-4.13-3.86-7.55-7.57-6.18-5.58 2.06-5.42 5.38-5.39 5.69a10.79 10.79 0 0 0 3.15 2.53c3.82 2.09 5-1.68 5-1.68-1.45 1.79-4 0.78-4.87-0.85s-1-4.08 3.77-4c3.64 0.02 5.27 2.97 5.91 4.49z"/><path class="cls-35" d="m166.15 263.6c-0.74-3.28-4.28-5.62-7.45-4.45-5.44 2-5.42 5.22-5.39 5.67v0.07a10.62 10.62 0 0 0 3.11 2.48l0.32 0.16a28.66 28.66 0 0 0 3.33 0l0.09-0.07h-0.19c-1.82-0.11-5.27-2.75-4.61-4.8s3.22-3.7 6.9-2.38a6.9 6.9 0 0 1 3.89 3.32z"/><path class="cls-14" d="m138.57 268.31s10.2 9.74 21.62 4.08c4.39-2.17 6.05-4.95 6.1-7.42-0.86 1.86-3.38 5.68-10.12 7.7-9.17 2.73-14.17-3.21-14.17-3.21s5.81-1.14 8.17-2.72c0.11-0.07 0.2-0.15 0.3-0.22a19.21 19.21 0 0 1-11.9 1.79z"/><path class="cls-36" d="m138.57 268.31s10.2 9.74 21.62 4.08a11.45 11.45 0 0 0 5.41-4.77c-1.29 1.69-4.18 4.5-9.71 5.75-8.18 1.86-13.07-2.39-14.91-3.72a5.19 5.19 0 0 1-1.15-1.14c-0.41-0.05-0.83-0.11-1.26-0.2z"/><path class="cls-14" d="m156.3 260.31c-3.31 2.07-3 4.56-3 4.56s-0.22 0.17-0.65 0.44c1 1.79 3.09 4.4 5.87 3.74 4.17-1 3.14-5.08 3.14-5.08s-0.24 2.72-2.15 3.25-4.43-2.21-4.46-4.32a4.06 4.06 0 0 1 1.25-2.59z"/><path class="cls-36" d="m153.31 264.71a0.67 0.67 0 0 0 0 0.16s-0.22 0.17-0.65 0.44c1 1.79 3.09 4.4 5.87 3.74a3.82 3.82 0 0 0 3.24-3.7 4.15 4.15 0 0 1-3.12 2.91c-3.36 1-4.72-4.05-4.6-4.62a10.39 10.39 0 0 1 0.9-1.84s-1.4 1.5-1.44 2.23-0.03 0.68-0.2 0.68z"/><path class="cls-34" d="m152.43 266.73s-5.53 2.42-6.76 2.57-2.54 0.21-2.54 0.21a52.76 52.76 0 0 0 7.13 0.2 11.72 11.72 0 0 0 3.6-1.07z"/><path class="cls-35" d="m152.24 267.42s-3.07 1.32-4 1.56-1.45 0.41-1.45 0.41a45.06 45.06 0 0 0 4.61-0.67c1-0.31 1.45-0.47 1.45-0.47z"/><path class="cls-34" d="m160.61 264.4a1 1 0 0 1-0.17 1.31 0.86 0.86 0 0 1-1.25-0.11 1 1 0 0 1 0.17-1.3 0.86 0.86 0 0 1 1.25 0.1z"/><path class="cls-34" d="m164.43 266s-4.08 4.57-8.21 5.83a19.53 19.53 0 0 1-8.71 0.26s7.69 1.35 11.53-0.93a15.07 15.07 0 0 0 5.39-5.16z"/><path class="cls-11" d="m138.29 268.61s11.29 2.62 17.32-6.56-3-13.19-6.38-9-1.62 6.55-1.62 6.55-2.79 6.57-9.32 9.01z"/><path class="cls-34" d="m157.19 254.2a4.78 4.78 0 0 0-8-1.17c-3.22 4-1.77 6.32-1.63 6.54a8.47 8.47 0 0 0 3.3 0.45 2.83 2.83 0 0 0 3-3.44 2.54 2.54 0 0 1-3.88 1.53c-1.26-0.82-2.38-2.52 1.13-4.61a5.3 5.3 0 0 1 6.08 0.7z"/><path class="cls-35" d="m156.42 253a4.79 4.79 0 0 0-7.19 0c-3.14 3.86-1.84 6.2-1.64 6.52h0.06a8.25 8.25 0 0 0 3.25 0.44h0.29a23.33 23.33 0 0 0 2.42-1.46v-0.09l-0.15 0.08c-1.36 0.72-4.91 0.31-5.26-1.48s0.87-4.13 4-4.79a5.5 5.5 0 0 1 4.22 0.78z"/><path class="cls-14" d="m138.29 268.61s11.29 2.62 17.32-6.56c2.31-3.53 2.4-6.29 1.46-8.12 0.12 1.74-0.18 5.64-4.27 10.1-5.54 6-11.55 3.89-11.55 3.89s3.77-3.39 4.85-5.59c0-0.1 0.09-0.2 0.12-0.29a17 17 0 0 1-7.93 6.57z"/><path class="cls-36" d="m138.29 268.61s11.29 2.62 17.32-6.56a10.32 10.32 0 0 0 2-5.88 14.7 14.7 0 0 1-4.74 8.49 14 14 0 0 1-12.31 3.87 4.22 4.22 0 0 1-1.28-0.33c-0.28 0.15-0.64 0.28-0.99 0.41z"/><path class="cls-14" d="m148 254.93c-1.57 3-0.34 4.65-0.34 4.65a6.73 6.73 0 0 1-0.29 0.61c1.47 0.85 4 1.86 5.75 0.14a3.54 3.54 0 0 0 0.24-5.09s0.92 2.09-0.25 3.32-4.1 0.35-5-1.19a3.56 3.56 0 0 1-0.11-2.44z"/><path class="cls-36" d="m147.54 259.47 0.07 0.11a6.73 6.73 0 0 1-0.29 0.61c1.47 0.85 4 1.86 5.75 0.14a3.39 3.39 0 0 0 0.87-4.13 3.7 3.7 0 0 1-1.1 3.5c-2 2.24-5-0.87-5.18-1.34a8.5 8.5 0 0 1-0.09-1.75 5.67 5.67 0 0 0-0.16 2.27c0.27 0.55 0.26 0.51 0.13 0.59z"/><path class="cls-34" d="m147.71 261.33a53.13 53.13 0 0 1-3.87 4.87c-0.84 0.65-1.76 1.27-1.76 1.27a43.65 43.65 0 0 0 5.25-3 10.54 10.54 0 0 0 2.18-2.37z"/><path class="cls-35" d="m147.85 261.92s-1.7 2.33-2.25 2.89-0.89 0.95-0.89 0.95a38.83 38.83 0 0 0 3.07-2.53c0.63-0.68 0.87-1 0.87-1z"/><path class="cls-34" d="m152.72 256a0.81 0.81 0 0 1 0.4 1 0.74 0.74 0 0 1-1 0.48 0.81 0.81 0 0 1-0.4-1 0.73 0.73 0 0 1 1-0.48z"/><path class="cls-34" d="m156.12 255.49s-1.14 5.13-3.62 7.88a16.9 16.9 0 0 1-6.22 4s6.11-2.4 8-5.76a13.56 13.56 0 0 0 1.84-6.12z"/><polygon class="cls-9" points="161.64 236.29 156.85 227.77 153.9 229.03 153.23 227.39 154.09 227.03 157.84 225.43"/><polygon class="cls-9" points="201.22 248.49 200.5 245.6 195.47 242.43 198.34 243.08 202.39 244.23"/><polygon class="cls-9" points="203.76 270.09 202.26 266.69 198.77 263.6 204.79 265.31"/><polygon class="cls-9" points="236.19 287.14 235.16 284.06 231.35 279.65 237.57 283.63"/><polygon class="cls-9" points="224.52 299.88 225.94 300.74 231.09 291.31 228.93 290.05"/><polygon class="cls-9" points="189.77 281.81 191.66 282.42 194.32 272.86 192.46 272.12"/><path class="cls-8" d="m127.6 223.54a23.86 23.86 0 1 1-22.14 25.46 23.87 23.87 0 0 1 22.14-25.46z"/><path class="cls-9" d="m127.6 223.54a23.87 23.87 0 0 1 25.47 22.14v0.52a22.78 22.78 0 1 0-21.65 24.9h-0.52a23.863 23.863 0 0 1-3.33-47.61z"/><path class="cls-10" d="m128.13 231.19a16.19 16.19 0 1 1-15 17.29 16.18 16.18 0 0 1 15-17.29z"/><circle class="cls-17" transform="rotate(-4.08 129.76 247.77)" cx="129.91" cy="247.9" r="15.59"/><path class="cls-11" d="m129 234.61a13.32 13.32 0 1 1-12.36 14.22 13.33 13.33 0 0 1 12.36-14.22z"/><path class="cls-12" d="m129 234.61a13.35 13.35 0 0 1 11.59 5.29 13.33 13.33 0 0 0-20.12 17.39 13.33 13.33 0 0 1 8.53-22.68z"/><path class="cls-12" d="m125.91 238.75a4.71 4.71 0 1 1-4.36 5 4.72 4.72 0 0 1 4.36-5z"/><path class="cls-13" d="m124.93 239.4a2.95 2.95 0 1 1-2.73 3.15 2.94 2.94 0 0 1 2.73-3.15z"/><path class="cls-14" d="m123 253s7.92 2.67 11.55-0.81 2.42-8.45 2-10.89 3.63-3 4.79 4-0.68 11.88-6.36 13.56-11.08 0-12.88-2.64-1.43-4.28 0.9-3.22z"/><path class="cls-15" d="m140.11 241.37a11.34 11.34 0 0 1 1.27 3.85c1.15 6.94-0.68 11.88-6.36 13.56-5.44 1.62-10.59 0.17-12.61-2.29 2.4 0.43 9.45 1.48 12.62-0.28a10.45 10.45 0 0 0 5.43-9.27c-0.04-2.18-0.23-4.34-0.35-5.57z"/><path class="cls-9" d="m106.14 216.6s-11.2 1.16-15.47 3.62c0 0-1.35 0.47-0.46 2.44s4.08 0.22 6.93-0.61a105.27 105.27 0 0 1 11.13-2.31c3.13-0.47 2.03-3.56-2.13-3.14z"/><path class="cls-31" d="m171.71 458.39s2.29 28.54-0.56 39.47-11.78 23.73-11.78 23.73 8.54-16.26 8.49-29.45-0.67-24-1.14-30.65-1.82-15.82-1.82-15.82 6.58 7.33 6.81 12.72z"/><path class="cls-31" d="m165 469.24s1.28 27.82-4.61 41.73-12.88 21.73-19.82 26.87c0 0 17.34-18.05 19.73-40.81s3.93-45 3.93-45 0.67 16.55 0.77 17.21z"/><path class="cls-8" d="m167.55 247.41s-1 6.1 7.41 6.41 14.28-6.52 10.74-17.16c0 0-2.3-4.22-6.27-5 0 0 6-8.59-1.22-12.71a9.54 9.54 0 0 0-12.11 1.53s-3.3-7.48-14.22-3.48-12.17 20.81 4.18 21.27c0 0-3.78 6.12 2.3 10.4s9.19-1.26 9.19-1.26z"/><path class="cls-10" d="m179.48 231.54c0.55-0.83 5.57-8.74-1.27-12.64a9.54 9.54 0 0 0-12.11 1.53l-0.06-0.13-0.1 0.3a14.15 14.15 0 0 1 5.36-2.11c3.22-0.57 6.6-0.05 8.85 4s-0.69 9-0.69 9z"/><path class="cls-10" d="m166.07 220.36c-0.37-0.73-3.88-7.16-14.19-3.36-10.68 3.93-12.11 20.06 3.11 21.21-2-0.47-8.29-2.32-9.83-7-1.85-5.61 1.84-12.29 8.75-14.08s10.09 1.42 10.81 2.21 1.17 1.37 1.17 1.37z"/><path class="cls-10" d="m167.55 247.41s-1 6.1 7.41 6.41 14.28-6.52 10.74-17.16a10.47 10.47 0 0 0-0.85-1.27 18 18 0 0 1 1.4 8.68 10.73 10.73 0 0 1-11.37 9.1c-6.9-0.31-6.73-6.1-6.73-6.1l-0.79-0.54c-2.31 4-6 3.24-9.75 0.12s-1.24-8.42-1.24-8.42l-0.39 0.18c-0.5 0.91-3.17 6.35 2.38 10.26 6.08 4.33 9.19-1.26 9.19-1.26z"/><path class="cls-21" d="m174.91 247.42s3.68-0.45 4.18-3-0.22-3.78-1.63-4.6-5.7-1.29-6.89-0.3a13.79 13.79 0 0 0-3.19 4.36c-0.15 0.74-1 0-0.38-1.47s2.33-4.19 4.46-4.87 4.42-0.57 5.69 0.3 3.23 2.57 3.55 3.65-0.59 3.66-0.74 4-1.23 2.24-1.23 2.24l-2.67 0.16z"/><path class="cls-21" d="m157.71 237.84s4.68-2.45 4.71-6.23-3-6.28-5.37-6.13a3.93 3.93 0 0 0-3.85 3.19c-0.22 1.47 1.23 3.91 1.23 3.91a2.21 2.21 0 0 1-2.09-1.88c-0.24-1.81 0.37-4.79 1.24-5.64s5.36-1.89 7.24-0.17a7.15 7.15 0 0 1 2.76 5.84c0.08 2.75-0.2 2.78-1 4a6.31 6.31 0 0 1-1.92 1.86c-0.25 0.07-2.95 1.25-2.95 1.25z"/><path class="cls-21" d="m169.4 237.49a14.36 14.36 0 0 1 2-1.4c0.64-0.31 1-0.54 1-0.54s-0.32-2.87-1.73-3.84a9.74 9.74 0 0 0-4.7-1.23 6.32 6.32 0 0 0-1.87 0.56l-0.18-1.81s1.14-0.76 4.12-0.15 5.08 1.69 5.59 3a42.16 42.16 0 0 1 1.13 4.14s-0.18 0.65-0.67 0.61a32.68 32.68 0 0 0-3.4 0.5z"/><path class="cls-22" d="m164.18 230a8.71 8.71 0 0 1 6.33 0.85c2.86 1.82 2.84 6.08 2.84 6.08l2.28 0.14s0.12-5.46-3.19-7.59-8.84-1.16-8.84-1.16z"/><path class="cls-22" d="m167.55 247.41s-1.21-6.68 3.5-8.72 9.59 1.63 8.92 5-2.82 4.23-5.05 3.65-2.5-2.77-1.11-4.3 2.16-0.22 2.23 0.32c1-1.29-2.23-3.7-4 0.17-1 3.4 1.26 6.36 7.06 4.55 0 0 4.62-2 1.46-8.22s-11.4-3.51-12.69-1-1.94 5.72-0.32 8.55z"/><path class="cls-22" d="m156 238.24s6.69-1.14 7-6.26-4.81-8.46-7.7-6.7-3 4.09-1.72 6 3.46 1.4 4.43-0.43-0.54-2.11-1.07-2c0.88-1.36 4.24 0.84 1.19 3.8-2.86 2.07-6.41 1-6.68-5.09 0 0 0.31-5 7.23-4.17s7.19 9.52 5.3 11.57-4.78 3.84-7.98 3.28z"/><path class="cls-8" d="m91.36 252.74s1.85 5.9-6.45 7.38-15-4.46-13-15.49c0 0 1.69-4.5 5.5-5.88 0 0-7.14-7.66-0.55-12.75a9.52 9.52 0 0 1 12.2-0.17s2.22-7.85 13.6-5.39 15 18.92-1.18 21.65c0 0 4.6 5.54-0.82 10.63s-9.3 0.02-9.3 0.02z"/><path class="cls-10" d="m77.33 238.69c-0.66-0.75-6.73-7.87-0.49-12.69a9.52 9.52 0 0 1 12.2-0.17 1.31 1.31 0 0 1 0-0.14l0.14 0.28a14.14 14.14 0 0 0-5.59-1.35c-3.27-0.11-6.55 0.88-8.21 5.26s1.94 8.82 1.94 8.82z"/><path class="cls-10" d="m89.06 225.75c0.26-0.77 2.84-7.63 13.58-5.31 11.13 2.41 14.79 18.19-0.12 21.45 1.92-0.76 7.88-3.46 8.76-8.32 1-5.82-3.54-11.92-10.64-12.73s-9.79 2.81-10.39 3.69-1 1.53-1 1.53-0.06-0.12-0.19-0.31z"/><path class="cls-10" d="m91.36 252.74s1.85 5.9-6.45 7.38-15-4.46-13-15.49a10.38 10.38 0 0 1 0.67-1.38 17.9 17.9 0 0 0-0.18 8.79 10.72 10.72 0 0 0 12.52 7.43c6.8-1.27 5.82-7 5.82-7l0.71-0.65c2.84 3.67 6.36 2.39 9.67-1.24s0.06-8.5 0.06-8.5l0.4 0.12a7.58 7.58 0 0 1-0.92 10.5c-5.45 5.1-9.3 0.04-9.3 0.04z"/><path class="cls-21" d="m84.08 253.78s-3.71 0.06-4.56-2.38-0.31-3.78 1-4.78 5.46-2.07 6.77-1.26a13.93 13.93 0 0 1 3.71 3.87c0.25 0.72 0.94-0.15 0.16-1.5s-2.88-3.83-5.08-4.2-4.46 0.05-5.6 1.08-2.84 3-3 4.11 1.1 3.55 1.29 3.89 1.54 2 1.54 2l2.66-0.21z"/><path class="cls-21" d="m99.77 241.9s-5-1.78-5.53-5.52 2.13-6.64 4.47-6.82a3.92 3.92 0 0 1 4.24 2.63c0.44 1.42-0.66 4-0.66 4a2.19 2.19 0 0 0 1.8-2.15c0-1.83-1-4.7-2-5.42s-5.57-1.12-7.18 0.84a7.13 7.13 0 0 0-1.91 6.21c0.3 2.74 0.58 2.73 1.56 3.77a6.35 6.35 0 0 0 2.13 1.56c0.25 0.11 3.08 0.9 3.08 0.9z"/><path class="cls-21" d="m88.15 243.18a14.86 14.86 0 0 0-2.15-1.11c-0.68-0.22-1.09-0.39-1.09-0.39s-0.08-2.9 1.19-4.05a9.87 9.87 0 0 1 4.48-1.88 6.75 6.75 0 0 1 1.93 0.3l-0.08-1.82s-1.23-0.59-4.1 0.43-4.8 2.38-5.11 3.79a40.79 40.79 0 0 0-0.54 4.26s0.27 0.61 0.74 0.5a34.19 34.19 0 0 1 3.44 0z"/><path class="cls-22" d="m92.26 235a8.66 8.66 0 0 0-6.14 1.73c-2.58 2.19-2 6.41-2 6.41l-2.24 0.46s-0.87-5.38 2.11-8 8.59-2.38 8.59-2.38z"/><path class="cls-22" d="m91.36 252.74s0.27-6.78-4.68-8.15-9.27 3-8.14 6.16 3.38 3.8 5.51 2.92 2.08-3.1 0.5-4.42-2.18 0.08-2.16 0.63c-1.15-1.14 1.69-4 4-0.39 1.39 3.23-0.39 6.51-6.39 5.51 0 0-4.86-1.34-2.6-7.93s10.79-5.07 12.42-2.8 2.75 5.45 1.54 8.47z"/><path class="cls-22" d="m101.53 242.06s-6.78-0.2-7.81-5.23 3.58-9 6.69-7.71 3.56 3.64 2.54 5.7-3.23 1.87-4.44 0.2 0.23-2.16 0.77-2.11c-1.06-1.22-4.08 1.42-0.65 3.92 3.12 1.65 6.48 0.08 5.91-6 0 0-1-4.94-7.75-3.13s-5.78 10.43-3.63 12.2 5.27 3.16 8.37 2.16z"/><path class="cls-8" d="m132.12 166.8s3.65 6.67 12 0.6 8.91-17.13-2.57-24.76c0 0-5.43-2.35-9.9-0.15 0 0-0.68-12.86-10.81-11.39a11.72 11.72 0 0 0-10.57 10.64s-8.84-4.73-16.39 7.43 4 29.39 20.16 17.46c0 0 1 8.8 10.1 8.34s7.98-8.17 7.98-8.17z"/><path class="cls-10" d="m131.68 142.38c-0.09-1.22-1.21-12.68-10.8-11.28a11.72 11.72 0 0 0-10.57 10.64l-0.16-0.07 0.13 0.35a17.42 17.42 0 0 1 3.59-6.09c2.69-3 6.36-5 11.65-2.77s6.15 9.25 6.15 9.25z"/><path class="cls-10" d="m110.22 141.7c-0.9-0.44-9.18-4-16.3 7.47-7.37 11.89 3.45 28.62 19.07 18.22-2.3 1.05-9.79 4-14.84 0.63-6-4-7.51-13.3-2.17-20.28s10.85-6.26 12.15-6 2.17 0.45 2.17 0.45z"/><path class="cls-10" d="m132.12 166.8s3.65 6.67 12 0.6 8.91-17.13-2.57-24.76a12.94 12.94 0 0 0-1.79-0.58 22 22 0 0 1 7.92 7.35 13.17 13.17 0 0 1-4.13 17.41c-6.92 4.94-11.14-0.8-11.14-0.8l-1.18 0.06c0.82 5.66-3.33 7.67-9.35 7.5s-7.57-7.22-7.57-7.22l-0.25 0.46c0.21 1.27 1.74 8.57 10.08 8.15 9.17-0.45 7.98-8.17 7.98-8.17z"/><path class="cls-21" d="m139.27 161.24s3.22-3.23 1.79-6.06-3.06-3.51-5.06-3.18-6.49 3.07-6.9 4.92-0.22 5.8 0.21 6.64-1 0.7-1.48-1.14-0.91-5.82 0.64-8.09 3.85-3.9 5.73-4 5.08 0.05 6.21 0.86 2.19 4 2.34 4.46 0.49 3.1 0.49 3.1l-2.47 2.18z"/><path class="cls-21" d="m115.35 165s2.68-5.92-0.15-9.6-7.69-3.79-9.85-1.88a4.81 4.81 0 0 0-1.3 6c0.88 1.6 4.14 2.87 4.14 2.87a2.71 2.71 0 0 1-3.45-0.24c-1.6-1.57-3.27-4.92-3.06-6.42s3.76-5.88 6.88-5.63 4.93 1 7.09 3.57 1.92 2.85 2 4.6a8 8 0 0 1-0.45 3.26c-0.13 0.25-1.85 3.47-1.85 3.47z"/><path class="cls-21" d="m126.42 155.79a17.58 17.58 0 0 1 0.85-2.86c0.39-0.79 0.58-1.3 0.58-1.3s-2.48-2.54-4.59-2.4a12.06 12.06 0 0 0-5.48 2.35 7.86 7.86 0 0 0-1.39 2l-1.55-1.62s0.53-1.6 3.89-3.27 6.2-2.2 7.71-1.28a49.82 49.82 0 0 1 4.23 3.17s0.31 0.75-0.19 1.08-2.91 3.07-2.91 3.07z"/><path class="cls-22" d="m115.65 152.42a10.69 10.69 0 0 1 6.78-4c4.14-0.41 7.36 3.73 7.36 3.73l2.31-1.59s-4-5.36-8.84-4.93-9.44 5.56-9.44 5.56z"/><path class="cls-22" d="m132.12 166.8s-6.22-5.57-3.19-11.11 10.52-5.67 12.39-1.94 0.47 6.24-2.13 7.37-4.52-0.8-4.33-3.33 1.93-1.85 2.4-1.38c0-2-5-1.89-3.72 3.18 1.63 4 6 5.21 10.28-0.93 0 0 3-5.44-4.8-9.08s-13.71 5.22-13.09 8.6 2.49 7.1 6.19 8.62z"/><path class="cls-22" d="m114 166.66s5.61-6.17 2.05-11.37-11.06-4.57-12.53-0.67 0.17 6.25 2.87 7.11 4.41-1.26 4-3.76-2.12-1.64-2.54-1.12c-0.16-2 4.75-2.39 4 2.78-1.21 4.17-5.47 5.8-10.33 0.13 0 0-3.5-5.11 3.85-9.52s14.17 3.79 13.9 7.21-1.75 7.32-5.27 9.21z"/><path class="cls-24" d="m115 356.11s4.19 10.63 19.33 9.2 22.3-5.56 24.38-12.07-3.71-11.93-11.22-13.24-15.18 8.7-15.18 8.7z"/><path class="cls-23" d="m134.23 338c12.19-0.85 22.47 4 23 10.79s-9 13-21.22 13.87-22.47-4-23-10.78 8.99-12.99 21.22-13.88z"/><path class="cls-25" d="m134.23 338c0.78 0 1.54-0.08 2.3-0.09-5.22 1.31-15 4.55-16.48 10.72-1.38 5.61-1.87 8.85 0.73 11.83-4.54-1.95-7.52-5-7.77-8.58-0.47-6.78 8.99-12.99 21.22-13.88z"/><path class="cls-10" d="m126.11 202.26a9.94 9.94 0 1 1-9.23 10.61 9.95 9.95 0 0 1 9.23-10.61z"/><path class="cls-8" d="m126.53 203a9.57 9.57 0 1 1-8.88 10.22 9.59 9.59 0 0 1 8.88-10.22z"/><path class="cls-11" d="m126.63 204.36a8.18 8.18 0 1 1-7.63 8.74 8.19 8.19 0 0 1 7.63-8.74z"/><path class="cls-12" d="m126.63 204.36a8.18 8.18 0 0 1 7.11 3.25 8.18 8.18 0 0 0-14 6.34 8.26 8.26 0 0 0 1.62 4.34 8.19 8.19 0 0 1 5.24-13.93z"/><path class="cls-12" d="m124.75 206.9a2.89 2.89 0 1 1-2.69 3.09 2.9 2.9 0 0 1 2.69-3.09z"/><path class="cls-13" d="m124.14 207.3a1.81 1.81 0 1 1-1.68 1.94 1.81 1.81 0 0 1 1.68-1.94z"/><path class="cls-14" d="m123 215.63s4.87 1.64 7.1-0.5 1.48-5.19 1.25-6.69 2.23-1.82 2.94 2.44-0.41 7.29-3.9 8.33-6.8 0-7.91-1.63-0.96-2.58 0.52-1.95z"/><path class="cls-15" d="m133.46 208.51a6.81 6.81 0 0 1 0.78 2.37c0.71 4.26-0.41 7.29-3.9 8.33-3.34 1-6.51 0.1-7.75-1.41 1.48 0.26 5.81 0.91 7.75-0.18a6.4 6.4 0 0 0 3.34-5.69c-0.02-1.34-0.14-2.67-0.22-3.42z"/></g></svg>
