<?xml version="1.0" encoding="UTF-8"?>
<svg version="1.1" viewBox="0 0 430.54 108.88" xml:space="preserve" xmlns="http://www.w3.org/2000/svg">
<style type="text/css">
	.st0{fill:#540012;}
	.st1{fill:#2D000C;}
	.st2{fill:url(#SVGID_1_);}
	.st3{fill:url(#SVGID_2_);}
	.st4{fill:url(#SVGID_3_);}
	.st5{fill:url(#SVGID_4_);}
	.st6{fill:url(#SVGID_5_);}
	.st7{fill:url(#SVGID_6_);}
	.st8{fill:url(#SVGID_7_);}
	.st9{fill:url(#SVGID_8_);}
	.st10{fill:#540012;stroke:#510F19;stroke-width:5;stroke-miterlimit:10;}
	.st11{fill:url(#SVGID_9_);}
	.st12{fill:url(#SVGID_10_);}
	.st13{fill:url(#SVGID_11_);}
	.st14{fill:url(#SVGID_12_);}
	.st15{fill:url(#SVGID_13_);}
	.st16{fill:url(#SVGID_14_);}
	.st17{fill:url(#SVGID_15_);}
	.st18{fill:url(#SVGID_16_);}
	.st19{fill:url(#SVGID_17_);}
	.st20{fill:url(#SVGID_18_);}
	.st21{fill:url(#SVGID_19_);}
	.st22{fill:url(#SVGID_20_);}
	.st23{fill:url(#SVGID_21_);}
	.st24{fill:url(#SVGID_22_);}
	.st25{fill:url(#SVGID_23_);}
	.st26{fill:url(#SVGID_24_);}
	.st27{fill:url(#SVGID_25_);}
	.st28{fill:url(#SVGID_26_);}
	.st29{fill:url(#SVGID_27_);}
	.st30{fill:url(#SVGID_28_);}
	.st31{fill:url(#SVGID_29_);}
	.st32{fill:url(#SVGID_30_);}
	.st33{fill:url(#SVGID_31_);}
	.st34{fill:url(#SVGID_32_);}
	.st35{fill:url(#SVGID_33_);}
	.st36{fill:url(#SVGID_34_);}
	.st37{fill:url(#SVGID_35_);}
	.st38{fill:url(#SVGID_36_);}
	.st39{fill:url(#SVGID_37_);}
	.st40{fill:url(#SVGID_38_);}
</style>
<title>logo pokervip88</title>
<g transform="translate(-2.6153 -1.8174)">
	<path class="st0" d="m433.1 85.6-10-67.1c-0.4-3-3-5.1-6-5.1h-132.4c-3 0-5.5 2.4-5.5 5.5-2.2-1.9-5-3.3-8.2-4.1-3.5-0.9-9.5-1.4-18.3-1.4h-13.4c-3.3 0-6 2.7-6 6-1.2-1.2-2.6-2.3-4.2-3.3-4.3-2.7-9.7-4.1-15.9-4.1-6.5 0-12 1.6-16.3 4.9-0.7 0.5-1.3 1-1.9 1.6v-1.8c0-1.8-1.4-3.2-3.2-3.2h-24.4c-1.8 0-3.2 1.4-3.2 3.2v2.9c-2.2-2.2-4.8-3.7-7.8-4.6-3.5-1-8.1-1.5-14.2-1.5h-17.9c-3.3 0-6 2.7-6 6v67.1c0 3.3 2.7 6 6 6h20.6c10.2 0 13.9-0.8 16-1.6 1.2-0.4 2.4-1 3.4-1.7 0 1.8 1.4 3.2 3.2 3.2h24.4c1.8 0 3.2-1.4 3.2-3.2v-1.5c0.9 0.8 2 1.6 3.1 2.3 3.8 2.4 8 3.7 12.4 3.8h0.3c2.7 0 5.2-0.5 7.4-1.4h43.4c4.6 0 8-0.3 10.6-0.8 2.8-0.6 5.2-1.7 7.3-3.3 0 2.3 1.8 4.1 4.1 4.1h143.8c3.3 0 6.1-3.3 5.6-6.9z"/>
	<path class="st1" d="m154.4 51.8c3.6-0.8 5.9-2 7.2-3.5 1.2-1.5 1.8-4.2 1.8-8 0-5.7-0.9-9.8-2.6-12.3-1.7-2.6-4-4.2-6.7-5.1-2.8-0.8-6.9-1.3-12.3-1.3h-17.1v65.6h19.9c6.9 0 11.5-0.4 13.7-1.2s3.9-2.2 4.9-4.4c1-2.1 1.5-5.4 1.5-9.9v-6.1c0-4.3-0.7-7.4-2.1-9.5-1.5-2-4.2-3.4-8.2-4.3zm16.3-30.2h17.3v65.6h-17.3zm61.1 9c1 2.8 1.5 6.9 1.5 12.3v2.8h-16.6v-5.9c0-3.7-0.2-6.1-0.5-7s-1-1.4-2.2-1.4c-1 0-1.7 0.4-2.1 1.2s-0.5 2.9-0.5 6.2v31.5s-0.2 4.9 0.2 5.8 1.1 1.4 2.3 1.4 2.1-0.5 2.5-1.6 0.7-3.1 0.3-6.2v-8.2h-3v-9.8h19.6v35.4h-10.6l-1.6-4.7c-1.1 2-2.6 3.5-4.4 4.6-1.8 1-3.9 1.5-6.4 1.5-3.1 0-6.2-1-8.8-2.7-2-1.3-3.5-2.8-4.6-4.5-1.3-2.1-2.1-4.2-2.4-6.5s-0.5-5.6-0.5-10.2v-19.4c0-6.3 0.3-10.8 1-13.7 0.7-2.8 2.6-5.4 5.8-7.8s7.3-3.5 12.3-3.5c4.9 0 9 1 12.3 3.1 3.3 2 5.4 4.5 6.4 7.3zm44.1-4.1c-1.5-1.7-3.7-3-6.6-3.7-2.9-0.8-8.4-1.1-16.6-1.1h-12.7v65.6h21.4c4 0 7.1-0.2 9.1-0.7 2-0.4 3.7-1.2 5.1-2.3s2.3-2.7 2.9-4.7c0.5-2 0.8-5.9 0.8-11.8v-23c0-6.2-0.2-10.4-0.6-12.5-0.4-2.2-1.3-4.1-2.8-5.8zm26.7 47.9h12.8v12.8h-29.4v-65.6h28.6v12.8h-11.3v12.8h10.6v12.8h-11.3zm81.9-52.8-7.6 65.6h-21.3c-1.9-10.1-3.7-21.5-5.2-34.4-0.7 5.5-2.3 17-4.8 34.4h-21.2l-7.6-65.6h16.6l1.8 22.9 1.7 22.1c0.6-11.4 2.2-26.5 4.7-45h17.7c0.2 1.9 0.9 9.1 1.9 21.6l1.9 25c1-15.9 2.6-31.4 4.8-46.6zm32 0h-24.7l-8.7 65.6h17.5l1-12.1h6.2l0.9 12.1h17.3z"/>
	<linearGradient id="SVGID_1_" x1="30.18" x2="537.89" y1="-27.162" y2="138.72" gradientUnits="userSpaceOnUse">
		<stop stop-color="#B75408" offset="0"/>
		<stop stop-color="#BA590C" offset=".012793"/>
		<stop stop-color="#D28B32" offset=".1409"/>
		<stop stop-color="#E6B24F" offset=".262"/>
		<stop stop-color="#F4CE65" offset=".3727"/>
		<stop stop-color="#FCDF71" offset=".4694"/>
		<stop stop-color="#FFE576" offset=".5416"/>
		<stop stop-color="#F6D268" offset=".5856"/>
		<stop stop-color="#DB9C3F" offset=".725"/>
		<stop stop-color="#C77521" offset=".8455"/>
		<stop stop-color="#BB5D0F" offset=".9411"/>
		<stop stop-color="#B75408" offset="1"/>
	</linearGradient>
	<path class="st2" d="m154.4 48.8c3.6-0.8 5.9-2 7.2-3.5 1.2-1.5 1.8-4.2 1.8-8 0-5.7-0.9-9.8-2.6-12.3-1.7-2.6-4-4.2-6.7-5.1-2.8-0.8-6.9-1.3-12.3-1.3h-17.1v65.6h19.9c6.9 0 11.5-0.4 13.7-1.2s3.9-2.2 4.9-4.4c1-2.1 1.5-5.4 1.5-9.9v-6.1c0-4.3-0.7-7.4-2.1-9.5-1.5-2-4.2-3.5-8.2-4.3zm16.3-30.2h17.3v65.6h-17.3zm61.1 9c1 2.8 1.5 6.9 1.5 12.3v2.8h-16.6v-5.9c0-3.7-0.2-6.1-0.5-7s-1-1.4-2.2-1.4c-1 0-1.7 0.4-2.1 1.2s-0.5 2.9-0.5 6.2v31.5s-0.2 4.9 0.2 5.8 1.1 1.4 2.3 1.4 2.1-0.5 2.5-1.6 0.7-3.1 0.3-6.2v-8.2h-3v-9.8h19.6v35.4h-10.6l-1.6-4.7c-1.1 2-2.6 3.5-4.4 4.6-1.8 1-3.9 1.5-6.4 1.5-3.1 0-6.2-1-8.8-2.7-2-1.3-3.5-2.8-4.6-4.5-1.3-2.1-2.1-4.2-2.4-6.5s-0.5-5.6-0.5-10.2v-19.4c0-6.3 0.3-10.8 1-13.7 0.7-2.8 2.6-5.4 5.8-7.8s7.3-3.5 12.3-3.5c4.9 0 9 1 12.3 3.1 3.3 2 5.4 4.5 6.4 7.3zm44.1-4.1c-1.5-1.7-3.7-3-6.6-3.7-2.9-0.8-8.4-1.1-16.6-1.1h-12.7v65.6h21.4c4 0 7.1-0.2 9.1-0.7 2-0.4 3.7-1.2 5.1-2.3s2.3-2.7 2.9-4.7c0.5-2 0.8-5.9 0.8-11.8v-23c0-6.2-0.2-10.4-0.6-12.5-0.4-2.2-1.3-4.1-2.8-5.8zm26.7 47.9h12.8v12.8h-29.4v-65.6h28.6v12.8h-11.3v12.8h10.6v12.8h-11.3zm81.9-52.8-7.6 65.6h-21.3c-1.9-10.1-3.7-21.5-5.2-34.4-0.7 5.5-2.3 17-4.8 34.4h-21.2l-7.6-65.6h16.6l1.8 22.9 1.7 22.1c0.6-11.4 2.2-26.5 4.7-45h17.7c0.2 1.9 0.9 9.1 1.9 21.6l1.9 25c1-15.9 2.6-31.4 4.8-46.6zm32 0h-24.7l-8.7 65.6h17.5l1-12.1h6.2l0.9 12.1h17.3z" fill="url(#SVGID_1_)"/>
	
		<path class="st0" d="m147.3 68.2c0 2.5-0.3 4.1-0.9 4.7s-2.1 1-4.3 1.1v-17.4c2.4 0.1 3.9 0.4 4.4 1 0.6 0.6 0.8 2.2 0.8 4.8z"/>
	
	
		<path class="st0" d="m146.9 44.7c-0.5 0.8-1.5 1.2-3.2 1.2h-1.7v-14.5c1.8 0 2.9 0.1 3.5 0.4 0.6 0.2 1.1 0.7 1.5 1.6 0.4 0.8 0.6 2.3 0.6 4.3 0 3.8-0.2 6.2-0.7 7z"/>
	
	
		<path class="st0" d="m262.7 64.7c0 4.3-0.3 6.9-0.8 7.9-0.6 1-2 1.4-4.4 1.4v-42.2c1.8 0 3.1 0.2 3.7 0.6 0.7 0.4 1.1 1 1.3 1.8s0.3 2.7 0.3 5.6v24.9z"/>
	
	
		<path class="st0" d="m401.6 62.3c0.4-5.8 1.5-15 3.3-27.5 0.9 10.9 1.7 20.1 2.6 27.5z"/>
	
</g>
<g transform="translate(-2.6153 -1.8174)">
	<linearGradient id="SVGID_2_" x1="404.7" x2="404.7" y1="84.184" y2="18.593" gradientUnits="userSpaceOnUse">
		<stop stop-color="#B75408" stop-opacity=".7" offset="0"/>
		<stop stop-color="#BA590C" stop-opacity=".7071" offset=".012793"/>
		<stop stop-color="#D28B32" stop-opacity=".7781" offset=".1409"/>
		<stop stop-color="#E6B24F" stop-opacity=".8451" offset=".262"/>
		<stop stop-color="#F4CE65" stop-opacity=".9065" offset=".3727"/>
		<stop stop-color="#FCDF71" stop-opacity=".96" offset=".4694"/>
		<stop stop-color="#FFE576" offset=".5416"/>
		<stop stop-color="#F6D268" stop-opacity=".9712" offset=".5856"/>
		<stop stop-color="#DB9C3F" stop-opacity=".88" offset=".725"/>
		<stop stop-color="#C77521" stop-opacity=".8011" offset=".8455"/>
		<stop stop-color="#BB5D0F" stop-opacity=".7385" offset=".9411"/>
		<stop stop-color="#B75408" stop-opacity=".7" offset="1"/>
	</linearGradient>
	<path class="st3" d="m391.8 18.6-8.7 65.6h17.5l1-12.1h6.2l0.9 12.1h17.3l-9.8-65.6zm19.2 63.3-0.8-10c-0.1-1.2-1.1-2.1-2.3-2.1h-6.2c-1.2 0-2.2 0.9-2.3 2.1l-0.9 10h-12.9l8.1-61.1h20.7l9.1 61.1z" fill="url(#SVGID_2_)"/>
	<linearGradient id="SVGID_3_" x1="179.34" x2="179.34" y1="84.184" y2="18.593" gradientUnits="userSpaceOnUse">
		<stop stop-color="#B75408" stop-opacity=".7" offset="0"/>
		<stop stop-color="#BA590C" stop-opacity=".7071" offset=".012793"/>
		<stop stop-color="#D28B32" stop-opacity=".7781" offset=".1409"/>
		<stop stop-color="#E6B24F" stop-opacity=".8451" offset=".262"/>
		<stop stop-color="#F4CE65" stop-opacity=".9065" offset=".3727"/>
		<stop stop-color="#FCDF71" stop-opacity=".96" offset=".4694"/>
		<stop stop-color="#FFE576" offset=".5416"/>
		<stop stop-color="#F6D268" stop-opacity=".9712" offset=".5856"/>
		<stop stop-color="#DB9C3F" stop-opacity=".88" offset=".725"/>
		<stop stop-color="#C77521" stop-opacity=".8011" offset=".8455"/>
		<stop stop-color="#BB5D0F" stop-opacity=".7385" offset=".9411"/>
		<stop stop-color="#B75408" stop-opacity=".7" offset="1"/>
	</linearGradient>
	<path class="st4" d="m188 18.6h-17.3v65.6h17.3zm-2.2 63.3h-12.8v-61h12.8z" fill="url(#SVGID_3_)"/>
	<linearGradient id="SVGID_4_" x1="144.66" x2="144.66" y1="84.184" y2="18.593" gradientUnits="userSpaceOnUse">
		<stop stop-color="#B75408" stop-opacity=".7" offset="0"/>
		<stop stop-color="#BA590C" stop-opacity=".7071" offset=".012793"/>
		<stop stop-color="#D28B32" stop-opacity=".7781" offset=".1409"/>
		<stop stop-color="#E6B24F" stop-opacity=".8451" offset=".262"/>
		<stop stop-color="#F4CE65" stop-opacity=".9065" offset=".3727"/>
		<stop stop-color="#FCDF71" stop-opacity=".96" offset=".4694"/>
		<stop stop-color="#FFE576" offset=".5416"/>
		<stop stop-color="#F6D268" stop-opacity=".9712" offset=".5856"/>
		<stop stop-color="#DB9C3F" stop-opacity=".88" offset=".725"/>
		<stop stop-color="#C77521" stop-opacity=".8011" offset=".8455"/>
		<stop stop-color="#BB5D0F" stop-opacity=".7385" offset=".9411"/>
		<stop stop-color="#B75408" stop-opacity=".7" offset="1"/>
	</linearGradient>
	<path class="st5" d="m154.4 48.8c3.6-0.8 5.9-2 7.2-3.5 1.2-1.5 1.8-4.2 1.8-8 0-5.7-0.9-9.8-2.6-12.3-1.7-2.6-4-4.2-6.7-5.1-2.8-0.8-6.9-1.3-12.3-1.3h-17.1v65.6h19.9c6.9 0 11.5-0.4 13.7-1.2s3.9-2.2 4.9-4.4c1-2.1 1.5-5.4 1.5-9.9v-6.1c0-4.3-0.7-7.4-2.1-9.5-1.5-2-4.2-3.5-8.2-4.3zm8 20c0 4.1-0.4 7.1-1.3 8.9-0.8 1.6-1.9 2.6-3.6 3.2-1.4 0.5-4.7 1-12.9 1h-17.6v-61h14.9c5.2 0 9.1 0.4 11.6 1.2 2.3 0.7 4.1 2.1 5.5 4.2 1.5 2.2 2.2 5.9 2.2 11.1 0 4.3-0.8 6-1.3 6.6-0.6 0.8-2.1 1.8-5.9 2.7-1 0.2-1.8 1.2-1.8 2.2 0 1.1 0.7 2 1.8 2.2 3.4 0.8 5.6 1.9 6.7 3.5 1.1 1.7 1.7 4.4 1.7 8.2z" fill="url(#SVGID_4_)"/>
	<linearGradient id="SVGID_5_" x1="350.73" x2="350.73" y1="84.184" y2="18.593" gradientUnits="userSpaceOnUse">
		<stop stop-color="#B75408" stop-opacity=".7" offset="0"/>
		<stop stop-color="#BA590C" stop-opacity=".7071" offset=".012793"/>
		<stop stop-color="#D28B32" stop-opacity=".7781" offset=".1409"/>
		<stop stop-color="#E6B24F" stop-opacity=".8451" offset=".262"/>
		<stop stop-color="#F4CE65" stop-opacity=".9065" offset=".3727"/>
		<stop stop-color="#FCDF71" stop-opacity=".96" offset=".4694"/>
		<stop stop-color="#FFE576" offset=".5416"/>
		<stop stop-color="#F6D268" stop-opacity=".9712" offset=".5856"/>
		<stop stop-color="#DB9C3F" stop-opacity=".88" offset=".725"/>
		<stop stop-color="#C77521" stop-opacity=".8011" offset=".8455"/>
		<stop stop-color="#BB5D0F" stop-opacity=".7385" offset=".9411"/>
		<stop stop-color="#B75408" stop-opacity=".7" offset="1"/>
	</linearGradient>
	<path class="st6" d="m368 18.6c-2.2 15.2-3.8 30.7-4.8 46.6l-1.9-25c-1-12.5-1.6-19.7-1.9-21.6h-17.7c-2.5 18.6-4.1 33.6-4.7 45l-1.7-22.1-1.8-22.9h-16.6l7.6 65.6h21.2c2.5-17.4 4.1-28.9 4.8-34.4 1.5 12.9 3.2 24.3 5.2 34.4h21.3l7.6-65.6zm6.9 63.3h-17.4c-1.8-9.5-3.4-20.4-4.8-32.4-0.1-1.1-1.1-2-2.2-2s-2.1 0.9-2.2 2c-0.6 5.3-2.2 16.1-4.5 32.4h-17.2l-7.1-61.1h11.9l3.4 42.9c0.1 1.2 1.1 2.1 2.3 2.1s2.2-0.9 2.2-2.1c0.6-10.9 2.1-25.4 4.4-42.9h13.7c0.3 3.3 0.9 9.8 1.6 19.5l1.9 25c0.1 1.2 1.1 2.1 2.3 2.1s2.2-0.9 2.2-2.1c0.9-15.1 2.4-30 4.5-44.5h12.1z" fill="url(#SVGID_5_)"/>
	<linearGradient id="SVGID_6_" x1="213.65" x2="213.65" y1="85.562" y2="17.183" gradientUnits="userSpaceOnUse">
		<stop stop-color="#B75408" stop-opacity=".7" offset="0"/>
		<stop stop-color="#BA590C" stop-opacity=".7071" offset=".012793"/>
		<stop stop-color="#D28B32" stop-opacity=".7781" offset=".1409"/>
		<stop stop-color="#E6B24F" stop-opacity=".8451" offset=".262"/>
		<stop stop-color="#F4CE65" stop-opacity=".9065" offset=".3727"/>
		<stop stop-color="#FCDF71" stop-opacity=".96" offset=".4694"/>
		<stop stop-color="#FFE576" offset=".5416"/>
		<stop stop-color="#F6D268" stop-opacity=".9712" offset=".5856"/>
		<stop stop-color="#DB9C3F" stop-opacity=".88" offset=".725"/>
		<stop stop-color="#C77521" stop-opacity=".8011" offset=".8455"/>
		<stop stop-color="#BB5D0F" stop-opacity=".7385" offset=".9411"/>
		<stop stop-color="#B75408" stop-opacity=".7" offset="1"/>
	</linearGradient>
	<path class="st7" d="m201.5 82.9c2.6 1.7 5.7 2.7 8.8 2.7 2.5 0 4.6-0.5 6.4-1.5s3.2-2.5 4.4-4.6l1.6 4.7h10.6v-35.4h-19.6v9.8h3v8.2c0.4 3 0.1 5.1-0.3 6.2s-1.3 1.6-2.5 1.6c-1.1 0-1.9-0.5-2.3-1.4s-0.2-5.8-0.2-5.8v-31.6c0-3.3 0.2-5.4 0.5-6.2 0.4-0.8 1-1.2 2.1-1.2 1.2 0 1.9 0.5 2.2 1.4s0.5 3.3 0.5 7v5.9h16.6v-2.8c0-5.4-0.5-9.5-1.5-12.3s-3.1-5.3-6.4-7.3c-3.3-2.1-7.4-3.1-12.3-3.1-5 0-9.1 1.2-12.3 3.5-3.2 2.4-5.1 5-5.8 7.8s-1 7.4-1 13.7v19.5c0 4.5 0.2 7.9 0.5 10.2s1.1 4.4 2.4 6.5c1.1 1.7 2.7 3.2 4.6 4.5zm-5.2-21.2v-19.5c0-6.1 0.3-10.5 0.9-13.1 0.5-2.3 2.2-4.5 4.9-6.5 2.8-2.1 6.4-3.1 10.9-3.1s8.2 0.9 11.1 2.7c2.8 1.8 4.6 3.8 5.4 6.1 0.9 2.6 1.4 6.5 1.4 11.6v0.6h-12.1v-3.7c0-5.3-0.3-6.9-0.6-7.7-0.6-1.9-2.2-3-4.4-3-1.9 0-3.4 0.9-4.1 2.6-0.4 0.8-0.7 2.3-0.7 7.2v31.5c-0.2 5.3 0.2 6.4 0.3 6.7 0.7 1.8 2.3 2.8 4.4 2.8s3.8-1.1 4.6-3c0.7-1.6 0.8-4.1 0.5-7.2v-8.1c0-1.2-1-2.3-2.3-2.3h-0.8v-5.3h15.3v30.9h-6.7l-1-3.2c-0.3-0.8-1-1.5-1.9-1.5-0.9-0.1-1.7 0.4-2.2 1.1-1 1.7-2.1 2.9-3.5 3.7s-3.2 1.2-5.2 1.2c-2.6 0-5.3-0.8-7.6-2.3-1.7-1.1-3-2.4-3.9-3.8-1.1-1.8-1.8-3.7-2.1-5.6-0.4-2.1-0.6-5.4-0.6-9.8z" fill="url(#SVGID_6_)"/>
	<linearGradient id="SVGID_7_" x1="300.72" x2="300.72" y1="84.184" y2="18.593" gradientUnits="userSpaceOnUse">
		<stop stop-color="#B75408" stop-opacity=".7" offset="0"/>
		<stop stop-color="#BA590C" stop-opacity=".7071" offset=".012793"/>
		<stop stop-color="#D28B32" stop-opacity=".7781" offset=".1409"/>
		<stop stop-color="#E6B24F" stop-opacity=".8451" offset=".262"/>
		<stop stop-color="#F4CE65" stop-opacity=".9065" offset=".3727"/>
		<stop stop-color="#FCDF71" stop-opacity=".96" offset=".4694"/>
		<stop stop-color="#FFE576" offset=".5416"/>
		<stop stop-color="#F6D268" stop-opacity=".9712" offset=".5856"/>
		<stop stop-color="#DB9C3F" stop-opacity=".88" offset=".725"/>
		<stop stop-color="#C77521" stop-opacity=".8011" offset=".8455"/>
		<stop stop-color="#BB5D0F" stop-opacity=".7385" offset=".9411"/>
		<stop stop-color="#B75408" stop-opacity=".7" offset="1"/>
	</linearGradient>
	<path class="st8" d="m302.6 57h11.3v-12.8h-10.6v-12.8h11.3v-12.8h-28.6v65.6h29.4v-12.8h-12.8zm10.6 16.6v8.3h-24.9v-61h24.1v8.3h-9c-1.2 0-2.3 1-2.3 2.3v12.8c0 1.2 1 2.3 2.3 2.3h8.3v8.3h-9c-1.2 0-2.3 1-2.3 2.3v14.3c0 1.2 1 2.3 2.3 2.3h10.5z" fill="url(#SVGID_7_)"/>
	<linearGradient id="SVGID_8_" x1="259.63" x2="259.63" y1="84.184" y2="18.593" gradientUnits="userSpaceOnUse">
		<stop stop-color="#B75408" stop-opacity=".7" offset="0"/>
		<stop stop-color="#BA590C" stop-opacity=".7071" offset=".012793"/>
		<stop stop-color="#D28B32" stop-opacity=".7781" offset=".1409"/>
		<stop stop-color="#E6B24F" stop-opacity=".8451" offset=".262"/>
		<stop stop-color="#F4CE65" stop-opacity=".9065" offset=".3727"/>
		<stop stop-color="#FCDF71" stop-opacity=".96" offset=".4694"/>
		<stop stop-color="#FFE576" offset=".5416"/>
		<stop stop-color="#F6D268" stop-opacity=".9712" offset=".5856"/>
		<stop stop-color="#DB9C3F" stop-opacity=".88" offset=".725"/>
		<stop stop-color="#C77521" stop-opacity=".8011" offset=".8455"/>
		<stop stop-color="#BB5D0F" stop-opacity=".7385" offset=".9411"/>
		<stop stop-color="#B75408" stop-opacity=".7" offset="1"/>
	</linearGradient>
	<path class="st9" d="m275.9 23.5c-1.5-1.7-3.7-3-6.6-3.7-2.9-0.8-8.4-1.1-16.6-1.1h-12.7v65.6h21.4c4 0 7.1-0.2 9.1-0.7 2-0.4 3.7-1.2 5.1-2.3s2.3-2.7 2.9-4.7c0.5-2 0.8-5.9 0.8-11.8v-23c0-6.2-0.2-10.4-0.6-12.5-0.4-2.2-1.3-4.1-2.8-5.8zm1.1 41.2c0 7-0.4 10-0.7 11.2-0.4 1.5-1.1 2.7-2.1 3.5-1.1 0.9-2.5 1.5-4.1 1.9-1.8 0.4-4.7 0.6-8.6 0.6h-19.1v-61h10.4c7.9 0 13.3 0.4 16 1.1 2.4 0.6 4.2 1.7 5.4 3 1.2 1.4 2 3 2.3 4.7 0.3 2 0.5 6.1 0.5 12.1z" fill="url(#SVGID_8_)"/>
</g>
<path class="st10" d="m108.08 47.883c-1.5-6.4-4.6-11-9.3-13.9-5.6-3.5-12-3.3-15.3-2.9-2-2-4.1-3.5-6.2-4.5l-2.5-5.4c-1-2.1-3.4-5.5-9.4-5.6 0.3-1.5 0.2-3-0.2-4.5-1.6-5.6-7.8-7.8-8.5-8l-1.1-0.4-1.2 0.5c-0.7 0.2-6.9 2.4-8.5 8-0.4 1.5-0.5 3-0.2 4.5-6 0.1-8.4 3.5-9.4 5.6l-2.5 5.4c-2.1 1-4.2 2.5-6.2 4.5-3.3-0.4-9.7-0.6-15.3 2.9-4.7 2.9-7.8 7.6-9.3 13.9-3 13 8.5 22.3 13.1 25.5v11.8l24.9-15.1 1.4-0.9 6.2-4.4 3.6-1.4c2.1-0.8 4.5-0.8 6.6 0l3.6 1.4 6.2 4.4 1.5 0.9 24.8 14.9v-11.7c1.7-1.2 4.3-3.2 6.8-5.9 5.8-6.2 7.9-12.9 6.4-19.6zm-19.9 3.4c0.5 4.3-2.5 9.2-4.4 11.8h-0.2c3-5.2 3.8-10.3 3.8-14.3 0.4 0.6 0.6 1.5 0.8 2.5zm-64.4-2.6c0 4 0.8 9.1 3.8 14.3h-0.2c-1.9-2.6-4.9-7.5-4.4-11.8 0.1-0.9 0.4-1.8 0.8-2.5zm23.6 14v-0.2c-4.1-8.1-5.5-15.3-3.7-19.2 0.6-1.3 1.3-2.1 2.1-2.3 0.3-0.1 0.5-0.1 0.8-0.1s0.6 0 0.9 0.1v21.7zm16.3 0v-21.7c0.6-0.1 1.2-0.1 1.7 0 0.8 0.3 1.5 1 2.1 2.3 1.8 3.9 0.4 11.1-3.7 19.2z"/>
<linearGradient id="SVGID_9_" x1="8.7234" x2="107.61" y1="44.484" y2="44.484" gradientTransform="translate(-2.6153 -1.8174)" gradientUnits="userSpaceOnUse">
	<stop stop-color="#B75408" offset="0"/>
	<stop stop-color="#BA590C" offset=".012793"/>
	<stop stop-color="#D28B32" offset=".1409"/>
	<stop stop-color="#E6B24F" offset=".262"/>
	<stop stop-color="#F4CE65" offset=".3727"/>
	<stop stop-color="#FCDF71" offset=".4694"/>
	<stop stop-color="#FFE576" offset=".5416"/>
	<stop stop-color="#F6D268" offset=".5856"/>
	<stop stop-color="#DB9C3F" offset=".725"/>
	<stop stop-color="#C77521" offset=".8455"/>
	<stop stop-color="#BB5D0F" offset=".9411"/>
	<stop stop-color="#B75408" offset="1"/>
</linearGradient>
<path class="st11" d="m19.685 71.383v7.4l24.4-14.7c-2.4-4.8-7-15.3-3.8-22.3 3.5-7.6 10.6-3.2 10.6-3.2v21.7c2.9-1.1 6.1-1.1 9.1 0v-21.7s7.1-4.4 10.6 3.2c3.2 7-1.3 17.5-3.8 22.3l24.6 14.7v-7.4s16.3-9.3 13.2-22.7c-4.2-18.3-22.4-13.7-22.4-13.7-8.6-9.9-19.5-6.8-24.3-4.7-0.1-0.4-0.1-0.9-0.2-1.3v-0.3c0-1.4 0.5-2.8 1.6-3.8 3.8-3.8 12.2-2.1 12.2-2.1-2.8-6.1-12.4-2.4-12.4-2.4 8.1-9.9-3.6-13.8-3.6-13.8s-11.7 3.8-3.6 13.8c0 0-9.6-3.6-12.4 2.4 0 0 8.4-1.7 12.2 2.1 1 1 1.5 2.4 1.6 3.9v0.2c0 0.5-0.1 0.9-0.2 1.4-4.7-2.2-15.6-5.4-24.2 4.6 0 0-18.2-4.5-22.4 13.7-3.1 13.4 13.2 22.7 13.2 22.7zm63.3-29.1s7.9 0.6 8.7 8.6c0.9 7.9-6.3 15.7-6.3 15.7h-9.1c10.9-11.1 6.7-24.3 6.7-24.3zm-63.6 8.6c0.9-7.9 8.7-8.6 8.7-8.6s-4.2 13.2 6.6 24.3h-9.1c0.1 0-7-7.8-6.2-15.7z" fill="url(#SVGID_9_)"/>
<linearGradient id="SVGID_10_" x1="58.165" x2="58.165" y1="8.3564" y2="80.611" gradientTransform="translate(-2.6153 -1.8174)" gradientUnits="userSpaceOnUse">
	<stop stop-color="#B75408" stop-opacity=".5" offset="0"/>
	<stop stop-color="#BA590C" stop-opacity=".5118" offset=".012793"/>
	<stop stop-color="#D28B32" stop-opacity=".6301" offset=".1409"/>
	<stop stop-color="#E6B24F" stop-opacity=".7419" offset=".262"/>
	<stop stop-color="#F4CE65" stop-opacity=".8441" offset=".3727"/>
	<stop stop-color="#FCDF71" stop-opacity=".9334" offset=".4694"/>
	<stop stop-color="#FFE576" offset=".5416"/>
	<stop stop-color="#F6D268" stop-opacity=".952" offset=".5856"/>
	<stop stop-color="#DB9C3F" stop-opacity=".8" offset=".725"/>
	<stop stop-color="#C77521" stop-opacity=".6685" offset=".8455"/>
	<stop stop-color="#BB5D0F" stop-opacity=".5642" offset=".9411"/>
	<stop stop-color="#B75408" stop-opacity=".5" offset="1"/>
</linearGradient>
<path class="st12" d="m104.58 48.683c-4.2-18.3-22.4-13.7-22.4-13.7-8.6-9.9-19.5-6.8-24.3-4.7-0.1-0.4-0.1-0.9-0.2-1.3v-0.3c0-1.4 0.5-2.8 1.6-3.8 3.8-3.8 12.2-2.1 12.2-2.1-2.8-6.1-12.4-2.4-12.4-2.4 8.1-9.9-3.6-13.8-3.6-13.8s-11.7 3.8-3.6 13.8c0 0-9.6-3.6-12.4 2.4 0 0 8.4-1.7 12.2 2.1 1 1 1.5 2.4 1.6 3.9v0.2c0 0.5-0.1 0.9-0.2 1.4-4.7-2.2-15.6-5.4-24.2 4.6 0 0-18.2-4.5-22.4 13.7-3.1 13.4 13.2 22.7 13.2 22.7v7.4l24.4-14.7c-2.4-4.8-7-15.3-3.8-22.3 3.5-7.6 10.6-3.2 10.6-3.2v21.7c2.9-1.1 6.1-1.1 9.1 0v-21.7s7.1-4.4 10.6 3.2c3.2 7-1.3 17.5-3.8 22.3l24.6 14.7v-7.4s16.3-9.3 13.2-22.7zm-69.8 17.9h-9.1s-7.1-7.8-6.3-15.7c0.9-7.9 8.7-8.6 8.7-8.6s-4.1 13.2 6.7 24.3zm48.2-24.3s7.9 0.6 8.7 8.6c0.9 7.9-6.3 15.7-6.3 15.7h-9.1c10.9-11.1 6.7-24.3 6.7-24.3zm7.7 27.8c-0.5 0.3-0.7 0.8-0.7 1.3v4.8l-13.4-8h8.8c0.4 0 0.8-0.2 1.1-0.5s7.6-8.4 6.7-16.9c-0.8-7.2-7-9.6-10.1-9.9-0.5 0-1 0.2-1.3 0.6s-0.4 0.9-0.3 1.4c0.2 0.5 3.8 12.5-6.3 22.8-0.4 0.4-0.5 1.1-0.3 1.6l-6-3.6c2.8-5.9 6.3-15.5 3.2-22.4-1.2-2.7-3-4.4-5.3-5-3.7-1.1-7.3 1.1-7.5 1.2-0.4 0.3-0.7 0.8-0.7 1.3v19.7c-2-0.4-4.1-0.4-6.1 0v-19.9c0-0.5-0.3-1-0.7-1.3-0.2-0.1-3.7-2.3-7.5-1.2-2.3 0.7-4 2.4-5.3 5-3.2 6.9 0.3 16.5 3.2 22.4l-6 3.7c0.2-0.5 0.1-1.2-0.3-1.6-10-10.3-6.4-22.3-6.3-22.8 0.2-0.5 0.1-1-0.3-1.4-0.3-0.4-0.8-0.6-1.3-0.6-3.2 0.3-9.3 2.6-10.1 9.9-0.9 8.5 6.4 16.6 6.7 16.9s0.7 0.5 1.1 0.5h8.9l-13.4 8v-4.8c0-0.5-0.3-1-0.7-1.3-0.2 0-15.3-8.8-12.5-21 1.1-5 3.5-8.6 7-10.7 3-1.9 6.5-2.3 9.1-2.3s4.4 0.4 4.5 0.4c0.5 0.1 1.1 0 1.5-0.5 7.7-8.9 17.4-6.5 22.5-4.3 0.4 0.2 0.9 0.2 1.3 0s0.7-0.6 0.8-1c0.1-0.6 0.2-1.1 0.2-1.7v-0.2c0-1.9-0.7-3.7-2-4.9-2.2-2.2-5.7-2.9-8.6-2.9 3.1-0.7 7.1 0.8 7.1 0.8 0.6 0.2 1.3 0 1.7-0.5s0.4-1.3-0.1-1.8c-2.1-2.6-2.9-4.9-2.3-6.8 0.7-2.5 3.6-4 4.8-4.5 1.1 0.5 4.1 1.9 4.8 4.5 0.6 1.9-0.2 4.2-2.3 6.8-0.4 0.5-0.4 1.3-0.1 1.8 0.4 0.5 1.1 0.8 1.7 0.5 0.1 0 4-1.5 7.2-0.8-2.9 0.1-6.4 0.7-8.6 2.9-1.2 1.2-1.9 2.9-2 4.8v0.4c0 0.5 0.1 1.1 0.2 1.6 0.1 0.4 0.4 0.8 0.8 1s0.9 0.2 1.3 0c5.1-2.2 14.8-4.7 22.5 4.3 0.4 0.4 0.9 0.6 1.5 0.5 0.1 0 7.6-1.8 13.6 1.9 3.5 2.1 5.8 5.8 7 10.7 2.8 12.1-12.3 21-12.4 21.1z" fill="url(#SVGID_10_)"/>
<path class="st0" d="m89.585 81.783-7.4-16.4c-1-2.3-3.7-3.7-6.2-3.1l-13.8 2.9c-1.7 0.4-4 1.5-5.3 2.7l-2 1.8-4-3.9c-1.8-1.7-4.8-2.2-7-1l-16.5 8.7c-2.3 1.2-3.5 3.9-2.9 6.4l3.1 13.2c0.4 1.8 1.7 4.1 3 5.4l9.1 8.8c1.1 1.1 2.7 1.6 4.3 1.6 1 0 1.9-0.2 2.8-0.7l12.9-6.8c0.5 0 0.9 0 1.3-0.1l13.8-2.9c1.7-0.4 4-1.5 5.3-2.7l8.2-7.2c1.7-1.6 2.3-4.5 1.3-6.7z"/>
<g transform="translate(-2.6153 -1.8174)">
	
		
			
				<radialGradient id="SVGID_11_" cx="91.854" cy="68.68" r="40.618" gradientTransform="matrix(.7646 0 0 .7535 .8023 31.852)" gradientUnits="userSpaceOnUse">
				<stop stop-color="#fff" offset="0"/>
				<stop stop-color="#FBFBFB" offset=".1695"/>
				<stop stop-color="#eee" offset=".3516"/>
				<stop stop-color="#D8D8D8" offset=".5397"/>
				<stop stop-color="#BABABA" offset=".7318"/>
				<stop stop-color="#949494" offset=".9252"/>
				<stop stop-color="#838383" offset="1"/>
			</radialGradient>
			<path class="st13" d="m82.4 68.3c-0.5-1.2-2-1.9-3.3-1.7l-13.8 2.9c-1.3 0.3-3.1 1.2-4.1 2.1l-8.2 7.2c-1 0.9-1.3 2.5-0.8 3.7l7.4 16.4c0.5 1.2 2 1.9 3.3 1.7l13.8-2.9c1.3-0.3 3.1-1.2 4.1-2.1l8.2-7.2c1-0.9 1.3-2.5 0.8-3.7z" fill="url(#SVGID_11_)"/>
			
				<radialGradient id="SVGID_12_" cx="100.81" cy="61.638" r="25.143" gradientTransform="matrix(.7646 0 0 .7535 .8023 31.852)" gradientUnits="userSpaceOnUse">
				<stop stop-color="#fff" offset="0"/>
				<stop stop-color="#FBFBFB" offset=".1695"/>
				<stop stop-color="#eee" offset=".3516"/>
				<stop stop-color="#D8D8D8" offset=".5397"/>
				<stop stop-color="#BABABA" offset=".7318"/>
				<stop stop-color="#949494" offset=".9252"/>
				<stop stop-color="#838383" offset="1"/>
			</radialGradient>
			<path class="st14" d="m70.6 93.4c1.2-1 3.4-2.2 5-2.5l9.1-1.9c1.5-0.3 1.9 0.3 0.7 1.3l-4.6 4.1c-1.2 1-3.4 2.2-5 2.5l-9.1 1.9c-1.5 0.3-1.9-0.3-0.7-1.3z" fill="url(#SVGID_12_)"/>
			
				<linearGradient id="SVGID_13_" x1="74.602" x2="81.809" y1="95.473" y2="85.193" gradientUnits="userSpaceOnUse">
					<stop offset="0"/>
					<stop stop-color="#212121" offset="1"/>
				</linearGradient>
				<path class="st15" d="m76.9 93.7c0.4-0.4 0.2-0.6-0.5-0.4-0.7 0.1-1.6 0.6-2 1s-0.2 0.6 0.5 0.4 1.6-0.6 2-1" fill="url(#SVGID_13_)"/>
				<linearGradient id="SVGID_14_" x1="77.242" x2="84.448" y1="97.321" y2="87.041" gradientUnits="userSpaceOnUse">
					<stop offset="0"/>
					<stop stop-color="#212121" offset="1"/>
				</linearGradient>
				<path class="st16" d="m82.6 91.1c0.4-0.4 0.2-0.6-0.5-0.4-0.7 0.1-1.6 0.6-2 1s-0.2 0.6 0.5 0.4c0.7-0.1 1.6-0.6 2-1" fill="url(#SVGID_14_)"/>
				<linearGradient id="SVGID_15_" x1="72.959" x2="80.166" y1="94.337" y2="84.057" gradientUnits="userSpaceOnUse">
					<stop offset="0"/>
					<stop stop-color="#212121" offset="1"/>
				</linearGradient>
				<path class="st17" d="m75.2 92.7c0.4-0.4 0.2-0.6-0.5-0.4-0.7 0.1-1.6 0.6-2 1s-0.2 0.6 0.5 0.4c0.6-0.2 1.5-0.6 2-1" fill="url(#SVGID_15_)"/>
				<linearGradient id="SVGID_16_" x1="76.245" x2="83.452" y1="96.609" y2="86.329" gradientUnits="userSpaceOnUse">
					<stop offset="0"/>
					<stop stop-color="#212121" offset="1"/>
				</linearGradient>
				<path class="st18" d="m78.7 94.6c0.4-0.4 0.2-0.6-0.5-0.4-0.7 0.1-1.6 0.6-2 1s-0.2 0.6 0.5 0.4c0.6-0.1 1.5-0.6 2-1" fill="url(#SVGID_16_)"/>
				<linearGradient id="SVGID_17_" x1="71.963" x2="79.17" y1="93.624" y2="83.344" gradientUnits="userSpaceOnUse">
					<stop offset="0"/>
					<stop stop-color="#212121" offset="1"/>
				</linearGradient>
				<path class="st19" d="m71.2 96.2c0.4-0.4 0.2-0.6-0.5-0.4-0.7 0.1-1.6 0.6-2 1s-0.2 0.6 0.5 0.4 1.6-0.6 2-1" fill="url(#SVGID_17_)"/>
			
			
				<radialGradient id="SVGID_18_" cx="107.09" cy="61.499" r="24.32" gradientTransform="matrix(.7646 0 0 .7535 .8023 31.852)" gradientUnits="userSpaceOnUse">
				<stop stop-color="#fff" offset="0"/>
				<stop stop-color="#FBFBFB" offset=".1695"/>
				<stop stop-color="#eee" offset=".3516"/>
				<stop stop-color="#D8D8D8" offset=".5397"/>
				<stop stop-color="#BABABA" offset=".7318"/>
				<stop stop-color="#949494" offset=".9252"/>
				<stop stop-color="#838383" offset="1"/>
			</radialGradient>
			<path class="st20" d="m53.6 83.2c-0.6-1.4-0.2-3.4 1-4.5l5.9-5.3c1.2-1 2.7-0.7 3.3 0.7l6.2 13.7c0.6 1.4 0.2 3.4-1 4.5l-5.9 5.3c-1.2 1-2.7 0.7-3.3-0.7z" fill="url(#SVGID_18_)"/>
			
				<linearGradient id="SVGID_19_" x1="65.774" x2="93.062" y1="83.675" y2="84.527" gradientUnits="userSpaceOnUse">
					<stop offset="0"/>
					<stop stop-color="#212121" offset="1"/>
				</linearGradient>
				<path class="st21" d="m55.6 82.7c-0.1 1.3 0.5 2.6 1.4 3s1.6-0.3 1.7-1.6-0.5-2.6-1.4-3c-0.8-0.4-1.6 0.3-1.7 1.6" fill="url(#SVGID_19_)"/>
				<linearGradient id="SVGID_20_" x1="65.65" x2="92.939" y1="87.621" y2="88.473" gradientUnits="userSpaceOnUse">
					<stop offset="0"/>
					<stop stop-color="#212121" offset="1"/>
				</linearGradient>
				<path class="st22" d="m64.9 86.9c-0.1 1.3 0.5 2.6 1.4 3s1.6-0.3 1.7-1.6-0.5-2.6-1.4-3c-0.9-0.3-1.7 0.4-1.7 1.6" fill="url(#SVGID_20_)"/>
			
			
				<radialGradient id="SVGID_21_" cx="107.3" cy="46.997" r="38.107" gradientTransform="matrix(.7646 0 0 .7535 .8023 31.852)" gradientUnits="userSpaceOnUse">
				<stop stop-color="#fff" offset="0"/>
				<stop stop-color="#FBFBFB" offset=".1695"/>
				<stop stop-color="#eee" offset=".3516"/>
				<stop stop-color="#D8D8D8" offset=".5397"/>
				<stop stop-color="#BABABA" offset=".7318"/>
				<stop stop-color="#949494" offset=".9252"/>
				<stop stop-color="#838383" offset="1"/>
			</radialGradient>
			<path class="st23" d="m65.5 73.3c-0.6-1.4 0.1-2.9 1.6-3.2l10.9-2.3c1.5-0.3 3.3 0.6 4 2l6.2 13.7c0.6 1.4-0.1 2.9-1.6 3.2l-10.9 2.3c-1.5 0.3-3.3-0.6-4-2z" fill="url(#SVGID_21_)"/>
			
				<linearGradient id="SVGID_22_" x1="76.586" x2="79.58" y1="96.588" y2="72.48" gradientUnits="userSpaceOnUse">
					<stop offset="0"/>
					<stop stop-color="#212121" offset="1"/>
				</linearGradient>
				<path class="st24" d="m81 73c-0.4-0.9-1.4-1.5-2.3-1.4-0.8 0.2-1.2 1.1-0.7 2 0.4 0.9 1.4 1.5 2.3 1.4 0.8-0.2 1.1-1.1 0.7-2" fill="url(#SVGID_22_)"/>
				<linearGradient id="SVGID_23_" x1="75.437" x2="78.431" y1="93.64" y2="69.532" gradientUnits="userSpaceOnUse">
					<stop offset="0"/>
					<stop stop-color="#212121" offset="1"/>
				</linearGradient>
				<path class="st25" d="m78.9 77.9c-0.4-0.9-1.4-1.5-2.3-1.4-0.8 0.2-1.2 1.1-0.7 2 0.4 0.9 1.4 1.5 2.3 1.4 0.8-0.2 1.1-1.1 0.7-2" fill="url(#SVGID_23_)"/>
				<linearGradient id="SVGID_24_" x1="72.713" x2="75.707" y1="96.12" y2="72.012" gradientUnits="userSpaceOnUse">
					<stop offset="0"/>
					<stop stop-color="#212121" offset="1"/>
				</linearGradient>
				<path class="st26" d="m75.8 83.3c-0.4-0.9-1.4-1.5-2.3-1.4-0.8 0.2-1.2 1.1-0.7 2 0.4 0.9 1.4 1.5 2.3 1.4 0.8-0.2 1.1-1.1 0.7-2" fill="url(#SVGID_24_)"/>
			
		
	
	
		
			
				<radialGradient id="SVGID_25_" cx="56.118" cy="66.513" r="38.54" gradientTransform="matrix(.7646 0 0 .7535 .8023 31.852)" gradientUnits="userSpaceOnUse">
				<stop stop-color="#fff" offset="0"/>
				<stop stop-color="#FBFBFB" offset=".1695"/>
				<stop stop-color="#eee" offset=".3516"/>
				<stop stop-color="#D8D8D8" offset=".5397"/>
				<stop stop-color="#BABABA" offset=".7318"/>
				<stop stop-color="#949494" offset=".9252"/>
				<stop stop-color="#838383" offset="1"/>
			</radialGradient>
			<path class="st27" d="m63.1 82.3c-0.3-1.3-1.3-3.1-2.3-4.1l-9.1-8.8c-1-0.9-2.7-1.2-3.9-0.6l-16.5 8.7c-1.2 0.6-1.9 2.2-1.6 3.5l3.1 13.2c0.3 1.3 1.3 3.1 2.3 4.1l9.1 8.8c1 0.9 2.7 1.2 3.9 0.6l16.4-8.7c1.2-0.6 1.9-2.2 1.6-3.5z" fill="url(#SVGID_25_)"/>
			
				<radialGradient id="SVGID_26_" cx="35.264" cy="45.591" r="48.254" gradientTransform="matrix(.7646 0 0 .7535 .8023 31.852)" gradientUnits="userSpaceOnUse">
				<stop stop-color="#fff" offset="0"/>
				<stop stop-color="#FBFBFB" offset=".1695"/>
				<stop stop-color="#eee" offset=".3516"/>
				<stop stop-color="#D8D8D8" offset=".5397"/>
				<stop stop-color="#BABABA" offset=".7318"/>
				<stop stop-color="#949494" offset=".9252"/>
				<stop stop-color="#838383" offset="1"/>
			</radialGradient>
			<path class="st28" d="m32.5 80.6c-1-0.9-0.8-2.2 0.4-2.9l14.6-7.7c1.2-0.6 3-0.4 3.9 0.6l7.6 7.4c1 0.9 0.8 2.2-0.4 2.9l-14.6 7.7c-1.2 0.6-3 0.4-3.9-0.6z" fill="url(#SVGID_26_)"/>
			
				<linearGradient id="SVGID_27_" x1="47.778" x2="52.937" y1="97.129" y2="73.546" gradientUnits="userSpaceOnUse">
					<stop offset="0"/>
					<stop stop-color="#212121" offset="1"/>
				</linearGradient>
				<path class="st29" d="m52.4 81.6c0.9-0.5 1.2-1.3 0.7-1.9-0.6-0.6-1.8-0.6-2.7-0.1s-1.2 1.3-0.7 1.9c0.6 0.6 1.8 0.6 2.7 0.1" fill="url(#SVGID_27_)"/>
				<linearGradient id="SVGID_28_" x1="44.46" x2="49.619" y1="96.417" y2="72.833" gradientUnits="userSpaceOnUse">
					<stop offset="0"/>
					<stop stop-color="#212121" offset="1"/>
				</linearGradient>
				<path class="st30" d="m49.6 78.9c0.9-0.5 1.2-1.3 0.7-1.9-0.6-0.6-1.8-0.6-2.7-0.1s-1.2 1.3-0.7 1.9c0.5 0.5 1.7 0.6 2.7 0.1" fill="url(#SVGID_28_)"/>
				<linearGradient id="SVGID_29_" x1="41.142" x2="46.301" y1="95.704" y2="72.121" gradientUnits="userSpaceOnUse">
					<stop offset="0"/>
					<stop stop-color="#212121" offset="1"/>
				</linearGradient>
				<path class="st31" d="m46.7 76.1c0.9-0.5 1.2-1.3 0.7-1.9-0.6-0.6-1.8-0.6-2.7-0.1s-1.2 1.3-0.7 1.9c0.5 0.5 1.7 0.6 2.7 0.1" fill="url(#SVGID_29_)"/>
				<linearGradient id="SVGID_30_" x1="43.165" x2="48.324" y1="96.129" y2="72.546" gradientUnits="userSpaceOnUse">
					<stop offset="0"/>
					<stop stop-color="#212121" offset="1"/>
				</linearGradient>
				<path class="st32" d="m47 84.5c0.9-0.5 1.2-1.3 0.7-1.9-0.6-0.6-1.8-0.6-2.7-0.1s-1.2 1.3-0.7 1.9 1.7 0.6 2.7 0.1" fill="url(#SVGID_30_)"/>
				<linearGradient id="SVGID_31_" x1="39.847" x2="45.006" y1="95.416" y2="71.833" gradientUnits="userSpaceOnUse">
					<stop offset="0"/>
					<stop stop-color="#212121" offset="1"/>
				</linearGradient>
				<path class="st33" d="m44.1 81.8c0.9-0.5 1.2-1.3 0.7-1.9-0.6-0.6-1.8-0.6-2.7-0.1s-1.2 1.3-0.7 1.9c0.5 0.5 1.7 0.5 2.7 0.1" fill="url(#SVGID_31_)"/>
				<linearGradient id="SVGID_32_" x1="36.529" x2="41.688" y1="94.704" y2="71.121" gradientUnits="userSpaceOnUse">
					<stop offset="0"/>
					<stop stop-color="#212121" offset="1"/>
				</linearGradient>
				<path class="st34" d="m41.2 79c0.9-0.5 1.2-1.3 0.7-1.9-0.6-0.6-1.8-0.6-2.7-0.1s-1.2 1.3-0.7 1.9c0.6 0.5 1.8 0.6 2.7 0.1" fill="url(#SVGID_32_)"/>
			
			
				<radialGradient id="SVGID_33_" cx="29.18" cy="56.375" r="54.62" gradientTransform="matrix(.7646 0 0 .7535 .8023 31.852)" gradientUnits="userSpaceOnUse">
				<stop stop-color="#fff" offset="0"/>
				<stop stop-color="#FBFBFB" offset=".1695"/>
				<stop stop-color="#eee" offset=".3516"/>
				<stop stop-color="#D8D8D8" offset=".5397"/>
				<stop stop-color="#BABABA" offset=".7318"/>
				<stop stop-color="#949494" offset=".9252"/>
				<stop stop-color="#838383" offset="1"/>
			</radialGradient>
			<path class="st35" d="m35.9 97.8c-1-0.9-2-2.8-2.3-4.1l-2.2-9.7c-0.3-1.3 0.2-1.6 1.2-0.7l6.5 6.3c1 0.9 2 2.8 2.3 4.1l2.2 9.7c0.3 1.3-0.2 1.6-1.2 0.7z" fill="url(#SVGID_33_)"/>
			
				<linearGradient id="SVGID_34_" x1="35.572" x2="46.245" y1="96.801" y2="79.746" gradientUnits="userSpaceOnUse">
					<stop offset="0"/>
					<stop stop-color="#212121" offset="1"/>
				</linearGradient>
				<path class="st36" d="m39 95.2c-0.3-1.2-1.2-2.8-2-3.6s-1.3-0.5-1 0.7 1.2 2.8 2 3.6 1.2 0.5 1-0.7" fill="url(#SVGID_34_)"/>
			
			
				<radialGradient id="SVGID_35_" cx="67.639" cy="66.216" r="35.896" gradientTransform="matrix(.7646 0 0 .7535 .8023 31.852)" gradientUnits="userSpaceOnUse">
				<stop stop-color="#fff" offset="0"/>
				<stop stop-color="#FBFBFB" offset=".1695"/>
				<stop stop-color="#eee" offset=".3516"/>
				<stop stop-color="#D8D8D8" offset=".5397"/>
				<stop stop-color="#BABABA" offset=".7318"/>
				<stop stop-color="#949494" offset=".9252"/>
				<stop stop-color="#838383" offset="1"/>
			</radialGradient>
			<path class="st37" d="m43.4 93.8c-0.3-1.3 0.4-2.9 1.6-3.5l14.6-7.7c1.2-0.6 2.4-0.1 2.7 1.2l2.7 11.2c0.3 1.3-0.4 2.9-1.6 3.5l-14.6 7.7c-1.2 0.6-2.4 0.1-2.7-1.2z" fill="url(#SVGID_35_)"/>
			
				<linearGradient id="SVGID_36_" x1="58.048" x2="47.563" y1="102.85" y2="90.84" gradientUnits="userSpaceOnUse">
					<stop offset="0"/>
					<stop stop-color="#212121" offset="1"/>
				</linearGradient>
				<path class="st38" d="m47.7 92.1c0.6-1 1.7-1.5 2.5-1.2s1 1.3 0.4 2.2c-0.6 1-1.7 1.5-2.5 1.2-0.9-0.2-1-1.2-0.4-2.2" fill="url(#SVGID_36_)"/>
				<linearGradient id="SVGID_37_" x1="60.667" x2="50.183" y1="101.82" y2="89.81" gradientUnits="userSpaceOnUse">
					<stop offset="0"/>
					<stop stop-color="#212121" offset="1"/>
				</linearGradient>
				<path class="st39" d="m52.7 93.9c0.6-1 1.7-1.5 2.5-1.2s1 1.3 0.4 2.2c-0.6 1-1.7 1.5-2.5 1.2s-1-1.3-0.4-2.2" fill="url(#SVGID_37_)"/>
				<linearGradient id="SVGID_38_" x1="63.286" x2="52.803" y1="100.79" y2="88.78" gradientUnits="userSpaceOnUse">
					<stop offset="0"/>
					<stop stop-color="#212121" offset="1"/>
				</linearGradient>
				<path class="st40" d="m57.8 95.6c0.6-1 1.7-1.5 2.5-1.2s1 1.3 0.4 2.2c-0.6 1-1.7 1.5-2.5 1.2-0.8-0.2-1-1.2-0.4-2.2" fill="url(#SVGID_38_)"/>
			
		
	
</g>
</svg>
