<?xml version="1.0" encoding="UTF-8"?>
<svg version="1.1" viewBox="0 0 277.92 108.9" xml:space="preserve" xmlns="http://www.w3.org/2000/svg">
<style type="text/css">
	.st0{fill:url(#SVGID_1_);}
	.st1{fill:url(#SVGID_2_);}
	.st2{fill:url(#SVGID_3_);}
	.st3{fill:url(#SVGID_4_);}
	.st4{fill:url(#SVGID_5_);}
	.st5{fill:url(#SVGID_6_);}
	.st6{fill:url(#SVGID_7_);}
	.st7{fill:url(#SVGID_8_);}
	.st8{fill:url(#SVGID_9_);}
	.st9{fill:url(#SVGID_10_);}
	.st10{fill:url(#SVGID_11_);}
	.st11{fill:url(#SVGID_12_);}
	.st12{fill:url(#SVGID_13_);}
</style>
<title>logo pokervip88</title>
<g transform="translate(-2.782 -1.9)">
	
		
			<linearGradient id="SVGID_1_" x1="87.818" x2="87.818" y1="33.287" y2="88.326" gradientUnits="userSpaceOnUse">
				<stop stop-color="#FEB050" offset="0"/>
				<stop stop-color="#923B18" offset=".5919"/>
				<stop stop-color="#FF9924" offset="1"/>
			</linearGradient>
			<path class="st0" d="m96.7 68.8-5.5-6c-1.1-1.2-1.1-3.2 0-4.4l5.5-6c0.3 0.1 0.7 0 0.9-0.2 0.4-0.4 0.4-0.9 0-1.3s-0.9-0.4-1.3 0c-0.3 0.1-0.3 0.5-0.2 0.8l-6 5.6c-1.2 1.1-3.2 1.1-4.4 0l-6-5.6c0.1-0.3 0-0.7-0.2-0.9-0.4-0.4-0.9-0.4-1.3 0s-0.4 0.9 0 1.3c0.2 0.2 0.6 0.3 0.9 0.2l5.6 6c1.1 1.2 1.1 3.2 0 4.4l-5.6 6c-0.3-0.1-0.7 0-0.9 0.2-0.4 0.4-0.4 0.9 0 1.3s0.9 0.4 1.3 0c0.2-0.2 0.3-0.6 0.2-0.9l6-5.5c1.2-1.1 3.2-1.1 4.4 0l6 5.5c-0.1 0.3 0 0.7 0.2 0.9 0.4 0.4 0.9 0.4 1.3 0s0.4-0.9 0-1.3c-0.3-0.1-0.6-0.2-0.9-0.1zm-7.9-7.3c-0.5 0.5-1.2 0.5-1.7 0s-0.5-1.2 0-1.7 1.2-0.5 1.7 0c0.4 0.4 0.4 1.2 0 1.7zm1.5-30.8c-16.5-1.4-31 10.9-32.4 27.4s10.9 31 27.4 32.4 31-10.9 32.4-27.4-10.9-31-27.4-32.4zm-2.5 58.2c-15.7 0-28.3-12.7-28.3-28.3 0-15.7 12.7-28.3 28.3-28.3 15.7 0 28.3 12.7 28.3 28.3 0.1 15.6-12.6 28.3-28.3 28.3zm20.7-34.7 5.7-1.7c0.5 1.5 0.8 3 1 4.6l-5.9 0.8c-0.2-1.4-0.5-2.6-0.8-3.7zm-5.4 9.8v-0.2l4.7 1c0.2-1.1 0.4-2.2 0.4-3.4v0.2l-4.8-0.2v-0.2l4.8 0.2v-0.8c0-11.3-9.2-20.4-20.4-20.4-11.3 0-20.4 9.1-20.4 20.4v0.9l4.8-0.2v0.2l-4.8 0.2c0.1 1.1 0.2 2.2 0.4 3.2l4.7-1v0.2l-4.7 1c0.2 1.1 0.6 2.1 1 3.1l4.4-1.8c0 0.1 0.1 0.1 0.1 0.2l-4.4 1.8c0.4 1 0.9 2 1.5 2.9l4-2.5c0 0.1 0.1 0.1 0.1 0.2l-4 2.5c0.6 0.9 1.2 1.8 1.9 2.6l3.6-3.1 0.2 0.2-3.6 3.1c0.7 0.8 1.5 1.5 2.3 2.2l3-3.7c0.1 0.1 0.1 0.1 0.2 0.1l-3 3.7c0.8 0.7 1.7 1.3 2.7 1.8l2.3-4.1c0.1 0 0.1 0.1 0.2 0.1l-2.3 4.1c0.9 0.5 1.9 1 2.9 1.3l1.6-4.5c0.1 0 0.1 0.1 0.2 0.1l-1.6 4.5c1 0.3 2 0.6 3.1 0.8l0.8-4.7h0.2l-0.8 4.7c1 0.2 2.1 0.3 3.2 0.3v-4.7h0.2v4.7c1.1 0 2.2-0.1 3.2-0.3l-0.6-4.7h0.2l0.8 4.7c1.1-0.2 2.1-0.5 3.1-0.8l-1.6-4.5c0.1 0 0.1-0.1 0.2-0.1l1.6 4.5c1-0.4 2-0.8 2.9-1.3l-2.3-4.1c0.1 0 0.1-0.1 0.2-0.1l2.3 4.1c0.9-0.5 1.8-1.1 2.7-1.8l-3-3.7c0.1 0 0.1-0.1 0.2-0.1l3 3.7c0.8-0.7 1.6-1.4 2.3-2.2l-3.5-3.3 0.2-0.2 3.6 3.1c0.7-0.8 1.4-1.7 1.9-2.6l-4.1-2.5c0-0.1 0.1-0.1 0.1-0.2l4.1 2.5c0.6-0.9 1.1-1.9 1.5-2.9l-4.4-1.8c0-0.1 0.1-0.1 0.1-0.2l4.4 1.8c0.4-1 0.7-2 1-3.1zm5-5.9-4.7 0.6v-0.2l4.7-0.6v0.2zm-0.7-3.4-4.6 1.4c0-0.1 0-0.1-0.1-0.2l4.6-1.4c0.1 0.1 0.1 0.1 0.1 0.2zm-1.3-3.2-4.3 2.2c0-0.1-0.1-0.1-0.1-0.2l4.3-2.2c0.1 0.1 0.1 0.1 0.1 0.2zm-1.9-3.2c0 0.1 0.1 0.1 0.1 0.2l-3.8 2.8c0-0.1-0.1-0.1-0.1-0.2zm-2.2-2.4-3.3 3.5-0.2-0.2 3.3-3.4c0.1 0 0.2 0.1 0.2 0.1zm-2.8-2.3c0.1 0 0.1 0.1 0.2 0.1l-2.7 4c-0.1 0-0.1-0.1-0.2-0.1zm-3.1-1.7c0.1 0 0.1 0.1 0.2 0.1l-2 4.4c-0.1 0-0.1-0.1-0.2-0.1zm-3.3-1.1c0.1 0 0.2 0 0.2 0.1l-1.2 4.6c-0.1 0-0.2 0-0.2-0.1zm-3.4-0.6h0.1 0.1l-0.4 4.8h-0.1-0.1zm-3.2 0 0.4 4.8h-0.2l-0.4-4.8h0.2zm-3.5 0.6 1.2 4.6c-0.1 0-0.2 0-0.2 0.1l-1.2-4.6c0.1-0.1 0.2-0.1 0.2-0.1zm-3.2 1.1 2 4.4c-0.1 0-0.1 0.1-0.2 0.1l-2-4.4s0.1 0 0.2-0.1zm-3.1 1.7 2.7 4c-0.1 0-0.1 0.1-0.2 0.1l-2.7-4c0.1 0 0.2 0 0.2-0.1zm-2.7 2.2 3.3 3.4-0.2 0.2-3.3-3.4 0.2-0.2zm-2.3 2.6 3.8 2.8c0 0.1-0.1 0.1-0.1 0.2l-3.8-2.8c0-0.1 0.1-0.2 0.1-0.2zm-1.8 2.9 4.3 2.1c0 0.1-0.1 0.1-0.1 0.2l-4.3-2.1s0-0.1 0.1-0.2zm2.7 7.5-4.7-0.6v-0.2l4.7 0.6v0.2zm-4.1-4c0-0.1 0-0.1 0.1-0.2l4.6 1.4c0 0.1 0 0.1-0.1 0.2zm19.6 20.9c-8.4 0-15.1-6.8-15.1-15.1 0-8.4 6.8-15.1 15.1-15.1 8.4 0 15.1 6.8 15.1 15.1 0.1 8.3-6.7 15.1-15.1 15.1zm-3.6 6.2-1 5.8c-1.6-0.3-3.1-0.7-4.5-1.2l2-5.6c1.1 0.4 2.3 0.7 3.5 1zm21-34.2 4.8-3.5c0.9 1.2 1.8 2.6 2.5 4l-5.3 2.7c-0.7-1.2-1.3-2.2-2-3.2zm-13.7 34.2 1 5.8c-1.5 0.3-3.1 0.4-4.7 0.4v-5.9c1.3 0 2.5-0.1 3.7-0.3zm-19.9-7.1-4.4 3.9c-1-1.2-2-2.4-2.8-3.8l5-3.1c0.7 1.1 1.4 2.1 2.2 3zm5.7 4.6-2.9 5.2c-1.4-0.8-2.7-1.6-3.9-2.6l3.7-4.6c1 0.7 2 1.4 3.1 2zm30.6-10.8 5.5 2.2c-0.6 1.5-1.3 2.9-2.1 4.2l-5-3.1c0.6-1.1 1.1-2.2 1.6-3.3zm7.4-6.9c-0.1 1.6-0.3 3.1-0.6 4.6l-5.8-1.2c0.2-0.9 0.3-1.8 0.4-2.7 0-0.3 0-0.6 0.1-0.9zm-16.9 17.7 2.9 5.2c-1.4 0.8-2.8 1.4-4.3 1.9l-2-5.6c1.2-0.4 2.3-0.9 3.4-1.5zm5.7-4.6 4.4 3.9c-1 1.2-2.2 2.3-3.4 3.2l-3.7-4.6c1-0.7 1.9-1.6 2.7-2.5zm-36.3-6.2-5.5 2.2c-0.6-1.4-1-2.9-1.4-4.5l5.8-1.3c0.3 1.3 0.6 2.5 1.1 3.6zm14.5-29-1.5-5.7c1.5-0.4 3.1-0.7 4.6-0.8l0.4 5.9c-1.1 0.1-2.3 0.3-3.5 0.6zm-16.1 21.9-5.9 0.3v-1.2c0-1.2 0.1-2.3 0.2-3.5l5.9 0.7c0 0.3-0.1 0.6-0.1 0.9-0.1 1-0.1 1.9-0.1 2.8zm19.9-22.5-0.4-5.9c0.7 0 1.4-0.1 2.1-0.1 0.8 0 1.5 0 2.3 0.1l-0.5 5.9c-1.2-0.1-2.3-0.1-3.5 0zm13.8 3.6 3.3-4.9c1.3 0.9 2.5 1.9 3.6 2.9l-4.1 4.3c-0.8-0.8-1.8-1.6-2.8-2.3zm-6.7-3 1.5-5.7c1.5 0.4 3 0.9 4.4 1.6l-2.4 5.4c-1.1-0.6-2.3-1-3.5-1.3zm-26.1 14.6-5.7-1.7c0.5-1.5 1-3 1.7-4.3l5.3 2.7c-0.4 1-0.9 2.2-1.3 3.3zm8.6-11.5-3.3-4.9c1.3-0.9 2.6-1.6 4.1-2.3l2.4 5.4c-1.1 0.5-2.2 1.1-3.2 1.8zm-5.3 5-4.8-3.5c0.9-1.3 2-2.4 3.1-3.5l4.1 4.3c-0.8 0.8-1.6 1.7-2.4 2.7z" fill="url(#SVGID_1_)"/>
			<linearGradient id="SVGID_2_" x1="87.818" x2="87.818" y1="90.784" y2="30.313" gradientUnits="userSpaceOnUse">
				<stop stop-color="#FFB424" offset="0"/>
				<stop stop-color="#fff" offset=".3065"/>
				<stop stop-color="#D48318" offset=".3656"/>
				<stop stop-color="#fff" offset=".4247"/>
				<stop stop-color="#fff" offset=".6344"/>
				<stop stop-color="#DFA131" offset=".7473"/>
				<stop stop-color="#EAC455" offset=".8609"/>
				<stop stop-color="#C36A18" offset=".9247"/>
				<stop stop-color="#FFB424" offset="1"/>
			</linearGradient>
			<path class="st1" d="m87.8 30.6c0.8 0 1.7 0 2.5 0.1 16.5 1.4 28.8 15.9 27.4 32.4-1.3 15.6-14.4 27.5-29.8 27.5-0.8 0-1.7 0-2.5-0.1-16.6-1.5-28.8-16-27.5-32.5 1.4-15.6 14.5-27.4 29.9-27.4m0 58.3c15.7 0 28.3-12.7 28.3-28.3 0-15.7-12.7-28.3-28.3-28.3-15.7 0-28.3 12.7-28.3 28.3s12.7 28.3 28.3 28.3m0-55.9c0.8 0 1.5 0 2.3 0.1l-0.5 5.9c-0.6-0.1-1.2-0.1-1.8-0.1s-1.1 0-1.7 0.1l-0.4-5.9c0.7-0.1 1.4-0.1 2.1-0.1m-2.3 0.1 0.4 5.9c-1.2 0.1-2.4 0.3-3.5 0.6l-1.5-5.7c1.4-0.4 3-0.7 4.6-0.8m9.2 0.8c1.5 0.4 3 0.9 4.4 1.6l-2.4 5.4c-1.1-0.5-2.3-0.9-3.5-1.2l1.5-5.8m-18.3 1.6 2.4 5.4c-1.1 0.5-2.2 1.1-3.2 1.8l-3.3-4.9c1.4-0.9 2.7-1.7 4.1-2.3m26.8 2.2c1.3 0.9 2.5 1.9 3.6 2.9l-4.1 4.3c-0.9-0.8-1.8-1.6-2.9-2.3l3.4-4.9m-15.4 2.4c11.3 0 20.4 9.1 20.4 20.4v0.8l-4.8-0.2v0.2l4.8 0.2c-0.1 1.1-0.2 2.2-0.4 3.2l-4.7-1v0.2l4.7 1c-0.2 1.1-0.6 2.1-1 3.1l-4.4-1.8c0 0.1-0.1 0.1-0.1 0.2l4.4 1.8c-0.4 1-0.9 2-1.5 2.9l-4.1-2.5c0 0.1-0.1 0.1-0.1 0.2l4.1 2.5c-0.6 0.9-1.2 1.8-1.9 2.6l-3.6-3.1-0.2 0.2 3.6 3.1c-0.7 0.8-1.5 1.5-2.3 2.2l-3-3.7c-0.1 0-0.1 0.1-0.2 0.1l3 3.7c-0.8 0.7-1.7 1.3-2.7 1.8l-2.3-4.1c-0.1 0-0.1 0.1-0.2 0.1l2.3 4.1c-0.9 0.5-1.9 1-2.9 1.3l-1.6-4.5c-0.1 0-0.1 0.1-0.2 0.1l1.6 4.5c-1 0.3-2 0.6-3.1 0.8l-0.8-4.5h-0.2l0.8 4.7c-1.1 0.2-2.2 0.3-3.2 0.3v-4.7h-0.2-0.1v4.7c-1.1 0-2.2-0.1-3.2-0.3l0.8-4.7h-0.2l-0.8 4.7c-1.1-0.2-2.1-0.5-3.1-0.8l1.6-4.5c-0.1 0-0.1 0-0.2-0.1l-1.6 4.5c-1-0.4-2-0.8-2.9-1.3l2.3-4.1c-0.1 0-0.1-0.1-0.2-0.1l-2.3 4.1c-0.9-0.5-1.8-1.1-2.7-1.8l3-3.7c-0.1 0-0.1-0.1-0.2-0.1l-3 3.7c-0.8-0.7-1.6-1.4-2.3-2.2l3.6-3.1-0.2-0.2-3.6 3c-0.7-0.8-1.4-1.7-1.9-2.6l4-2.5c0-0.1-0.1-0.1-0.1-0.2l-4 2.5c-0.6-0.9-1.1-1.9-1.5-2.9l4.4-1.8c0-0.1-0.1-0.1-0.1-0.2l-4.4 1.8c-0.4-1-0.7-2-1-3.1l4.7-1v-0.2l-4.7 1c-0.2-1-0.4-2.1-0.4-3.2l4.8-0.2v-0.2l-4.8 0.2v-0.9c-0.1-11.2 9-20.4 20.3-20.4m1.4 4.9 0.4-4.8h-0.1-0.1l-0.4 4.8h0.1 0.1m-2.9 0h0.2l-0.4-4.8h-0.2l0.4 4.8m5.6 0.5 1.2-4.6c-0.1 0-0.2 0-0.2-0.1l-1.2 4.6s0.1 0 0.2 0.1m-8.2 0c0.1 0 0.2 0 0.2-0.1l-1.2-4.6c-0.1 0-0.1 0-0.2 0.1l1.2 4.6m10.7 0.9 2-4.4c-0.1 0-0.1-0.1-0.2-0.1l-2 4.4s0.1 0 0.2 0.1m-13.2 0c0.1 0 0.1-0.1 0.2-0.1l-2-4.4c-0.1 0-0.1 0.1-0.2 0.1l2 4.4m15.5 1.3 2.7-4c-0.1 0-0.1-0.1-0.2-0.1l-2.7 4c0.1 0 0.1 0 0.2 0.1m-17.8 0c0.1 0 0.1-0.1 0.2-0.1l-2.7-4c-0.1 0-0.1 0.1-0.2 0.1l2.7 4m8.9 28c8.4 0 15.1-6.8 15.1-15.1 0-8.4-6.8-15.1-15.1-15.1-8.4 0-15.1 6.8-15.1 15.1s6.8 15.1 15.1 15.1m10.9-26.3 3.3-3.5-0.2-0.2-3.3 3.4c0.1 0.2 0.2 0.2 0.2 0.3m-21.8 0 0.2-0.2-3.3-3.4-0.2 0.2 3.3 3.4m23.6 2 3.8-2.8c0-0.1-0.1-0.1-0.1-0.2l-3.8 2.8s0 0.1 0.1 0.2m-25.4 0c0-0.1 0.1-0.1 0.1-0.2l-3.8-2.8c0 0.1-0.1 0.1-0.1 0.2l3.8 2.8m26.8 2.2 4.3-2.2c0-0.1-0.1-0.1-0.1-0.2l-4.3 2.2c0 0.1 0 0.2 0.1 0.2m-28.2 0.1c0-0.1 0.1-0.1 0.1-0.2l-4.3-2.1c0 0.1-0.1 0.1-0.1 0.2l4.3 2.1m29.1 2.4 4.6-1.4c0-0.1 0-0.1-0.1-0.2l-4.6 1.4c0.1 0.1 0.1 0.1 0.1 0.2m-30 0.1c0-0.1 0-0.2 0.1-0.2l-4.6-1.4c0 0.1 0 0.1-0.1 0.2l4.6 1.4m30.6 2.5 4.7-0.6v-0.2l-4.7 0.6c-0.1 0.1 0 0.2 0 0.2m-31.1 0.1v-0.2l-4.7-0.6v0.2l4.7 0.6m-3.6-18.1 4.1 4.3c-0.9 0.8-1.7 1.8-2.4 2.8l-4.8-3.5c1-1.4 2-2.5 3.1-3.6m41.2 3.4c0.9 1.2 1.8 2.6 2.5 4l-5.3 2.7c-0.6-1.1-1.2-2.1-1.9-3.1l4.7-3.6m-46.7 4.1 5.3 2.7c-0.5 1.1-1 2.2-1.4 3.4l-5.7-1.7c0.5-1.6 1.1-3 1.8-4.4m33.7 2.3c0.2 0 0.5 0.1 0.6 0.3 0.4 0.4 0.4 0.9 0 1.3-0.2 0.2-0.4 0.3-0.6 0.3h-0.3l-5.5 6c-1.1 1.2-1.1 3.2 0 4.4l5.5 6h0.3c0.2 0 0.5 0.1 0.6 0.3 0.4 0.4 0.4 0.9 0 1.3-0.2 0.2-0.4 0.3-0.6 0.3s-0.5-0.1-0.6-0.3c-0.3-0.4-0.3-0.7-0.2-1l-6-5.5c-0.6-0.6-1.4-0.9-2.2-0.9s-1.6 0.3-2.2 0.8l-6 5.5c0.1 0.3 0 0.7-0.2 0.9s-0.4 0.3-0.6 0.3-0.5-0.1-0.6-0.3c-0.4-0.4-0.4-0.9 0-1.3 0.2-0.2 0.4-0.3 0.6-0.3h0.3l5.6-6c1.1-1.2 1.1-3.2 0-4.4l-5.6-6h-0.3c-0.2 0-0.5-0.1-0.6-0.3-0.4-0.4-0.4-0.9 0-1.3 0.2-0.2 0.4-0.3 0.6-0.3s0.5 0.1 0.6 0.3c0.2 0.2 0.3 0.6 0.2 0.9l6 5.6c0.6 0.6 1.4 0.8 2.2 0.8s1.6-0.3 2.2-0.8l6-5.6c-0.1-0.3 0-0.7 0.2-0.9 0.2 0 0.4-0.1 0.6-0.1m-9 11.3c0.3 0 0.6-0.1 0.9-0.4 0.5-0.5 0.5-1.2 0-1.7-0.2-0.2-0.5-0.4-0.9-0.4s-0.6 0.1-0.9 0.4c-0.5 0.5-0.5 1.2 0 1.7 0.3 0.3 0.6 0.4 0.9 0.4m26.2-9.4c0.5 1.5 0.8 3 1 4.6l-5.9 0.8c-0.2-1.2-0.4-2.4-0.8-3.6l5.7-1.8m-53.6 4.7 5.9 0.7c0 0.3-0.1 0.6-0.1 0.9-0.1 0.9-0.1 1.8-0.1 2.7l-5.9 0.3v-1.2c0-1.1 0.1-2.3 0.2-3.4m47.7 4.3v0.2-0.2m1.2 0 5.9 0.2c-0.1 1.6-0.3 3.1-0.6 4.6l-5.8-1.2c0.2-0.9 0.3-1.8 0.4-2.7 0.1-0.3 0.1-0.6 0.1-0.9m-42.7 3.7c0.3 1.2 0.6 2.4 1.1 3.5l-5.5 2.2c-0.6-1.4-1-2.9-1.4-4.5l5.8-1.2m41.2 3.5 5.5 2.2c-0.6 1.5-1.3 2.9-2.1 4.2l-5-3.1c0.6-1.1 1.1-2.2 1.6-3.3m-38.5 3.3c0.6 1 1.4 2 2.2 2.9l-4.4 3.9c-1-1.2-2-2.4-2.8-3.8l5-3m34.7 2.9 4.4 3.9c-1 1.2-2.2 2.3-3.4 3.2l-3.7-4.6c1-0.7 1.9-1.6 2.7-2.5m-29.8 2.6c0.9 0.8 2 1.5 3 2.1l-2.9 5.2c-1.4-0.8-2.7-1.6-3.9-2.6l3.8-4.7m24.1 2 2.9 5.2c-1.4 0.8-2.8 1.4-4.3 1.9l-2-5.6c1.2-0.4 2.3-0.9 3.4-1.5m-17.8 1.5c1.1 0.4 2.3 0.7 3.6 0.9l-1 5.8c-1.6-0.3-3.1-0.7-4.5-1.2l1.9-5.5m10.9 1 1 5.8c-1.5 0.3-3.1 0.4-4.7 0.4v-5.9c1.3 0 2.5-0.1 3.7-0.3m-3.7-51.6c-7.6 0-14.8 2.8-20.4 7.9s-9.1 12.2-9.7 19.8c-0.3 4.1 0.1 8.1 1.4 11.9 1.2 3.7 3.1 7.1 5.7 10.1 2.5 3 5.6 5.4 9 7.3 3.6 1.9 7.5 3 11.5 3.3 0.8 0.1 1.7 0.1 2.6 0.1 7.6 0 14.8-2.8 20.4-7.9s9.1-12.2 9.7-19.8c0.3-4.1-0.1-8.1-1.4-11.9-1.2-3.7-3.1-7.1-5.7-10.1-2.5-3-5.6-5.4-9-7.3-3.6-1.9-7.5-3-11.5-3.3-0.9-0.1-1.8-0.1-2.6-0.1zm0 58.3c-15.5 0-28.1-12.6-28.1-28.1s12.6-28.1 28.1-28.1 28.1 12.6 28.1 28.1-12.6 28.1-28.1 28.1zm0-55.8c-0.7 0-1.4 0-2.1 0.1h-0.1-0.1c-1.6 0.1-3.2 0.4-4.7 0.8-0.1 0-0.1 0.1-0.2 0.1v0.2l1.5 5.7c0 0.1 0.1 0.1 0.1 0.2h0.1 0.1c1.1-0.3 2.3-0.5 3.5-0.6h0.1 0.1c0.6 0 1.1-0.1 1.7-0.1s1.2 0 1.8 0.1c0.1 0 0.1 0 0.2-0.1 0.1 0 0.1-0.1 0.1-0.2l0.5-5.9c0-0.1 0-0.1-0.1-0.2 0-0.1-0.1-0.1-0.2-0.1h-2.3zm6.9 0.8h-0.1c-0.1 0-0.1 0.1-0.1 0.2l-1.5 5.8v0.2c0 0.1 0.1 0.1 0.2 0.1 1.2 0.3 2.3 0.7 3.4 1.2h0.1 0.1c0.1 0 0.1-0.1 0.1-0.1l2.4-5.4c0.1-0.1 0-0.3-0.1-0.3-1.4-0.7-2.9-1.3-4.5-1.7 0.1 0 0 0 0 0zm-18.3 1.6h-0.1c-1.4 0.7-2.8 1.4-4.1 2.3-0.1 0.1-0.1 0.2-0.1 0.4l3.3 4.9c0 0.1 0.1 0.1 0.2 0.1h0.1c1-0.7 2-1.3 3.2-1.8 0.1-0.1 0.2-0.2 0.1-0.3l-2.4-5.4c0-0.1 0-0.2-0.2-0.2 0.1 0 0.1 0 0 0zm26.8 2.3c-0.1 0-0.2 0.1-0.2 0.1l-3.3 4.9c0 0.1-0.1 0.1 0 0.2 0 0.1 0.1 0.1 0.1 0.2 1 0.7 1.9 1.4 2.8 2.3 0 0 0.1 0.1 0.2 0.1s0.1 0 0.2-0.1l4.1-4.3c0.1-0.1 0.1-0.3 0-0.4-1.1-1.1-2.4-2.1-3.7-3h-0.2zm-15.4 2.4c-2.8 0-5.5 0.5-8.1 1.6-2.5 1-4.7 2.5-6.6 4.4s-3.4 4.1-4.4 6.6c-1.1 2.6-1.6 5.3-1.6 8.1v0.9 0.1 0.1c0.1 1.1 0.2 2.2 0.4 3.2 0 0 0 0.1 0.1 0.1v0.1c0.2 1.1 0.6 2.1 1 3.1 0 0 0 0.1 0.1 0.1v0.1c0.4 1 0.9 2 1.5 2.9l0.1 0.1v0.1c0.6 0.9 1.2 1.8 2 2.6l0.1 0.1s0 0.1 0.1 0.1c0.7 0.8 1.5 1.6 2.4 2.2 0 0 0.1 0 0.1 0.1 0 0 0 0.1 0.1 0.1 0.9 0.7 1.8 1.3 2.7 1.8h0.1l0.1 0.1c1 0.5 2 1 3 1.3h0.1l0.1 0.1c1 0.4 2.1 0.6 3.2 0.8h0.1 0.1c1.1 0.2 2.1 0.3 3.2 0.3h0.1 0.1c1.1 0 2.2-0.1 3.2-0.3h0.1 0.1c1.1-0.2 2.1-0.5 3.2-0.8 0 0 0.1 0 0.1-0.1h0.1c1-0.4 2-0.8 3-1.3 0 0 0.1 0 0.1-0.1h0.1c0.9-0.5 1.9-1.2 2.7-1.8l0.1-0.1s0.1 0 0.1-0.1c0.8-0.7 1.6-1.4 2.4-2.3 0 0 0-0.1 0.1-0.1 0 0 0.1 0 0.1-0.1 0.7-0.8 1.4-1.7 1.9-2.6v-0.1l0.1-0.1c0.6-0.9 1.1-1.9 1.5-2.9v-0.1l0.1-0.1c0.4-1 0.7-2 1-3.1v-0.1s0-0.1 0.1-0.1c0.2-1.1 0.4-2.1 0.4-3.2v-0.2-0.8c0-2.8-0.5-5.5-1.6-8.1-1-2.5-2.5-4.7-4.4-6.6s-4.1-3.4-6.6-4.4c-2.7-1.1-5.4-1.6-8.2-1.6zm0 35.5c-8.2 0-14.9-6.7-14.9-14.9s6.7-14.9 14.9-14.9 14.9 6.7 14.9 14.9c0 8.3-6.7 14.9-14.9 14.9zm-19.1-35c-0.1 0-0.1 0-0.2 0.1-1.1 1.1-2.2 2.3-3.1 3.5 0 0.1-0.1 0.1 0 0.2 0 0.1 0 0.1 0.1 0.2l4.8 3.5h0.2c0.1 0 0.2 0 0.2-0.1 0.7-1 1.5-1.9 2.4-2.7 0 0 0.1-0.1 0.1-0.2s0-0.1-0.1-0.2l-4.1-4.3c-0.1 0.1-0.2 0-0.3 0zm41.2 3.5c-0.1 0-0.1 0-0.2 0.1l-4.8 3.5c-0.1 0-0.1 0.1-0.1 0.2v0.2c0.7 1 1.3 2 1.9 3.1 0 0.1 0.1 0.1 0.2 0.1h0.1l5.3-2.7c0.1 0 0.1-0.1 0.1-0.1v-0.2c-0.7-1.4-1.5-2.8-2.5-4 0.2-0.2 0.1-0.2 0-0.2zm-46.7 4c-0.1 0.1-0.2 0.1-0.2 0.2-0.7 1.4-1.3 2.9-1.8 4.4v0.2c0 0.1 0.1 0.1 0.2 0.1l5.7 1.7h0.1 0.1c0.1 0 0.1-0.1 0.1-0.2 0.4-1.2 0.8-2.3 1.3-3.4 0.1-0.1 0-0.3-0.1-0.3l-5.3-2.6c0-0.1-0.1-0.1-0.1-0.1zm33.7 2.4c-0.3 0-0.6 0.1-0.8 0.3-0.3 0.3-0.4 0.6-0.3 1l-5.9 5.5c-0.5 0.5-1.3 0.8-2 0.8-0.8 0-1.5-0.3-2-0.8l-5.9-5.5c0.1-0.4-0.1-0.7-0.3-1-0.2-0.2-0.5-0.3-0.8-0.3s-0.6 0.1-0.8 0.3c-0.5 0.5-0.5 1.2 0 1.6 0.2 0.2 0.5 0.3 0.8 0.3h0.2l5.5 5.9c1 1.1 1 3 0 4.1l-5.5 5.9h-0.2c-0.3 0-0.6 0.1-0.8 0.3-0.5 0.5-0.5 1.2 0 1.6 0.2 0.2 0.5 0.3 0.8 0.3s0.6-0.1 0.8-0.3c0.3-0.3 0.4-0.6 0.3-1l5.9-5.4c0.5-0.5 1.3-0.8 2-0.8 0.8 0 1.5 0.3 2.1 0.8l5.9 5.4c-0.1 0.4 0.1 0.7 0.3 1 0.2 0.2 0.5 0.3 0.8 0.3s0.6-0.1 0.8-0.3c0.5-0.5 0.5-1.2 0-1.6-0.2-0.2-0.5-0.3-0.8-0.3h-0.2l-5.4-5.9c-1-1.1-1-3 0-4.1l5.4-5.9h0.2c0.3 0 0.6-0.1 0.8-0.3 0.5-0.5 0.5-1.2 0-1.6-0.3-0.2-0.6-0.3-0.9-0.3zm-9 11.3c-0.3 0-0.5-0.1-0.7-0.3s-0.3-0.4-0.3-0.7 0.1-0.5 0.3-0.7 0.4-0.3 0.7-0.3 0.5 0.1 0.7 0.3c0.4 0.4 0.4 1 0 1.3-0.2 0.3-0.4 0.4-0.7 0.4zm26.2-9.4-5.7 1.8c-0.1 0-0.1 0.1-0.2 0.1v0.2c0.4 1.1 0.6 2.3 0.8 3.5 0 0.1 0.1 0.2 0.3 0.2l5.9-0.8c0.1 0 0.2-0.1 0.2-0.3-0.2-1.5-0.5-3.1-1-4.6 0-0.1-0.1-0.1-0.1-0.2-0.1 0.1-0.1 0.1-0.2 0.1zm-53.6 4.6c-0.1 0-0.1 0-0.2 0.1-0.1 0-0.1 0.1-0.1 0.2-0.1 1.1-0.2 2.3-0.2 3.5v1.2c0 0.1 0 0.1 0.1 0.2 0 0 0.1 0.1 0.2 0.1l5.9-0.3c0.1 0 0.1 0 0.2-0.1 0 0 0.1-0.1 0.1-0.2 0-0.9 0-1.8 0.1-2.7 0-0.3 0.1-0.6 0.1-0.9 0-0.1 0-0.1-0.1-0.2 0-0.1-0.1-0.1-0.2-0.1l-5.9-0.8zm48.9 4.4c-0.1 0-0.1 0-0.2 0.1 0 0-0.1 0.1-0.1 0.2 0 0.3 0 0.5-0.1 0.9-0.1 0.9-0.2 1.8-0.4 2.7v0.2c0 0.1 0.1 0.1 0.2 0.1l5.8 1.2h0.1 0.1c0.1 0 0.1-0.1 0.1-0.2 0.3-1.5 0.5-3.1 0.6-4.7 0-0.1 0-0.1-0.1-0.2 0 0-0.1-0.1-0.2-0.1l-5.8-0.2zm-42.7 3.7-5.8 1.3c-0.1 0-0.2 0.2-0.2 0.3 0.3 1.5 0.8 3.1 1.4 4.5 0 0.1 0.1 0.2 0.2 0.2h0.1l5.5-2.2c0.1 0 0.1-0.1 0.1-0.1v-0.2c-0.4-1.1-0.8-2.3-1.1-3.5 0-0.2-0.1-0.3-0.2-0.3zm41.2 3.4h-0.1c-0.1 0-0.1 0.1-0.1 0.1-0.4 1.1-1 2.2-1.6 3.2v0.2c0 0.1 0.1 0.1 0.1 0.2l5 3.1h0.1c0.1 0 0.2 0 0.2-0.1 0.8-1.3 1.5-2.8 2.1-4.2v-0.2c0-0.1-0.1-0.1-0.1-0.1l-5.6-2.2c0.1 0 0 0 0 0zm-38.5 3.4h-0.1l-5 3.1c-0.1 0-0.1 0.1-0.1 0.2v0.2c0.8 1.3 1.8 2.6 2.8 3.8h0.2c0.1 0 0.1 0 0.2-0.1l4.4-3.9c0.1-0.1 0.1-0.3 0-0.4-0.8-0.9-1.5-1.9-2.2-2.9h-0.2zm34.7 2.8c-0.1 0-0.1 0-0.2 0.1-0.8 0.9-1.7 1.7-2.6 2.5-0.1 0.1-0.1 0.2 0 0.4l3.7 4.6c0.1 0.1 0.1 0.1 0.2 0.1s0.1 0 0.2-0.1c1.2-1 2.4-2.1 3.4-3.3 0.1-0.1 0.1-0.3 0-0.4l-4.4-3.9c-0.2 0.1-0.3 0-0.3 0zm-29.8 2.6s-0.1 0 0 0c-0.1 0-0.2 0-0.2 0.1l-3.7 4.6c0 0.1-0.1 0.1-0.1 0.2s0 0.1 0.1 0.2c1.2 1 2.5 1.9 3.9 2.6h0.1 0.1c0.1 0 0.1-0.1 0.2-0.1l2.9-5.2c0.1-0.1 0-0.3-0.1-0.3-1.1-0.6-2.1-1.3-3-2-0.1-0.1-0.2-0.1-0.2-0.1zm24.1 2h-0.1c-1.1 0.6-2.2 1.1-3.3 1.5-0.1 0-0.2 0.2-0.2 0.3l2 5.6c0 0.1 0.1 0.2 0.2 0.2h0.1c1.5-0.5 2.9-1.2 4.3-1.9 0.1-0.1 0.2-0.2 0.1-0.3l-2.9-5.2c0-0.1-0.1-0.1-0.2-0.2v0zm-17.8 1.6c-0.1 0-0.2 0.1-0.2 0.2l-2 5.6v0.2c0 0.1 0.1 0.1 0.1 0.1 1.5 0.5 3 0.9 4.6 1.2 0.1 0 0.2-0.1 0.3-0.2l1-5.8c0-0.1-0.1-0.3-0.2-0.3-1.2-0.3-2.3-0.6-3.6-1 0.1 0 0.1 0 0 0zm10.9 0.9c-1.2 0.2-2.4 0.3-3.7 0.3-0.1 0-0.1 0-0.2 0.1 0 0-0.1 0.1-0.1 0.2v5.9c0 0.1 0 0.1 0.1 0.2 0 0 0.1 0.1 0.2 0.1 1.6 0 3.2-0.1 4.7-0.4 0.1 0 0.1 0 0.2-0.1 0-0.1 0.1-0.1 0-0.2l-1-5.8c0-0.2-0.1-0.3-0.2-0.3z" fill="url(#SVGID_2_)"/>
		
		<linearGradient id="SVGID_3_" x1="159.16" x2="159.16" y1="33.918" y2="82.991" gradientUnits="userSpaceOnUse">
			<stop stop-color="#fff" offset="0"/>
			<stop stop-color="#FEB050" offset="0"/>
			<stop stop-color="#7F3C0E" offset=".6233"/>
			<stop stop-color="#833F0F" offset=".6914"/>
			<stop stop-color="#8F4711" offset=".7578"/>
			<stop stop-color="#A25614" offset=".8237"/>
			<stop stop-color="#BE6A19" offset=".8892"/>
			<stop stop-color="#E1831F" offset=".9538"/>
			<stop stop-color="#FF9924" offset="1"/>
		</linearGradient>
		<path class="st2" d="m149.8 61v-20c0-4.3 2.8-7 7-7h10.3c1.3 0 1.4 0.5 1.4 1.8 0 2.3-0.1 3.2 0 4.1 0 1.3-0.4 1.6-1.4 1.5h-8.4c-1 0-1.2 0.3-1.1 1.5l-0.2 9.7c0 1.4 0.3 1.9 1.3 1.4 2.8-1.5 5.7-3 8.6-4.5 1.1-0.6 1.2-0.5 1.2 0.7 0 2.6-0.1 4.8-0.1 6.2 0 0.8-0.5 1.6-1.2 1.9-2.8 1.4-6 3.1-8.6 4.4-0.6 0.3-0.9 0.9-0.9 1.5v10.2c0 0.8 0.3 1.1 1.1 1.1 11.2 0.5 9.7-2.6 9.8 6.4 0 0.7-0.2 1-1 1h-16.6c-1 0-1-0.5-1-1.3-0.2-6.8-0.2-13.7-0.2-20.6z" fill="url(#SVGID_3_)"/>
		<linearGradient id="SVGID_4_" x1="183.25" x2="183.25" y1="33.939" y2="83.008" gradientUnits="userSpaceOnUse">
			<stop stop-color="#fff" offset="0"/>
			<stop stop-color="#FEB050" offset="0"/>
			<stop stop-color="#7F3C0E" offset=".6233"/>
			<stop stop-color="#833F0F" offset=".6914"/>
			<stop stop-color="#8F4711" offset=".7578"/>
			<stop stop-color="#A25614" offset=".8237"/>
			<stop stop-color="#BE6A19" offset=".8892"/>
			<stop stop-color="#E1831F" offset=".9538"/>
			<stop stop-color="#FF9924" offset="1"/>
		</linearGradient>
		<path class="st3" d="m187.1 62.2v19.3c0 1.1-0.3 1.5-1.4 1.4-1.7-0.1-3.4-0.1-5.1 0-1 0.1-1.3-0.3-1.3-1.3 0.1-13 0-26 0-39 0-1-0.3-1.3-1.3-1.3-1.8 0.1-3.5 0-5.3 0-0.8 0-1.2-0.3-1.2-1.2v-5.4c0-0.6 0.2-0.9 0.9-0.9h21.6c0.7 0 0.8 0.3 0.8 0.8-0.2 7.5 1.7 6.8-6.3 6.5-1-0.1-1.5 0.2-1.4 1.3v19.8z" fill="url(#SVGID_4_)"/>
		<linearGradient id="SVGID_5_" x1="13.41" x2="13.41" y1="33.921" y2="82.996" gradientUnits="userSpaceOnUse">
			<stop stop-color="#fff" offset="0"/>
			<stop stop-color="#FEB050" offset="0"/>
			<stop stop-color="#7F3C0E" offset=".6233"/>
			<stop stop-color="#833F0F" offset=".6914"/>
			<stop stop-color="#8F4711" offset=".7578"/>
			<stop stop-color="#A25614" offset=".8237"/>
			<stop stop-color="#BE6A19" offset=".8892"/>
			<stop stop-color="#E1831F" offset=".9538"/>
			<stop stop-color="#FF9924" offset="1"/>
		</linearGradient>
		<path class="st4" d="m24.1 58.7c0-0.8 0-1.5-1.4-1.5-0.2 0-0.5 0-0.6-0.2-0.1-0.3 0.2-0.4 0.3-0.6 1.2-1.4 1.7-3 1.7-4.8v-11.3c0-3.6-2.8-6.4-6.5-6.4h-13.4c-1.2 0-1.4 0.3-1.4 1.4v23 23.2c0 1.2 0.3 1.4 1.5 1.4 4.2-0.1 8.4 0 12.6 0 4.7 0 7.3-2.5 7.3-7.3-0.1-5.5-0.1-11.2-0.1-16.9zm-13.7-10.9v-5.3c0-0.9 0.3-1.2 1.2-1.1 1.3 0.1 2.5 0 3.8 0 0.7 0 1.1 0.2 1 1v8.1c0 0.5-0.2 0.9-0.7 1.1-1.5 0.8-2.9 1.5-4.3 2.3-0.7 0.4-1 0.2-1-0.6v-5.5zm6 13.2v6.8 6.6c0 0.8-0.2 1.1-1.1 1.1-1.3-0.1-2.6 0-3.9 0-0.7 0-1-0.2-1-0.9v-10.7c0-0.5 0.2-0.9 0.6-1.1 1.5-0.8 3-1.5 4.5-2.3 0.8-0.5 0.9-0.2 0.9 0.5z" fill="url(#SVGID_5_)"/>
		<linearGradient id="SVGID_6_" x1="42.621" x2="42.621" y1="33.924" y2="83.003" gradientUnits="userSpaceOnUse">
			<stop stop-color="#fff" offset="0"/>
			<stop stop-color="#FEB050" offset="0"/>
			<stop stop-color="#7F3C0E" offset=".6233"/>
			<stop stop-color="#833F0F" offset=".6914"/>
			<stop stop-color="#8F4711" offset=".7578"/>
			<stop stop-color="#A25614" offset=".8237"/>
			<stop stop-color="#BE6A19" offset=".8892"/>
			<stop stop-color="#E1831F" offset=".9538"/>
			<stop stop-color="#FF9924" offset="1"/>
		</linearGradient>
		<path class="st5" d="m55.4 82.1-2.4-5.4c-2.2-4.9-4.3-9.8-6.5-14.6-0.3-0.7-0.2-1.1 0.5-1.4 1.1-0.5 1.8-1 3-1.5 0.6-0.3 1.3-0.8 1.3-1.5 0-5.8 0-11.6-0.1-17.4-0.1-3.5-3-6.2-6.5-6.2h-13.4c-1.2 0-1.4 0.3-1.4 1.5v23.1 23.1c0 1 0.2 1.5 1.4 1.4 1.6-0.1 3.2 0 4.8 0s1.6 0 1.6-1.5v-14.7c0-1 0.4-1.6 1.3-1.8 1-0.3 0.9 0.7 1.1 1.2 2.4 5.3 4.7 10.6 7 15.9 0.2 0.5 0.4 1 1.1 0.9h6.7c0.6-0.2 0.8-0.4 0.5-1.1zm-12-29.1c0 0.5-0.2 0.9-0.7 1.1-1.4 0.7-2.9 1.5-4.3 2.2-0.7 0.4-1 0.2-1-0.6v-6.8-6.5c0-0.8 0.3-1.1 1.1-1.1h4c0.6 0 0.9 0.3 0.9 0.9v10.8z" fill="url(#SVGID_6_)"/>
		<linearGradient id="SVGID_7_" x1="230.45" x2="230.45" y1="1.9453" y2="110.93" gradientUnits="userSpaceOnUse">
			<stop stop-color="#fff" offset="0"/>
			<stop stop-color="#FEB050" offset="0"/>
			<stop stop-color="#7F3C0E" offset=".6233"/>
			<stop stop-color="#833F0F" offset=".6914"/>
			<stop stop-color="#8F4711" offset=".7578"/>
			<stop stop-color="#A25614" offset=".8237"/>
			<stop stop-color="#BE6A19" offset=".8892"/>
			<stop stop-color="#E1831F" offset=".9538"/>
			<stop stop-color="#FF9924" offset="1"/>
		</linearGradient>
		<path class="st6" d="m226.1 1.9c-19.2 0-36.1 9.9-45.8 24.9l3.9 2.7c1.6-2.5 3.4-4.8 5.4-6.9h43.7l-3.3 6.2h-18.7v4.7h16.2l-33 61.2c-1.2-1-2.4-2.1-3.5-3.2-1.6-1.6-3.1-3.4-4.5-5.2l-3.5 3.2c8.5 11.1 21.2 18.8 35.7 20.8l0.6 0.3 0.1-0.2c2.2 0.3 4.5 0.4 6.8 0.4 30.1 0 54.5-24.4 54.5-54.5s-24.5-54.4-54.6-54.4zm-27.9 95.8 34.5-64.1h22.7l-38.6 71.7c-3.4-0.7-6.8-1.7-10-3-3.1-1.3-5.9-2.8-8.6-4.6zm63.1-6.1c-4.6 4.6-9.9 8.2-15.8 10.7-6.1 2.6-12.6 3.9-19.4 3.9-1.5 0-2.9-0.1-4.4-0.2l41.6-77.2h-28l5.9-10.9h-46.6c3.7-3 7.8-5.5 12.2-7.4 6.1-2.6 12.6-3.9 19.4-3.9 6.7 0 13.2 1.3 19.4 3.9 5.9 2.5 11.2 6.1 15.8 10.7s8.2 9.9 10.7 15.8c2.6 6.1 3.9 12.6 3.9 19.4s-1.3 13.2-3.9 19.4c-2.7 5.9-6.3 11.3-10.8 15.8z" fill="url(#SVGID_7_)"/>
		<linearGradient id="SVGID_8_" x1="133.52" x2="133.52" y1="33.921" y2="82.996" gradientUnits="userSpaceOnUse">
			<stop stop-color="#fff" offset="0"/>
			<stop stop-color="#FEB050" offset="0"/>
			<stop stop-color="#7F3C0E" offset=".6233"/>
			<stop stop-color="#833F0F" offset=".6914"/>
			<stop stop-color="#8F4711" offset=".7578"/>
			<stop stop-color="#A25614" offset=".8237"/>
			<stop stop-color="#BE6A19" offset=".8892"/>
			<stop stop-color="#E1831F" offset=".9538"/>
			<stop stop-color="#FF9924" offset="1"/>
		</linearGradient>
		<path class="st7" d="m144.2 58.7c0-0.8 0-1.5-1.4-1.5-0.2 0-0.5 0-0.6-0.2-0.1-0.3 0.2-0.4 0.3-0.6 1.2-1.4 1.7-3 1.7-4.8v-11.3c0-3.6-2.8-6.4-6.5-6.4h-13.4c-1.2 0-1.4 0.3-1.4 1.4v23 23.2c0 1.2 0.3 1.4 1.5 1.4 4.2-0.1 8.4 0 12.6 0 4.7 0 7.3-2.5 7.3-7.3-0.1-5.5-0.1-11.2-0.1-16.9zm-13.7-10.9v-5.3c0-0.9 0.3-1.2 1.2-1.1 1.3 0.1 2.5 0 3.8 0 0.7 0 1.1 0.2 1 1v8.1c0 0.5-0.2 0.9-0.7 1.1-1.5 0.8-2.9 1.5-4.3 2.3-0.7 0.4-1 0.2-1-0.6v-5.5zm6 13.2v6.8 6.6c0 0.8-0.2 1.1-1.1 1.1-1.3-0.1-2.6 0-3.9 0-0.7 0-1-0.2-1-0.9v-10.7c0-0.5 0.2-0.9 0.6-1.1 1.5-0.8 3-1.5 4.5-2.3 0.8-0.5 0.9-0.2 0.9 0.5z" fill="url(#SVGID_8_)"/>
		<linearGradient id="SVGID_9_" x1="159.16" x2="159.16" y1="82.991" y2="33.918" gradientUnits="userSpaceOnUse">
			<stop stop-color="#fff" stop-opacity="0" offset="0"/>
			<stop stop-color="#FEB050" stop-opacity=".32" offset=".4998"/>
			<stop stop-color="#7F3C0E" stop-opacity=".5" offset=".7614"/>
			<stop stop-color="#833F0F" stop-opacity=".5542" offset=".8042"/>
			<stop stop-color="#8F4711" stop-opacity=".6072" offset=".8461"/>
			<stop stop-color="#A25614" stop-opacity=".6596" offset=".8876"/>
			<stop stop-color="#BE6A19" stop-opacity=".7118" offset=".9289"/>
			<stop stop-color="#E1831F" stop-opacity=".7632" offset=".9696"/>
			<stop stop-color="#FF9924" stop-opacity=".8" offset=".9987"/>
		</linearGradient>
		<path class="st8" d="m167.2 34.9h0.3v0.8 1.4 2.8 0.5h-0.4-0.1-2.4-1.2-1.2-3.4-0.1c-0.4 0-1.1 0.1-1.5 0.5-0.5 0.5-0.5 1.3-0.4 1.9l-0.2 9.7c0 1.1 0.1 1.7 0.6 2.1 0.3 0.3 0.6 0.4 1 0.4 0.3 0 0.7-0.1 1.1-0.3l6.9-3.6c0.5-0.3 1-0.5 1.5-0.8 0 2.4-0.1 4.5-0.1 5.9 0 0.5-0.3 0.9-0.7 1.1-1.3 0.7-2.8 1.4-4.1 2.1-1.5 0.8-3.1 1.6-4.5 2.3-0.9 0.4-1.4 1.3-1.4 2.3v10.2c0 0.4 0 1.1 0.5 1.5 0.5 0.5 1.1 0.5 1.5 0.5 0.9 0 1.8 0.1 2.7 0.1 1.6 0 2.9-0.1 3.9-0.1 0.6 0 1.1-0.1 1.5-0.1 0.5 0 0.7 0.1 0.7 0.1 0.2 0.3 0.1 1.5 0.1 2.7v2.8 0.1h-8.5-8.2-0.1v-0.3-16.1-4.4-6-14.1c0-3.7 2.3-6 6.1-6h2.8 2.8 4.5m0-1h-0.1-4.7-5.6c-4.2 0-7 2.7-7 7v20 20.8c0 0.7 0 1.3 1 1.3h8.2 8.5c0.8 0 1-0.3 1-1-0.1-5.6 0.5-6.5-1.8-6.5-1.1 0-2.7 0.2-5.3 0.2-0.8 0-1.7 0-2.7-0.1-0.8 0-1-0.3-1-1.1v-10.2c0-0.6 0.3-1.2 0.9-1.5 2.7-1.4 5.8-3 8.6-4.4 0.7-0.4 1.2-1.1 1.2-1.9 0-1.4 0.1-3.6 0.1-6.2 0-0.7 0-1-0.3-1-0.2 0-0.4 0.1-0.9 0.4-2.9 1.5-5.7 2.9-8.6 4.5-0.3 0.1-0.5 0.2-0.6 0.2-0.5 0-0.7-0.6-0.7-1.6l0.2-9.7c-0.1-1.2 0.1-1.5 1-1.5h0.1 3.5 2.5 2.4 0.1c1 0 1.4-0.3 1.3-1.5v-4.1c0-1.6-0.1-2.1-1.3-2.1z" fill="url(#SVGID_9_)"/>
		<linearGradient id="SVGID_10_" x1="183.25" x2="183.25" y1="83.008" y2="33.939" gradientUnits="userSpaceOnUse">
			<stop stop-color="#fff" stop-opacity="0" offset="0"/>
			<stop stop-color="#FEB050" stop-opacity=".32" offset=".4998"/>
			<stop stop-color="#7F3C0E" stop-opacity=".5" offset=".7614"/>
			<stop stop-color="#833F0F" stop-opacity=".5542" offset=".8042"/>
			<stop stop-color="#8F4711" stop-opacity=".6072" offset=".8461"/>
			<stop stop-color="#A25614" stop-opacity=".6596" offset=".8876"/>
			<stop stop-color="#BE6A19" stop-opacity=".7118" offset=".9289"/>
			<stop stop-color="#E1831F" stop-opacity=".7632" offset=".9696"/>
			<stop stop-color="#FF9924" stop-opacity=".8" offset=".9987"/>
		</linearGradient>
		<path class="st9" d="m172.5 34.9h14.8 6.5v3.5c0 0.8 0.1 1.8-0.1 2-0.1 0-0.3 0.1-1.2 0.1-0.5 0-1.1 0-1.9-0.1-0.6 0-1.3-0.1-2.2-0.1h-0.3c-0.4 0-1.1 0.1-1.6 0.5-0.5 0.5-0.6 1.2-0.6 1.8v14.6 5 4.9 14.4 0.5h-0.2-0.2c-0.8 0-1.6-0.1-2.4-0.1-0.9 0-1.8 0-2.8 0.1h-0.2-0.2v-0.4-19.7-19.3c0-0.5-0.1-1.2-0.5-1.7-0.5-0.5-1.3-0.5-1.5-0.5h-0.2-1.8-1.2-1.2-1.1-0.2v-0.2c0.4-1.5 0.4-3.2 0.3-5.3m0-1c-0.7 0-0.9 0.3-0.9 0.9v5.4c0 0.9 0.3 1.2 1.1 1.2h0.1 1.1 2.4 1.8 0.1c0.9 0 1.1 0.4 1.1 1.3-0.1 13 0 26 0 39 0 1 0.2 1.3 1.1 1.3h0.2c0.9 0 1.8-0.1 2.7-0.1 0.8 0 1.6 0 2.3 0.1h0.2c0.9 0 1.2-0.4 1.2-1.4-0.1-6.4 0-12.9 0-19.3v-19.6c0-1 0.3-1.3 1.2-1.3h0.3c1.9 0.1 3.2 0.1 4.2 0.1 3.1 0 2-0.9 2.2-6.7 0-0.6-0.2-0.8-0.8-0.8h-6.7c-5 0-10 0-14.9-0.1z" fill="url(#SVGID_10_)"/>
		<linearGradient id="SVGID_11_" x1="13.41" x2="13.41" y1="82.996" y2="33.921" gradientUnits="userSpaceOnUse">
			<stop stop-color="#fff" stop-opacity="0" offset="0"/>
			<stop stop-color="#FEB050" stop-opacity=".32" offset=".4998"/>
			<stop stop-color="#7F3C0E" stop-opacity=".5" offset=".7614"/>
			<stop stop-color="#833F0F" stop-opacity=".5542" offset=".8042"/>
			<stop stop-color="#8F4711" stop-opacity=".6072" offset=".8461"/>
			<stop stop-color="#A25614" stop-opacity=".6596" offset=".8876"/>
			<stop stop-color="#BE6A19" stop-opacity=".7118" offset=".9289"/>
			<stop stop-color="#E1831F" stop-opacity=".7632" offset=".9696"/>
			<stop stop-color="#FF9924" stop-opacity=".8" offset=".9987"/>
		</linearGradient>
		<path class="st10" d="m4.1 34.9h5.9 2.7 2.7 2.3c3.1 0 5.5 2.4 5.5 5.5v9.8 1.5c0 1.7-0.5 3-1.4 4.2-0.7 0.6-0.6 1.2-0.4 1.6 0.2 0.3 0.5 0.7 1.3 0.7h0.1 0.1 0.4v0.5 17c0 2.1-0.5 3.7-1.6 4.7-1 1-2.6 1.6-4.7 1.6h-1.9-4.9-5.8-0.1-0.4v-0.4-17.4-5.8-5.5-17.5-0.5h0.2m6.7 20.2c0.3 0 0.6-0.1 1-0.3 1.5-0.8 2.9-1.6 4.3-2.3 0.8-0.4 1.2-1 1.2-1.9v-8.1c0-0.6-0.1-1.1-0.5-1.4-0.5-0.5-1.2-0.5-1.4-0.5h-0.1-2-1.7-0.2c-0.2 0-1 0-1.5 0.5s-0.5 1.3-0.5 1.6v3.7 1.6 1.5 4c0 0.4 0 1 0.4 1.4 0.3 0.1 0.6 0.2 1 0.2m0.5 21.4s0.1 0 0 0h2.2 1.8 0.1c0.6 0 1.1-0.2 1.4-0.5 0.5-0.5 0.5-1.1 0.5-1.6v-4.7-0.9-0.9-1.9-4.9c0-0.5 0-1-0.4-1.4-0.2-0.2-0.5-0.3-0.9-0.3-0.3 0-0.6 0.1-1 0.3-1.5 0.8-3.1 1.6-4.5 2.3-0.8 0.4-1.2 1.1-1.2 2v0.1 10.6c0 0.6 0.2 1.1 0.5 1.4 0.6 0.4 1.3 0.4 1.5 0.4m-7.2-42.6c-1.1 0-1.4 0.4-1.3 1.5v23 23.2c-0.1 1.1 0.2 1.4 1.3 1.4h0.1 5.8 6.8c4.7 0 7.2-2.5 7.2-7.3v-17c0-0.8 0-1.5-1.4-1.5h-0.2c-0.2 0-0.4 0-0.5-0.2-0.1-0.3 0.2-0.4 0.3-0.6 1.2-1.4 1.7-3 1.7-4.8v-11.3c0-3.6-2.8-6.4-6.5-6.4h-2.3-5.4c-1.7 0.1-3.6 0.1-5.6 0zm6.7 20.2c-0.3 0-0.4-0.3-0.4-0.8v-5.5-5.3c0-0.8 0.3-1.1 1-1.1h0.2 1.8 2 0.1c0.7 0 1 0.2 1 1v8.1c0 0.5-0.2 0.9-0.7 1.1-1.5 0.8-2.9 1.5-4.3 2.3-0.4 0.2-0.6 0.2-0.7 0.2zm0.5 21.4c-0.6 0-0.9-0.2-0.9-0.9v-10.7c0-0.5 0.2-0.9 0.6-1.1 1.5-0.8 3-1.5 4.5-2.3 0.2-0.1 0.4-0.2 0.5-0.2 0.3 0 0.3 0.3 0.3 0.8v6.8 6.6c0 0.8-0.2 1.1-1 1.1h-0.1-1.8c-0.6-0.1-1.3-0.1-2.1-0.1 0.1 0 0 0 0 0z" fill="url(#SVGID_11_)"/>
		<linearGradient id="SVGID_12_" x1="42.621" x2="42.621" y1="83.003" y2="33.924" gradientUnits="userSpaceOnUse">
			<stop stop-color="#fff" stop-opacity="0" offset="0"/>
			<stop stop-color="#FEB050" stop-opacity=".32" offset=".4998"/>
			<stop stop-color="#7F3C0E" stop-opacity=".5" offset=".7614"/>
			<stop stop-color="#833F0F" stop-opacity=".5542" offset=".8042"/>
			<stop stop-color="#8F4711" stop-opacity=".6072" offset=".8461"/>
			<stop stop-color="#A25614" stop-opacity=".6596" offset=".8876"/>
			<stop stop-color="#BE6A19" stop-opacity=".7118" offset=".9289"/>
			<stop stop-color="#E1831F" stop-opacity=".7632" offset=".9696"/>
			<stop stop-color="#FF9924" stop-opacity=".8" offset=".9987"/>
		</linearGradient>
		<path class="st11" d="m31.1 34.9h6.1 3 3 1.4c3.1 0 5.5 2.3 5.6 5.3 0.1 3.8 0.1 7.6 0 11.3v6.1c0 0.2-0.3 0.5-0.7 0.7-0.6 0.3-1.1 0.6-1.6 0.8-0.4 0.2-0.9 0.5-1.4 0.7-1.5 0.7-1.2 2-0.9 2.6 1.7 3.8 3.4 7.6 5.1 11.4 0.5 1.1 1 2.2 1.4 3.3 0.2 0.6 0.5 1.1 0.7 1.7l1.5 3.3h-2.9-3.4-0.1c-0.1-0.1-0.1-0.2-0.2-0.4-2.2-5-4.6-10.5-7-15.9 0 0 0-0.2-0.1-0.2 0-0.5-0.3-1.6-1.6-1.6-0.2 0-0.3 0-0.5 0.1-0.9 0.2-2 0.9-2 2.7v10.8 3.9 0.6h-0.4-0.2-1.4-1.5c-0.7 0-1.4 0-1.9 0.1h-0.2-0.2v-0.5-17.6-5.5-0.9-4.7-17.5-0.5c0.1-0.1 0.2-0.1 0.4-0.1m5.4 15v1 4.9c0 0.4 0 1 0.4 1.4 0.2 0.2 0.6 0.4 0.9 0.4s0.6-0.1 1-0.3c1.3-0.7 2.8-1.5 4.2-2.2 0.8-0.4 1.2-1.1 1.2-1.9v-10.7c0-1.2-0.7-1.9-1.8-1.9h-1.3-2.7c-0.6 0-1.1 0.2-1.5 0.5-0.4 0.4-0.5 0.9-0.5 1.6v4.6 1.8l0.1 0.8m-5.4-16c-1.1 0-1.4 0.4-1.4 1.5v23.1 23.1c0 1 0.2 1.4 1.1 1.4h0.2c0.6 0 1.3-0.1 1.9-0.1h2.9 0.2c1.4 0 1.4-0.1 1.4-1.5v-14.7c0-1 0.4-1.6 1.3-1.8h0.3c0.7 0 0.6 0.8 0.8 1.2 2.4 5.3 4.7 10.6 7 15.9 0.2 0.5 0.4 0.9 1.1 0.9h3.3 3.4c0.7 0 0.9-0.2 0.6-0.9l-2.4-5.4c-2.2-4.9-4.3-9.8-6.5-14.6-0.3-0.7-0.2-1.1 0.5-1.4 1.1-0.5 1.8-1 3-1.5 0.6-0.3 1.3-0.8 1.3-1.5 0-5.8 0-11.6-0.1-17.4-0.1-3.5-3-6.2-6.5-6.2h-1.4-6c-1.9 0-3.9 0-6-0.1zm6.4 15v-6.5c0-0.8 0.3-1.1 1.1-1.1h4c0.6 0 0.9 0.3 0.9 0.9v10.7c0 0.5-0.2 0.9-0.7 1.1-1.4 0.7-2.9 1.5-4.3 2.2-0.2 0.1-0.4 0.2-0.6 0.2-0.3 0-0.4-0.3-0.4-0.8v-6.7z" fill="url(#SVGID_12_)"/>
		<linearGradient id="SVGID_13_" x1="133.52" x2="133.52" y1="82.996" y2="33.921" gradientUnits="userSpaceOnUse">
			<stop stop-color="#fff" stop-opacity="0" offset="0"/>
			<stop stop-color="#FEB050" stop-opacity=".32" offset=".4998"/>
			<stop stop-color="#7F3C0E" stop-opacity=".5" offset=".7614"/>
			<stop stop-color="#833F0F" stop-opacity=".5542" offset=".8042"/>
			<stop stop-color="#8F4711" stop-opacity=".6072" offset=".8461"/>
			<stop stop-color="#A25614" stop-opacity=".6596" offset=".8876"/>
			<stop stop-color="#BE6A19" stop-opacity=".7118" offset=".9289"/>
			<stop stop-color="#E1831F" stop-opacity=".7632" offset=".9696"/>
			<stop stop-color="#FF9924" stop-opacity=".8" offset=".9987"/>
		</linearGradient>
		<path class="st12" d="m124.2 34.9h5.9 2.7 2.7 2.3c3.1 0 5.5 2.4 5.5 5.5v9.8 1.5c0 1.7-0.5 3-1.4 4.2-0.7 0.6-0.6 1.2-0.4 1.6 0.2 0.3 0.5 0.7 1.3 0.7h0.1 0.1 0.4v0.5 17c0 2.1-0.5 3.7-1.6 4.7-1 1-2.6 1.6-4.7 1.6h-1.9-4.9-5.8-0.1-0.4v-0.4-17.4-5.8-5.5-17.5-0.5h0.2m6.7 20.2c0.3 0 0.6-0.1 1-0.3 1.5-0.8 2.9-1.6 4.3-2.3 0.8-0.4 1.2-1 1.2-1.9v-8.1c0-0.6-0.1-1.1-0.5-1.4-0.5-0.5-1.2-0.5-1.4-0.5h-0.1-2-1.7-0.2c-0.2 0-1 0-1.5 0.5s-0.5 1.3-0.5 1.6v3.7 1.6 1.5 4c0 0.4 0 1 0.4 1.4 0.3 0.1 0.6 0.2 1 0.2m0.5 21.4s0.1 0 0 0h2.2 1.8 0.1c0.6 0 1.1-0.2 1.4-0.5 0.5-0.5 0.5-1.1 0.5-1.6v-4.7-0.9-0.9-1.9-4.9c0-0.5 0-1-0.4-1.4-0.2-0.2-0.5-0.3-0.9-0.3-0.3 0-0.6 0.1-1 0.3-1.5 0.8-3.1 1.6-4.5 2.3-0.8 0.4-1.2 1.1-1.2 2v0.1 10.6c0 0.6 0.2 1.1 0.5 1.4 0.6 0.4 1.3 0.4 1.5 0.4m-7.2-42.6c-1.1 0-1.4 0.4-1.3 1.5v23 23.2c0 1.1 0.3 1.4 1.4 1.4h0.1 5.8 6.8c4.7 0 7.2-2.5 7.2-7.3v-17c0-0.8 0-1.5-1.4-1.5h-0.2c-0.2 0-0.4 0-0.5-0.2-0.1-0.3 0.2-0.4 0.3-0.6 1.2-1.4 1.7-3 1.7-4.8v-11.3c0-3.6-2.8-6.4-6.5-6.4h-2.3-5.4c-1.8 0.1-3.7 0.1-5.7 0zm6.7 20.2c-0.3 0-0.4-0.3-0.4-0.8v-5.5-5.3c0-0.8 0.3-1.1 1-1.1h0.2 1.8 2 0.1c0.7 0 1 0.2 1 1v8.1c0 0.5-0.2 0.9-0.7 1.1-1.5 0.8-2.9 1.5-4.3 2.3-0.4 0.2-0.6 0.2-0.7 0.2zm0.5 21.4c-0.6 0-0.9-0.2-0.9-0.9v-10.7c0-0.5 0.2-0.9 0.6-1.1 1.5-0.8 3-1.5 4.5-2.3 0.2-0.1 0.4-0.2 0.5-0.2 0.3 0 0.3 0.3 0.3 0.8v6.8 6.6c0 0.8-0.2 1.1-1 1.1h-0.1-1.8c-0.6-0.1-1.3-0.1-2.1-0.1 0.1 0 0 0 0 0z" fill="url(#SVGID_13_)"/>
	
</g>
</svg>
