<svg xmlns="http://www.w3.org/2000/svg" xmlns:xlink="http://www.w3.org/1999/xlink" viewBox="0 0 2135.3 544.05"><defs><style>.cls-1,.cls-13{fill:url(#linear-gradient);}.cls-1{clip-rule:evenodd;}.cls-2{isolation:isolate;}.cls-3{fill:none;}.cls-4{fill:url(#linear-gradient-2);}.cls-5{fill:url(#linear-gradient-3);}.cls-6{fill:url(#linear-gradient-4);}.cls-7{fill:#fff;opacity:0.5;}.cls-8{fill:url(#Degradado_sin_nombre_322);}.cls-9{fill:url(#linear-gradient-5);}.cls-10{mix-blend-mode:multiply;fill:url(#Degradado_sin_nombre_313);}.cls-11{fill:url(#linear-gradient-6);}.cls-12{fill:url(#linear-gradient-7);}.cls-13{fill-rule:evenodd;}.cls-14{clip-path:url(#clip-path);}.cls-15{fill:url(#linear-gradient-9);}.cls-16{fill:url(#linear-gradient-10);}.cls-17{fill:url(#linear-gradient-11);}.cls-18{fill:url(#linear-gradient-12);}.cls-19{fill:url(#linear-gradient-13);}.cls-20{fill:url(#linear-gradient-14);}.cls-21{fill:url(#linear-gradient-15);}.cls-22{fill:url(#linear-gradient-16);}.cls-23{fill:url(#linear-gradient-17);}.cls-24{fill:url(#linear-gradient-18);}.cls-25{fill:url(#linear-gradient-19);}.cls-26{fill:url(#linear-gradient-20);}.cls-27{fill:url(#linear-gradient-21);}.cls-28{fill:url(#linear-gradient-22);}.cls-29{fill:url(#linear-gradient-23);}.cls-30{fill:url(#linear-gradient-24);}.cls-31{fill:url(#linear-gradient-25);}.cls-32{fill:url(#linear-gradient-26);}.cls-33{fill:url(#linear-gradient-27);}.cls-34{fill:url(#linear-gradient-28);}</style><linearGradient id="linear-gradient" x1="12.98" y1="200.79" x2="189.74" y2="-17.47" gradientUnits="userSpaceOnUse"><stop offset="0.01" stop-color="#ffd055"/><stop offset="1" stop-color="#fff"/></linearGradient><linearGradient id="linear-gradient-2" x1="2023.46" y1="572.6" x2="2023.46" y2="201.31" xlink:href="#linear-gradient"/><linearGradient id="linear-gradient-3" x1="1967.93" y1="737.55" x2="2081.46" y2="-193.43" xlink:href="#linear-gradient"/><linearGradient id="linear-gradient-4" x1="2023.46" y1="692.72" x2="2023.46" y2="206.28" xlink:href="#linear-gradient"/><linearGradient id="Degradado_sin_nombre_322" x1="6.93" y1="471.99" x2="183.13" y2="132.89" gradientUnits="userSpaceOnUse"><stop offset="0" stop-color="#db00f4"/><stop offset="0.1" stop-color="#d103f2"/><stop offset="0.26" stop-color="#b70ced"/><stop offset="0.46" stop-color="#8c1be4"/><stop offset="0.71" stop-color="#512fd8"/><stop offset="0.98" stop-color="#0648c9"/><stop offset="1" stop-color="#004ac8"/></linearGradient><linearGradient id="linear-gradient-5" x1="102.34" y1="355.35" x2="184.51" y2="103.51" gradientUnits="userSpaceOnUse"><stop offset="0.01" stop-color="#fff094"/><stop offset="1" stop-color="#bf8000"/></linearGradient><linearGradient id="Degradado_sin_nombre_313" x1="455.52" y1="27.18" x2="149.64" y2="163.04" gradientUnits="userSpaceOnUse"><stop offset="0" stop-color="#38e4df"/><stop offset="0.15" stop-color="#34ddde"/><stop offset="0.37" stop-color="#2bc8db"/><stop offset="0.64" stop-color="#1aa7d5"/><stop offset="0.95" stop-color="#0479ce"/><stop offset="1" stop-color="#0070cd"/></linearGradient><linearGradient id="linear-gradient-6" x1="413.36" y1="414.12" x2="170.77" y2="6.67" xlink:href="#linear-gradient-5"/><linearGradient id="linear-gradient-7" x1="218.05" y1="567.11" x2="335.81" y2="220.89" xlink:href="#linear-gradient-5"/><clipPath id="clip-path"><path class="cls-1" d="M56.74,79.46.83,96.63l55.91,17.18c14.06,4.32,18.62,7.82,22.8,21.4l17.79,57.93,17.79-57.93c4.18-13.58,8.74-17.08,22.8-21.4l55.91-17.18L137.92,79.46c-14.06-4.32-18.62-7.82-22.8-21.41L97.33.13,79.54,58.05c-4.18,13.59-8.74,17.09-22.8,21.41"/></clipPath><linearGradient id="linear-gradient-9" x1="12.98" y1="200.79" x2="189.74" y2="-17.47" xlink:href="#linear-gradient"/><linearGradient id="linear-gradient-10" x1="556.22" y1="206.89" x2="496.17" y2="560.18" xlink:href="#linear-gradient-5"/><linearGradient id="linear-gradient-11" x1="644.92" y1="221.97" x2="584.86" y2="575.26" xlink:href="#linear-gradient-5"/><linearGradient id="linear-gradient-12" x1="717.26" y1="358.9" x2="485.86" y2="358.9" xlink:href="#linear-gradient-5"/><linearGradient id="linear-gradient-13" x1="781.63" y1="245.21" x2="721.57" y2="598.5" xlink:href="#linear-gradient-5"/><linearGradient id="linear-gradient-14" x1="893.84" y1="264.29" x2="833.79" y2="617.57" xlink:href="#linear-gradient-5"/><linearGradient id="linear-gradient-15" x1="913.94" y1="513.2" x2="783.82" y2="513.79" xlink:href="#linear-gradient-5"/><linearGradient id="linear-gradient-16" x1="1000.95" y1="540.07" x2="979.75" y2="63.13" xlink:href="#linear-gradient-5"/><linearGradient id="linear-gradient-17" x1="981.39" y1="279.17" x2="921.33" y2="632.45" xlink:href="#linear-gradient-5"/><linearGradient id="linear-gradient-18" x1="990.19" y1="243.52" x2="1003.44" y2="111.03" xlink:href="#linear-gradient-5"/><linearGradient id="linear-gradient-19" x1="1194.66" y1="281.14" x2="1194.66" y2="490.17" xlink:href="#linear-gradient-5"/><linearGradient id="linear-gradient-20" x1="1220.07" y1="319.74" x2="1160.01" y2="673.03" xlink:href="#linear-gradient-5"/><linearGradient id="linear-gradient-21" x1="1199.09" y1="496.6" x2="1181.43" y2="393.55" xlink:href="#linear-gradient-5"/><linearGradient id="linear-gradient-22" x1="1464.84" y1="572.6" x2="1464.84" y2="201.31" xlink:href="#linear-gradient"/><linearGradient id="linear-gradient-23" x1="1433.15" y1="347.46" x2="1433.15" y2="400.51" xlink:href="#linear-gradient-5"/><linearGradient id="linear-gradient-24" x1="1388.13" y1="637.59" x2="1419.36" y2="-66.32" xlink:href="#linear-gradient"/><linearGradient id="linear-gradient-25" x1="1464.84" y1="692.72" x2="1464.84" y2="206.28" xlink:href="#linear-gradient"/><linearGradient id="linear-gradient-26" x1="1744.01" y1="572.6" x2="1744.01" y2="201.31" xlink:href="#linear-gradient"/><linearGradient id="linear-gradient-27" x1="1688.48" y1="737.55" x2="1802.01" y2="-193.43" xlink:href="#linear-gradient"/><linearGradient id="linear-gradient-28" x1="1744.01" y1="692.72" x2="1744.01" y2="206.28" xlink:href="#linear-gradient"/></defs><g class="cls-2"><g id="Layer_1" data-name="Layer 1"><path class="cls-3" d="M2008.12,470.42h30.68c14.5,0,22.31-7.25,22.31-22.32V410.74a355.38,355.38,0,0,1-75.3,0V448.1C1985.81,463.17,1993.62,470.42,2008.12,470.42Z"/><path class="cls-4" d="M2061.11,448.1c0,15.07-7.81,22.32-22.31,22.32h-30.68c-14.5,0-22.31-7.25-22.31-22.32V410.74a329.72,329.72,0,0,1-74.19-16.54v69.52c0,52.44,28.45,80.33,80.88,80.33h61.92c52.43,0,80.88-27.89,80.88-80.33V394.2a329.6,329.6,0,0,1-74.19,16.54Z"/><path class="cls-5" d="M2100.16,321.48v-1.11c20.08-3.35,35.14-19,35.14-39.6V178.13c0-52.43-28.45-80.32-80.88-80.32H1992.5c-52.43,0-80.88,27.89-80.88,80.32V280.77c0,20.63,15.06,36.25,35.15,39.6v1.11c-20.09,3.35-35.15,19-35.15,39.61V394.2a329.72,329.72,0,0,0,74.19,16.54V380.05c0-14.5,7.25-22.31,22.31-22.31h30.68c15.06,0,22.31,7.81,22.31,22.31v30.69a329.6,329.6,0,0,0,74.19-16.54V361.09C2135.3,340.45,2120.24,324.83,2100.16,321.48Zm-39-59.12c0,13.94-7.81,21.75-22.31,21.75h-30.68c-14.5,0-22.31-7.81-22.31-21.75V193.75c0-14.5,7.25-22.31,22.31-22.31h30.68c15.06,0,22.31,7.81,22.31,22.31Z"/><path class="cls-6" d="M2100.16,321.48v-1.11c20.08-3.35,35.14-19,35.14-39.6V178.13c0-52.43-28.45-80.32-80.88-80.32H1992.5c-52.43,0-80.88,27.89-80.88,80.32V280.77c0,20.63,15.06,36.25,35.15,39.6v1.11c-20.09,3.35-35.15,19-35.15,39.61V394.2a329.72,329.72,0,0,0,74.19,16.54V380.05c0-14.5,7.25-22.31,22.31-22.31h30.68c15.06,0,22.31,7.81,22.31,22.31v30.69a329.6,329.6,0,0,0,74.19-16.54V361.09C2135.3,340.45,2120.24,324.83,2100.16,321.48Zm-39-59.12c0,13.94-7.81,21.75-22.31,21.75h-30.68c-14.5,0-22.31-7.81-22.31-21.75V193.75c0-14.5,7.25-22.31,22.31-22.31h30.68c15.06,0,22.31,7.81,22.31,22.31Z"/><path class="cls-7" d="M204.84,213.28c0-.5,0-1,0-1.48v3C204.81,214.26,204.84,213.77,204.84,213.28Z"/><path class="cls-8" d="M120.32,96.63H95.11V409.22h0c60.58,0,109.69-81.59,109.69-170.19V211.8C204.18,155,168.14,107.68,120.32,96.63Z"/><path class="cls-9" d="M120.32,96.63H95.11V409.22h0c60.58,0,109.69-39.06,109.69-107.15V211.8C204.18,155,168.14,107.68,120.32,96.63Z"/><path class="cls-10" d="M311.4,103.88a214.28,214.28,0,0,0-55.85-7.25H120.32c47.11,10.89,82.76,56.93,84.41,112.64C259.21,208.61,304.08,163,311.4,103.88Z"/><path class="cls-11" d="M460.2,320c0-109.34-59.21-192-148.8-216.09a214.28,214.28,0,0,0-55.85-7.25H95c4.44,63.05,51.33,112.68,108.57,112.68.4,0,.8,0,1.2,0,0,.85.06,1.68.07,2.53v-2.28h45.6a109.18,109.18,0,0,1,15.87,1.13c79,7.87,141,82.44,141,173.32,0,58-25.31,109.42-64.17,141C414.57,491.33,460.2,415.63,460.2,320Z"/><path class="cls-12" d="M266.27,210.65c49.78,7.27,82,49.13,82,109.32,0,66-39.13,111.2-97.84,111.2H204.8V431h-9.08c-31,0-58.68,15.75-77.14,40.5-14.64,19.65-23.47,44.95-23.47,72.59H255.55c32,0,61.49-6.75,87.57-19,38.86-31.62,64.17-83,64.17-141C407.29,293.09,345.31,218.52,266.27,210.65Z"/><path class="cls-13" d="M56.74,79.46.83,96.63l55.91,17.18c14.06,4.32,18.62,7.82,22.8,21.4l17.79,57.93,17.79-57.93c4.18-13.58,8.74-17.08,22.8-21.4l55.91-17.18L137.92,79.46c-14.06-4.32-18.62-7.82-22.8-21.41L97.33.13,79.54,58.05c-4.18,13.59-8.74,17.09-22.8,21.41"/><g class="cls-14"><rect class="cls-15" x="0.83" y="0.13" width="193.01" height="193.01"/></g><path class="cls-16" d="M506.26,173.76c-4.17,0-6.95,2.78-6.95,7.4V536.64c0,4.63,2.78,7.41,6.95,7.41h54.09V173.76Z"/><path class="cls-17" d="M684,536.64V490.35c0-5.09-1.85-7.4-7.4-7.4H560.87v-93.5h88.41c4.63,0,7.41-2.78,7.41-7.87V335.76c0-5.09-2.78-7.87-7.41-7.87H560.87V235.32H676.59c5.55,0,7.4-3.24,7.4-7.87V181.16c0-4.62-1.85-7.4-7.4-7.4H560.35V544.05H676.59C682.14,544.05,684,541.27,684,536.64Z"/><path class="cls-18" d="M684,536.64V490.35c0-5.09-1.85-7.4-7.4-7.4H560.87v-93.5h88.41c4.63,0,7.41-2.78,7.41-7.87V335.76c0-5.09-2.78-7.87-7.41-7.87H560.87V235.32H676.59c5.55,0,7.4-3.24,7.4-7.87V181.16c0-4.62-1.85-7.4-7.4-7.4H560.35V544.05H676.59C682.14,544.05,684,541.27,684,536.64Z"/><path class="cls-19" d="M793.22,416.3V181.16c0-4.62-2.31-7.4-7.4-7.4H737.68c-4.63,0-7.4,2.78-7.4,7.4V536.64c0,5.09,2.77,7.41,7.4,7.41h55.54V416.3Z"/><path class="cls-20" d="M910.79,536.64V490.35c0-4.62-2.31-7.4-7.41-7.4H793.22v61.1H903.38C908.48,544.05,910.79,541.73,910.79,536.64Z"/><path class="cls-21" d="M910.79,536.64V490.35c0-4.62-2.31-7.4-7.41-7.4H793.22v61.1H903.38C908.48,544.05,910.79,541.73,910.79,536.64Z"/><path class="cls-22" d="M962.63,536.64c0,5.09,2.78,7.41,7.4,7.41h48.14c5.09,0,7.41-2.32,7.41-7.41V235.21H962.63Z"/><path class="cls-23" d="M1079.27,234.86c5.09,0,7.41-2.78,7.41-7.41V181.16c0-4.62-2.32-7.4-7.41-7.4H908.94c-4.63,0-7.41,2.78-7.41,7.4v46.29c0,4.63,2.78,7.41,7.41,7.41h53.69v.35h62.95v-.35Z"/><path class="cls-24" d="M1079.27,234.86c5.09,0,7.41-2.78,7.41-7.41V181.16c0-4.62-2.32-7.4-7.41-7.4H908.94c-4.63,0-7.41,2.78-7.41,7.4v46.29c0,4.63,2.78,7.41,7.41,7.41h53.69v.35h62.95v-.35Z"/><polygon class="cls-3" points="1222.7 408.46 1194.52 254.76 1165.78 411.48 1165.78 411.48 1222.7 408.46"/><path class="cls-25" d="M1311.62,536.18l-76.83-355.94c-.93-4.63-3.71-6.48-7.87-6.48h-64.34c-4.16,0-6.94,1.85-7.87,6.48l-76.83,355.94c-1.39,5.09.92,7.87,6,7.87h49.52c4.17,0,6.48-2.32,7.41-6.48L1153.32,470h.08l12.38-58.51,28.74-156.72,28.18,153.7h0l13,61.53h0l13,67.58c.93,4.16,3.24,6.48,7.41,6.48h49.06C1310.7,544.05,1312.55,541.27,1311.62,536.18Z"/><polygon class="cls-26" points="1222.7 408.46 1224.14 416.3 1164.89 416.3 1165.78 411.48 1153.4 469.99 1235.66 469.99 1222.7 408.46 1222.7 408.46"/><polygon class="cls-27" points="1222.7 408.46 1224.14 416.3 1164.89 416.3 1165.78 411.48 1153.4 469.99 1235.66 469.99 1222.7 408.46 1222.7 408.46"/><path class="cls-28" d="M1431.84,401.68a47,47,0,0,1-78.56-28.93V532.89c0,7.25,3.9,11.16,11.15,11.16h200.81c7.25,0,11.16-3.91,11.16-11.16V447.55c0-7.25-3.91-11.16-11.16-11.16h-53.55c-7.25,0-11.16,3.91-11.16,11.16v22.87h-60.24c-7.25,0-11.15-3.91-11.15-11.16V410.73A14.12,14.12,0,0,1,1431.84,401.68Z"/><path class="cls-29" d="M1431.84,401.68c.91-.84,1.78-1.71,2.62-2.62A14.75,14.75,0,0,0,1431.84,401.68Z"/><path class="cls-30" d="M1399.93,414.19a46.81,46.81,0,0,0,31.91-12.51,14.75,14.75,0,0,1,2.62-2.62,47,47,0,0,0-19.9-76.52l-46.78,25.16c-10.6,5.58-14.5,10-14.5,20.64v4.41A47,47,0,0,0,1399.93,414.19Z"/><path class="cls-31" d="M1496.07,97.81H1433.6c-52.43,0-80.32,27.89-80.32,80.32v59.13c0,5.58,2.79,8.92,8.92,8.92h58c5.58,0,8.93-3.34,8.93-8.92V193.75c0-14.5,7.25-22.31,22.31-22.31h26.77c14,0,22.31,7.81,22.31,22.31V276.3l-86,46.24-46.78,25.16c-10.6,5.58-14.5,10-14.5,20.64v4.41a47,47,0,0,0,78.56,28.93,14.75,14.75,0,0,1,2.62-2.62,23,23,0,0,1,2.49-1.72l124.38-66.93c10.6-5.58,15.07-10,15.07-20.64V178.13C1576.4,125.7,1548,97.81,1496.07,97.81Z"/><path class="cls-3" d="M1728.67,470.42h30.68c14.5,0,22.31-7.25,22.31-22.32V410.74a355.38,355.38,0,0,1-75.3,0V448.1C1706.36,463.17,1714.17,470.42,1728.67,470.42Z"/><path class="cls-32" d="M1781.66,448.1c0,15.07-7.81,22.32-22.31,22.32h-30.68c-14.5,0-22.31-7.25-22.31-22.32V410.74a329.72,329.72,0,0,1-74.19-16.54v69.52c0,52.44,28.45,80.33,80.88,80.33H1775c52.43,0,80.88-27.89,80.88-80.33V394.2a329.6,329.6,0,0,1-74.19,16.54Z"/><path class="cls-33" d="M1820.71,321.48v-1.11c20.08-3.35,35.14-19,35.14-39.6V178.13c0-52.43-28.45-80.32-80.88-80.32h-61.92c-52.43,0-80.88,27.89-80.88,80.32V280.77c0,20.63,15.06,36.25,35.14,39.6v1.11c-20.08,3.35-35.14,19-35.14,39.61V394.2a329.72,329.72,0,0,0,74.19,16.54V380.05c0-14.5,7.25-22.31,22.31-22.31h30.68c15.06,0,22.31,7.81,22.31,22.31v30.69a329.6,329.6,0,0,0,74.19-16.54V361.09C1855.85,340.45,1840.79,324.83,1820.71,321.48Zm-39-59.12c0,13.94-7.81,21.75-22.31,21.75h-30.68c-14.5,0-22.31-7.81-22.31-21.75V193.75c0-14.5,7.25-22.31,22.31-22.31h30.68c15.06,0,22.31,7.81,22.31,22.31Z"/><path class="cls-34" d="M1820.71,321.48v-1.11c20.08-3.35,35.14-19,35.14-39.6V178.13c0-52.43-28.45-80.32-80.88-80.32h-61.92c-52.43,0-80.88,27.89-80.88,80.32V280.77c0,20.63,15.06,36.25,35.14,39.6v1.11c-20.08,3.35-35.14,19-35.14,39.61V394.2a329.72,329.72,0,0,0,74.19,16.54V380.05c0-14.5,7.25-22.31,22.31-22.31h30.68c15.06,0,22.31,7.81,22.31,22.31v30.69a329.6,329.6,0,0,0,74.19-16.54V361.09C1855.85,340.45,1840.79,324.83,1820.71,321.48Zm-39-59.12c0,13.94-7.81,21.75-22.31,21.75h-30.68c-14.5,0-22.31-7.81-22.31-21.75V193.75c0-14.5,7.25-22.31,22.31-22.31h30.68c15.06,0,22.31,7.81,22.31,22.31Z"/></g></g></svg>