<svg id="Layer_1" data-name="Layer 1" xmlns="http://www.w3.org/2000/svg" xmlns:xlink="http://www.w3.org/1999/xlink" viewBox="0 0 800 128.7"><defs><style>.cls-1{fill:url(#linear-gradient);}.cls-2{fill:url(#linear-gradient-2);}.cls-3{fill:url(#linear-gradient-3);}.cls-4{fill:url(#linear-gradient-4);}.cls-5{fill:url(#linear-gradient-5);}.cls-6{fill:url(#linear-gradient-6);}.cls-7{fill:url(#linear-gradient-7);}.cls-8{fill:url(#linear-gradient-8);}.cls-9{fill:url(#linear-gradient-9);}</style><linearGradient id="linear-gradient" x1="207.64" y1="113.62" x2="207.64" y2="15.36" gradientUnits="userSpaceOnUse"><stop offset="0" stop-color="#ff8500"/><stop offset="1" stop-color="#ff0c00"/></linearGradient><linearGradient id="linear-gradient-2" x1="548.63" y1="114.37" x2="548.63" y2="13.49" xlink:href="#linear-gradient"/><linearGradient id="linear-gradient-3" x1="318.86" y1="113.4" x2="318.86" y2="14.55" xlink:href="#linear-gradient"/><linearGradient id="linear-gradient-4" x1="660.19" y1="114.43" x2="660.19" y2="13.96" xlink:href="#linear-gradient"/><linearGradient id="linear-gradient-5" x1="759.63" y1="114.59" x2="759.63" y2="14.22" xlink:href="#linear-gradient"/><linearGradient id="linear-gradient-6" x1="428.5" y1="113.79" x2="428.5" y2="14.91" xlink:href="#linear-gradient"/><linearGradient id="linear-gradient-7" x1="75.54" y1="101.93" x2="75.54" y2="26.64" xlink:href="#linear-gradient"/><linearGradient id="linear-gradient-8" x1="76.43" y1="77.15" x2="76.43" y2="0" xlink:href="#linear-gradient"/><linearGradient id="linear-gradient-9" x1="80.23" y1="128.69" x2="80.23" y2="52.85" xlink:href="#linear-gradient"/></defs><title>logo</title><path class="cls-1" d="M194.1,113.6h-24a15,15,0,0,1-5.1-.4,4.9,4.9,0,0,1-2.7-2.9,29.4,29.4,0,0,1-.7-6.7c-.4-14.5-1-29-1.2-43.5-.1-10.5.3-21.1.4-31.6,0-2.8-.5-5.5-.5-8.3s2-4.9,5.1-4.8c9,.1,17.9.2,26.9.2,11.3-.1,22.6,0,33.6,3.2a37.5,37.5,0,0,1,23.1,18.5c6.8,12.2,6.6,25.3,4.5,38.6-1,6.3-2.3,12.3-6.1,17.6-6.1,8.7-13.6,14.8-24.6,17.3S203.7,112.9,194.1,113.6Zm-4.4-49h.3c-.2,4.3-.5,8.5-.5,12.8a91.8,91.8,0,0,0,.2,10.9c.4,4.2,2.2,6.1,6.3,6.3a90.8,90.8,0,0,0,15.9-.5c6.3-.8,11.4-6.5,12.4-12.6a91.2,91.2,0,0,0,.1-29.3c-1.2-7.5-9.1-15-16.1-15.3-3.7-.1-7.5-.2-11.2-.1-5.4.1-7.3,1.9-7.4,7.4S189.7,57.7,189.7,64.6Z"/><path class="cls-2" d="M548.7,13.5c7.9,1.2,16.1,1.5,23.6,3.9a36.6,36.6,0,0,1,21,16.8c1.7,2.9,3.7,5.7,4.5,8.8a104.5,104.5,0,0,1,3.5,17.7,52.3,52.3,0,0,1-3.6,24.4c-3.8,9.4-9.1,18.3-18.6,22.6a70.3,70.3,0,0,1-22.6,6.2c-9,.8-18.7.9-27.3-1.4-13.8-3.7-24.8-12-29.8-26.5-4.3-12.3-4.5-24.9-2.2-37.3,2.8-15.1,12.4-25.2,27-30.5A75.6,75.6,0,0,1,548.7,13.5Zm24.1,53.3c-.2-3-.2-6-.6-8.9s-1.1-5.9-1.8-8.7A17.1,17.1,0,0,0,556,35.8a35.8,35.8,0,0,0-13.3,0c-9.2,1.9-16.9,9.7-17.4,19s-1.4,18.3,1.1,27.3c1.2,4.5,3.1,8.1,7.2,10.4a30.7,30.7,0,0,0,20.6,3.7c5.7-.9,10.7-3.4,13.6-8.6S573.6,74.3,572.8,66.8Z"/><path class="cls-3" d="M276.8,27.6c0-2.6-.8-5.3-1-7.9s1.9-5.3,5.3-5.2c10.1.4,20.2,1,30.3,1.1,14.7.2,29.4,0,44.2,0,5.8,0,6.7,1.1,6.1,6.8a37.8,37.8,0,0,0,0,6.7c.4,5.2-1,7.4-6.2,7.5-9.5.3-18.9,0-28.4.2-5.2.1-10.4.3-15.7.7s-6.2,1.5-5.6,6.9v1.3c1,7.5,3,9,10.6,8.8,10.7-.3,21.5-.4,32.2-.5,3.4,0,5.4,1.7,5.3,5a97.4,97.4,0,0,1-1.4,12.7c-.5,3-3.2,3.5-5.8,3.4-11-.4-21.9-.8-32.9-1.4-5.6-.3-8.5,1.9-8.9,7.5a44.2,44.2,0,0,0,0,7.7c.4,3.7,2.9,5.7,6.5,5.6h18.8l24.9.2c5.2.1,6.1.9,6,5.9-.1,3-.4,6-.5,8.9s-1.6,3.9-4.1,3.9-5.5-.3-8.3-.4H296.2l-14,.2c-2.9,0-4.1-1.4-4.1-4.4.1-6.7,0-13.4,0-20.1C277.7,88.7,276.9,48,276.8,27.6Z"/><path class="cls-4" d="M656.8,114.3c-8.1.7-16.9-.6-24.6-5.8s-11.6-10.4-12.2-19.7S623.4,75,629,70s5.6-7,.4-12S622.1,45,624,36.9c2.6-11,9.4-17.4,20.3-20.6s22.9-2.9,34.2.7c9.2,2.9,19.2,12.5,19.6,24.8A20.8,20.8,0,0,1,690,59.2c-3.4,2.8-3.9,5-1,8.3a58.7,58.7,0,0,0,7.4,7c2.5,2,4.2,4.3,4.1,7.6a103.8,103.8,0,0,1-.6,13.4c-.7,4.8-4.5,7.7-8.1,10.3-7.7,5.6-16.6,8-26,8.4C663.2,114.4,660.5,114.3,656.8,114.3Zm2.2-13.1c7.4.7,14.4-2.8,15.9-8.5,2.5-9.3,2-14.1-5.5-18.5-5.7-3.4-16.2-3-20.6,1s-5.5,9.4-4.1,15S652.7,100.6,659,101.2Zm.6-44.9c1.9-.1,3.8-.1,5.7-.4a12.8,12.8,0,0,0,11-12.5,12.2,12.2,0,0,0-10.6-11.9,32.1,32.1,0,0,0-9.5-.2c-4.8.7-8.9,3.2-10.8,8A11.3,11.3,0,0,0,647.7,52,13.2,13.2,0,0,0,659.6,56.3Z"/><path class="cls-5" d="M756.7,14.3a45.9,45.9,0,0,1,28.8,7.3c10.1,6.4,14.5,20.5,9.1,30.5-1.3,2.5-3.5,4.5-5.5,6.6s-3.5,5.6-.5,9.2a39.3,39.3,0,0,0,5.3,5.4c4.4,3.6,6.1,8.1,6,13.8,0,8.9-3.5,16.2-11.1,20.3-4.9,2.7-10.1,5.5-16.2,6-10.5.9-21.1,2.4-31.4-.4s-17.4-7.5-20.7-16.9c-1.8-5-1.7-11.3-.5-16.6.9-3.6,5.2-6.5,8-9.6a16.8,16.8,0,0,1,1.8-1.3c3.8-3.2,4-6.3,0-9.1s-7.1-9-7.9-14.7a20.8,20.8,0,0,1,3.9-15.6C733.8,18.1,744.8,14.4,756.7,14.3Zm1.5,86.6c1.9-.2,3.6-.6,5.3-.7,7.3-.2,13.8-10.1,11.8-17.1-1.1-3.8-3.3-6.2-6.3-8.4s-15.3-3.6-19.7-.3-7.4,10.9-5.3,18.3a10.1,10.1,0,0,0,7.5,7.2A55.7,55.7,0,0,0,758.3,100.9Zm1.7-69.9h-3.8c-6,.4-10.5,3.8-11.6,8.8a13.6,13.6,0,0,0,6.1,14.9c5.7,3.4,17.1,1.8,21.9-2.8,3.3-3.2,4-6.8,2.7-11.1C773.1,34.1,768.4,31.1,759.9,31.1Z"/><path class="cls-6" d="M432.8,113H416.5c-2.6,0-4.2-1.4-5.1-3.6-1.8-4.3-3.6-8.6-5.3-13-3.7-9.7-7.5-19.4-11.1-29.2-5-13.5-9.8-27-14.8-40.5-.7-2-1.9-3.8-2.8-5.7s-.7-4.6,2.7-5.2a40.5,40.5,0,0,1,6-.5l15.6-.3c4.3-.1,6,1.3,7.2,5.6,3.9,13.9,8,27.8,12,41.7,1,3.6,1.5,7.3,2.7,10.8a38,38,0,0,0,4.2,9.1c1.6,2.3,3.8,1.9,5-.7a50.6,50.6,0,0,0,2.7-7.8q5.4-19,10.6-38.1c1.3-4.8,2.5-9.7,3.9-14.5s3.2-6.1,8.6-5.8,9.8.1,14.7.1a25.3,25.3,0,0,1,3.8.1c3,.5,3.8,2,2.7,4.8-4.2,11-8.4,22.1-12.5,33.1S459,76.9,454.7,88.5c-1.9,5.3-4.3,10.4-6.3,15.6a22.1,22.1,0,0,0-1.2,4.9c-.3,2.4-1.5,3.7-3.9,3.9l-10.5.8Z"/><path class="cls-7" d="M33.4,94.3c13.4-2.5,24.2-10.2,35.4-17.1,9.4-5.8,19.4-9.6,30.8-9.7-.1.3-.1.5-.2.6-10.8,2.8-20,8.8-29.4,14.5-2.7,1.7-3.5,3.6-3.2,6.6s.6,6.4,4.2,7.9,8.7,1.8,13.2,1.4a26.2,26.2,0,0,0,23.1-21.1,58.8,58.8,0,0,0-.1-21.3c-.5-2.7-1.4-3.6-4-2.3C92.4,59.5,81.5,65,70.7,70.9c-9.1,4.9-18.4,9.7-28.6,11.6C27.8,85.1,13.6,84.6,0,78.3c1.5,0,3.1-.3,4.5.1,14.5,4.2,28.4,2.8,42.1-3.3,2.4-1.1,3.3-2.4,3.3-5.1-.2-11.5-.1-23-.2-34.6-.1-6-1.5-7.3-7.6-7.8a2.5,2.5,0,0,1-1.6-.6,5.4,5.4,0,0,1,1.5-.5c16.1.2,32.2,0,48.3.7,11.1.5,21.5,3.9,28.2,13.4,3,4.3,6.2,5.7,11.1,5.9a44.9,44.9,0,0,1,21.4,6.5,36.4,36.4,0,0,1-4-.2l-19.2-3.2a19.6,19.6,0,0,0-3.2,0c.4,5.5,1.2,10.4,1.1,15.4-.5,18.3-11.9,32.4-30,35.5-8.7,1.5-17.8,1.2-26.7,1.4s-17,0-25.6-.3c3.1-.6,5.2-2.1,5.8-5.3s.2-3.2-2.6-2.8L33.6,95.1ZM67.1,64l4.9-2.7c9.1-5.2,18.2-10.1,28.4-12.8,3.4-.9,3.6-1.6,1.3-4.5C93.7,34.3,83.3,30.4,71,30.8c-3,.1-4.2,1.3-4.2,4.3,0,8.8-.1,17.7-.1,26.5A22.5,22.5,0,0,0,67.1,64Z"/><path class="cls-8" d="M141,45.9a16.9,16.9,0,0,1-1.9-2.8c-4-9.7-9.5-18.3-17.5-25.3a11.8,11.8,0,0,0-3.6-2.1c8.2,8.6,15.1,17.9,18.4,29.4l-.8.6a21.4,21.4,0,0,1-2.3-3.5c-8.3-19.8-22.9-32.7-43.7-38C71.9-.3,56,4.9,42.2,15.9,23.6,30.8,16.1,50.6,19.2,74.3a10.8,10.8,0,0,1,.1,1.9c0,.2-.3.5-.5.8-4-4.7-2.4-23.7,1.4-34s11-20.6,20.6-28.9C33.3,16.3,21.9,30,17.4,41.4s-5.2,23.3-3.4,35.5l-.9.2a10.8,10.8,0,0,1-1.1-2.4C6.5,45.9,24.4,14.5,52.1,4.8c21-7.3,41.6-6.6,61.2,4.5,14.2,8.1,23.6,20.3,28.7,35.8Z"/><path class="cls-9" d="M42.2,116c-9.3-7.9-17-16.9-21.2-28.4l.7-.6a15.2,15.2,0,0,1,1.7,2.4C29.9,104,40.2,115,54.8,121.5c21.4,9.7,41.3,6,59.3-8.2,12.3-9.7,20-22.4,22.2-38,.9-6.2.3-12.5.4-18.8,0-.9,0-1.8,0-2.6l1.1-.3a21.1,21.1,0,0,1,1.2,4.1c1.5,18.9-3.7,35.6-16.4,49.8l-3.3,3.9c-.2.2-.2.6-.2.9,3.4-.4,10-7.1,15-15.6,3.9-6.5,6.8-13.4,7.7-20.9s.8-14.8,1.2-23.1c.7,1.7,1.6,2.8,1.7,4,3,33.1-17.3,62.9-50.2,69.9-15.5,3.3-31,2.8-45.8-4S22.1,103.8,15.5,88c-.1-.3,0-.6.5-1.2a9.8,9.8,0,0,1,1.6,2.1,62,62,0,0,0,15.9,22.6,88.7,88.7,0,0,0,7.8,5.7Z"/></svg>