<?xml version="1.0" encoding="UTF-8"?>
<svg version="1.1" viewBox="0 0 1622.6 447.97" xmlns="http://www.w3.org/2000/svg">
 <defs>
  <style>.cls-1{fill:url(#linear-gradient);}.cls-2{fill:#fcc245;}.cls-3{fill:url(#linear-gradient-2);}.cls-4{fill:url(#linear-gradient-3);}.cls-5{fill:#c200d3;}.cls-6{fill:url(#linear-gradient-4);}.cls-7{fill:#b000c8;}.cls-8{fill:#f88c3a;}</style>
  <linearGradient id="linear-gradient" x1="609.1" x2="322.07" y1="406.87" y2="119.84" gradientTransform="translate(-6)" gradientUnits="userSpaceOnUse">
   <stop stop-color="#f36b32" offset="0"/>
   <stop stop-color="#ffc046" offset="1"/>
  </linearGradient>
  <linearGradient id="linear-gradient-2" x1="403.25" x2="403.25" y1="458.16" y2="86.64" gradientTransform="translate(-6)" gradientUnits="userSpaceOnUse">
   <stop stop-color="#f68237" offset=".11"/>
   <stop stop-color="#f9973c" offset=".48"/>
   <stop stop-color="#fffd50" offset="1"/>
  </linearGradient>
  <linearGradient id="linear-gradient-3" x1="313.13" x2="-21.21" y1="531.07" y2="196.73" gradientTransform="translate(-6)" gradientUnits="userSpaceOnUse">
   <stop stop-color="#609" offset="0"/>
   <stop stop-color="#8a07ab" offset="1"/>
  </linearGradient>
  <linearGradient id="linear-gradient-4" x1="203.81" x2="203.81" y1="563.44" y2="191.51" gradientTransform="translate(-6)" gradientUnits="userSpaceOnUse">
   <stop stop-color="#609" offset="0"/>
   <stop stop-color="#c200d3" offset="1"/>
  </linearGradient>
 </defs>
 <title>logo</title>
 <g transform="translate(-13.438 -115.65)" data-name="Layer 1">
  <g id="logo">
   <g data-name="Shape 3">
    <path class="cls-1" d="m560 314.88c-1.54-0.77-77.94-32.07-77.94-32.07s13.83-13.08 18-40.25c-24.58 26.24-62.35 35.78-77.94 40.25s-12 23.86-12 23.86-19.49 15.2-19.49 20.87 6 22.66 16.49 25.35c-3-20 16.49-26.84 24-17.9 2.3 2.75 8.49 6.43 14.68 10.89 20 9.1 24.68 19 24.12 29.78-0.63 12.12-18.14 33.13-18.14 33.13s6.89-15.13 4.91-32.7a38.38 38.38 0 0 1-6.64 5.43 111.53 111.53 0 1 1 5.95-184.82 20.43 20.43 0 0 0 2.88 2.12l0.1 0.08c1.5 1.15 3 2.34 4.4 3.57 14.2 15.77-12.6 46.91-12.6 46.91s77.4-55.49 98.35-114.63c-2.59 0-25.45 26.84-71.14 4.37q-4.8-2.82-9.8-5.33a57.51 57.51 0 0 0-7.9-3.72 170.84 170.84 0 0 0-68.92-14.42c-94.68 0-171.42 76.67-171.42 171.26s76.74 171.25 171.42 171.25a170.76 170.76 0 0 0 102.69-34.16l0.38 0.05a152.49 152.49 0 0 0 16.56-14.38c-2.2-38.91-37.76-67.19-53.9-71.36 43.2 4.25 71.68 40.88 75.46 46a168.93 168.93 0 0 0 11.8-19.31c-20.54-30-86.15-39.31-112.76-35.74 55.66-17.82 113.86 6.37 131.71 24.1a26.2 26.2 0 0 1 4 5c4.39 5.49 6.07 16.2 0.89 32.93 9.02-7.14 28.68-62.29-8.2-76.41zm-127.94-16.64a67.5 67.5 0 0 1-5.1 9.88c-2.72 4.08-9.46 3.06-9.46 3.06l15.87-21.6z" fill="url(#linear-gradient)"/>
   </g>
   <g id="Shape_5_copy" data-name="Shape 5 copy">
    <path class="cls-2" d="m474 137.48c-17.43-9.51-24.12-8-24.66-1.58a161.61 161.61 0 0 0-58-10.7c-89.4 0-161.86 72.4-161.86 161.71s72.46 161.7 161.86 161.7a161.41 161.41 0 0 0 66.48-14.23 426.4 426.4 0 0 1-48.82-35.66 130.91 130.91 0 1 1 56.11-229.38 107.12 107.12 0 0 0 8.89 10.45c18.95 19.27 60.65-2 73.76-43.67-2.24-0.27-29.28 25.65-73.76 1.36z"/>
   </g>
   <g data-name="Shape 5">
    <path class="cls-3" d="m474.27 137.65v-0.61a170.76 170.76 0 0 0-83-21.39c-94.68 0-171.42 76.67-171.42 171.26s76.74 171.25 171.42 171.25a170.69 170.69 0 0 0 90-25.49c-23.13-11.74-44.09-26.51-59.27-38.35a132.36 132.36 0 1 1 49.21-217.41c0.9 1 1.81 2 2.69 2.88 18.95 19.27 60.65-2 73.76-43.67-2.13-0.27-29.05 25.52-73.39 1.53z" fill="url(#linear-gradient-2)"/>
   </g>
   <g id="Shape_3_copy" data-name="Shape 3 copy">
    <path class="cls-4" d="m144.32 354.42s-26.8-31.17-12.6-47c1.44-1.22 2.9-2.42 4.4-3.57l0.1-0.08a21.25 21.25 0 0 0 2.88-2.12 110.66 110.66 0 0 1 63.12-21.11 245.73 245.73 0 0 1 12.88-59.65c-3.75-0.24-7.54-0.38-11.36-0.38a170.93 170.93 0 0 0-68.93 14.49 60.65 60.65 0 0 0-7.91 3.72q-5 2.52-9.8 5.34c-45.69 22.5-68.56-4.37-71.14-4.37 20.95 59.18 98.36 114.73 98.36 114.73zm165.37-97.23c-0.25 0.47-0.51 0.93-0.81 1.39-17.13 27.13-11.51 63.88-8.42 78a111.46 111.46 0 0 1-155.46 150.13 38.38 38.38 0 0 1-6.64-5.43c-2 17.58 4.91 32.73 4.91 32.73s-17.51-21-18.14-33.17c-0.56-10.8 4.14-20.7 24.12-29.81 6.19-4.46 12.39-8.15 14.68-10.9 7.5-8.95 27-2.09 24 17.92 10.49-2.69 16.49-19.71 16.49-25.38s-19.49-20.89-19.49-20.89 3.6-19.41-12-23.89-53.37-14-78-40.3c4.17 27.21 18 40.3 18 40.3s-76.35 31.33-77.93 32.11c-36.88 14.11-17.21 69.35-8.19 76.5-5.19-16.75-3.51-27.47 0.89-33a25.73 25.73 0 0 1 4-5c17.86-17.75 76.06-42 131.73-24.12-26.62-3.58-92.23 5.7-112.77 35.78a172.44 172.44 0 0 0 11.84 19.3c3.79-5.13 32.27-41.8 75.48-46.05-16.15 4.17-51.7 32.48-53.9 71.43a151.47 151.47 0 0 0 16.5 14.39h0.38a171.46 171.46 0 0 0 208.71-272zm-146.69 146.15-1.31-8.67 15.88 21.63s-6.75 1-9.47-3.07a67.91 67.91 0 0 1-5.1-9.89z" fill="url(#linear-gradient-3)"/>
   </g>
   <g data-name="Shape 5 copy 2">
    <path class="cls-5" d="m211.31 230.29c-2.51-0.11-5-0.18-7.57-0.18a161.5 161.5 0 0 0-58 10.71c-0.54-6.47-7.23-7.93-24.66 1.58-44.54 24.32-71.59-1.63-73.77-1.36 13.11 41.76 54.81 63 73.77 43.71a105.94 105.94 0 0 0 8.92-10.45 130.09 130.09 0 0 1 76.81-29.54c1.33-5.16 2.89-10.01 4.5-14.47zm92.95 34.81a109.58 109.58 0 0 0-4.18 12.81 130.79 130.79 0 0 1 43.71 97.74c0 72.38-58.59 131.05-130.87 131.05a131.1 131.1 0 0 1-26.84-2.77 426.21 426.21 0 0 1-48.83 35.7 161.9 161.9 0 0 0 167-274.53z"/>
   </g>
   <g data-name="Shape 5 copy 2">
    <path class="cls-6" d="m309.49 257a95.2 95.2 0 0 0-7.13 15.61 132.53 132.53 0 0 1-129.36 226.92c-15.18 11.85-36.14 26.64-59.27 38.39a171.45 171.45 0 0 0 195.76-280.92zm-185.7 24.83a132.06 132.06 0 0 1 83.49-39 152.75 152.75 0 0 1 7.06-22c-3.51-0.21-7-0.33-10.6-0.33a170.66 170.66 0 0 0-83 21.41v0.61c-44.35 24-71.27-1.8-73.45-1.53 13.11 41.76 54.81 63 73.77 43.71 0.94-0.85 1.82-1.81 2.73-2.83z" fill="url(#linear-gradient-4)"/>
   </g>
   <g data-name="Rectangle 4">
    <path class="cls-7" d="m785.16 428.4h-68l-16.65 27.72h50a77.52 77.52 0 0 1-4.88 6 70.86 70.86 0 0 1-12.93 11.31 63.44 63.44 0 0 1-14.7 7.5 46.15 46.15 0 0 1-15.33 2.66 54.75 54.75 0 0 1-21.72-4.39 56.4 56.4 0 0 1-17.87-12 58.79 58.79 0 0 1-12.13-17.7 52.34 52.34 0 0 1 0-42.6 60.54 60.54 0 0 1 12.05-17.81 57.14 57.14 0 0 1 17.87-12.25 54 54 0 0 1 22-4.52 46.92 46.92 0 0 1 16.66 3.06 58.46 58.46 0 0 1 15.36 8.62 76.41 76.41 0 0 1 13.07 13 80.06 80.06 0 0 1 9.86 16.24l23.18-15.37a94.83 94.83 0 0 0-13.45-21.87 89.57 89.57 0 0 0-40.39-28 75.62 75.62 0 0 0-24.53-4 82.6 82.6 0 0 0-33 6.66 83.91 83.91 0 0 0-44.79 44.58 83.05 83.05 0 0 0 0 65.22 84 84 0 0 0 44.79 44.59 82.6 82.6 0 0 0 33 6.66 78.93 78.93 0 0 0 42.37-11.62 100 100 0 0 0 31.73-31.67 48.63 48.63 0 0 0 5.83-12.71c0.66-1.5 2.6-7.71 2.6-27.31z"/>
   </g>
   <g id="Rectangle_3_copy" data-name="Rectangle 3 copy">
    <path class="cls-7" d="m771.43 510.64h32.76l58.85-105 44.21 77.62h-66.84l-18.64 27.4h132.08l-90.85-168.89zm210.7-121.85a57 57 0 0 1 17.87-12.23 53.7 53.7 0 0 1 22-4.53 47.07 47.07 0 0 1 16.64 3.06 58.47 58.47 0 0 1 15.31 8.65 74.9 74.9 0 0 1 13 13 79.2 79.2 0 0 1 9.85 16.26l23.2-15.43a94.39 94.39 0 0 0-13.44-21.81 89.68 89.68 0 0 0-40.35-27.94 75.48 75.48 0 0 0-24.5-4 82.46 82.46 0 0 0-33 6.66 83.92 83.92 0 0 0-44.74 44.56 83.07 83.07 0 0 0 0 65.18 84 84 0 0 0 44.74 44.56 82.62 82.62 0 0 0 33 6.65 78.75 78.75 0 0 0 42.29-11.7 99.77 99.77 0 0 0 31.69-31.66l-20.77-20.75a82.65 82.65 0 0 1-10.38 14.5 70.8 70.8 0 0 1-12.92 11.31 63.47 63.47 0 0 1-14.65 7.45 46.08 46.08 0 0 1-15.31 2.66 54.65 54.65 0 0 1-21.7-4.39 56.41 56.41 0 0 1-17.84-12 58.72 58.72 0 0 1-12.12-17.66 52.27 52.27 0 0 1 0-42.57 60.51 60.51 0 0 1 12.13-17.83zm271.87-19.79a85.08 85.08 0 0 0-26.77-18 86 86 0 0 0-66.31 0 84.93 84.93 0 0 0-26.76 18 83.53 83.53 0 0 0-17.84 26.61 81.35 81.35 0 0 0-6.53 32.32 79.36 79.36 0 0 0 3.46 23.28 85.94 85.94 0 0 0 9.86 21.28 91.24 91.24 0 0 0 15.44 18.23 96.12 96.12 0 0 0 20.24 14.1l18.11-22.88a69.58 69.58 0 0 1-15.84-9.85 66.51 66.51 0 0 1-12.12-13 62.82 62.82 0 0 1-7.86-15 47 47 0 0 1-2.79-15.83 52.79 52.79 0 0 1 4.39-21.28 55.68 55.68 0 0 1 12.12-17.7 60.56 60.56 0 0 1 17.84-12.1 54 54 0 0 1 43.27 0 60.07 60.07 0 0 1 18 12.1 57.55 57.55 0 0 1 12.25 17.7 51.45 51.45 0 0 1 4.53 21.28 45.7 45.7 0 0 1-2.93 16.09 58.83 58.83 0 0 1-8.12 14.77 69.75 69.75 0 0 1-12.39 12.64 82.31 82.31 0 0 1-15.44 9.71l15.44 23.41a96.12 96.12 0 0 0 37.15-32.06 84.91 84.91 0 0 0 10.52-21.28 74.61 74.61 0 0 0 3.73-23.55 80.1 80.1 0 0 0-6.66-32.32 85.56 85.56 0 0 0-17.99-26.67zm165.16 69.44a48.82 48.82 0 0 0 11.05-11.17 53.63 53.63 0 0 0 7.32-14.63 52.86 52.86 0 0 0 2.67-16.63 56.63 56.63 0 0 0-3.6-20.35 54.17 54.17 0 0 0-9.58-16.37 43.25 43.25 0 0 0-14-10.77 38.09 38.09 0 0 0-16.77-3.86h-102.25v166h28.49v-65.83h52.07l33.42 65.81h31.15l-33.55-66a36.13 36.13 0 0 0 13.54-6.23zm-17.84-22.21a12.66 12.66 0 0 1-5.93 2v-0.13h-72.9v-46.33h70.51a12.77 12.77 0 0 1 7.33 2.26 19.79 19.79 0 0 1 5.59 5.85 30.66 30.66 0 0 1 3.46 7.72 28.92 28.92 0 0 1 1.2 8.11 34 34 0 0 1-0.93 7.72 23.38 23.38 0 0 1-3.07 7.31 18.36 18.36 0 0 1-5.3 5.46z"/>
   </g>
   <g data-name="Rectangle 3">
    <path class="cls-8" d="m771.58 330.9h32.77l58.87-105.07 44.22 77.65h-66.86l-18.65 27.42h132.13l-90.84-168.9zm333.61-83.44a54 54 0 0 0 7.33-14.64 53.2 53.2 0 0 0 2.66-16.64 56.72 56.72 0 0 0-3.59-20.36 54.4 54.4 0 0 0-9.59-16.37 43.28 43.28 0 0 0-14-10.78 38.16 38.16 0 0 0-16.78-3.86h-102.29v166.09h28.51v-65.84h52.09l33.47 65.84h31.17l-33.57-66a36.25 36.25 0 0 0 13.59-6.25 48.86 48.86 0 0 0 11-11.19zm-20.51-23.83a23.09 23.09 0 0 1-3.06 7.32 18.51 18.51 0 0 1-5.33 5.46 13.14 13.14 0 0 1-7.46 2.13h-1.83v-0.21h-69.56v-46.33h70.56a12.82 12.82 0 0 1 7.33 2.26 19.59 19.59 0 0 1 5.59 5.86 30.18 30.18 0 0 1 3.47 7.72 29.29 29.29 0 0 1 1.19 8.12 33.94 33.94 0 0 1-0.9 7.67zm185.73 31.68a53.77 53.77 0 0 1-6.13 18.9 55.65 55.65 0 0 1-12.25 15.3 57.07 57.07 0 0 1-17 10.25 55.52 55.52 0 0 1-40 0 58.63 58.63 0 0 1-29.84-25.55 47.32 47.32 0 0 1-6.12-18.9v-90.5h-28.78v83.58a79.87 79.87 0 0 0 6.66 32.47 85.71 85.71 0 0 0 111.05 44.32 83.15 83.15 0 0 0 26.77-17.84 85.77 85.77 0 0 0 18-26.48 79.87 79.87 0 0 0 6.66-32.47v-83.58h-29zm198.64-6.92a81.3 81.3 0 0 0-6.53-32.47 84.33 84.33 0 0 0-44.62-44.59 82.25 82.25 0 0 0-32.77-6.52h-69.79v166.09h70.33a77.43 77.43 0 0 0 30.5-6.39 88.7 88.7 0 0 0 45.69-43.78 74.08 74.08 0 0 0 7.19-32.34zm-32.77 21.29a60.18 60.18 0 0 1-12.78 17.44 62.48 62.48 0 0 1-18 12 50.13 50.13 0 0 1-20.38 4.39h-41.29v-111h41.56a51.59 51.59 0 0 1 21.31 4.53 56.53 56.53 0 0 1 17.72 12.37 62.37 62.37 0 0 1 12.12 18 51.53 51.53 0 0 1 4.53 21.29 47.34 47.34 0 0 1-4.79 20.98zm67.59 61.22h132.13l-90.84-168.9-91.64 169h32.77l58.87-105.07 44.22 77.65h-66.86z"/>
   </g>
   <g id="Rectangle_4_copy" data-name="Rectangle 4 copy">
    <path class="cls-8" d="m785.16 248.24h-68l-16.67 27.76h50a75.69 75.69 0 0 1-4.88 6 71.3 71.3 0 0 1-12.93 11.32 63.4 63.4 0 0 1-14.68 7.44 45.89 45.89 0 0 1-15.33 2.66 54.58 54.58 0 0 1-21.76-4.42 56.4 56.4 0 0 1-17.87-12 58.67 58.67 0 0 1-12.13-17.7 52.32 52.32 0 0 1 0-42.59 60.59 60.59 0 0 1 12.09-17.79 57.28 57.28 0 0 1 17.87-12.24 53.83 53.83 0 0 1 22-4.53 47.14 47.14 0 0 1 16.66 3.06 59 59 0 0 1 15.33 8.65 76.12 76.12 0 0 1 13.07 13 79.79 79.79 0 0 1 9.86 16.24l23.21-15.39a94.62 94.62 0 0 0-13.47-21.83 89.57 89.57 0 0 0-40.39-27.95 75.62 75.62 0 0 0-24.53-4 82.77 82.77 0 0 0-33 6.66 84 84 0 0 0-44.79 44.59 83.05 83.05 0 0 0 0 65.22 83.91 83.91 0 0 0 44.76 44.6 82.6 82.6 0 0 0 33 6.66 78.92 78.92 0 0 0 42.42-11.73 100.06 100.06 0 0 0 31.73-31.68 48.63 48.63 0 0 0 5.83-12.71c0.66-1.54 2.6-7.69 2.6-27.3z"/>
   </g>
  </g>
 </g>
</svg>
