<?xml version="1.0" encoding="UTF-8"?>
<svg version="1.1" viewBox="0 0 1627.1 386.53" xmlns="http://www.w3.org/2000/svg" xmlns:xlink="http://www.w3.org/1999/xlink">
 <defs>
  <style>.cls-1{fill:url(#linear-gradient);}.cls-2{fill:url(#linear-gradient-2);}.cls-3{fill:#fff;}.cls-4{fill:url(#linear-gradient-3);}.cls-5{fill:#f3ad38;}.cls-6{fill:url(#linear-gradient-4);}</style>
  <linearGradient id="linear-gradient" x1="838.61" x2="838.61" y1="508.76" y2="169.5" gradientUnits="userSpaceOnUse">
   <stop stop-color="#d3760f" offset="0"/>
   <stop stop-color="#febf45" offset="1"/>
  </linearGradient>
  <linearGradient id="linear-gradient-2" x1="1425.5" x2="1425.5" y1="505.94" y2="178.28" gradientUnits="userSpaceOnUse">
   <stop stop-color="#eee" offset="0"/>
   <stop stop-color="#fff" offset="1"/>
  </linearGradient>
  <linearGradient id="linear-gradient-3" x1="232" x2="232" y1="421.11" y2="149.73" xlink:href="#linear-gradient"/>
  <linearGradient id="linear-gradient-4" x1="262.74" x2="262.74" y1="536.21" y2="265.04" xlink:href="#linear-gradient-2"/>
  <linearGradient id="linearGradient2790" x1="838.61" x2="838.61" y1="508.76" y2="169.5" gradientUnits="userSpaceOnUse" xlink:href="#linear-gradient"/>
  <linearGradient id="linearGradient2792" x1="1425.5" x2="1425.5" y1="505.94" y2="178.28" gradientUnits="userSpaceOnUse" xlink:href="#linear-gradient-2"/>
 </defs>
 <title>logo</title>
 <g transform="translate(-11.86,-149.68)" data-name="Layer 1">
  <g id="logo">
   <g id="KOI">
    <path class="cls-1" d="m766.15 177.18h-78l-112 134.39v-134.39h-64.72v328.29h64.77v-150.14l114.19 150.14h74.66l-125.16-173.47zm135.59-7.68a169.63 169.63 0 1 0 169.64 169.63 169.63 169.63 0 0 0-169.64-169.63zm-0.54 276.68a106.5 106.5 0 1 1 106.5-106.5 106.5 106.5 0 0 1-106.5 106.5zm199.82-269v328.29h64.78v-328.29z" fill="url(#linearGradient2790)"/>
   </g>
   <g data-name="55">
    <path class="cls-2" d="m1277.8 282.58v-54.89h117.48v-49.41h-172.38v160.3s19 12.08 23.06 15.37c25.18-32.69 64.54-35.41 86.57-18.19 14.48 11.32 17.74 34.38 17.74 52.23 0 45-20.13 67-52.71 67s-61.48-27.45-61.48-27.45-20.5 41.73-24.16 49.41c58 43.14 133.57 34.5 169.65-1.8 25.21-25.36 29.08-67.08 29.08-93.72 0-64.81-41.35-125.2-132.85-98.85zm228.37 0v-54.89h117.48v-49.41h-172.37v160.3s19 12.08 23 15.37c25.18-32.69 64.54-35.41 86.58-18.19 14.47 11.32 17.73 34.38 17.73 52.23 0 45-20.13 67-52.7 67s-61.49-27.45-61.49-27.45-20.49 41.73-24.15 49.41c58 43.14 133.56 34.5 169.65-1.8 25.25-25.39 29.11-67.15 29.11-93.75 0-64.78-41.34-125.17-132.84-98.82z" fill="url(#linearGradient2792)"/>
   </g>
   <g data-name="Ellipse 2">
    <path class="cls-3" d="m241.88 362.73a6 6 0 1 0 6 6 6 6 0 0 0-6-6z"/>
   </g>
   <g data-name="Shape 3">
    <path class="cls-4" d="m436.21 364.79a190.93 190.93 0 0 0 1.65-25.11c0-104.74-85.2-190-189.94-190a190.07 190.07 0 0 0-164.56 95.21c-6.89 8.92-53.5 15-71.5-6.22 2.25 13.49 24 42.45 34 52.7s34.67 33.14 65.91 29.63c-6.75-1.75-23-7.41-23.28-12.87 14.72-74.56 80.61-131 159.43-131 89.6 0 162.5 72.89 162.5 162.5-16.78-19.25-53-29.39-67-27.45 8.39 3.87 16.66 17.42 15.37 20.86-0.62 1.66-10.16-2.17-20.95 1.28-11.59 3.7-21.27 14.63-35 19.58s-38-1.54-36.24-12.08 13.94-2.19 29.65-2.19c6.67 0 17.93-0.83 19.84-5.67 1.32-3.35-1.25-7.89-3-11.65a33.42 33.42 0 0 1-2.56-6.84c0-1.3-12.08 3.3-12.08 3.3s12.73-9.15 4.4-46.12c-35.94 15.36-20.81 49.84-19.77 52.7-19.79 3.39-74.91 50.54-59.29 81.25s79.41 6.91 97.72-19.76c25.52 21.6 50.64 9.89 58.19 0-6-8.33-43.92-13.18-43.92-13.18s13-4.68 19.77-12.07 8.39-18.59 15.34-18.59c3.88 0 8-0.7 8 2.38s-17.16 4.71-15.71 14.09c50-14.55 88.94 31.84 88.94 31.84s-7.94-18.72-15.91-26.52zm-198.21 2.34a6.59 6.59 0 1 1 6.58 6.58 6.59 6.59 0 0 1-6.58-6.58zm32.24 32.31c-12.86 2.71-23-2.4-24-10.52s8.14-13.45 21.28-13.77c11.67-0.29 23.46 1 24.12 8.23s-9.93 13.62-21.36 16.06zm28.84-22.44c-4 0-6.15-2.21-6.15-4.94s2.19-4.94 6.15-4.94 9.23 2.21 9.23 4.94-5.31 4.94-9.23 4.94z" fill="url(#linear-gradient-3)"/>
   </g>
   <g id="Ellipse_2_copy" data-name="Ellipse 2 copy">
    <ellipse class="cls-5" transform="rotate(-.09 267.12 331.25)" cx="252.86" cy="317.34" rx="6.04" ry="6.03"/>
   </g>
   <g id="Shape_3_copy" data-name="Shape 3 copy">
    <path class="cls-6" d="m448.84 394.68c-10-10.23-34.63-33.12-65.87-29.62 6.74 1.75 23 7.41 23.28 12.86-14.72 74.51-80.61 130.87-159.43 130.87-89.6 0-162.5-72.85-162.5-162.38 16.78 19.23 53 29.36 67 27.43-8.39-3.87-16.66-17.41-15.37-20.85 0.62-1.66 10.16 2.17 20.94-1.28 11.59-3.7 21.28-14.62 35-19.56s38 1.53 36.24 12.07-13.94 2.19-29.65 2.19c-6.67 0-17.93 0.83-19.84 5.67-1.32 3.34 1.25 7.88 3 11.63a33.42 33.42 0 0 1 2.56 6.84c0 1.3 12.08-3.3 12.08-3.3s-12.73 9.15-4.4 46.08c35.94-15.34 20.81-49.8 19.77-52.66 19.79-3.38 74.91-50.49 59.29-81.18s-79.41-6.91-97.72 19.74c-25.52-21.58-50.64-9.88-58.19 0 6 8.33 43.92 13.17 43.92 13.17s-13 4.68-19.77 12.07-8.42 18.65-15.37 18.65c-3.88 0-8 0.7-8-2.37s17.19-4.75 15.73-14.09c-50 14.54-88.94-31.81-88.94-31.81s7.95 18.67 15.93 26.47a190.63 190.63 0 0 0-1.65 25.09c0 104.66 85.2 189.8 189.94 189.8a190.08 190.08 0 0 0 164.56-95.08c6.89-8.92 53.5-15 71.5 6.21-2.25-13.48-24.04-42.42-34.04-52.66zm-192.14-75.68a6.59 6.59 0 1 1-6.59-6.58 6.58 6.58 0 0 1 6.59 6.58zm-32.24-32.29c12.86-2.7 23 2.4 24 10.51s-8.16 13.42-21.3 13.78c-11.67 0.29-23.46-1-24.12-8.23s9.96-13.68 21.42-16.08zm-28.8 22.42c4 0 6.15 2.21 6.15 4.93s-2.19 4.94-6.15 4.94-9.23-2.21-9.23-4.94 5.26-4.95 9.23-4.95z" fill="url(#linear-gradient-4)"/>
   </g>
  </g>
 </g>
</svg>
