<?xml version="1.0" encoding="UTF-8"?>
<svg version="1.1" viewBox="0 0 562.7 100.7" xml:space="preserve" xmlns="http://www.w3.org/2000/svg">
<style type="text/css">
	.st0{fill:#FFFFFF;}
	.st1{fill:url(#SVGID_1_);}
	.st2{fill:url(#SVGID_2_);}
	.st3{fill:url(#SVGID_3_);}
</style>
<title>logo pokervip88</title>
<g transform="translate(-3.8,-4.5)">
	<path class="st0" d="m3.8 102.5v-49.6c0-2.1 4.1-2.1 8.2-2.1s8.2 0 8.2 2.1v5.6c3-5 7.9-8.3 13.7-8.3 6.8 0 10.5 3.3 13.4 8.4 3.9-5.1 9.3-8.4 16.2-8.4 13.4 0.2 18.9 9.7 18.9 22v30.3c0 2.1-4.3 2.1-8.6 2.1-4.4 0-8.7 0-8.7-2.1v-29.2c0-4.1-2.2-6.8-5.9-6.8-4.5 0-7.2 3.4-7.2 8v27.9c0 2.1-4.3 2.1-8.7 2.1s-8.7 0-8.7-2.1v-29.1c0-4.1-2.2-6.8-5.9-6.8-4.4 0-7.4 3.3-7.4 8.2v27.7c0 2.1-4.4 2.1-8.7 2.1s-8.8 0.2-8.8-2z"/>
	<path class="st0" d="m87.4 77.4c0-15.5 10.4-27.3 25.9-27.3 16.3 0 23.6 12.2 23.6 27.5 0 2.3-0.1 4.7-1.6 4.7h-30.6c0.7 4.9 5.2 8 10.4 8 4.8 0 9-1.1 13.1-3.6 0.3-0.2 0.5-0.2 0.8-0.2 1.5 0 2.6 2.5 3.7 5.3 0.9 2.2 1.7 4.5 1.7 6.1 0 0.9-0.2 1.6-0.8 1.9-6.4 3.8-13.1 5.3-20.5 5.3-15.8 0.1-25.7-12-25.7-27.7zm25.9-12.8c-5.3 0-8.4 4.2-8.8 8h15.8c-0.1-4.2-1.7-8-7-8z"/>
	<path class="st0" d="m149.6 84.6v-18.3h-7.6c-2.1 0-2.1-3.8-2.1-7.5 0-3.8 0-7.5 2.1-7.5h7.6v-13.5c0-2.1 4.4-2.1 8.7-2.1 4.4 0 8.7 0 8.7 2.1v13.5h10.9c2.2 0 2.2 3.7 2.2 7.5 0 3.7 0 7.5-2.2 7.5h-10.9v18.2c0 2.6 1.1 5.2 4.4 5.2 2.1 0 4.7-0.7 7-2 0.3-0.2 0.5-0.2 0.8-0.2 1.6 0 2.7 2.6 3.8 5.7 0.7 1.9 1.7 4.7 1.7 6.5 0 0.9-0.2 1.6-0.8 1.9-4.6 2.6-9.4 3.6-15.4 3.6-12.8 0-18.9-7.4-18.9-20.6z"/>
	<path class="st0" d="m183.8 77.4c0-15.5 10.4-27.3 25.9-27.3 16.3 0 23.6 12.2 23.6 27.5 0 2.3-0.1 4.7-1.6 4.7h-30.6c0.7 4.9 5.2 8 10.4 8 4.8 0 9-1.1 13.1-3.6 0.3-0.2 0.5-0.2 0.8-0.2 1.5 0 2.6 2.5 3.7 5.3 0.9 2.2 1.7 4.5 1.7 6.1 0 0.9-0.2 1.6-0.8 1.9-6.4 3.8-13.1 5.3-20.5 5.3-15.9 0.1-25.7-12-25.7-27.7zm25.9-12.8c-5.3 0-8.4 4.2-8.8 8h15.8c-0.2-4.2-1.7-8-7-8z"/>
	<path class="st0" d="m307.1 102.5v-49.4c0-2.3 4.1-2.3 8.2-2.3s8.2 0 8.2 2.3v4.6c3.2-5.1 7-7.5 11.5-7.5 2.5 0 4.7 0.9 7.4 3.3 0.5 0.5 0.7 1.3 0.7 2.3 0 1.9-0.8 4.4-1.5 6.4-1.1 3.3-2.6 6.8-4.5 6.8-0.3 0-0.6-0.1-0.9-0.3-1.8-1-3.2-1.3-4.5-1.3-4.9 0-7.2 4.3-7.2 9.7v25.5c0 2.1-4.4 2.1-8.8 2.1-4.3 0-8.6 0-8.6-2.2z"/>
	<path class="st0" d="m365.3 97v5.6c0 2.1-4.1 2.1-8.2 2.1s-8.2 0-8.2-2.1v-74.6c0-2.1 4.3-2.1 8.7-2.1 4.3 0 8.6 0 8.6 2.1v29.7c3.6-5.2 9-7.5 14-7.5 13.2 0 22.1 12.4 22.1 27.5 0 15.2-8.8 27.5-22.1 27.5-5.4 0-11.1-2.6-14.9-8.2zm19.5-19.3c0-6.1-4-11.1-9.8-11.1s-9.8 5-9.8 11.1 4 11.1 9.8 11.1 9.8-5 9.8-11.1z"/>
	<path class="st0" d="m406.3 77.4c0-15.5 10.4-27.3 25.9-27.3 16.3 0 23.6 12.2 23.6 27.5 0 2.3-0.1 4.7-1.6 4.7h-30.6c0.7 4.9 5.2 8 10.4 8 4.8 0 9-1.1 13.1-3.6 0.3-0.2 0.5-0.2 0.8-0.2 1.5 0 2.6 2.5 3.7 5.3 0.9 2.2 1.7 4.5 1.7 6.1 0 0.9-0.2 1.6-0.8 1.9-6.4 3.8-13.1 5.3-20.5 5.3-15.8 0.1-25.7-12-25.7-27.7zm26-12.8c-5.3 0-8.4 4.2-8.8 8h15.8c-0.2-4.2-1.7-8-7-8z"/>
	<path class="st0" d="m468.5 84.6v-18.3h-7.6c-2.1 0-2.1-3.8-2.1-7.5 0-3.8 0-7.5 2.1-7.5h7.6v-13.5c0-2.1 4.4-2.1 8.7-2.1 4.4 0 8.7 0 8.7 2.1v13.5h10.9c2.2 0 2.2 3.7 2.2 7.5 0 3.7 0 7.5-2.2 7.5h-10.8v18.2c0 2.6 1.1 5.2 4.4 5.2 2.1 0 4.7-0.7 7-2 0.3-0.2 0.5-0.2 0.8-0.2 1.6 0 2.7 2.6 3.8 5.7 0.7 1.9 1.7 4.7 1.7 6.5 0 0.9-0.2 1.6-0.8 1.9-4.6 2.6-9.4 3.6-15.4 3.6-12.9 0-19-7.4-19-20.6z"/>
	
		<linearGradient id="SVGID_1_" x1="218.72" x2="294.5" y1="15.099" y2="90.878" gradientUnits="userSpaceOnUse">
			<stop stop-color="#F72585" offset="0"/>
			<stop stop-color="#560BAD" offset=".6927"/>
			<stop stop-color="#4CC9F0" offset="1"/>
		</linearGradient>
		<path class="st1" d="m226 16.9c-8.6-4.1-13.1-7.1-16.3-12.4 0 0-0.5 11.3 10.9 17.4s15.8 12 17.4 19.2c-1.5-11.5-3.5-20.1-12-24.2z" fill="url(#SVGID_1_)"/>
		<linearGradient id="SVGID_2_" x1="215.09" x2="290.87" y1="18.725" y2="94.505" gradientUnits="userSpaceOnUse">
			<stop stop-color="#F72585" offset="0"/>
			<stop stop-color="#560BAD" offset=".6927"/>
			<stop stop-color="#4CC9F0" offset="1"/>
		</linearGradient>
		<path class="st2" d="m277 50.4-16.2-19 12 18.5c-0.1 0.2-0.1 0.2-0.3 0.4-0.9-0.2-2-0.5-3.1-0.8l-9.5-11.7 5.2 10.3c-4.5-1.7-9.2-4.3-10.6-7.7-2.9-7.2-4.1-18-18.1-21.5 0 0 6 6.5 5.6 15.7-0.4 9.4-0.3 21.3 14 24.2-5.9 0.1-16.1-2.1-23-17.5 0 0-3.4 26.3 13.6 37.4 0.6 15.2 13.5 27.2 29 26.3 13.9-0.9 25.2-12.5 25.6-26.5 0.5-14.5-10.3-26.5-24.2-28.1zm11.4 10.8c0.1-0.5 0.4-0.9 0.6-1.4 3.9 3.4 6.7 8 7.8 13.2h-0.4-0.1-0.4-0.1c-0.2 0-0.3-0.1-0.5-0.1h-0.1c-0.2 0-0.3-0.1-0.5-0.2 0 0-0.1 0-0.1-0.1-0.1 0-0.2-0.1-0.3-0.2l-0.1-0.1c-0.1-0.1-0.3-0.2-0.4-0.3s-0.3-0.2-0.4-0.3l-0.5-0.5c-0.1-0.1-0.2-0.3-0.3-0.5l-3.6-6.2c-0.8-0.9-0.9-2.2-0.6-3.3zm-14.5-7c2.7 0 5.2 0.5 7.6 1.3-0.7 1.5-2.3 2.5-4 2.5h-7.2c-1.8 0-3.3-1-4-2.5 2.4-0.8 4.9-1.3 7.6-1.3zm-14.5 39.4c-0.2 0.6-0.4 1.1-0.8 1.6-3.9-3.4-6.7-8.1-7.7-13.4 0.1 0 0.3-0.1 0.4-0.1 0.7 0 1.4 0.1 2.1 0.5 0.8 0.4 1.5 1 1.9 1.8l3.6 6.2c0.7 1 0.8 2.2 0.5 3.4zm14.5 7.3c-2.7 0-5.3-0.5-7.8-1.4 0.7-1.6 2.3-2.8 4.2-2.8h7.2c1.9 0 3.5 1.2 4.2 2.8-2.4 0.9-5.1 1.4-7.8 1.4zm15.3-5.7c-1.1-1.4-1.3-3.4-0.3-5l3.6-6.2c0.1-0.1 0.2-0.3 0.2-0.4 0.1-0.1 0.2-0.2 0.2-0.3 0.6-0.7 1.3-1.1 2.2-1.4 0.6-0.2 1.1-0.2 1.7-0.1-0.9 5.2-3.7 9.9-7.6 13.4z" fill="url(#SVGID_2_)"/>
	
	<linearGradient id="SVGID_3_" x1="502.11" x2="566.54" y1="59.97" y2="59.97" gradientUnits="userSpaceOnUse">
		<stop stop-color="#F72585" offset="0"/>
		<stop stop-color="#560BAD" offset=".6927"/>
		<stop stop-color="#4CC9F0" offset="1"/>
	</linearGradient>
	<path class="st3" d="m560.5 57.8c2.4-2.1 4.4-5.4 4.4-8.7 0-7.6-5.9-13.5-15.7-13.5-7.7 0-13 3.8-14.9 9.1-1.8-5.4-7.2-9.1-14.9-9.1-9.7 0-15.6 5.9-15.6 13.5 0 3.3 1.9 6.6 4.3 8.7-3.8 2.7-6 7.1-6 11.2 0 8.3 6 15.3 17.3 15.3 7.2 0 12.2-2.8 14.9-6.9 2.7 4.1 7.7 6.9 14.9 6.9 11.4 0 17.3-7 17.3-15.3 0-4-2.1-8.5-6-11.2zm-11.3-11.9c2.4 0 3.8 1.6 3.8 3.4 0 1.9-1.5 3.4-3.8 3.4s-3.8-1.5-3.8-3.4c0-1.8 1.5-3.4 3.8-3.4zm-29.8 0c2.4 0 3.8 1.6 3.8 3.4 0 1.9-1.5 3.4-3.8 3.4s-3.8-1.5-3.8-3.4c0-1.8 1.5-3.4 3.8-3.4zm0 27c-3.2 0-5.2-2.1-5.2-4.6 0-2.6 2-4.7 5.2-4.7s5.2 2.1 5.2 4.7c0 2.5-2 4.6-5.2 4.6zm29.8 0c-3.2 0-5.2-2.1-5.2-4.6 0-2.6 2-4.7 5.2-4.7s5.2 2.1 5.2 4.7c0 2.5-2 4.6-5.2 4.6z" fill="url(#SVGID_3_)"/>
</g>
</svg>
