<?xml version="1.0" encoding="UTF-8"?>
<svg data-name="Layer 1" version="1.1" viewBox="0 0 1624.7 401.12" xmlns="http://www.w3.org/2000/svg">
 <defs>
  <style>.cls-1{fill:#fff;}.cls-2{fill:#fee905;}.cls-3{fill:#c8a415;}</style>
 </defs>
 <title>logo</title>
 <g id="logo" transform="translate(-10.182 -138.98)">
  <g id="paw">
   <path class="cls-1" d="m491.87 367.71h17.73l24.85-48.06h-42.58v-30.8l-33.87 49.61 47.8-98.9h-2.8l-59.18 86.79v89.42h-16v48h80v-48h-16v-6.95l-17.64 27.29 17.69-34.11zm-48.06-51.18 37.2-77h-53.19v48.06h16zm357.79-77-1.17 1.82v19.77l10.44-21.59zm175 0v48.06h12l-20 80.09-20-80.09h-40.12l-20 80.09-20-80.09h12v-48.03h-45.48l-32.8 48.06h14.19l44.07 176.16h56l12-48 12 48h56.06l44-176.16h16v-48.06zm-436.67 48.09 7.29 7.32 27.31-52.8-2.53-2.58h-46.52l-32.77 48.06zm49.83-30.22-71.31 110.31h29.55l49.55-102.52zm106.31 142.33 55.42-107.09-13.28-53.08h-7.35l-57.45 84.19 40.72-84.19h-4.13l-65 95.13 46-95.13h-52.9v48.06h16l-32 128.15h-16v48h80v-48h-12l4-16zm6.12-96.07 12 48h-24zm62 39.72-12.09 17.71 10.9-22.51-7.09-28.35-57.91 89.5h28.24l4 16h-12v48h80v-48h-16zm-192.19 24.33 32-32v-46.9l-53.83 78.93z"/>
  </g>
  <g data-name="303">
   <path class="cls-2" d="m1103.4 239.56-16 16v48.06h48v-8l8-8h40l16 16-16 16h-32v48.06h32l16 16v16l-16 16h-40l-8-8v-8h-48v48.06l16 16h112.11l32-32v-80.07l-8-8 7.94-8v-64l-32-32.08zm209.71 0-32 32.08v160.11l32 32h96.07l32-32v-160.11l-32-32.08zm80.09 104.12v56.05l-16 16h-32l-16-16v-96.07l16-16h32l16 16zm241.68-8v-64l-32-32.08h-112.13l-16 16v48.06h48v-8l8-8h40l16 16-16 16h-32v48.06h32l16 16v16l-16 16h-40l-8-8v-8h-48v48.06l16 16h112.11l32-32v-80.11l-8-8 7.93-8z"/>
  </g>
  <path class="cls-2" d="m288.3 197.4c-2.33-2.85-9.39-10.68-18.12-12.93a53.07 53.07 0 0 1 10 2.83 49.61 49.61 0 0 1-6.9-17 96.14 96.14 0 0 0-3.85-13.69 144 144 0 0 1-4.02 15.39 15.37 15.37 0 0 1-9.32 9.62c-10.94 4.13-21.79 20.69-34.46 56.32-10.07 28.33-15.63 68.54 12.37 78.26 19.8 6.87 56.83-20.87 67.22-49.1 6.38-17.34 4.04-48.6-12.92-69.7z"/>
  <path class="cls-2" d="m343.65 323.11c-0.91-3.59-3.18-9.89-8.58-14.51a42.58 42.58 0 0 1 5 4.09 39 39 0 0 1-1.87-11.92 96.17 96.17 0 0 0-1.2-14.77s-2.1 5.34-5.93 12.6a13.46 13.46 0 0 1-10.51 7 19 19 0 0 0-7.71 2.59c-21.45 13-49.82 37.85-50.67 73.83a29.55 29.55 0 0 0 27.59 30.24c13.5 0.85 30.59-3.31 45.75-22.83-0.02 0.02 17.1-23.34 8.13-66.32z"/>
  <path class="cls-2" d="m164.67 165.62c3.42-1.37 13.38-4.82 22.11-2.58a53.42 53.42 0 0 0-10.16-2.37 49.37 49.37 0 0 0 14.23-11.55 96.77 96.77 0 0 1 10-10.14 145.72 145.72 0 0 0-3.85 15.42 15.37 15.37 0 0 0 3.53 12.92c7.59 8.9 9.11 28.63 3 66-4.83 29.68-19.31 67.57-48.53 62.57-20.66-3.53-39.72-45.68-35.22-75.43 2.73-18.26 19.85-44.52 44.89-54.84z"/>
  <path class="cls-2" d="m55.57 249.07a28.47 28.47 0 0 1 14.51-8.58 44 44 0 0 0-6.37 1.18 38.86 38.86 0 0 0 7.39-9.55 96.14 96.14 0 0 1 8.2-12.33 138.94 138.94 0 0 0-0.89 13.9 13.44 13.44 0 0 0 5.84 11.2 19 19 0 0 1 5.5 6c12.53 21.71 25.39 57.18 8.8 89.11a29.57 29.57 0 0 1-38.76 13.2c-12.23-5.77-25.19-17.66-29.06-42.07 0-0.01-3.73-28.73 24.84-62.06z"/>
  <path class="cls-2" d="m299.19 499.08c2.07-20.65-35.13-66.81-41.69-85.12-5-13.84-9.25-28.69-12.47-40.76-6.54-24.57-23.2-41.65-43.45-46.95-20.18-5.59-43.17 0.8-61.16 18.75-8.85 8.83-20 19.51-31.27 29-14.87 12.53-70.22 33.74-78.81 52.64-22.59 49.7 32.26 64.61 38 66 15.4 3.8 34.21 5.24 49.73 5.7a138.23 138.23 0 0 1 35.58 5.75 137.88 137.88 0 0 1 33.65 12.91c13.65 7.4 30.64 15.61 45.86 20.06 5.66 1.67 60.58 16.34 66.03-37.98z"/>
  <path class="cls-3" d="m251.77 430.69c-13.44-10.09-4.92-82.18-57.4-109.83a56.17 56.17 0 0 0-10.93-4.42 56.45 56.45 0 0 0-11.71-1.44c-59.3-1.47-87 65.61-103.69 67.86-70.38 9.51-66 65.81-42 94.32 14.34 17 34 17.65 54.69 15a34.6 34.6 0 0 1-21.57-12.2c-19.16-22.85-22.69-67.89 33.61-75.49 13.32-1.8 35.51-55.47 83-54.29a44.93 44.93 0 0 1 9.36 1.18 46.08 46.08 0 0 1 8.75 3.53c42 22.13 35.16 79.8 45.91 87.87 45.43 34.12 20.37 71.71-7.51 82.25s-48.17-16.81-71.28-31.36a40.23 40.23 0 0 0-11.69-4.8 40 40 0 0 0-12.54-1.51c-0.53 0-1.06 0.06-1.59 0.1 1.17 0.25 2.35 0.53 3.52 0.84a50.17 50.17 0 0 1 14.62 6c28.95 18.19 54.24 52.38 89.1 39.2s66.13-60.17 9.35-102.81z"/>
  <path class="cls-3" d="m39.48 323.59c-5.07-21.88 8.33-52.65 20.31-56.23 15.19-4.54 25.09 4.05 30.45 20.49 3.43 10.51 2.93 22.84-1.64 34.33 8.89-16.37 10.66-35 5.6-50.5-6.7-20.55-19.07-31.29-38.07-25.61-15 4.47-31.72 42.94-25.38 70.28 3.77 16.26 13.26 27.28 24.13 29.56-7.01-3.3-12.88-11.31-15.4-22.32z"/>
  <path class="cls-3" d="m266.77 378.28c4.23-22.28 28.84-46.15 41.23-45.11 15.71 1.31 21.29 12.95 19.56 30.27-1.11 11.08-6.54 22.42-15.35 31.48 14.72-12 23.85-28.81 25.49-45.14 2.16-21.65-4.81-36.2-24.44-37.84-15.48-1.3-46.29 28.52-51.53 56.39-3.12 16.57 1.1 30.34 10.1 36.44-5.07-5.65-7.17-15.26-5.06-26.49z"/>
  <path class="cls-3" d="m150.26 289.46c-23.65-9-25.52-37.7-12.26-66.27s33.25-44.15 52.06-37.13c13.71 5.11 21.9 16.32 19.34 37.7 9.71-36.85-0.79-54.81-20.8-62.28-23.21-8.65-47.9 10.57-64.27 45.85s-14.06 70.7 15.14 81.82a34.73 34.73 0 0 0 17.64 2.05 30 30 0 0 1-6.85-1.74z"/>
  <path class="cls-3" d="m236.5 313.65c-20.25-7.72-21.85-32.33-10.5-56.83s28.49-37.82 44.59-31.82c11.74 4.38 18.75 14 16.56 32.33 8.31-31.6-0.67-47-17.8-53.4-19.88-7.42-41 9.07-55.05 39.32s-12 60.63 13 70.15a29.49 29.49 0 0 0 15.1 1.76 25.85 25.85 0 0 1-5.9-1.51z"/>
 </g>
</svg>
