<svg data-name="Layer 1" version="1.1" viewBox="0 0 1638.4 559.63" xmlns="http://www.w3.org/2000/svg"><defs><style>.cls-1{fill:#ffe769;}.cls-2{fill:#fad502;}.cls-3{fill:#fdf2b3;}.cls-4{fill:#fff;}.cls-5{fill:#070803;}.cls-6{fill:#f9d402;}</style></defs><title>logo</title><g transform="translate(-5.6039 -60.848)"><g data-name="banana"><path class="cls-1" d="m1021.2 193c-7.48-4.41-12.28-15.7-7.22-23.75 14.36-22.8 26.3-47.07 37.15-71.71-2.56-5.88-6.16-11-11-14.45l-6.47-2.18a14.68 14.68 0 0 0-7.45 0.64c-12.19 4.76-3.51 36-29.7 55.19-5.49 4-14.24-0.14-23.11 3.32-48.32 18.82-131.07 40.83-238.67-5.66-66.94-28.94-100.08-51.4-113.28-52.4-24.22 3.29-27.06 30.16-25.75 35.86s36.61 144.69 203.32 173.14c96.6 16.49 152.56-11.64 189.5-41 13.9-11.05 24.63-26.78 31.53-42.7a70 70 0 0 1 1.15-14.3z"/><path class="cls-2" d="m1021.2 193c-7.48-4.41-12.28-15.7-7.22-23.75 14.36-22.8 26.31-47.07 37.16-71.7-0.54-1.22-1.13-2.4-1.75-3.54-10.31 23.8-23.19 41.37-35.9 62.31-9.85 16.23-24.76 30.7-50.55 48.55-34.74 25.67-55.28 31.33-96.6 38.1-12.56 1.67-26.93 4.22-40.33 4.09-95.08-8.62-182.18-65.19-225.75-146.85-4.52 7-12.89 15-12.19 18 1.31 5.7 44.24 144.34 211 172.8 96.6 16.49 152.56-11.64 189.5-41 13.46-10.71 24.24-25.13 31.62-40.17a72 72 0 0 1 1.01-16.84z"/><path d="m1026.8 143.89c2.16-2.72 4.28-5.52 6.32-8.38 6.43-12.46 12.36-25.18 18-38a39.11 39.11 0 0 0-6-9.74c-1.84 7.85-3.28 15.38-6.45 22.94a138.2 138.2 0 0 1-22.22 35.59c-7.15 8.41-14 17.11-21.76 25a233.31 233.31 0 0 1-28.61 24.7c-39.37 29-86.38 46.07-134.9 45.88-41.9-0.17-83.55-11.69-119.72-32-41.77-23.43-76.51-58.9-101.8-99.41-2-3.26-7.18-2.31-8.1 1.45s3.49 8.16 5.28 10.92q8 12.26 17.06 23.75a298.38 298.38 0 0 0 40.34 42.15c47.3 40.4 108.49 64 171.55 62.83a221.58 221.58 0 0 0 99.91-26 237.21 237.21 0 0 0 43.65-30.46c13.21-11.49 26-24.35 36.25-38.58a150.31 150.31 0 0 0 11.2-12.64z"/><path d="m611.72 113.85"/><path d="m1020.2 210.1a72.66 72.66 0 0 1 1-17.15 17.13 17.13 0 0 1-2.45-1.75 106.84 106.84 0 0 1-16.06 29.57c-26.8 35.43-69.69 54.69-111.51 64.71-33 7.91-66.68 9.49-99.78 2.61-41.84-8.69-80.66-28.87-113.9-55.1a304.86 304.86 0 0 1-48.41-47.47c-13.28-16.44-26.2-35.37-31.35-56.29-2.18-8.88-2.94-18.8 1.3-27.35a25.84 25.84 0 0 1 18.5-13.7c8.67-1.42 18.17 2.12 26.06 5.31 10.32 4.17 20.11 9.55 29.87 14.84 34.47 18.7 69.27 37.71 107.13 49a247.7 247.7 0 0 0 94.95 9c21.55-2.16 42.47-7.61 63.43-13.1 18.91-5 37.87-10.65 57.42-11.7 4-0.15 7.7-5.54 10.1-8.31a81.45 81.45 0 0 0 8.72-12.3 93.18 93.18 0 0 0 10.82-29.54c0.69-3.71 0.39-9 2.93-12.08l-7.77-2.62a12.35 12.35 0 0 1-2.76-1.33c-2 4.26-2.43 9.15-3.36 14.18a86.49 86.49 0 0 1-20.5 42.27 99.81 99.81 0 0 0-23.07 1.48c-18.76 3.17-36.77 9.77-55.21 14.37-18.09 4.51-36.47 7.74-55 8.56a235.53 235.53 0 0 1-77.43-9.58c-32.75-9.77-63.3-25.45-93.19-41.6-16.52-8.93-33-19-51-24.73-14.78-4.68-29.83-5-42.19 6.19-14 12.74-14.12 32.53-9.24 49.21 5.28 18 15.5 34.52 26.66 49.33 23.05 30.62 52.47 56.7 84.94 76.94 31 19.3 65.51 33.41 101.88 38.89 28.82 4.35 57.68 2.45 86.26-3.78 34-7.41 67.7-20.39 95.49-42.17 14.22-11.14 27.72-25.66 37.18-42.09a15.51 15.51 0 0 1-0.46-2.72z"/><path d="m591.68 121c6.1 3 15.22 2.56 20.31-2.78 2.67-2.79 4.15-7.81 5.36-11.35a47.39 47.39 0 0 0 2.59-12.32 30.43 30.43 0 0 0-0.27-6.61c-0.17-1.09-0.8-6-1.93-6.43-0.41-0.15-2 1-2.41 1.15a63.12 63.12 0 0 0-5.94 3.48 51 51 0 0 0-13.55 12.86c-3 4.15-7 8.33-9.09 13-1.94 4.46 1.19 7.14 4.93 9z"/><path d="m1040.1 83.07-14.79-5c-3.08 9.44 3.5 17 11.5 21.48a83.5 83.5 0 0 0 11.18 5c1-2.33 2.07-4.67 3.1-7-2.56-5.91-6.11-10.99-10.99-14.48z"/><path class="cls-1" d="m1012.8 253.94c22.57-28.44 27.47-73.13 18-95.08 3.14-22.62 18.59-62.27 20.65-68.24s-3.63-0.15-10.9-4.72v0.07c-7.06-5.81-23-11-31.24-5.42-10.88 7.37 5.25 36.05-16 60.67-4.45 5.16-14.1 3-22 8.39-43.15 29.18-119.54 69.13-237.06 47.52-73.11-13.45-111.26-28-124.56-26.17-23.12 8.61-19.42 35.56-16.75 40.86s71.2 133.65 242.75 124.46c99.3-5.28 147.74-45.28 177.11-82.34z"/><path class="cls-2" d="m1012.8 253.94c22.57-28.44 29.37-70.44 20.73-95.85 3.13-22.62 29-53.38 27.08-59.41-4.42-14.11-17.78-9.16-25-13.74-4.93-1 0 0 0 0s-4.58-0.8 0 0c-4.26 26.91-13.07 47.54-20.81 71.69-5.8 18.08-17 35.58-38.17 58.8-28.09 32.87-47 43-86.16 58.8-12 4.43-25.58 10.12-38.85 13-96 12.7-195.68-23.36-258.48-93.67-2.78 7.82-9.1 17.53-7.68 20.36 2.68 5.29 78.64 131.58 250.19 122.39 99.34-5.31 147.78-45.31 177.15-82.37z"/><path d="m604.89 201.56c34.77 34.07 77.67 61.09 124.59 74.76 40.63 11.84 84.55 13.87 126 4.72 48-10.6 90.24-37.81 122.11-74.94a229 229 0 0 0 22.31-30.59c5.72-9.46 10.41-19.52 15.43-29.34a135.39 135.39 0 0 0 13.33-39.8c1.32-8.17 0.9-15.91 0.81-24.07 0-4.35 4.43-7.84 8.44-5 2.88 2 2.25 5.61 2.12 8.65-0.83 19.18-7 38.29-15.1 55.58a147 147 0 0 1-8.12 15.16c0.09-0.17 0.17-0.35 0.26-0.52-6.72 16.34-16.26 31.87-26.59 46.16a233.25 233.25 0 0 1-35.72 39.54 221.42 221.42 0 0 1-92.38 47.67c-62 15.18-128.13 5.64-184.62-23.42a311.08 311.08 0 0 1-50-32.32q-11.73-9.24-22.6-19.48c-2.44-2.3-7.85-5.74-7.85-9.52a4.54 4.54 0 0 1 7.65-3.22c7.18 7.08-1.84-1.75-0.07-0.02z"/><path d="m994.3 145.94c-19 5.37-36.39 15.17-53.87 24.23-19.37 10-38.71 20-59.47 26.93a252.81 252.81 0 0 1-96 12.26c-40.11-2.59-79.08-13.48-117.64-24.13-10.93-3-21.89-6.11-33.1-7.9-8.56-1.37-18.79-2.73-27 0.59a25.42 25.42 0 0 0-15 17.54c-2.12 9.31 1 18.86 5.34 27.07 10.15 19.36 27.49 35 44.59 48.18a317.47 317.47 0 0 0 59.29 35.74c39.18 18.31 82.41 29.45 125.82 28.67 34.36-0.62 67.2-9.66 97.91-24.75 38.87-19.1 76.57-47.51 94.45-88.18 8.32-18.92 12.06-40.4 6.26-60.55-1.35-4.69 1.33-7.34 3.69-11.23q4.55-7.51 8.62-15.3c5-9.62 9.68-19.62 12.67-30.08 2.71-9.46 5-21.31-4.28-27.87-7.92-5.61-19.21-5.59-28.36-3.72-2.68 0.55-5.17 1.28-6.69 3.81-2.17 3.62-0.41 9-0.19 13a91.82 91.82 0 0 1-3.53 31.32 79.14 79.14 0 0 1-5.63 14c-1.62 3.22-4.01 9.34-7.88 10.37zm-4.16-9.11a85 85 0 0 0 10-46c-0.45-7.83-2.14-15.15 3.41-21.83a20.27 20.27 0 0 1 11.62-6.61c13.74-3.1 30.69-2.07 41.39 8.14 12 11.49 8.39 28.94 3.5 43-6 17-14.89 33.31-24.77 48.37 0.2-1.58 0.41-3.15 0.62-4.73 11.66 35.49-4.75 75.18-27 102.79s-52.3 47.73-84.09 62.55c-26.72 12.45-54.76 20.73-84.27 22.88-37.25 2.72-74.78-3.42-110-15.45-37-12.61-72.33-31.62-102.51-56.49-14.6-12-28.7-25.93-38.27-42.4-8.86-15.25-13.58-34.67-2.79-50.26 9.5-13.72 24.43-16.75 40.17-15.45 19.19 1.58 37.91 7.8 56.38 12.87 33.43 9.19 67.39 17.75 102.1 20a241.09 241.09 0 0 0 78.78-7.82c18.14-4.94 35.51-12.19 52.29-20.63 17.1-8.6 33.28-19.08 51-26.35a100.94 100.94 0 0 1 22.44-6.58z"/><path d="m589.69 215.82c6.76 1.63 15.64-0.87 19.38-7.24 2-3.33 2.2-8.57 2.54-12.31a47 47 0 0 0-0.42-12.64 31.36 31.36 0 0 0-1.87-6.43c-0.43-1-2.24-5.71-3.46-5.86-0.45-0.06-1.78 1.39-2.11 1.66a60.51 60.51 0 0 0-5 4.73 50 50 0 0 0-10.29 15.56c-1.92 4.73-4.93 9.73-5.81 14.79-0.84 4.81 2.9 6.74 7.05 7.74z"/><path d="m1007.7 75.65c-1.91 11 6.87 17.47 16.36 20.2a96.46 96.46 0 0 0 14.62 2.69c4.56 0.58 11.89-0.61 16.32-3.91 7.24-5.38 8.78-11.54 2-17.75-7.2-6.55-19.46-8.86-28.86-9.28-7.37-0.32-15.68 2.14-20.44 8.05z"/></g><g data-name="Shape 6"><path class="cls-3" d="m1003.1 203c-12.8 25-98 131.41-246.19 106.48 58.16 23.27 191.65 8.46 249.64-92.85 6.94-8.48 9.35-38.63-3.45-13.63z"/></g><g data-name="Shape 6 copy"><path class="cls-4" d="m912.54 169.47c-46.86 15-152.3 28.95-243.24-57.11 24.82 36.35 91 77.82 164.45 81.3 31.34-2.61 64.44-17.19 78.79-24.19z"/></g><g data-name="Shape 7"><path class="cls-4" d="m972.54 161.54c-10.5 7.15-57.68 37.56-95 43.4 38.16 1 83.62-20.46 97.32-29.52s8.14-21.03-2.32-13.88z"/></g><g data-name="Group 5"><g data-name="Shape 8"><path class="cls-5" d="m1025.3 292.34h-50.84l-10.17 3.38s-80.06-30.33-123.72 32.14c-49.45-68.77-113.55-28.75-113.55-28.75v-6.77h-123.71l-15.26 3.38s-67.48-28.05-116.93 27.07c-36.3-45.15-98.3-35.52-98.3-35.52s-9.12-49.14-35.59-69.35-82.21-12.19-89.82 32.14c-2-2-24.4-33.83-81.35-33.83h-77.95c-19.64 0-25.6 8.42-30.51 28.75s-41.9 197.25-50.84 241.87 35.59 60.89 35.59 60.89h57.62c17.36 0 24.08-5.71 28.81-22s11.57-56.23 15.25-69.35c33.14 9.45 66.1-6.77 66.1-6.77s-6.08 19.71-11.87 42.29 19.11 55.83 40.71 55.83h59.31c18.94 0 17.83-18.6 22-18.6 92.06 65.62 152.52-15.22 152.52-15.22s22.6 50.1 106.77 33.82h225.4s14.82 72.74 108.46 72.74 114.43-73.78 118.64-88 35.29-167.68 39-186-16.84-54.14-45.77-54.14z"/></g><g data-name="Shape 9"><path class="cls-5" d="m1623.8 280.66c-11.31-22-27-40.75-46-40.75h-49.14c-11.89 0-18.64 7.59-22 20.29s-6.78 32.14-6.78 32.14h-15.27c-15.28 0-25.42 12.67-25.42 23.68-68.75-58.44-137.27-11.84-137.27-11.84s-14.27-88-96.6-88h-88.13c-16.13 0-25.84 4.62-30.51 22s-47.86 225.82-52.53 250.37 13.08 59.19 45.76 59.19h111.85c51.77 0 83-42.7 84.74-44 19.52 51.24 136.34 81.31 188.11-1.69 21.22 69 113.11 50.78 120.33 25.37s7.62-30 10.17-42.29-5-35.94-25.42-35.52c0.84-5.93 6.77-30.44 6.77-30.44h11.87c5.09 0 19.48-4.21 23.72-20.3s9.75-35.92 11.87-50.74c1.17-8.13-6.17-40.31-20.12-67.47z"/></g><g data-name="Pisang copy 2"><path class="cls-6" d="m166.9 242.46h-82.36l-52.79 251.54h55.25l19.35-90.81h39.42c58.78-0.36 98.55-33.71 98.55-88.7 0.01-42.94-32.02-72.03-77.42-72.03zm-21.82 112.46h-28.51l13.73-64.21h22.52c24.64 0 34.14 11.35 34.14 28.73s-11.26 35.48-41.88 35.48zm151.74-61.38c17.95 0 34.49-13.48 34.49-34.05 0-15.61-11.26-27.32-27.8-27.32-19.36 0-34.49 14.9-34.49 34.06-0.02 15.61 11.61 27.31 27.8 27.31zm-34.14 24.13-37.3 176.33h53.49l37.31-176.31zm128.31 33c18.3 0 21.12 13.13 21.12 22.35l45.75-5.32c-0.35-20.22-11.61-55.34-66.52-55.34-40.47 0-68.28 27.31-68.28 59.24 0 20.93 10.21 39 39.77 51.44l16.9 7.1c10.2 4.25 12 9.93 12 15.25 0 7.81-6 14.55-18.65 14.55-13.73 0-22.88-8.52-22.88-23.42a15.79 15.79 0 0 1 0.35-3.19l-45.05 7.45v2.13c0 16.67 10.92 56.41 69.34 56.41 45.05 0 69.34-30.16 69.34-58.89 0-21.65-10.21-40.8-39.78-52.86l-21.82-8.87c-5.63-2.13-9.5-6.74-9.5-12.77-0.08-8.88 7.7-15.27 17.92-15.27zm263.84-33h-51.74l-3.52 18.8c-3.52-6.74-16.19-23.06-49.63-23.06-49.27 0-88.34 42.93-88.34 104.3 0 44.7 26.4 79.11 68.63 79.11 23.94 0 37.31-13.12 44-23.77a96.82 96.82 0 0 0-1.06 14.55 43.49 43.49 0 0 0 0.35 6.38h48.57a59.85 59.85 0 0 1-0.35-6.74 135.69 135.69 0 0 1 3.17-28.73zm-109.83 132.68c-17.6 0-30.62-12.42-30.62-35.12 0-25.55 14.07-52.86 40.47-52.86 17.6 0 29.92 11.7 29.92 33.7 0.02 36.54-20.4 54.28-39.77 54.28zm278.27-80.53c0-31.93-18.31-56.76-54.91-56.76-16.54 0-35.9 6.38-46.81 21.28a113.74 113.74 0 0 0 1.06-16.67h-52.07a130.51 130.51 0 0 1-3.17 29.44l-30.62 146.89h53.5l21.82-102.17c3.87-17.76 14.43-30.83 30.93-30.83s24.29 9.93 24.29 24.48a67.61 67.61 0 0 1-2.12 15.25l-19.67 93.27h53.5l22.17-104.65a94.42 94.42 0 0 0 2.12-19.53zm154.15-52.15-3.52 18.44c-5.63-9.93-21.82-22.35-51-22.35-50.33 0-87.63 42.93-87.63 96.86 0 41.86 27.45 72.72 70.74 72.72 19 0 32.38-8.51 38.36-16l-2.46 11c-6.34 27.31-23.23 41.86-45.75 41.86-23.23 0-35.2-13.84-35.2-30.87l-46.81 9.23c0 31.57 24.64 68.11 82.71 68.11 54.9 0 88.34-38.31 98.55-87.63l33.78-161.41zm-57.35 120.62c-18.66 0-31.33-12.07-31.33-31.58 0-26.25 16.9-45 40.13-45 16.89 0 29.91 12.06 29.91 31.22 0 27.97-19 45.36-38.71 45.36z"/></g><g data-name="Bet copy 2"><path class="cls-6" d="m1284.9 302.77c0-34.77-21.82-60.31-67.23-60.31h-86.23l-52.79 251.54h104.18c51.39 0 87.64-31.92 87.64-78 0-26.61-18.31-44.35-32.74-49.32 26.75-7.51 47.17-35.18 47.17-63.91zm-109.46 145.45h-33.09l12.68-58.89h31c20.06 0 29.91 9.93 29.91 24.83 0.02 20.93-16.92 34.06-40.5 34.06zm17.24-105h-28.15l11.26-54.28h24.64c19.71 0 28.51 8.52 28.51 22.71 0.02 19.5-14.79 31.56-36.26 31.56zm188.8-30.86c-46.45 0-92.91 40.08-92.91 105 0 48.6 37 81.95 81 81.95 42.94 0 67.57-22.35 78.84-45.41l-41.54-18.81a36.06 36.06 0 0 1-32.78 19.91c-24.63 0-36.6-16.32-36.6-35.12l117.9-0.36a110 110 0 0 0 4.93-31.57c0-43.68-29.56-75.6-78.84-75.6zm29.57 72.37h-68.63c5.63-17.39 17.59-29.45 38.71-29.45 22.53 0 29.92 15.61 29.92 27zm146.79-19.87h33.43l10.21-47.18h-33.79l10.91-51.44h-47.86l-5.28 22.7c-4.22 18.09-13.38 28.74-33.08 28.74h-8.42l-9.86 47.18h30.27l-14.08 68.83a78.47 78.47 0 0 0-1.76 15.25c0 28.74 19.71 47.54 52.44 47.54 13.73 0 22.18-3.9 24.29-5l9.15-42.57a55 55 0 0 1-13 1.77c-10.56 0-18-4.25-18-15.25a40.08 40.08 0 0 1 0.7-6z"/></g></g></g></svg>
