<?xml version="1.0" encoding="UTF-8"?>
<svg version="1.1" viewBox="0 0 1626.7 313.01" xmlns="http://www.w3.org/2000/svg" xmlns:xlink="http://www.w3.org/1999/xlink">
 <defs>
  <style>.cls-1,.cls-3{fill:none;}.cls-2{isolation:isolate;}.cls-3{stroke:#eb791c;stroke-miterlimit:10;stroke-width:7px;}.cls-4{clip-path:url(#clip-path);}.cls-5{fill:url(#linear-gradient);}.cls-6{fill:#ed1c24;}.cls-7{fill:url(#linear-gradient-2);}.cls-8{fill:#0b0b0b;}.cls-9{fill:url(#linear-gradient-3);}.cls-10{fill:url(#linear-gradient-4);}.cls-11{fill:url(#linear-gradient-5);}.cls-12{fill:url(#linear-gradient-6);}.cls-13,.cls-14,.cls-15,.cls-18,.cls-19,.cls-20,.cls-22,.cls-23,.cls-24{mix-blend-mode:multiply;}.cls-13{fill:url(#radial-gradient);}.cls-14{fill:url(#linear-gradient-7);}.cls-15{fill:url(#linear-gradient-8);}.cls-16{fill:#fff;}.cls-17{fill:url(#linear-gradient-9);}.cls-18{fill:url(#radial-gradient-2);}.cls-19{fill:url(#linear-gradient-10);}.cls-20{fill:url(#linear-gradient-11);}.cls-21{fill:#080c61;}.cls-22{fill:url(#radial-gradient-3);}.cls-23{fill:url(#linear-gradient-12);}.cls-24{fill:url(#linear-gradient-13);}.cls-25{fill:url(#linear-gradient-14);}.cls-26{fill:url(#linear-gradient-15);}.cls-27{fill:url(#linear-gradient-16);}.cls-28{fill:url(#linear-gradient-17);}.cls-29{fill:url(#linear-gradient-18);}</style>
  <clipPath id="clip-path">
   <rect class="cls-1" x="11.12" y="260.86" width="265.12" height="166.58"/>
  </clipPath>
  <linearGradient id="linear-gradient" x1="-95.75" x2="181.57" y1="175.95" y2="441.19" gradientUnits="userSpaceOnUse">
   <stop stop-color="#c3c3c3" offset="0"/>
   <stop stop-color="#efefef" offset=".26"/>
   <stop stop-color="#f2f2f2" offset=".3"/>
   <stop stop-color="#fff" offset=".49"/>
   <stop stop-color="#e5e5e5" offset=".71"/>
   <stop stop-color="#dedede" offset=".76"/>
   <stop stop-color="#d6d6d6" offset=".83"/>
   <stop stop-color="#d1d1d1" offset=".86"/>
   <stop stop-color="#c9c9c9" offset=".9"/>
   <stop stop-color="#b4b4b4" offset=".97"/>
   <stop stop-color="#a6a6a6" offset="1"/>
  </linearGradient>
  <linearGradient id="linear-gradient-2" x1="18.24" x2="163.21" y1="141.74" y2="421.25" gradientTransform="matrix(.96 -.26 .26 .96 -73.52 79.8)" xlink:href="#linear-gradient"/>
  <linearGradient id="linear-gradient-3" x1="20.85" x2="182.85" y1="182.2" y2="419.98" xlink:href="#linear-gradient"/>
  <linearGradient id="linear-gradient-4" x1="54.37" x2="244.93" y1="196.33" y2="467.06" gradientTransform="matrix(.96 .3 -.3 .96 95.67 -68.64)" xlink:href="#linear-gradient"/>
  <linearGradient id="linear-gradient-5" x1="144.25" x2="144.25" y1="424.26" y2="270.59" gradientTransform="translate(0,47)" gradientUnits="userSpaceOnUse">
   <stop stop-color="#484a4d" offset="0"/>
   <stop stop-color="#fff" offset=".5"/>
   <stop stop-color="#76767a" offset="1"/>
  </linearGradient>
  <linearGradient id="linear-gradient-6" x1="183.31" x2="183.31" y1="455.91" y2="406.34" gradientTransform="rotate(2.29 183.3 431.05)" gradientUnits="userSpaceOnUse">
   <stop stop-color="#009640" offset="0"/>
   <stop stop-color="#57b856" offset="1"/>
  </linearGradient>
  <radialGradient id="radial-gradient" cx="160.5" cy="383.58" r="16.54" gradientTransform="matrix(1.15,0,0,1.15,-1.57,-10.71)" gradientUnits="userSpaceOnUse">
   <stop stop-color="#fff" offset="0"/>
   <stop stop-color="#fff" offset=".96"/>
   <stop stop-color="#757575" offset="1"/>
  </radialGradient>
  <linearGradient id="linear-gradient-7" x1="183.31" x2="183.31" y1="448.64" y2="413.61" gradientUnits="userSpaceOnUse">
   <stop stop-color="#757575" offset="0"/>
   <stop stop-color="#fff" offset="1"/>
  </linearGradient>
  <linearGradient id="linear-gradient-8" x1="183.31" x2="183.31" y1="450.58" y2="411.67" gradientUnits="userSpaceOnUse">
   <stop stop-color="#fff" offset="0"/>
   <stop stop-color="#757575" offset="1"/>
  </linearGradient>
  <linearGradient id="linear-gradient-9" x1="101.73" x2="101.73" y1="456.01" y2="406.2" gradientTransform="rotate(89.6 101.73 431.11)" gradientUnits="userSpaceOnUse">
   <stop stop-color="#bd0613" offset="0"/>
   <stop stop-color="#e30613" offset="1"/>
  </linearGradient>
  <radialGradient id="radial-gradient-2" cx="89.68" cy="383.56" r="16.62" xlink:href="#radial-gradient"/>
  <linearGradient id="linear-gradient-10" x1="101.73" x2="101.73" y1="448.7" y2="413.51" xlink:href="#linear-gradient-7"/>
  <linearGradient id="linear-gradient-11" x1="101.73" x2="101.73" y1="450.65" y2="411.56" xlink:href="#linear-gradient-8"/>
  <radialGradient id="radial-gradient-3" cx="124.13" cy="371.84" r="16.63" xlink:href="#radial-gradient"/>
  <linearGradient id="linear-gradient-12" x1="141.42" x2="141.42" y1="435.2" y2="400.01" xlink:href="#linear-gradient-7"/>
  <linearGradient id="linear-gradient-13" x1="141.42" x2="141.42" y1="437.16" y2="398.05" xlink:href="#linear-gradient-8"/>
  <linearGradient id="linear-gradient-14" x1="580" x2="580" y1="348.71" y2="237.7" gradientTransform="translate(0,47)" gradientUnits="userSpaceOnUse">
   <stop stop-color="#b7b7b7" offset="0"/>
   <stop stop-color="#f2f2f2" offset="1"/>
  </linearGradient>
  <linearGradient id="linear-gradient-15" x1="1153.3" x2="1153.3" y1="348.71" y2="237.7" gradientTransform="translate(0,47)" gradientUnits="userSpaceOnUse">
   <stop stop-color="#be6317" offset="0"/>
   <stop stop-color="#ef7b1c" offset="1"/>
  </linearGradient>
  <linearGradient id="linear-gradient-16" x1="1507.4" x2="1507.4" y1="348.73" y2="239.07" xlink:href="#linear-gradient-15"/>
  <linearGradient id="linear-gradient-17" x1="1592.4" x2="1592.4" y1="348.73" y2="239.07" xlink:href="#linear-gradient-15"/>
  <linearGradient id="linear-gradient-18" x1="967.8" x2="967.8" y1="408.1" y2="378.9" xlink:href="#linear-gradient-14"/>
  <linearGradient id="linearGradient6580" x1="-95.75" x2="181.57" y1="175.95" y2="441.19" gradientUnits="userSpaceOnUse" xlink:href="#linear-gradient"/>
  <radialGradient id="radialGradient6582" cx="160.5" cy="383.58" r="16.54" gradientTransform="matrix(1.15,0,0,1.15,-1.57,-10.71)" gradientUnits="userSpaceOnUse" xlink:href="#radial-gradient"/>
  <linearGradient id="linearGradient6584" x1="183.31" x2="183.31" y1="448.64" y2="413.61" gradientUnits="userSpaceOnUse" xlink:href="#linear-gradient-7"/>
  <linearGradient id="linearGradient6586" x1="183.31" x2="183.31" y1="450.58" y2="411.67" gradientUnits="userSpaceOnUse" xlink:href="#linear-gradient-8"/>
  <linearGradient id="linearGradient6588" x1="580" x2="580" y1="348.71" y2="237.7" gradientTransform="translate(0,47)" gradientUnits="userSpaceOnUse" xlink:href="#linear-gradient-14"/>
  <linearGradient id="linearGradient6590" x1="1153.3" x2="1153.3" y1="348.71" y2="237.7" gradientTransform="translate(0,47)" gradientUnits="userSpaceOnUse" xlink:href="#linear-gradient-15"/>
 </defs>
 <title>logo</title>
 <g class="cls-2" transform="translate(-6.8116 -183.52)">
  <g data-name="Layer 1">
   <g id="logo">
    <g data-name="Shape 1">
     <path d="m269.67 321.7c-35.18-53.46-105.6-94.27-123.36-130.22-9.17 18.93-58.62 59-92.81 93.81-29.86 30.45-45.81 55.35-42.83 80.06 6.39 53 61.67 51.75 109.59 57.78-5 33.35-46.6 69.9-46.6 69.9h143.92s-40.21-36.55-49.34-69.9c97.87 4.67 136.61-47.98 101.43-101.43z"/>
     <path class="cls-3" d="m269.67 321.7c-35.18-53.46-105.6-94.27-123.36-130.22-9.17 18.93-58.62 59-92.81 93.81-29.86 30.45-45.81 55.35-42.83 80.06 6.39 53 61.67 51.75 109.59 57.78-5 33.35-46.6 69.9-46.6 69.9h143.92s-40.21-36.55-49.34-69.9c97.87 4.67 136.61-47.98 101.43-101.43z"/>
    </g>
    <g id="Group_5_copy" data-name="Group 5 copy">
     <g id="cards">
      <g class="cls-4" clip-path="url(#clip-path)">
       <path class="cls-5" d="m193.45 442.65a7.22 7.22 0 0 1-5.21 8.76l-95.11 24.18a7.2 7.2 0 0 1-8.75-5.21l-37.72-148.33a7.2 7.2 0 0 1 5.2-8.75l95.14-24.19a7.2 7.2 0 0 1 8.76 5.21z" fill="url(#linearGradient6580)"/>
       <path class="cls-6" d="m61.29 331.65 0.17 0.66-4 1-0.17-0.66 1.57-0.4 1.38-12.59 0.66-0.16 7 10.46 1.64-0.42 0.17 0.67-5.1 1.29-0.16-0.66 1.72-0.44-2.17-3.19-3.91 1-0.42 3.87zm-0.6-9.3-0.55 5.12 3.42-0.87-2.83-4.25z"/>
       <path class="cls-6" d="m65.33 338.17a4.21 4.21 0 0 1 2.78-3.17c2.52-0.7 4.86 2.37 3.19 5.94a19 19 0 0 1-3.91 5.38 19.11 19.11 0 0 1-6-2.86c-3.17-2.34-2.58-6.16 0-6.74a4.18 4.18 0 0 1 3.94 1.45z"/>
       <path class="cls-6" d="m116.59 368s1.93-11.65 12.61-14.62c11.44-3.18 22.07 10.76 14.49 27a87.17 87.17 0 0 1-17.69 24.49 87 87 0 0 1-27.27-13c-14.41-10.63-11.73-27.95-0.17-30.62 10.78-2.52 18.03 6.75 18.03 6.75z"/>
       <path class="cls-6" d="m178.7 432.5-0.17-0.66 4-1 0.17 0.67-1.58 0.4-1.38 12.58-0.65 0.17-7-10.47-1.64 0.42-0.17-0.66 5.09-1.3 0.17 0.67-1.72 0.44 2.14 3.21 3.9-1 0.42-3.87zm0.59 9.3 0.56-5.12-3.42 0.88 2.83 4.25z"/>
       <path class="cls-6" d="m174.65 426a4.2 4.2 0 0 1-2.77 3.22c-2.52 0.7-4.86-2.37-3.19-5.94a19.24 19.24 0 0 1 3.9-5.39 19 19 0 0 1 6 2.87c3.18 2.34 2.59 6.15 0 6.74a4.2 4.2 0 0 1-3.94-1.5z"/>
       <path class="cls-7" d="m196.14 447.59a7.2 7.2 0 0 1-6.56 7.79l-97.76 8.48a7.2 7.2 0 0 1-7.8-6.55l-13.22-152.48a7.2 7.2 0 0 1 6.55-7.8l97.77-8.47a7.18 7.18 0 0 1 7.79 6.55z" fill="url(#linear-gradient-2)"/>
       <path class="cls-8" d="m183.08 435.36-0.06-0.69 4.14-0.36 0.06 0.69-1.62 0.14-3.4 12.19-0.67 0.06-5.18-11.45-1.68 0.14-0.06-0.68 5.23-0.45 0.06 0.68-1.77 0.15 1.59 3.53 4-0.35 1-3.75zm-0.92 9.27 1.37-5-3.53 0.37 2.1 4.66z"/>
       <path class="cls-8" d="m175.41 427.29c2.35 1.57 3.58 2.34 5.07 4.72 1.06-2.6 2.13-3.57 4.18-5.52 3.21-3.05 1-6.47-1.72-6.41a3.54 3.54 0 0 0-3 2.12 17.76 17.76 0 0 1 0.51-3.71l-2.27 0.2a16.69 16.69 0 0 1 1.14 3.56 3.53 3.53 0 0 0-3.32-1.57c-2.67 0.41-4.27 4.16-0.59 6.61z"/>
       <path class="cls-8" d="m155.44 365.56c-10.12-6.74-15.4-10.07-21.8-20.29-4.54 11.17-9.17 15.35-18 23.73-13.77 13.1-4.22 27.8 7.4 27.55 7.25-0.17 11.17-5.69 12.9-9.1-0.25 4.42-0.88 12.31-2.2 15.94l9.78-0.85c-1.93-3.34-3.9-11-4.91-15.32 2.29 3.06 7.11 7.82 14.27 6.74 11.51-1.75 18.38-17.88 2.56-28.4z"/>
       <path class="cls-8" d="m83.68 316.67 0.06 0.68-4.14 0.36-0.07-0.68 1.62-0.14 3.4-12.2 0.67-0.06 5.18 11.46 1.69-0.15 0.06 0.68-5.24 0.45-0.06-0.68 1.77-0.15-1.62-3.52-4 0.35-1 3.75zm0.92-9.27-1.38 5 3.51-0.3-2.1-4.65z"/>
       <path class="cls-8" d="m91.35 324.73c-2.36-1.57-3.59-2.34-5.08-4.72-1 2.6-2.13 3.57-4.18 5.52-3.2 3.05-1 6.47 1.72 6.41a3.51 3.51 0 0 0 3-2.12 17.12 17.12 0 0 1-0.51 3.71l2.27-0.2a17.9 17.9 0 0 1-1.14-3.56 3.55 3.55 0 0 0 3.32 1.57c2.68-0.41 4.25-4.16 0.6-6.61z"/>
       <path class="cls-9" d="m205.38 455.65a7.19 7.19 0 0 1-7.56 6.82l-98-5a7.21 7.21 0 0 1-6.82-7.6l7.85-152.87a7.19 7.19 0 0 1 7.56-6.82l98 5a7.19 7.19 0 0 1 6.82 7.56z" fill="url(#linear-gradient-3)"/>
       <path class="cls-6" d="m194.26 441.82v-0.68l4.16 0.22v0.68l-1.62-0.09-5 11.62h-0.68l-3.55-12-1.69-0.09v-0.68l5.24 0.27v0.68l-1.77-0.09 1.09 3.71 4 0.21 1.54-3.58zm-2.19 9.06 2.05-4.72-3.52-0.16 1.44 4.9z"/>
       <path class="cls-6" d="m192 438a53.74 53.74 0 0 0-5.53-8.6 54.11 54.11 0 0 0 6.39-8 53.74 53.74 0 0 0 5.53 8.6 54.11 54.11 0 0 0-6.39 8z"/>
       <path class="cls-6" d="m155.34 342.2a214.19 214.19 0 0 0 22.07 34.3 214.64 214.64 0 0 0-25.47 31.87 214.53 214.53 0 0 0-22.07-34.31 214.85 214.85 0 0 0 25.47-31.86z"/>
       <path class="cls-6" d="m112 310.52v0.69l-4.15-0.22v-0.68l1.62 0.08 5-11.61h0.67l3.56 12.06 1.69 0.09v0.68l-5.24-0.27v-0.68l1.78 0.09-1.1-3.71-4-0.21-1.55 3.58zm2.18-9-2 4.72 3.52 0.18-1.44-4.9z"/>
       <path class="cls-6" d="m114.19 314.31a54.21 54.21 0 0 0 5.54 8.6 54.11 54.11 0 0 0-6.39 8 53.74 53.74 0 0 0-5.53-8.6 53.66 53.66 0 0 0 6.38-8z"/>
       <path class="cls-10" d="m210.48 464.61a7.2 7.2 0 0 1-8.38 5.79l-96.53-17.64a7.21 7.21 0 0 1-5.8-8.38l27.53-150.56a7.19 7.19 0 0 1 8.38-5.79l96.53 17.65a7.19 7.19 0 0 1 5.79 8.38z" fill="url(#linear-gradient-4)"/>
       <path class="cls-8" d="m201.18 450 0.12-0.67 4.09 0.75-0.12 0.67-1.6-0.29-6.5 10.86-0.66-0.12-2-12.41-1.66-0.31 0.12-0.67 5.17 0.94-0.13 0.68-1.74-0.32 0.6 3.82 4 0.72 2-3.34zm-3.34 8.7 2.64-4.42-3.47-0.63 0.8 5z"/>
       <path d="m197.38 440.48a3.38 3.38 0 0 0 1.35-0.07 3.16 3.16 0 0 0-1.51 2.17 3.14 3.14 0 1 0 5.53-1.44 3 3 0 0 0 1.23 0.54 3.2 3.2 0 1 0-2.22-4.57 23 23 0 0 1 2-4.61l-2.82-0.51a23.24 23.24 0 0 1 0.19 5 3.14 3.14 0 1 0-3.7 3.49z"/>
       <path d="m184.71 370.43a13.28 13.28 0 0 0-5.56 0.31 13 13 0 1 0-16.69-3.05 13.1 13.1 0 0 0-5.1-2.26 13.3 13.3 0 1 0 9.21 19c-1.55 4.69-5.14 15-8.08 19.14l11.69 2.13c-1.28-4.91-1-15.81-0.78-20.75a13 13 0 1 0 15.31-14.48z"/>
       <path class="cls-8" d="m136.6 308.64-0.13 0.67-4.09-0.74 0.12-0.68 1.6 0.3 6.5-10.87 0.67 0.12 2 12.41 1.66 0.31-0.12 0.67-5.17-0.94 0.12-0.68 1.75 0.33-0.61-3.82-4-0.73-2 3.34zm3.33-8.7-2.64 4.42 3.47 0.63-0.79-5z"/>
       <path d="m140.39 318.19a3.16 3.16 0 0 0-1.34 0.08 3.13 3.13 0 1 0-4-0.74 3.06 3.06 0 0 0-1.22-0.54 3.2 3.2 0 1 0 2.22 4.57 23.62 23.62 0 0 1-2 4.61l2.82 0.52a23.36 23.36 0 0 1-0.19-5 3.14 3.14 0 1 0 3.69-3.49z"/>
      </g>
     </g>
     <g id="crown">
      <path class="cls-11" d="m239.82 356.35a7.9 7.9 0 0 0-7.91 7.88 7.81 7.81 0 0 0 2.08 5.31l-30.82 34.2-2.77-54.38a7.93 7.93 0 1 0-5-0.91l-28.1 46.48-21.55-61.93a7.91 7.91 0 1 0-5.42-0.4l-19.22 59.48-27.57-45.37a7.88 7.88 0 1 0-5.69 1.29l-2.61 55.64-30.76-34.11a7.87 7.87 0 0 0-5.83-13.18 7.88 7.88 0 1 0 0 15.76 8 8 0 0 0 1.63-0.17l27.24 81.2s-5.23 4-3.86 7c0.66 1.44 34.6 10.83 69.18 11.11 36.79 0.3 74.31-8.64 73.37-11.11a81.84 81.84 0 0 0-3.81-8.5l25.91-79.64a7.58 7.58 0 0 0 1.51 0.15 7.88 7.88 0 1 0 0-15.76z" fill="url(#linear-gradient-5)"/>
     </g>
     <circle class="cls-12" transform="rotate(-2.29 183.34 430.87)" cx="183.31" cy="431.12" r="24.79" fill="url(#linear-gradient-6)"/>
     <path class="cls-13" d="m183.31 412.07a19.06 19.06 0 1 0 19.06 19.05 19.06 19.06 0 0 0-19.06-19.05zm0 36.57a17.52 17.52 0 1 1 17.51-17.52 17.51 17.51 0 0 1-17.51 17.52z" fill="url(#radialGradient6582)"/>
     <path class="cls-14" d="m183.31 413.61a17.52 17.52 0 1 0 17.51 17.51 17.51 17.51 0 0 0-17.51-17.51zm0 34.63a17.12 17.12 0 1 1 17.11-17.12 17.14 17.14 0 0 1-17.11 17.12z" fill="url(#linearGradient6584)"/>
     <path class="cls-15" d="m183.31 411.67a19.46 19.46 0 1 0 19.46 19.45 19.47 19.47 0 0 0-19.46-19.45zm0 38.51a19.06 19.06 0 1 1 19.06-19.06 19.06 19.06 0 0 1-19.06 19.06z" fill="url(#linearGradient6586)"/>
     <path class="cls-16" d="m158.93 435.61h2.57a5.84 5.84 0 0 0 0-9h-2.57a24.74 24.74 0 0 0 0 9z"/>
     <path class="cls-16" d="m170.53 447.41a6.06 6.06 0 0 0-2 0.35l-1.29 2.24a24.71 24.71 0 0 0 7.77 4.5l1.28-2.24a5.85 5.85 0 0 0-5.76-4.85z"/>
     <path class="cls-16" d="m198.1 447.76a6 6 0 0 0-2-0.35 5.86 5.86 0 0 0-5.77 4.84l1.29 2.24a24.82 24.82 0 0 0 7.77-4.5z"/>
     <path class="cls-16" d="m203 431.12a5.83 5.83 0 0 0 2.1 4.49h2.57a24.74 24.74 0 0 0 0-9h-2.57a5.83 5.83 0 0 0-2.1 4.51z"/>
     <path class="cls-16" d="m191.62 407.76-1.29 2.24a5.86 5.86 0 0 0 5.77 4.84 6 6 0 0 0 2-0.35l1.29-2.23a24.82 24.82 0 0 0-7.77-4.5z"/>
     <path class="cls-16" d="m168.52 414.49a6.06 6.06 0 0 0 2 0.35 5.85 5.85 0 0 0 5.76-4.84l-1.28-2.24a24.71 24.71 0 0 0-7.77 4.5z"/>
     <path class="cls-16" d="m198.31 431.12a15 15 0 1 1-15-15 15 15 0 0 1 15 15z"/>
     <circle class="cls-17" transform="rotate(-89.6 101.74 431.11)" cx="101.73" cy="431.1" r="24.9" fill="url(#linear-gradient-9)"/>
     <path class="cls-18" d="m101.73 412a19.15 19.15 0 1 0 19.15 19.14 19.15 19.15 0 0 0-19.15-19.14zm0 36.74a17.6 17.6 0 1 1 17.59-17.6 17.59 17.59 0 0 1-17.59 17.56z" fill="url(#radial-gradient-2)"/>
     <path class="cls-19" d="m101.73 413.51a17.6 17.6 0 1 0 17.59 17.59 17.59 17.59 0 0 0-17.59-17.59zm0 34.79a17.2 17.2 0 1 1 17.19-17.2 17.22 17.22 0 0 1-17.19 17.2z" fill="url(#linear-gradient-10)"/>
     <path class="cls-20" d="m101.73 411.56a19.55 19.55 0 1 0 19.55 19.54 19.57 19.57 0 0 0-19.55-19.54zm0 38.69a19.15 19.15 0 1 1 19.15-19.15 19.15 19.15 0 0 1-19.15 19.15z" fill="url(#linear-gradient-11)"/>
     <path class="cls-16" d="m77.24 435.61h2.58a5.86 5.86 0 0 0 0-9h-2.58a25 25 0 0 0 0 9z"/>
     <path class="cls-16" d="m88.89 447.47a5.87 5.87 0 0 0-2 0.35l-1.29 2.24a24.62 24.62 0 0 0 7.81 4.51l1.29-2.24a5.88 5.88 0 0 0-5.81-4.86z"/>
     <path class="cls-16" d="m116.59 447.82a5.9 5.9 0 0 0-7.81 4.51l1.29 2.24a24.62 24.62 0 0 0 7.81-4.51z"/>
     <path class="cls-16" d="m121.53 431.1a5.85 5.85 0 0 0 2.11 4.51h2.59a25.57 25.57 0 0 0 0-9h-2.59a5.85 5.85 0 0 0-2.11 4.49z"/>
     <path class="cls-16" d="m110.07 407.64-1.29 2.24a5.9 5.9 0 0 0 7.81 4.51l1.29-2.24a24.62 24.62 0 0 0-7.81-4.51z"/>
     <path class="cls-16" d="m86.87 414.39a5.9 5.9 0 0 0 7.81-4.51l-1.29-2.24a24.62 24.62 0 0 0-7.81 4.51z"/>
     <circle class="cls-16" transform="rotate(-66.73 101.71 431.08)" cx="101.73" cy="431.1" r="15.07"/>
     <circle class="cls-21" transform="rotate(-.66 141.7 419.26)" cx="141.42" cy="417.61" r="24.91"/>
     <path class="cls-22" d="m141.42 398.45a19.16 19.16 0 1 0 19.15 19.16 19.15 19.15 0 0 0-19.15-19.16zm0 36.75a17.6 17.6 0 1 1 17.58-17.59 17.59 17.59 0 0 1-17.58 17.59z" fill="url(#radial-gradient-3)"/>
     <path class="cls-23" d="m141.42 400a17.6 17.6 0 1 0 17.6 17.6 17.6 17.6 0 0 0-17.6-17.6zm0 34.79a17.2 17.2 0 1 1 17.2-17.19 17.22 17.22 0 0 1-17.2 17.2z" fill="url(#linear-gradient-12)"/>
     <path class="cls-24" d="m141.42 398.05a19.56 19.56 0 1 0 19.58 19.56 19.57 19.57 0 0 0-19.58-19.56zm0 38.71a19.16 19.16 0 1 1 19.15-19.15 19.15 19.15 0 0 1-19.15 19.15z" fill="url(#linear-gradient-13)"/>
     <path class="cls-16" d="m116.92 422.12h2.58a5.89 5.89 0 0 0 0-9h-2.58a25.07 25.07 0 0 0 0 9z"/>
     <path class="cls-16" d="m128.57 434a5.82 5.82 0 0 0-2 0.36l-1.3 2.24a24.84 24.84 0 0 0 7.81 4.51l1.3-2.24a5.89 5.89 0 0 0-5.81-4.87z"/>
     <path class="cls-16" d="m156.28 434.33a5.82 5.82 0 0 0-2-0.36 5.9 5.9 0 0 0-5.8 4.87l1.3 2.24a24.84 24.84 0 0 0 7.81-4.51z"/>
     <path class="cls-16" d="m161.23 417.61a5.87 5.87 0 0 0 2.11 4.51h2.58a25.07 25.07 0 0 0 0-9h-2.58a5.87 5.87 0 0 0-2.11 4.49z"/>
     <path class="cls-16" d="m149.77 394.13-1.3 2.24a5.89 5.89 0 0 0 5.8 4.87 5.82 5.82 0 0 0 2-0.36l1.3-2.24a25 25 0 0 0-7.8-4.51z"/>
     <path class="cls-16" d="m126.56 400.88a5.87 5.87 0 0 0 7.81-4.51l-1.3-2.24a25 25 0 0 0-7.81 4.51z"/>
     <path class="cls-16" d="m156.49 417.61a15.07 15.07 0 1 1-15.07-15.08 15.07 15.07 0 0 1 15.07 15.08z"/>
    </g>
    <g id="poker">
     <path class="cls-25" d="m358.62 286.05h-50.57v106.95h27.41v-30.18l23.16 0.1c25.26 0 42.63-15.47 42.63-37.75 0-21.95-17.37-39.12-42.63-39.12zm-2.8 54.25h-19.9v-30.1h19.9c10.52 0 17.71 5.66 17.71 15.14 0 9.14-7.19 14.96-17.71 14.96zm110.63-55.6c-30.88 0-57 21.78-57 55.58s26.09 55.43 57 55.43c30.72 0 56.81-21.78 56.81-55.43s-26.09-55.58-56.81-55.58zm0 85c-14.27 0-29.54-9.27-29.54-30.07s15.27-30.22 29.54-30.22 29.4 9.42 29.4 30.22-15.29 30.03-29.41 30.03zm170.22-84.08h-30.28l-24.21 43-15.51 0.43v-43.4h-26.44v107.81h26.44v-40.88l12.69 0.34 28.94 40.54h34l-38.19-52.57zm42.33 64.87h48.74v-23.62h-48.74v-17.54h54.39v-23.75h-80.86v107.88h81v-22.54h-54.53zm147.19 6.85s16.93-12.88 16.93-34.3-15.68-36.04-37.89-36.04h-54.23v106.46h26.45v-30.07h18.55l21.52 30.07h34.48zm-26.1-17.8h-21.92v-30.16h21.89c9.83 0 15.12 5.78 15.12 15.08 0 8.77-5.29 15.08-15.12 15.08z" fill="url(#linearGradient6588)"/>
    </g>
    <g id="online">
     <path class="cls-26" d="m911.89 284.7c-30.87 0-57 21.78-57 55.58s26.09 55.43 57 55.43 56.81-21.78 56.81-55.43-26.09-55.58-56.81-55.58zm0 86.33c-14.27 0-29.54-9.27-29.54-30.07s15.27-30.22 29.54-30.22 29.4 9.42 29.4 30.22-15.29 30.04-29.4 30.04zm148.64-22.03-51.8-62h-23.62v107.83h27.66v-61.78l49.07 60.41h26.5v-106.46h-27.81zm75-62h-29.23v106.46h81.85v-22.69h-52.67zm65.27 106.51h26.76v-106.51h-26.76zm122.86-45.88-51.86-60.63h-23.61v106.46h27.65v-59l49.08 59h26.5v-106.46h-27.81zm73.58 23.34v-19.1h48.75v-23.63h-48.75v-17.54h54.4v-23.7h-80.84v106.46h81v-22.54z" fill="url(#linearGradient6590)"/>
    </g>
    <g data-name="77">
     <path class="cls-27" d="m1469 286.07-2.74 27.79h50.16s-29.6 25.1-33.86 81.87h36.84c2.87-56.3 22-81.78 29.1-88.37v-21.29z" fill="url(#linear-gradient-16)"/>
    </g>
    <g id="_77_copy" data-name="77 copy">
     <path class="cls-28" d="m1554 286.07-2.74 27.79h50.16s-29.6 25.1-33.85 81.87h36.83c2.88-56.3 22-81.78 29.1-88.37v-21.29z" fill="url(#linear-gradient-17)"/>
    </g>
    <g id="situs_judi_online_terbaik" data-name="situs judi online terbaik">
     <path class="cls-29" d="m331.29 438h-14.63a3.41 3.41 0 0 1-2.51-1 3.34 3.34 0 0 1-1-2.5v-1.5a3.35 3.35 0 0 1 1-2.5 3.41 3.41 0 0 1 2.51-1h19.21v-3.64h-20.15a6.37 6.37 0 0 0-4.65 1.92 6.29 6.29 0 0 0-1.92 4.64v2.81a6.29 6.29 0 0 0 1.92 4.64 6.37 6.37 0 0 0 4.65 1.92h14.63a3.45 3.45 0 0 1 2.52 1 3.39 3.39 0 0 1 1 2.5v2.6a3.42 3.42 0 0 1-3.52 3.5h-20.19v3.64h21.13a6.57 6.57 0 0 0 6.58-6.56v-3.87a6.57 6.57 0 0 0-6.58-6.56zm38.09 17h4v-29.08h-4zm35.51-25.57h11.9v25.57h4v-25.49h11.93v-3.59h-27.83zm85 18.46a3.39 3.39 0 0 1-3.49 3.49h-15.11a3.39 3.39 0 0 1-3.5-3.49v-21.97h-4v22.58a6.59 6.59 0 0 0 6.58 6.58h17a6.59 6.59 0 0 0 6.58-6.58v-22.58h-4zm57.2-9.93h-14.61a3.45 3.45 0 0 1-2.52-1 3.38 3.38 0 0 1-1-2.5v-1.5a3.39 3.39 0 0 1 1-2.5 3.45 3.45 0 0 1 2.52-1h19.2v-3.64h-20.14a6.57 6.57 0 0 0-6.58 6.56v2.81a6.57 6.57 0 0 0 6.58 6.56h14.63a3.41 3.41 0 0 1 2.51 1 3.35 3.35 0 0 1 1 2.5v2.6a3.42 3.42 0 0 1-3.51 3.5h-20.17v3.64h21.13a6.56 6.56 0 0 0 6.57-6.56v-3.83a6.29 6.29 0 0 0-1.92-4.64 6.37 6.37 0 0 0-4.67-1.96zm97.91 10.04a3.37 3.37 0 0 1-3.49 3.49h-8.6a3.29 3.29 0 0 1-2.3-0.88 3.8 3.8 0 0 1-1.17-2.47h-4v0.39a6.59 6.59 0 0 0 6.58 6.58h10.48a6.56 6.56 0 0 0 6.5-6.61v-22.58h-4zm61.17 0a3.37 3.37 0 0 1-3.49 3.49h-15.14a3.41 3.41 0 0 1-2.51-1 3.36 3.36 0 0 1-1-2.5v-22.07h-4v22.58a6.59 6.59 0 0 0 6.58 6.58h17a6.59 6.59 0 0 0 6.58-6.58v-22.58h-4zm58.83-22.08h-23.54v29.16h23.54a6.38 6.38 0 0 0 4.66-1.93 6.31 6.31 0 0 0 1.94-4.65v-16a6.61 6.61 0 0 0-6.6-6.58zm2.6 22.08a3.36 3.36 0 0 1-1 2.49 3.41 3.41 0 0 1-2.52 1h-18.6v-21.98h18.6a3.43 3.43 0 0 1 3.52 3.49zm35.53 7.11h4v-29.19h-4zm100.37-29.19h-17.61a6.59 6.59 0 0 0-6.58 6.58v16a6.59 6.59 0 0 0 6.58 6.58h17.61a6.38 6.38 0 0 0 4.66-1.93 6.31 6.31 0 0 0 1.94-4.65v-16a6.61 6.61 0 0 0-6.6-6.58zm2.58 22.08a3.36 3.36 0 0 1-1 2.49 3.41 3.41 0 0 1-2.52 1h-15.73a3.41 3.41 0 0 1-2.51-1 3.36 3.36 0 0 1-1-2.5v-14.99a3.39 3.39 0 0 1 3.49-3.52h15.73a3.43 3.43 0 0 1 3.52 3.52zm61.44 0.48-23-22.53h-3.16v29.15h4v-22.65l23 22.63h3.16v-29.18h-4zm40.3 2a3.37 3.37 0 0 1-1-2.5v-22.06h-4v22.58a6.59 6.59 0 0 0 6.58 6.58h21.27v-3.62h-20.33a3.41 3.41 0 0 1-2.52-0.99zm54.35 4.61h4v-29.17h-4zm61.9-6.63-23-22.53h-3.16v29.17h4v-22.65l23 22.63h3.16v-29.18h-4zm37.22-20.6a6.32 6.32 0 0 0-1.93 4.65v16a6.59 6.59 0 0 0 6.58 6.58h21.27v-3.69h-20.33a3.39 3.39 0 0 1-3.5-3.49v-6h19.81v-3.69h-19.81v-5.12a3.39 3.39 0 0 1 3.5-3.49h20.33v-3.69h-21.27a6.3 6.3 0 0 0-4.65 1.93zm97.86 1.66h11.9v25.57h4v-25.58h11.95v-3.59h-27.85zm60.81-1.66a6.32 6.32 0 0 0-1.93 4.65v16a6.59 6.59 0 0 0 6.58 6.58h21.27v-3.69h-20.33a3.37 3.37 0 0 1-3.49-3.49v-6h19.8v-3.69h-19.8v-5.12a3.37 3.37 0 0 1 3.49-3.49h20.33v-3.69h-21.27a6.3 6.3 0 0 0-4.61 1.93zm84.46-0.61a8 8 0 0 0-4.76-1.32h-22.26v29.16h4v-12.09h17.15q3.53 0 3.52 2.55v9.55h4.17v-8.89a6.11 6.11 0 0 0-1-3.87 5.53 5.53 0 0 0-3.09-1.75 4.43 4.43 0 0 0 3.11-0.91c0.64-0.61 1-1.84 1-3.67v-4.86a4.45 4.45 0 0 0-1.84-3.91zm-2.33 9.5q0 2.55-3.52 2.55h-17.15v-10h17.15c2.35 0 3.52 0.86 3.52 2.56zm59.53 2.7a5.65 5.65 0 0 0 1.93-0.34 3.68 3.68 0 0 0 1.21-0.71 2.51 2.51 0 0 0 0.62-1.06 5 5 0 0 0 0.26-1.12v-1.18-3.9a4.47 4.47 0 0 0-1.83-3.89 7.92 7.92 0 0 0-4.75-1.32h-21.56v29.16h22.26a8 8 0 0 0 4.76-1.32 4.46 4.46 0 0 0 1.85-3.89v-6a4.11 4.11 0 0 0-1.41-3.07 4.69 4.69 0 0 0-3.34-1.37zm-20.07-9.88h16.45q3.52 0 3.52 2.7v3.42q0 2.54-3.52 2.53h-16.46zm20.68 19.35c0 1.7-1.18 2.55-3.52 2.55h-17.16v-9.68h17.16c2.34 0 3.52 0.85 3.52 2.55zm49.77-23-15.06 29.16h4.51l4.58-8.94h16.74l4.58 8.94h4.48l-15-29.16zm-4 16.55 6.44-12.52 6.41 12.52zm54.91 12.61h4v-29.16h-4zm63.6-29.16h-6l-17.85 14.82v-14.82h-4v29.16h4v-9.38l4-3.3 13.78 12.68h6.07l-16.6-15.33z" fill="url(#linear-gradient-18)"/>
    </g>
   </g>
  </g>
 </g>
</svg>
