<svg data-name="Layer 1" version="1.1" viewBox="0 0 1637.1 528" xmlns="http://www.w3.org/2000/svg" xmlns:xlink="http://www.w3.org/1999/xlink"><defs><style>.cls-1{fill:#bf892c;}.cls-2{fill:#fff;}.cls-3{fill:#c9b34e;}.cls-4{fill:#ecdf88;}.cls-5{fill:url(#a);}.cls-6{fill:url(#i);}.cls-7{fill:url(#h);}.cls-8{fill:url(#g);}.cls-9{fill:url(#f);}.cls-10{fill:url(#e);}.cls-11{fill:#c1a75c;}.cls-12{fill:url(#d);}.cls-13{fill:url(#c);}.cls-14{fill:url(#b);}.cls-15{fill:url(#j);}</style><linearGradient id="a" x1="231.68" x2="231.68" y1="299.87" y2="132.87" gradientUnits="userSpaceOnUse"><stop stop-color="#bf892c" offset="0"/><stop stop-color="#f2ea94" offset="1"/></linearGradient><linearGradient id="i" x1="127.27" x2="414.53" y1="379.28" y2="379.28" gradientUnits="userSpaceOnUse"><stop stop-color="#bf892c" offset="0"/><stop stop-color="#f2ea94" offset=".5"/><stop stop-color="#bf892c" offset="1"/></linearGradient><linearGradient id="h" x1="566.87" x2="1330.1" y1="223.54" y2="223.54" xlink:href="#a"/><linearGradient id="g" x1="1642" x2="566.96" y1="456.57" y2="456.57" xlink:href="#a"/><linearGradient id="f" x1="1481.4" x2="1481.4" y1="319.65" y2="95.35" xlink:href="#a"/><linearGradient id="e" x1="1472.5" x2="1472.5" y1="315.5" y2="110.57" xlink:href="#a"/><linearGradient id="d" x1="1355.2" x2="1458.5" y1="279.44" y2="279.44" xlink:href="#a"/><linearGradient id="c" x1="1481.7" x2="1481.7" y1="239.74" y2="175.01" xlink:href="#a"/><linearGradient id="b" x1="1437.6" x2="1437.6" y1="147.08" y2="125.52" xlink:href="#a"/><linearGradient id="j" x1="1526.9" x2="1526.9" y1="291" y2="269.43" xlink:href="#a"/><linearGradient id="k" x1="231.68" x2="231.68" y1="299.87" y2="132.87" gradientUnits="userSpaceOnUse" xlink:href="#a"/></defs><title>logo</title><g transform="translate(-4.93,-75.74)"><g data-name="logo"><path class="cls-1" d="m268.93 75.74c-145.81 0-264 118.2-264 264s118.19 264 264 264 264-118.2 264-264-118.2-264-264-264zm0 515.25c-133.13 0-241-111.92-241-250s107.87-249.99 241-249.99 241.07 112 241.07 250-107.94 250-241.07 250z"/><g data-name="circle"><path class="cls-2" d="m262.55 83.39c-138.76 0-251.25 115.61-251.25 258.27s112.49 258.26 251.25 258.26 251.25-115.63 251.25-258.26-112.49-258.27-251.25-258.27zm6.38 507.61c-133.13 0-241-111.92-241-250s107.87-250 241-250 241.07 112 241.07 250-107.94 250-241.07 250z"/></g><g data-name="circle"><path class="cls-2" d="m274.67 84.67c-140.52 0-254.44 115.63-254.44 258.26s113.92 258.27 254.44 258.27 254.44-115.63 254.44-258.27-113.92-258.26-254.44-258.26zm-5.74 506.33c-133.13 0-241-111.92-241-250s107.87-250 241-250 241.07 112 241.07 250-107.94 250-241.07 250z"/></g><g data-name="circle"><path class="cls-3" d="m271.48 84.67c-138.76 0-251.25 115.63-251.25 258.26s112.49 258.27 251.25 258.27 251.25-115.63 251.25-258.27-112.49-258.26-251.25-258.26zm-2.55 506.33c-133.13 0-241-111.92-241-250s107.87-250 241-250 241.07 112 241.07 250-107.94 250-241.07 250z"/></g><path class="cls-4" d="m90.37 324.44v-7.65l5.7-5.7a3.42 3.42 0 0 0-0.59 1.87c0 2.11 2 3.83 4.46 3.83s4.47-1.72 4.47-3.83-2-3.83-4.47-3.83a4.86 4.86 0 0 0-2.75 0.84l5.94-5.94s-7.67-13-15.31-12.75c-11.82 0-5.7 13.28-26.82 12.72 7.73 19 23.1 15.11 27.88 13.36-3.77 1.64-13.81 6.64-15.09 13.46-1.58 8.42 2.47 1.41 5.1 5.1s-1.89 16.84 8.93 16.58 8.93-31.89 8.93-31.89zm37-20.41c-1.85-5.27 2.09-11-7.65-10.2s-14 11.48-14 11.48 4.66 4.49 2.55 7.65c14.73 11.33 26.73 5.27 26.73 0.04s-5.8-3.7-7.64-9zm-19.13 14-2.55 5.1-5.1-2.55s-9.31 26 2.55 26.79c3.42-3.17 3.47-7.09 6.37-8.93s6.74 4.6 11.48-3.83-12.76-16.55-12.76-16.55z"/><g data-name="flowers copy"><path class="cls-4" d="m406.67 459.63v-7.63l5.7-5.71a3.38 3.38 0 0 0-0.6 1.88c0 2.11 2 3.83 4.47 3.83s4.46-1.72 4.46-3.83-2-3.83-4.46-3.83a4.87 4.87 0 0 0-2.76 0.84l5.94-5.94s-7.66-13-15.31-12.75c-11.85 0-5.7 13.28-26.78 12.75 7.73 19 23.11 15.11 27.88 13.35-3.8 1.66-13.85 6.62-15.12 13.44-1.59 8.42 2.46 1.41 5.1 5.1s-1.88 16.84 8.92 16.58 8.89-31.91 8.89-31.91zm37-20.41c-1.84-5.27 2.1-11-7.65-10.2s-14 11.48-14 11.48 4.66 4.49 2.55 7.65c14.76 11.33 26.78 5.27 26.78 0s-5.85-3.66-7.7-8.93zm-19.13 14-2.55 5.1-5.1-2.55s-9.31 26 2.55 26.79c3.42-3.17 3.48-7.09 6.38-8.93s6.73 4.6 11.47-3.83-12.77-16.55-12.77-16.55z"/></g><path class="cls-5" d="m355.65 133.13c-12.18-2.59-18.27 14.51-7.65 25.51-2.17 27.18-18.77 39.54-23 39.54s-22.14-21.75-23-31.89c8.12-12.3 7.77-25.37-7.65-25.51s-13.35 17.22-5.02 25.51c-0.13 4.06-9.11 35.69-21.68 38.26-5.27-0.94-32.72-20.46-38.26-30.61 7.43-17-2.6-30.1-15.31-25.5s-11.68 22.56 7.66 28.05c0.54 3.93-8.93 52.3-8.93 52.3s-36.68-10.5-42.09-16.58c3.92-13.26-10.53-24-20.41-15.31s-4.88 21.27 12.76 24.23c4.79 4.31 10.85 34 5.1 39.54s-44.72-11.63-45.91-14c1.19-14.13-10.83-22.65-20.41-14s-2.1 21.29 16.58 19.13c5.27 4.55 62.49 47.19 62.49 47.19l-17.85-26.78s66.4 6.34 67.59-84.18c39.29 46.94 76.53 30.61 76.53 30.61s-5.45 29.14-38.27 53.57-77.79 23-77.79 23 125.07 33.4 122.43-76.52c17.49-5.74 25.51-17.85 25.51-17.85l2.55 37s12.51-71.41 15.31-77.8c12.78-7.71 10.9-24.31-1.28-26.91zm-172.18 125c-4.84-2-7.65-24.49-3.82-28.06s26 4.85 26.78 10.2-18.11 19.89-22.96 17.85zm128.82-51c-1.28 4.09-26.28 5.62-28.06 1.28s7.14-20.92 12.75-21.68 16.58 16.27 15.31 20.37zm-38.29 26.76s-2.85 14.71-13.52 23.18c-11 8.75-29.85 11.25-29.85 11.25s19 9.2 35.71-3.82 7.66-30.61 7.66-30.61z" style="fill:url(#k)"/><path class="cls-6" d="m187.3 362.7c-26.05 11.69-44.8 32.58-47.19 40.81-6.91-25.77 14.22-51.23 91.83-58.67s82.84-53.61 84.17-90.55c-19.4 77.85-131 38.53-172.17 102 0-2.12 8.65-21 34.43-37-77.61 26-43.89 84.76-43.36 89.27-21.53 42.52 40.17 96 49.74 112.24s0.85 24-7.65 29.33c40.13-7.71 13-50-5.1-81.62s-14.47-78.71 15.3-105.81zm14.17 115.64c-16.7-35.89 3.22-75.79 3.22-75.79s-30.44 33.71-14.67 75c-6.02-13.42-11.53-30.55-11.65-48.55-0.26-39.59 34.44-67.6 34.44-67.6s-43.58 18.82-44.64 65.05 37 77.8 37 77.8a128.77 128.77 0 0 1-7.43-11.66c21.1 32.69 59.39 43 59.39 43s-38.95-21.35-55.66-57.25zm71.28 3c-45.18-31.62-51.7-34.12-53.56-61.22-3.46 2.92-12.51 42.14 31.88 72.7s12.75 57.39 12.75 57.39 54.11-37.28 8.93-68.9zm30.61-17.86c-45.18-31.61-51.71-34.11-53.57-61.21-3.45 2.92-12.5 42.14 31.89 72.69s12.75 57.39 12.75 57.39 54.11-37.28 8.93-68.9zm-85.45-104.61s-20.21 57 31.88 86.73c-6.37-8.77-26-32.74-7.65-62.49-12.49-4.79-24.23-24.24-24.23-24.24zm159.42-42.08c5.79 57.3-31.56 80.77-39.54 89.27s-23.32 23-33.15 23-26.78-14.83-39.54-26.78-17.86-43.37-17.86-43.37-4.52 32.26 12.76 61.22 51 37 51 37-33.37-19.93-47.19-51c7.71 7.44 27 26.79 40.82 26.79s22.95-11.48 22.95-11.48-10.76 42.05 26.78 61.22c2.4 0.39-19.22-26.89 8.93-54.85-9.58 4.4-15.93 9.44-19.13 14 7.2-35.38 72.31-36.81 33.17-125.02zm7.67-44.64a118.74 118.74 0 0 1 20.41 47.19s-8.23-19.56-25.51-34.44c27.38 44.91 22.81 97.46 1.28 122.44 42.26-25.24 30.61-68.87 30.61-68.87s15.45-36.56-26.79-66.32zm-71.42 28.06c-15.96 34.79-52.31 49.79-52.31 49.79s40.92-10.1 57.39-46 5.11-80.35 5.11-80.35 5.74 41.75-10.21 76.56zm11.42-6.38c53.69 6.11 48.41-63.61 43.36-67.6 2.66 39.59-15.46 52.51-17.85 53.57 6.11-8.5 14.56-38.74 1.27-71.42 2.97 34.54-2.55 66.62-26.78 85.45zm47.19 17.85c-3.72-6.9-9.51-10.36-20.41-12.75s-35.71 11.48-35.71 11.48-3.66 5.9-1.27 11.48c36.98-26.04 52.91-15.52 57.43-10.21zm-5.1 26.79c-9-1.59-11.48-5.1-11.48-5.1s7.21-4 8.93-8.93a22.44 22.44 0 0 1-15.31 5.1s16.11-7.28 15.31-16.58c-5.85 15.94-45.06 13.13-47.19 23 6.59-2.39 7.65 0 7.65 0s2.06 8.8 11.48 8.92c-4.14-2.1-3.83-7.65-3.83-7.65s11.77 9.68 25.51 5.1a15.7 15.7 0 0 1-7.65-5.1s11.34 3.34 16.62 1.24zm-68.49 26.81c-2.08-0.38-3.92 0.16-4.11 1.2s1.35 2.19 3.42 2.57 3.92-0.16 4.11-1.2-1.34-2.19-3.42-2.57zm12.07 3.72c1.77-0.36 3.07-1.47 2.91-2.47s-1.73-1.51-3.5-1.14-3.07 1.47-2.91 2.46 1.73 1.48 3.5 1.15zm-9.86 9.67c0 1.06 1.72 1.92 3.83 1.92s3.83-0.86 3.83-1.92-1.72-1.91-3.83-1.91-3.83 0.83-3.83 1.88zm17.85 4.47c-3.93 0-14 2.55-14 2.55s-8.82-2.55-12.76-2.55-11.6 3.82-12.75 3.82c16.72 0 17.15 2.55 25.51 2.55s12.19-2.55 26.78-2.55c-1.82-0.03-8.84-3.85-12.78-3.85zm-14 15.3c-4.48 0-9-2.42-9-1.28s1.22 5.11 8.93 5.11 8.92-3.55 8.92-5.11-4.37 1.25-8.81 1.25z" style="fill:url(#i)"/><path class="cls-7" d="m730.16 277.33c0-38.44-9.19-44.75-26.12-52.21 20.38-6.88 31.86-26.39 31.86-49.05 0-17.78-10-58.23-64.86-58.23h-104.17v206h42.18v-80.65h44.48c31.86 0 33.58 10.9 33.58 39 0 21.23 1.72 31.84 4.59 41.6h47.64v-5.45c-9.18-3.44-9.18-10.9-9.18-41.01zm-70.6-68.85h-50.51v-55.07h53.67c25.25 0 30.13 16.06 30.13 27 0 20.33-10.85 28.07-33.29 28.07zm183.34-90.64-73.46 206h45.34l14.35-42.46h76l13.2 42.46h46.78l-72.61-206zm-2.29 127.93 26.39-81.46h0.57l25.55 81.46zm119.92-91.5h62.28v169.53h43v-169.53h62.27v-36.43h-167.55zm325.7-36.43v135.68c0 25-12.06 39.3-41.61 39.3-20.09 0-36.74-12.63-36.74-41.31v-133.67h-43.88v136.54c0.58 20.65 4.88 37.29 16.07 49.91 18.37 20.37 46.5 25 65.44 25 51.94 0 84.66-23.24 84.66-77.45v-134z" style="fill:url(#h)"/><path class="cls-8" d="m682.59 442.16-50.33-12.39c-8.63-2-21.87-5.48-21.87-21.61 0-18.74 19.56-24.79 36-24.79 37.68 0 41.13 21.9 42.28 31.13h41.43c-0.29-25.36-17.26-66.86-80.55-66.86-67 0-79.39 40.63-79.39 63.69 0 45.53 32.22 53 65.59 60.8l22.15 5.19c21.86 5.18 37.39 9.5 37.39 25.64 0 21.9-22.72 26.8-43.15 26.8-37.68 0-43.43-21.9-43.72-33.43h-41.42c0 25.65 12.94 69.16 88.31 69.16 18.12 0 81.4-5.47 81.4-67.72-0.04-37.17-25.93-48.7-54.12-55.61zm155.88-89-73.64 206.84h45.45l14.38-42.65h76.23l13.23 42.65h46.88l-72.77-206.9zm-2.3 128.52 26.46-81.84h0.57l25.6 81.84zm314.65 22.76h-0.58c-4.6-26.8-6.61-37.75-30.78-151.28h-45.73c-21.86 108.63-25 129.67-28.77 151.28h-0.57c-3.74-23.63-6.33-38-32.79-151.28h-46l58.4 206.84h40.27c22.14-106.62 25.6-121.61 31.92-161.37h0.58c6.9 39.76 10.64 59.93 31.93 161.37h41.42l58.1-206.9h-43.72c-26.78 113.84-30.23 131.71-33.68 151.3zm157.29-34.58h100.68v-36.63h-100.68v-43.52h109.6v-36.59h-151.88v206.88h156.77v-36.6h-114.49zm324.73 43.52c0-38.62-9.21-45-26.18-52.45 20.42-6.92 31.93-26.51 31.93-49.28 0-17.86-10.07-58.49-65-58.49h-104.43v206.84h42.29v-81h44.55c31.93 0 33.66 10.95 33.66 39.19 0 21.33 1.72 32 4.6 41.79h47.74v-5.48c-9.16-3.41-9.16-10.91-9.16-41.16zm-70.77-69.16h-50.62v-55.37h53.79c25.31 0 30.2 16.14 30.2 27.09 0 20.46-10.93 28.24-33.37 28.24z" style="fill:url(#g)"/><g data-name="Rounded Rectangle 1 copy"><path class="cls-9" d="m1495.3 96.36-39.58 16.76h16.36l23.36-9.9a8.93 8.93 0 0 1 11.7 4.74l2.18 5.16h6.93l-4.23-10a12.75 12.75 0 0 0-16.72-6.76zm-110.12 60.48 30 70.71v-16.35l-23.08-54.5a8.93 8.93 0 0 1 4.74-11.7l18.34-7.76v-6.93l-23.18 9.81a12.77 12.77 0 0 0-6.82 16.72zm192.49 101.31-28.67-67.6v16.35l21.76 51.39a8.93 8.93 0 0 1-4.74 11.7l-17 7.21v6.92l21.86-9.25a12.77 12.77 0 0 0 6.79-16.72zm-110.26 53.62a8.93 8.93 0 0 1-11.7-4.74l-2.71-6.43h-6.93l4.77 11.26a12.75 12.75 0 0 0 16.72 6.77l42.59-18h-16.35z" style="fill:url(#f)"/></g><g data-name="Rounded Rectangle 1"><path class="cls-10" d="m1537.6 110.57h-112.23a12.75 12.75 0 0 0-12.75 12.75v120.5a27.44 27.44 0 0 1 6.37-2.63v-115.32a8.93 8.93 0 0 1 8.93-8.93h107.12a8.93 8.93 0 0 1 8.93 8.93v163.25a8.93 8.93 0 0 1-8.93 8.93h-82.79a37.69 37.69 0 0 1-4.23 6.37h89.57a12.75 12.75 0 0 0 12.76-12.75v-168.35a12.75 12.75 0 0 0-12.75-12.75z" style="fill:url(#e)"/></g><g data-name="$"><path class="cls-11" d="m1417.8 279.43a13.73 13.73 0 0 0-5.53-4.07c-1-0.39-2.1-0.83-3.45-1.33a22.18 22.18 0 0 1-4.34-1.95 2.74 2.74 0 0 1-1.33-2.44 3.27 3.27 0 0 1 1.18-2.66 4.94 4.94 0 0 1 3.26-1 4.65 4.65 0 0 1 3.7 1.43 5.27 5.27 0 0 1 1.23 3.55v0.5c0 0.33 0.28 0.49 0.84 0.49h5.18a0.74 0.74 0 0 0 0.84-0.84v-1.63a8.66 8.66 0 0 0-2.45-6.33 10.91 10.91 0 0 0-6.83-3 0.36 0.36 0 0 1-0.29-0.34v-2.62a0.74 0.74 0 0 0-0.84-0.84h-2.81a0.74 0.74 0 0 0-0.84 0.84l0.1 2.67a0.36 0.36 0 0 1-0.3 0.34 10.64 10.64 0 0 0-6.56 3.21 9.25 9.25 0 0 0-2.32 6.46 8.84 8.84 0 0 0 1.33 5 12 12 0 0 0 3.85 3.52 32.36 32.36 0 0 0 5.48 2.62 25.21 25.21 0 0 1 4.31 2.09 2.77 2.77 0 0 1 1.36 2.4 3.76 3.76 0 0 1-1.14 2.76 4.55 4.55 0 0 1-3.35 1.13 4.89 4.89 0 0 1-3.7-1.33 4.61 4.61 0 0 1-1.28-3.35v-0.71c0-0.43-0.28-0.65-0.84-0.65h-5.13a0.74 0.74 0 0 0-0.84 0.84v2.12a8.15 8.15 0 0 0 2.34 6 10.55 10.55 0 0 0 6.54 2.86c0.2 0.07 0.29 0.18 0.29 0.35l-0.09 2.27a0.74 0.74 0 0 0 0.83 0.84h2.92a0.74 0.74 0 0 0 0.83-0.84v-2.22c0-0.17 0.1-0.28 0.3-0.35a10.93 10.93 0 0 0 6.88-3.25 9.69 9.69 0 0 0 2.44-6.81 9.34 9.34 0 0 0-1.77-5.73z"/></g><path class="cls-12" d="m1458.2 274.69c0-0.34-0.07-0.67-0.1-1-0.17-1.49-0.39-3-0.68-4.45-0.06-0.27-0.13-0.53-0.19-0.8-0.27-1.22-0.58-2.43-0.94-3.63-0.12-0.4-0.23-0.81-0.36-1.21-0.45-1.4-1-2.79-1.53-4.15 0-0.11-0.1-0.22-0.14-0.33-0.59-1.37-1.25-2.72-2-4l-0.21-0.39c-0.19-0.35-0.37-0.72-0.57-1.07a2.28 2.28 0 0 0-0.36-0.46 52 52 0 0 0-18.3-18.22 1.1 1.1 0 0 0-0.22-0.21c-0.35-0.2-0.71-0.37-1.06-0.56l-0.43-0.23c-1.3-0.7-2.63-1.35-4-1.93l-0.37-0.16c-1.36-0.57-2.74-1.07-4.14-1.52l-1.22-0.37q-1.79-0.52-3.6-0.93l-0.83-0.19c-1.46-0.3-2.94-0.51-4.43-0.68l-1-0.1c-1.56-0.15-3.14-0.25-4.72-0.25a51.21 51.21 0 0 0-25.51 6.83 1.38 1.38 0 0 0-0.27 0.08 52.09 52.09 0 0 0-6.93 4.84l-0.14 0.12a51.41 51.41 0 0 0-6.88 6.88l-0.12 0.14a51.39 51.39 0 0 0-4.83 6.93 1.21 1.21 0 0 0-0.08 0.25 51.21 51.21 0 0 0-6.83 25.51 0.25 0.25 0 0 0 0 0.07c0 1.59 0.11 3.17 0.25 4.74 0 0.34 0.07 0.68 0.1 1 0.17 1.5 0.39 3 0.68 4.46 0.06 0.27 0.13 0.53 0.19 0.79 0.27 1.23 0.58 2.43 0.94 3.63 0.12 0.41 0.23 0.81 0.36 1.21 0.45 1.4 1 2.79 1.53 4.15 0 0.11 0.1 0.22 0.14 0.33 0.59 1.37 1.25 2.72 2 4l0.21 0.39c0.19 0.36 0.37 0.72 0.57 1.07a2 2 0 0 0 0.36 0.46 52 52 0 0 0 18.3 18.22 1.1 1.1 0 0 0 0.22 0.21c0.35 0.2 0.71 0.37 1.06 0.57l0.43 0.23c1.31 0.69 2.64 1.34 4 1.92l0.36 0.16c1.36 0.57 2.74 1.07 4.14 1.52l1.23 0.37c1.18 0.35 2.38 0.66 3.59 0.93 0.28 0.06 0.55 0.14 0.83 0.19 1.46 0.3 2.94 0.51 4.43 0.68l1 0.1c1.57 0.15 3.14 0.25 4.72 0.25a51.25 51.25 0 0 0 25.55-6.85c0.07 0 0.16 0 0.23-0.06a52.09 52.09 0 0 0 6.93-4.84l0.14-0.11a52.08 52.08 0 0 0 6.88-6.89l0.12-0.14a52.27 52.27 0 0 0 4.84-6.92c0-0.07 0-0.15 0.06-0.22s0 0 0-0.05a51.27 51.27 0 0 0 6.82-25.5 0.14 0.14 0 0 0 0-0.07c0.03-1.58-0.08-3.16-0.22-4.74zm-25.85-36.3a48.82 48.82 0 0 1 15.49 15.48l-11.17 6.45a35.77 35.77 0 0 0-10.77-10.76zm-27.17-7.29v12.9a35.32 35.32 0 0 0-14.72 3.93l-6.47-11.2a48.1 48.1 0 0 1 21.19-5.63zm-46.73 46.72a48.19 48.19 0 0 1 5.64-21.17l11.2 6.46a35.27 35.27 0 0 0-3.93 14.71zm22.78 42.66a48.72 48.72 0 0 1-15.49-15.48l11.17-6.45a35.77 35.77 0 0 0 10.77 10.76zm27.17 7.29v-12.91a35.22 35.22 0 0 0 14.71-3.92l6.47 11.19a47.92 47.92 0 0 1-21.18 5.64zm24.57-29.49c-0.31 0.42-0.61 0.84-0.94 1.25-0.52 0.66-1.08 1.28-1.66 1.9-0.36 0.38-0.71 0.76-1.08 1.13-0.73 0.7-1.48 1.37-2.27 2-0.39 0.32-0.81 0.61-1.23 0.92-0.59 0.43-1.21 0.85-1.83 1.25a32.13 32.13 0 0 1-17.15 5h-0.4a32.17 32.17 0 0 1-3.4-0.23c-0.36 0-0.71-0.11-1.07-0.16-0.93-0.14-1.86-0.32-2.78-0.55q-0.53-0.12-1.05-0.27c-1-0.27-1.93-0.6-2.88-1-0.25-0.09-0.51-0.17-0.76-0.28a30.14 30.14 0 0 1-3.24-1.56 32.49 32.49 0 0 1-12.59-12.54 30.21 30.21 0 0 1-1.59-3.23c-0.07-0.15-0.11-0.31-0.17-0.46-0.41-1-0.77-2.08-1.08-3.14-0.1-0.34-0.18-0.69-0.27-1-0.22-0.9-0.41-1.81-0.55-2.73-0.07-0.38-0.13-0.77-0.18-1.16-0.12-1-0.19-2-0.22-3v-1a32.05 32.05 0 0 1 4.86-17c0.4-0.64 0.82-1.28 1.27-1.89 0.3-0.42 0.6-0.84 0.93-1.24 0.52-0.66 1.08-1.29 1.66-1.91 0.36-0.38 0.71-0.76 1.08-1.12 0.73-0.71 1.48-1.38 2.27-2 0.4-0.32 0.81-0.62 1.23-0.92 0.59-0.44 1.21-0.86 1.83-1.25a32 32 0 0 1 17.15-5h0.4a32.16 32.16 0 0 1 3.4 0.22c0.36 0 0.71 0.11 1.07 0.16 0.93 0.15 1.86 0.33 2.78 0.55 0.35 0.09 0.7 0.17 1 0.27 1 0.27 1.94 0.6 2.88 1l0.76 0.28a32.16 32.16 0 0 1 3.24 1.56 32.49 32.49 0 0 1 12.58 12.59 31.17 31.17 0 0 1 1.59 3.23c0.07 0.15 0.11 0.3 0.17 0.45 0.41 1 0.77 2.09 1.08 3.15 0.1 0.35 0.18 0.7 0.27 1 0.22 0.91 0.41 1.82 0.56 2.73 0.06 0.39 0.12 0.77 0.17 1.16 0.12 1 0.19 2 0.22 3v1a32 32 0 0 1-4.86 16.95q-0.56 0.98-1.2 1.89zm16.54 3.94-11.2-6.46a35.27 35.27 0 0 0 3.93-14.71h12.91a48 48 0 0 1-5.66 21.17z" style="fill:url(#d)"/><path class="cls-13" d="m1483.5 175.76a2.41 2.41 0 0 0-3.49 0l-20 22.88a15.16 15.16 0 0 0-2 17 14.77 14.77 0 0 0 12.25 7.92 14.52 14.52 0 0 0 8.17-2l-0.17 1.11a16.13 16.13 0 0 1-6.29 10.5l-3.21 2.41a2.31 2.31 0 0 0 1.39 4.16h23.13a2.31 2.31 0 0 0 1.38-4.16l-3.21-2.41a16.17 16.17 0 0 1-6.29-10.5l-0.17-1.11a14.66 14.66 0 0 0 7.27 2h0.9a14.77 14.77 0 0 0 12.25-7.92 15.14 15.14 0 0 0-2-17z" style="fill:url(#c)"/><path class="cls-14" d="m1438.2 125.77a0.8 0.8 0 0 0-1.16 0l-6.66 7.62a5.05 5.05 0 0 0-0.66 5.65 4.9 4.9 0 0 0 6.8 2v0.37a5.36 5.36 0 0 1-2.1 3.49l-1.07 0.8a0.79 0.79 0 0 0-0.27 0.86 0.77 0.77 0 0 0 0.73 0.53h7.71a0.78 0.78 0 0 0 0.73-0.52 0.78 0.78 0 0 0-0.27-0.87l-1.07-0.8a5.35 5.35 0 0 1-2.09-3.49l-0.06-0.37a4.93 4.93 0 0 0 2.42 0.66h0.3a4.91 4.91 0 0 0 4.08-2.64 5.05 5.05 0 0 0-0.65-5.65z" style="fill:url(#b)"/><path class="cls-15" d="m1527.5 290.75a0.8 0.8 0 0 1-1.16 0l-6.66-7.62a5.07 5.07 0 0 1-0.66-5.66 4.91 4.91 0 0 1 6.81-2l-0.06-0.37a5.41 5.41 0 0 0-2.09-3.5l-1.07-0.8a0.75 0.75 0 0 1-0.27-0.86 0.78 0.78 0 0 1 0.73-0.53h7.7a0.78 0.78 0 0 1 0.73 0.53 0.76 0.76 0 0 1-0.27 0.86l-1.07 0.8a5.41 5.41 0 0 0-2.09 3.5l-0.06 0.37a4.86 4.86 0 0 1 2.42-0.66h0.3a4.9 4.9 0 0 1 4.08 2.63 5.05 5.05 0 0 1-0.65 5.66z" style="fill:url(#j)"/></g></g></svg>
