<svg xmlns="http://www.w3.org/2000/svg" xmlns:xlink="http://www.w3.org/1999/xlink" viewBox="0 0 1806.49 352.54"><defs><style>.cls-1{isolation:isolate;}.cls-2{fill:url(#linear-gradient);}.cls-3{fill:url(#linear-gradient-2);}.cls-4{fill:url(#linear-gradient-3);}.cls-10,.cls-5{mix-blend-mode:screen;}.cls-6{fill:url(#linear-gradient-4);}.cls-7{fill:url(#linear-gradient-5);}.cls-8{fill:url(#linear-gradient-6);}.cls-9{fill:url(#linear-gradient-7);}.cls-10{fill:url(#linear-gradient-8);}.cls-11{fill:url(#linear-gradient-9);}.cls-12{fill:url(#linear-gradient-10);}.cls-13{fill:url(#linear-gradient-11);}.cls-14{fill:url(#linear-gradient-12);}.cls-15{fill:url(#linear-gradient-13);}.cls-16{fill:url(#linear-gradient-14);}.cls-17{fill:url(#linear-gradient-15);}.cls-18{fill:url(#linear-gradient-16);}</style><linearGradient id="linear-gradient" x1="389.45" y1="-110.72" x2="40.74" y2="213.85" gradientUnits="userSpaceOnUse"><stop offset="0" stop-color="#76746f"/><stop offset="0.06" stop-color="#7d7b75"/><stop offset="0.15" stop-color="#8f8e88"/><stop offset="0.26" stop-color="#aeada5"/><stop offset="0.33" stop-color="#c7c6bd"/><stop offset="0.52" stop-color="#e0ded9"/><stop offset="0.66" stop-color="#c7c6bd"/><stop offset="1" stop-color="#76746f"/></linearGradient><linearGradient id="linear-gradient-2" x1="494.22" y1="1.86" x2="145.52" y2="326.42" xlink:href="#linear-gradient"/><linearGradient id="linear-gradient-3" x1="368.71" y1="-132.99" x2="20.01" y2="191.57" xlink:href="#linear-gradient"/><linearGradient id="linear-gradient-4" x1="153.18" y1="109.19" x2="72.74" y2="184.07" xlink:href="#linear-gradient"/><linearGradient id="linear-gradient-5" x1="353.24" y1="133.08" x2="155.38" y2="317.24" xlink:href="#linear-gradient"/><linearGradient id="linear-gradient-6" x1="310.81" y1="-79.09" x2="87.86" y2="128.42" xlink:href="#linear-gradient"/><linearGradient id="linear-gradient-7" x1="273.75" y1="-24.83" x2="80.63" y2="206.51" gradientUnits="userSpaceOnUse"><stop offset="0" stop-color="#b27f2a"/><stop offset="0.06" stop-color="#b7862e"/><stop offset="0.14" stop-color="#c49939"/><stop offset="0.24" stop-color="#dab84c"/><stop offset="0.33" stop-color="#f4dd62"/><stop offset="0.52" stop-color="#f4e38b"/><stop offset="0.66" stop-color="#f4dd62"/><stop offset="1" stop-color="#b27f2a"/></linearGradient><linearGradient id="linear-gradient-8" x1="279.47" y1="-31.68" x2="66.34" y2="223.63" xlink:href="#linear-gradient-7"/><linearGradient id="linear-gradient-9" x1="381.3" y1="332.82" x2="580.15" y2="-82.06" xlink:href="#linear-gradient-7"/><linearGradient id="linear-gradient-10" x1="570.06" y1="298.57" x2="850.39" y2="-79.36" xlink:href="#linear-gradient-7"/><linearGradient id="linear-gradient-11" x1="670.76" y1="373.27" x2="951.09" y2="-4.67" xlink:href="#linear-gradient-7"/><linearGradient id="linear-gradient-12" x1="793.1" y1="464.02" x2="1073.44" y2="86.08" xlink:href="#linear-gradient-7"/><linearGradient id="linear-gradient-13" x1="1348.17" y1="380.22" x2="1146.61" y2="78.33" xlink:href="#linear-gradient-7"/><linearGradient id="linear-gradient-14" x1="1153.81" y1="392.82" x2="1861.91" y2="-385.88" xlink:href="#linear-gradient"/><linearGradient id="linear-gradient-15" x1="1241.95" y1="472.97" x2="1950.05" y2="-305.74" xlink:href="#linear-gradient"/><linearGradient id="linear-gradient-16" x1="1330.09" y1="553.12" x2="2038.19" y2="-225.59" xlink:href="#linear-gradient"/></defs><title>logo</title><g class="cls-1"><g id="Layer_1" data-name="Layer 1"><polygon class="cls-2" points="167.94 125.05 111.2 225.4 53.27 125.05 167.94 125.05"/><path class="cls-3" d="M269.61,125.05h76.16L221.93,339.62a25.9,25.9,0,0,1-44.82,0l-14.57-25.19Z"/><path class="cls-4" d="M396.71,36.53H2.33A25.85,25.85,0,0,1,25.87,0h347.3a25.85,25.85,0,0,1,23.54,36.53Z"/><g class="cls-5"><path class="cls-6" d="M164.49,127.06l-53.3,94.28L56.75,127.06H164.49m3.45-2H53.27L111.2,225.4l56.74-100.35Z"/><path class="cls-7" d="M342.28,127.06,220.19,338.61a23.88,23.88,0,0,1-41.34,0l-14-24.19L270.78,127.06h71.5m3.49-2H269.61L162.54,314.43l14.57,25.19a25.9,25.9,0,0,0,44.82,0L345.77,125.05Z"/><path class="cls-8" d="M373.17,2a23.84,23.84,0,0,1,22.21,32.51H3.66A23.84,23.84,0,0,1,25.87,2h347.3m0-2H25.87A25.85,25.85,0,0,0,2.33,36.53H396.71A25.85,25.85,0,0,0,373.17,0Z"/></g><path class="cls-9" d="M13.76,56.65c25.8,44.64,2.08,3.64,27.88,48.28H202.42l-79.55,140.7c19.36,33.51,13.92,24.09,28,48.57l107-189.27H357.4c25.54-44.19,2.57-4.48,27.88-48.28Z"/><path class="cls-10" d="M381.8,58.66c-10.93,18.92-11.53,20-12.11,21s-1.2,2.09-13.45,23.28H256.68l-.57,1L150.86,290.14l-3.5-6.09c-6.57-11.42-6.57-11.42-16.42-28.48l-5.75-9.95,79-139.7,1.7-3H42.8C30.47,81.58,30,80.69,29.45,79.79L17.24,58.66H381.8m3.48-2H13.76c25.8,44.64,2.08,3.64,27.88,48.28H202.42l-79.55,140.7c19.36,33.51,13.92,24.09,28,48.57l107-189.27H357.4c25.54-44.19,2.57-4.48,27.88-48.28Z"/><path class="cls-11" d="M462.16,267.94H414.33l48.35-148.8h-55.8L419,81.94H578.39l-12.09,37.2H510.5Z"/><path class="cls-12" d="M551.17,267.94H499.36l130.84-186h53.14l10,186H641.51l-1.17-33.21H573.92Zm45.93-67.76h42.51l-1-62.44Z"/><path class="cls-13" d="M868.69,267.94H820.86l24.61-75.73H779l-24.6,75.73H706.61L767,81.94h47.83L791.13,155h66.42L881.3,81.94h47.82Z"/><path class="cls-14" d="M1080.58,81.94h47.82l-44,135.51q-9.06,27.9-25.78,40.52T1014,270.6H952.85q-27.9,0-36.42-12.63t.55-40.52L961,81.94h47.83l-44,135.51q-5.17,15.95,10.77,16h39.85q15.95,0,21.13-16Z"/><path class="cls-15" d="M1261.94,267.94h-50.49l-27.51-111.6-36.26,111.6h-47.82l60.43-186h50.48l27.51,111.6,36.26-111.6h47.83Z"/><path class="cls-16" d="M1341,81.94h143.48l-12.08,37.2-109.46,148.8h-53.14l112.11-148.8h-93Z"/><path class="cls-17" d="M1502,81.94h143.48l-12.08,37.2-109.46,148.8h-53.15l112.12-148.8h-93Z"/><path class="cls-18" d="M1663,81.94h143.48l-12.08,37.2L1685,267.94H1631.8l112.12-148.8h-93Z"/></g></g></svg>